solid OpenSCAD_Model
  facet normal -1 0 0
    outer loop
      vertex -15 -3.33067e-015 0
      vertex -15 -20 4.44089e-015
      vertex -15 2.22045e-015 25
    endloop
  endfacet
  facet normal -1 0 0
    outer loop
      vertex -15 2.22045e-015 25
      vertex -15 -20 4.44089e-015
      vertex -15 -20 25
    endloop
  endfacet
  facet normal 0 -2.22045e-016 -1
    outer loop
      vertex 5 -11.8 2.62013e-015
      vertex 15 -3.33067e-015 0
      vertex 15 -20 4.44089e-015
    endloop
  endfacet
  facet normal 0 -2.22045e-016 -1
    outer loop
      vertex -15 -3.33067e-015 0
      vertex 15 -3.33067e-015 0
      vertex -5 -8 1.77636e-015
    endloop
  endfacet
  facet normal 0 -2.22045e-016 -1
    outer loop
      vertex -15 -3.33067e-015 0
      vertex -5 -8 1.77636e-015
      vertex -15 -20 4.44089e-015
    endloop
  endfacet
  facet normal 0 -2.22045e-016 -1
    outer loop
      vertex 5 -11.8 2.62013e-015
      vertex -15 -20 4.44089e-015
      vertex -5 -11.8 2.62013e-015
    endloop
  endfacet
  facet normal 0 -2.22045e-016 -1
    outer loop
      vertex -5 -8 1.77636e-015
      vertex -5 -11.8 2.62013e-015
      vertex -15 -20 4.44089e-015
    endloop
  endfacet
  facet normal 0 -2.22045e-016 -1
    outer loop
      vertex 5 -8 1.77636e-015
      vertex 15 -3.33067e-015 0
      vertex 5 -11.8 2.62013e-015
    endloop
  endfacet
  facet normal 0 -2.22045e-016 -1
    outer loop
      vertex -15 -20 4.44089e-015
      vertex 5 -11.8 2.62013e-015
      vertex 15 -20 4.44089e-015
    endloop
  endfacet
  facet normal 0 -2.22045e-016 -1
    outer loop
      vertex -5 -8 1.77636e-015
      vertex 15 -3.33067e-015 0
      vertex 5 -8 1.77636e-015
    endloop
  endfacet
  facet normal 0 1 -2.22045e-016
    outer loop
      vertex -0.5 -2.22045e-016 14
      vertex -15 2.22045e-015 25
      vertex 15 2.22045e-015 25
    endloop
  endfacet
  facet normal 0 1 -2.22045e-016
    outer loop
      vertex 0.5 -2.22045e-016 14
      vertex -0.5 -2.22045e-016 14
      vertex 15 2.22045e-015 25
    endloop
  endfacet
  facet normal 0 1 -2.22045e-016
    outer loop
      vertex -15 -3.33067e-015 0
      vertex -15 2.22045e-015 25
      vertex -0.5 -2.22045e-015 5
    endloop
  endfacet
  facet normal 0 1 -2.22045e-016
    outer loop
      vertex -15 -3.33067e-015 0
      vertex -0.5 -2.22045e-015 5
      vertex 15 -3.33067e-015 0
    endloop
  endfacet
  facet normal 0 1 -2.22045e-016
    outer loop
      vertex 0.5 -2.22045e-016 14
      vertex 15 -3.33067e-015 0
      vertex 0.5 -2.22045e-015 5
    endloop
  endfacet
  facet normal 0 1 -2.22045e-016
    outer loop
      vertex -0.5 -2.22045e-015 5
      vertex 0.5 -2.22045e-015 5
      vertex 15 -3.33067e-015 0
    endloop
  endfacet
  facet normal 0 1 -2.22045e-016
    outer loop
      vertex 15 -3.33067e-015 0
      vertex 0.5 -2.22045e-016 14
      vertex 15 2.22045e-015 25
    endloop
  endfacet
  facet normal 0 1 -2.22045e-016
    outer loop
      vertex -0.5 -2.22045e-015 5
      vertex -15 2.22045e-015 25
      vertex -0.5 -2.22045e-016 14
    endloop
  endfacet
  facet normal 0 2.22045e-016 1
    outer loop
      vertex -5 -11.8 25
      vertex -15 2.22045e-015 25
      vertex -15 -20 25
    endloop
  endfacet
  facet normal 0 2.22045e-016 1
    outer loop
      vertex -5 -8 25
      vertex 5 -8 25
      vertex 15 2.22045e-015 25
    endloop
  endfacet
  facet normal 0 2.22045e-016 1
    outer loop
      vertex -5 -8 25
      vertex -15 2.22045e-015 25
      vertex -5 -11.8 25
    endloop
  endfacet
  facet normal 0 2.22045e-016 1
    outer loop
      vertex 15 2.22045e-015 25
      vertex -15 2.22045e-015 25
      vertex -5 -8 25
    endloop
  endfacet
  facet normal 0 2.22045e-016 1
    outer loop
      vertex 15 -20 25
      vertex 15 2.22045e-015 25
      vertex 5 -8 25
    endloop
  endfacet
  facet normal 0 2.22045e-016 1
    outer loop
      vertex 15 -20 25
      vertex 5 -11.8 25
      vertex -15 -20 25
    endloop
  endfacet
  facet normal 0 2.22045e-016 1
    outer loop
      vertex 15 -20 25
      vertex 5 -8 25
      vertex 5 -11.8 25
    endloop
  endfacet
  facet normal 0 2.22045e-016 1
    outer loop
      vertex 5 -11.8 25
      vertex -5 -11.8 25
      vertex -15 -20 25
    endloop
  endfacet
  facet normal 0 -1 2.22045e-016
    outer loop
      vertex -0.5 -20 5
      vertex -15 -20 4.44089e-015
      vertex 15 -20 4.44089e-015
    endloop
  endfacet
  facet normal 0 -1 2.22045e-016
    outer loop
      vertex 0.5 -20 5
      vertex -0.5 -20 5
      vertex 15 -20 4.44089e-015
    endloop
  endfacet
  facet normal 0 -1 2.22045e-016
    outer loop
      vertex -15 -20 25
      vertex -15 -20 4.44089e-015
      vertex -0.5 -20 5
    endloop
  endfacet
  facet normal 0 -1 2.22045e-016
    outer loop
      vertex 15 -20 25
      vertex -15 -20 25
      vertex -0.5 -20 14
    endloop
  endfacet
  facet normal 0 -1 2.22045e-016
    outer loop
      vertex 15 -20 25
      vertex 0.5 -20 14
      vertex 15 -20 4.44089e-015
    endloop
  endfacet
  facet normal 0 -1 2.22045e-016
    outer loop
      vertex 15 -20 25
      vertex -0.5 -20 14
      vertex 0.5 -20 14
    endloop
  endfacet
  facet normal 0 -1 2.22045e-016
    outer loop
      vertex 0.5 -20 14
      vertex 0.5 -20 5
      vertex 15 -20 4.44089e-015
    endloop
  endfacet
  facet normal 0 -1 2.22045e-016
    outer loop
      vertex -0.5 -20 5
      vertex -0.5 -20 14
      vertex -15 -20 25
    endloop
  endfacet
  facet normal 1 0 0
    outer loop
      vertex 15 -20 4.44089e-015
      vertex 15 -3.33067e-015 0
      vertex 15 2.22045e-015 25
    endloop
  endfacet
  facet normal 1 0 0
    outer loop
      vertex 15 -20 25
      vertex 15 -20 4.44089e-015
      vertex 15 2.22045e-015 25
    endloop
  endfacet
  facet normal 1 0 0
    outer loop
      vertex -5 -8 25
      vertex -5 -11.8 25
      vertex -5 -11.8 2.62013e-015
    endloop
  endfacet
  facet normal 1 0 0
    outer loop
      vertex -5 -8 1.77636e-015
      vertex -5 -8 25
      vertex -5 -11.8 2.62013e-015
    endloop
  endfacet
  facet normal 0 -1 2.22045e-016
    outer loop
      vertex -0.5 -8 14
      vertex 5 -8 25
      vertex -5 -8 25
    endloop
  endfacet
  facet normal 0 -1 2.22045e-016
    outer loop
      vertex 0.5 -8 14
      vertex 0.5 -8 5
      vertex 5 -8 1.77636e-015
    endloop
  endfacet
  facet normal 0 -1 2.22045e-016
    outer loop
      vertex 0.5 -8 14
      vertex 5 -8 25
      vertex -0.5 -8 14
    endloop
  endfacet
  facet normal 0 -1 2.22045e-016
    outer loop
      vertex 5 -8 1.77636e-015
      vertex 5 -8 25
      vertex 0.5 -8 14
    endloop
  endfacet
  facet normal 0 -1 2.22045e-016
    outer loop
      vertex -5 -8 1.77636e-015
      vertex 5 -8 1.77636e-015
      vertex 0.5 -8 5
    endloop
  endfacet
  facet normal 0 -1 2.22045e-016
    outer loop
      vertex -5 -8 1.77636e-015
      vertex -0.5 -8 5
      vertex -5 -8 25
    endloop
  endfacet
  facet normal 0 -1 2.22045e-016
    outer loop
      vertex -5 -8 1.77636e-015
      vertex 0.5 -8 5
      vertex -0.5 -8 5
    endloop
  endfacet
  facet normal 0 -1 2.22045e-016
    outer loop
      vertex -0.5 -8 5
      vertex -0.5 -8 14
      vertex -5 -8 25
    endloop
  endfacet
  facet normal -1 0 0
    outer loop
      vertex 5 -11.8 25
      vertex 5 -8 25
      vertex 5 -11.8 2.62013e-015
    endloop
  endfacet
  facet normal -1 0 0
    outer loop
      vertex 5 -11.8 2.62013e-015
      vertex 5 -8 25
      vertex 5 -8 1.77636e-015
    endloop
  endfacet
  facet normal 0 1 -2.22045e-016
    outer loop
      vertex -0.5 -11.8 5
      vertex 5 -11.8 2.62013e-015
      vertex -5 -11.8 2.62013e-015
    endloop
  endfacet
  facet normal 0 1 -2.22045e-016
    outer loop
      vertex 0.5 -11.8 5
      vertex 5 -11.8 2.62013e-015
      vertex -0.5 -11.8 5
    endloop
  endfacet
  facet normal 0 1 -2.22045e-016
    outer loop
      vertex -5 -11.8 25
      vertex -0.5 -11.8 5
      vertex -5 -11.8 2.62013e-015
    endloop
  endfacet
  facet normal 0 1 -2.22045e-016
    outer loop
      vertex 0.5 -11.8 14
      vertex 5 -11.8 2.62013e-015
      vertex 0.5 -11.8 5
    endloop
  endfacet
  facet normal 0 1 -2.22045e-016
    outer loop
      vertex 5 -11.8 25
      vertex 5 -11.8 2.62013e-015
      vertex 0.5 -11.8 14
    endloop
  endfacet
  facet normal 0 1 -2.22045e-016
    outer loop
      vertex 5 -11.8 25
      vertex 0.5 -11.8 14
      vertex -5 -11.8 25
    endloop
  endfacet
  facet normal 0 1 -2.22045e-016
    outer loop
      vertex 0.5 -11.8 14
      vertex -0.5 -11.8 14
      vertex -5 -11.8 25
    endloop
  endfacet
  facet normal 0 1 -2.22045e-016
    outer loop
      vertex -0.5 -11.8 5
      vertex -5 -11.8 25
      vertex -0.5 -11.8 14
    endloop
  endfacet
  facet normal 1 0 0
    outer loop
      vertex -0.5 -2.22045e-016 14
      vertex -0.5 -8 14
      vertex -0.5 -8 5
    endloop
  endfacet
  facet normal 1 0 0
    outer loop
      vertex -0.5 -2.22045e-015 5
      vertex -0.5 -2.22045e-016 14
      vertex -0.5 -8 5
    endloop
  endfacet
  facet normal 0 -2.22045e-016 -1
    outer loop
      vertex 0.5 -8 14
      vertex -0.5 -8 14
      vertex 0.5 -2.22045e-016 14
    endloop
  endfacet
  facet normal 0 -2.22045e-016 -1
    outer loop
      vertex 0.5 -2.22045e-016 14
      vertex -0.5 -8 14
      vertex -0.5 -2.22045e-016 14
    endloop
  endfacet
  facet normal -1 0 0
    outer loop
      vertex 0.5 -8 14
      vertex 0.5 -2.22045e-016 14
      vertex 0.5 -8 5
    endloop
  endfacet
  facet normal -1 0 0
    outer loop
      vertex 0.5 -8 5
      vertex 0.5 -2.22045e-016 14
      vertex 0.5 -2.22045e-015 5
    endloop
  endfacet
  facet normal 0 2.22045e-016 1
    outer loop
      vertex -0.5 -8 5
      vertex 0.5 -8 5
      vertex 0.5 -2.22045e-015 5
    endloop
  endfacet
  facet normal 0 2.22045e-016 1
    outer loop
      vertex -0.5 -2.22045e-015 5
      vertex -0.5 -8 5
      vertex 0.5 -2.22045e-015 5
    endloop
  endfacet
  facet normal 1 0 0
    outer loop
      vertex -0.5 -11.8 14
      vertex -0.5 -20 14
      vertex -0.5 -20 5
    endloop
  endfacet
  facet normal 1 0 0
    outer loop
      vertex -0.5 -11.8 5
      vertex -0.5 -11.8 14
      vertex -0.5 -20 5
    endloop
  endfacet
  facet normal 0 2.22045e-016 1
    outer loop
      vertex -0.5 -20 5
      vertex 0.5 -20 5
      vertex 0.5 -11.8 5
    endloop
  endfacet
  facet normal 0 2.22045e-016 1
    outer loop
      vertex -0.5 -11.8 5
      vertex -0.5 -20 5
      vertex 0.5 -11.8 5
    endloop
  endfacet
  facet normal -1 0 0
    outer loop
      vertex 0.5 -20 14
      vertex 0.5 -11.8 14
      vertex 0.5 -20 5
    endloop
  endfacet
  facet normal -1 0 0
    outer loop
      vertex 0.5 -20 5
      vertex 0.5 -11.8 14
      vertex 0.5 -11.8 5
    endloop
  endfacet
  facet normal 0 -2.22045e-016 -1
    outer loop
      vertex 0.5 -20 14
      vertex -0.5 -20 14
      vertex 0.5 -11.8 14
    endloop
  endfacet
  facet normal 0 -2.22045e-016 -1
    outer loop
      vertex 0.5 -11.8 14
      vertex -0.5 -20 14
      vertex -0.5 -11.8 14
    endloop
  endfacet
endsolid OpenSCAD_Model
