solid OpenSCAD_Model
  facet normal -1 0 0
    outer loop
      vertex 0 6 6
      vertex 0 7.5 0
      vertex 0 2.3 6
    endloop
  endfacet
  facet normal -1 0 0
    outer loop
      vertex 0 2.3 15
      vertex 0 -7.5 18
      vertex 0 7.5 18
    endloop
  endfacet
  facet normal -1 0 0
    outer loop
      vertex 0 6 15
      vertex 0 2.3 15
      vertex 0 7.5 18
    endloop
  endfacet
  facet normal -1 0 0
    outer loop
      vertex 0 -7.5 0
      vertex 0 -7.5 18
      vertex 0 2.3 6
    endloop
  endfacet
  facet normal -1 0 0
    outer loop
      vertex 0 -7.5 0
      vertex 0 2.3 6
      vertex 0 7.5 0
    endloop
  endfacet
  facet normal -1 0 0
    outer loop
      vertex 0 7.5 0
      vertex 0 6 6
      vertex 0 7.5 18
    endloop
  endfacet
  facet normal -1 0 0
    outer loop
      vertex 0 6 6
      vertex 0 6 15
      vertex 0 7.5 18
    endloop
  endfacet
  facet normal -1 0 0
    outer loop
      vertex 0 2.3 6
      vertex 0 -7.5 18
      vertex 0 2.3 15
    endloop
  endfacet
  facet normal 0 -1 0
    outer loop
      vertex 5 -7.5 4
      vertex 0 -7.5 0
      vertex 32 -7.5 0
    endloop
  endfacet
  facet normal 0 -1 0
    outer loop
      vertex 5 -7.5 4
      vertex 5 -7.5 18
      vertex 0 -7.5 18
    endloop
  endfacet
  facet normal 0 -1 0
    outer loop
      vertex 0 -7.5 18
      vertex 0 -7.5 0
      vertex 5 -7.5 4
    endloop
  endfacet
  facet normal 0 -1 0
    outer loop
      vertex 32 -7.5 4
      vertex 5 -7.5 4
      vertex 32 -7.5 0
    endloop
  endfacet
  facet normal 0 0 -1
    outer loop
      vertex 28 -2 0
      vertex 32 -7.5 0
      vertex 8 -2 0
    endloop
  endfacet
  facet normal 0 0 -1
    outer loop
      vertex 28 2 0
      vertex 0 7.5 0
      vertex 32 7.5 0
    endloop
  endfacet
  facet normal 0 0 -1
    outer loop
      vertex 0 -7.5 0
      vertex 0 7.5 0
      vertex 8 2 0
    endloop
  endfacet
  facet normal 0 0 -1
    outer loop
      vertex 0 -7.5 0
      vertex 8 2 0
      vertex 8 -2 0
    endloop
  endfacet
  facet normal 0 0 -1
    outer loop
      vertex 0 -7.5 0
      vertex 8 -2 0
      vertex 32 -7.5 0
    endloop
  endfacet
  facet normal 0 0 -1
    outer loop
      vertex 32 -7.5 0
      vertex 28 -2 0
      vertex 32 7.5 0
    endloop
  endfacet
  facet normal 0 0 -1
    outer loop
      vertex 28 -2 0
      vertex 28 2 0
      vertex 32 7.5 0
    endloop
  endfacet
  facet normal 0 0 -1
    outer loop
      vertex 8 2 0
      vertex 0 7.5 0
      vertex 28 2 0
    endloop
  endfacet
  facet normal 0 1 0
    outer loop
      vertex 32 7.5 4
      vertex 32 7.5 0
      vertex 5 7.5 4
    endloop
  endfacet
  facet normal 0 1 0
    outer loop
      vertex 0 7.5 0
      vertex 0 7.5 18
      vertex 5 7.5 4
    endloop
  endfacet
  facet normal 0 1 0
    outer loop
      vertex 0 7.5 0
      vertex 5 7.5 4
      vertex 32 7.5 0
    endloop
  endfacet
  facet normal 0 1 0
    outer loop
      vertex 5 7.5 4
      vertex 0 7.5 18
      vertex 5 7.5 18
    endloop
  endfacet
  facet normal 0 0 1
    outer loop
      vertex 0 7.5 18
      vertex 0 -7.5 18
      vertex 5 -7.5 18
    endloop
  endfacet
  facet normal 0 0 1
    outer loop
      vertex 5 7.5 18
      vertex 0 7.5 18
      vertex 5 -7.5 18
    endloop
  endfacet
  facet normal 0 0 -1
    outer loop
      vertex 5 6 15
      vertex 5 2.3 15
      vertex 0 6 15
    endloop
  endfacet
  facet normal 0 0 -1
    outer loop
      vertex 0 6 15
      vertex 5 2.3 15
      vertex 0 2.3 15
    endloop
  endfacet
  facet normal 0 1 0
    outer loop
      vertex 5 2.3 15
      vertex 5 2.3 6
      vertex 0 2.3 15
    endloop
  endfacet
  facet normal 0 1 0
    outer loop
      vertex 0 2.3 15
      vertex 5 2.3 6
      vertex 0 2.3 6
    endloop
  endfacet
  facet normal 0 -1 0
    outer loop
      vertex 5 6 6
      vertex 5 6 15
      vertex 0 6 15
    endloop
  endfacet
  facet normal 0 -1 0
    outer loop
      vertex 0 6 6
      vertex 5 6 6
      vertex 0 6 15
    endloop
  endfacet
  facet normal 0 0 1
    outer loop
      vertex 5 2.3 6
      vertex 5 6 6
      vertex 0 6 6
    endloop
  endfacet
  facet normal 0 0 1
    outer loop
      vertex 0 2.3 6
      vertex 5 2.3 6
      vertex 0 6 6
    endloop
  endfacet
  facet normal 1 0 0
    outer loop
      vertex 5 2.3 6
      vertex 5 -7.5 4
      vertex 5 7.5 4
    endloop
  endfacet
  facet normal 1 0 0
    outer loop
      vertex 5 2.3 6
      vertex 5 2.3 15
      vertex 5 -7.5 18
    endloop
  endfacet
  facet normal 1 0 0
    outer loop
      vertex 5 -7.5 18
      vertex 5 -7.5 4
      vertex 5 2.3 6
    endloop
  endfacet
  facet normal 1 0 0
    outer loop
      vertex 5 7.5 18
      vertex 5 -7.5 18
      vertex 5 2.3 15
    endloop
  endfacet
  facet normal 1 0 0
    outer loop
      vertex 5 7.5 18
      vertex 5 6 15
      vertex 5 7.5 4
    endloop
  endfacet
  facet normal 1 0 0
    outer loop
      vertex 5 7.5 18
      vertex 5 2.3 15
      vertex 5 6 15
    endloop
  endfacet
  facet normal 1 0 0
    outer loop
      vertex 5 6 15
      vertex 5 6 6
      vertex 5 7.5 4
    endloop
  endfacet
  facet normal 1 0 0
    outer loop
      vertex 5 6 6
      vertex 5 2.3 6
      vertex 5 7.5 4
    endloop
  endfacet
  facet normal 0 0 1
    outer loop
      vertex 8 -2 4
      vertex 5 -7.5 4
      vertex 32 -7.5 4
    endloop
  endfacet
  facet normal 0 0 1
    outer loop
      vertex 5 7.5 4
      vertex 5 -7.5 4
      vertex 8 -2 4
    endloop
  endfacet
  facet normal 0 0 1
    outer loop
      vertex 8 2 4
      vertex 28 2 4
      vertex 5 7.5 4
    endloop
  endfacet
  facet normal 0 0 1
    outer loop
      vertex 5 7.5 4
      vertex 8 -2 4
      vertex 8 2 4
    endloop
  endfacet
  facet normal 0 0 1
    outer loop
      vertex 32 7.5 4
      vertex 28 2 4
      vertex 32 -7.5 4
    endloop
  endfacet
  facet normal 0 0 1
    outer loop
      vertex 32 7.5 4
      vertex 5 7.5 4
      vertex 28 2 4
    endloop
  endfacet
  facet normal 0 0 1
    outer loop
      vertex 28 2 4
      vertex 28 -2 4
      vertex 32 -7.5 4
    endloop
  endfacet
  facet normal 0 0 1
    outer loop
      vertex 28 -2 4
      vertex 8 -2 4
      vertex 32 -7.5 4
    endloop
  endfacet
  facet normal 1 0 0
    outer loop
      vertex 32 -7.5 4
      vertex 32 -7.5 0
      vertex 32 7.5 0
    endloop
  endfacet
  facet normal 1 0 0
    outer loop
      vertex 32 7.5 4
      vertex 32 -7.5 4
      vertex 32 7.5 0
    endloop
  endfacet
  facet normal 1 0 0
    outer loop
      vertex 8 2 0
      vertex 8 2 4
      vertex 8 -2 4
    endloop
  endfacet
  facet normal 1 0 0
    outer loop
      vertex 8 -2 0
      vertex 8 2 0
      vertex 8 -2 4
    endloop
  endfacet
  facet normal 0 -1 0
    outer loop
      vertex 28 2 0
      vertex 28 2 4
      vertex 8 2 4
    endloop
  endfacet
  facet normal 0 -1 0
    outer loop
      vertex 8 2 0
      vertex 28 2 0
      vertex 8 2 4
    endloop
  endfacet
  facet normal -1 0 0
    outer loop
      vertex 28 2 4
      vertex 28 2 0
      vertex 28 -2 4
    endloop
  endfacet
  facet normal -1 0 0
    outer loop
      vertex 28 -2 4
      vertex 28 2 0
      vertex 28 -2 0
    endloop
  endfacet
  facet normal 0 1 0
    outer loop
      vertex 28 -2 4
      vertex 28 -2 0
      vertex 8 -2 4
    endloop
  endfacet
  facet normal 0 1 0
    outer loop
      vertex 8 -2 4
      vertex 28 -2 0
      vertex 8 -2 0
    endloop
  endfacet
  facet normal -1 0 0
    outer loop
      vertex 0 23 6
      vertex 0 24.5 0
      vertex 0 19.3 6
    endloop
  endfacet
  facet normal -1 0 0
    outer loop
      vertex 0 19.3 15
      vertex 0 9.5 18
      vertex 0 24.5 18
    endloop
  endfacet
  facet normal -1 0 0
    outer loop
      vertex 0 23 15
      vertex 0 19.3 15
      vertex 0 24.5 18
    endloop
  endfacet
  facet normal -1 0 0
    outer loop
      vertex 0 9.5 0
      vertex 0 9.5 18
      vertex 0 19.3 6
    endloop
  endfacet
  facet normal -1 0 0
    outer loop
      vertex 0 9.5 0
      vertex 0 19.3 6
      vertex 0 24.5 0
    endloop
  endfacet
  facet normal -1 0 0
    outer loop
      vertex 0 24.5 0
      vertex 0 23 6
      vertex 0 24.5 18
    endloop
  endfacet
  facet normal -1 0 0
    outer loop
      vertex 0 23 6
      vertex 0 23 15
      vertex 0 24.5 18
    endloop
  endfacet
  facet normal -1 0 0
    outer loop
      vertex 0 19.3 6
      vertex 0 9.5 18
      vertex 0 19.3 15
    endloop
  endfacet
  facet normal 0 -1 0
    outer loop
      vertex 5 9.5 4
      vertex 0 9.5 0
      vertex 32 9.5 0
    endloop
  endfacet
  facet normal 0 -1 0
    outer loop
      vertex 5 9.5 4
      vertex 5 9.5 18
      vertex 0 9.5 18
    endloop
  endfacet
  facet normal 0 -1 0
    outer loop
      vertex 0 9.5 18
      vertex 0 9.5 0
      vertex 5 9.5 4
    endloop
  endfacet
  facet normal 0 -1 0
    outer loop
      vertex 32 9.5 4
      vertex 5 9.5 4
      vertex 32 9.5 0
    endloop
  endfacet
  facet normal 0 0 -1
    outer loop
      vertex 28 15 0
      vertex 32 9.5 0
      vertex 8 15 0
    endloop
  endfacet
  facet normal 0 0 -1
    outer loop
      vertex 28 19 0
      vertex 0 24.5 0
      vertex 32 24.5 0
    endloop
  endfacet
  facet normal 0 0 -1
    outer loop
      vertex 0 9.5 0
      vertex 0 24.5 0
      vertex 8 19 0
    endloop
  endfacet
  facet normal 0 0 -1
    outer loop
      vertex 0 9.5 0
      vertex 8 19 0
      vertex 8 15 0
    endloop
  endfacet
  facet normal 0 0 -1
    outer loop
      vertex 0 9.5 0
      vertex 8 15 0
      vertex 32 9.5 0
    endloop
  endfacet
  facet normal 0 0 -1
    outer loop
      vertex 32 9.5 0
      vertex 28 15 0
      vertex 32 24.5 0
    endloop
  endfacet
  facet normal 0 0 -1
    outer loop
      vertex 28 15 0
      vertex 28 19 0
      vertex 32 24.5 0
    endloop
  endfacet
  facet normal 0 0 -1
    outer loop
      vertex 8 19 0
      vertex 0 24.5 0
      vertex 28 19 0
    endloop
  endfacet
  facet normal 0 1 0
    outer loop
      vertex 32 24.5 4
      vertex 32 24.5 0
      vertex 5 24.5 4
    endloop
  endfacet
  facet normal 0 1 0
    outer loop
      vertex 0 24.5 0
      vertex 0 24.5 18
      vertex 5 24.5 4
    endloop
  endfacet
  facet normal 0 1 0
    outer loop
      vertex 0 24.5 0
      vertex 5 24.5 4
      vertex 32 24.5 0
    endloop
  endfacet
  facet normal 0 1 0
    outer loop
      vertex 5 24.5 4
      vertex 0 24.5 18
      vertex 5 24.5 18
    endloop
  endfacet
  facet normal 0 0 1
    outer loop
      vertex 0 24.5 18
      vertex 0 9.5 18
      vertex 5 9.5 18
    endloop
  endfacet
  facet normal 0 0 1
    outer loop
      vertex 5 24.5 18
      vertex 0 24.5 18
      vertex 5 9.5 18
    endloop
  endfacet
  facet normal 0 0 -1
    outer loop
      vertex 5 23 15
      vertex 5 19.3 15
      vertex 0 23 15
    endloop
  endfacet
  facet normal 0 0 -1
    outer loop
      vertex 0 23 15
      vertex 5 19.3 15
      vertex 0 19.3 15
    endloop
  endfacet
  facet normal 0 1 0
    outer loop
      vertex 5 19.3 15
      vertex 5 19.3 6
      vertex 0 19.3 15
    endloop
  endfacet
  facet normal 0 1 0
    outer loop
      vertex 0 19.3 15
      vertex 5 19.3 6
      vertex 0 19.3 6
    endloop
  endfacet
  facet normal 0 -1 0
    outer loop
      vertex 5 23 6
      vertex 5 23 15
      vertex 0 23 15
    endloop
  endfacet
  facet normal 0 -1 0
    outer loop
      vertex 0 23 6
      vertex 5 23 6
      vertex 0 23 15
    endloop
  endfacet
  facet normal 0 0 1
    outer loop
      vertex 5 19.3 6
      vertex 5 23 6
      vertex 0 23 6
    endloop
  endfacet
  facet normal 0 0 1
    outer loop
      vertex 0 19.3 6
      vertex 5 19.3 6
      vertex 0 23 6
    endloop
  endfacet
  facet normal 1 0 0
    outer loop
      vertex 5 19.3 6
      vertex 5 9.5 4
      vertex 5 24.5 4
    endloop
  endfacet
  facet normal 1 0 0
    outer loop
      vertex 5 19.3 6
      vertex 5 19.3 15
      vertex 5 9.5 18
    endloop
  endfacet
  facet normal 1 0 0
    outer loop
      vertex 5 9.5 18
      vertex 5 9.5 4
      vertex 5 19.3 6
    endloop
  endfacet
  facet normal 1 0 0
    outer loop
      vertex 5 24.5 18
      vertex 5 9.5 18
      vertex 5 19.3 15
    endloop
  endfacet
  facet normal 1 0 0
    outer loop
      vertex 5 24.5 18
      vertex 5 23 15
      vertex 5 24.5 4
    endloop
  endfacet
  facet normal 1 0 0
    outer loop
      vertex 5 24.5 18
      vertex 5 19.3 15
      vertex 5 23 15
    endloop
  endfacet
  facet normal 1 0 0
    outer loop
      vertex 5 23 15
      vertex 5 23 6
      vertex 5 24.5 4
    endloop
  endfacet
  facet normal 1 0 0
    outer loop
      vertex 5 23 6
      vertex 5 19.3 6
      vertex 5 24.5 4
    endloop
  endfacet
  facet normal 0 0 1
    outer loop
      vertex 8 15 4
      vertex 5 9.5 4
      vertex 32 9.5 4
    endloop
  endfacet
  facet normal 0 0 1
    outer loop
      vertex 5 24.5 4
      vertex 5 9.5 4
      vertex 8 15 4
    endloop
  endfacet
  facet normal 0 0 1
    outer loop
      vertex 8 19 4
      vertex 28 19 4
      vertex 5 24.5 4
    endloop
  endfacet
  facet normal 0 0 1
    outer loop
      vertex 5 24.5 4
      vertex 8 15 4
      vertex 8 19 4
    endloop
  endfacet
  facet normal 0 0 1
    outer loop
      vertex 32 24.5 4
      vertex 28 19 4
      vertex 32 9.5 4
    endloop
  endfacet
  facet normal 0 0 1
    outer loop
      vertex 32 24.5 4
      vertex 5 24.5 4
      vertex 28 19 4
    endloop
  endfacet
  facet normal 0 0 1
    outer loop
      vertex 28 19 4
      vertex 28 15 4
      vertex 32 9.5 4
    endloop
  endfacet
  facet normal 0 0 1
    outer loop
      vertex 28 15 4
      vertex 8 15 4
      vertex 32 9.5 4
    endloop
  endfacet
  facet normal 1 0 0
    outer loop
      vertex 32 9.5 4
      vertex 32 9.5 0
      vertex 32 24.5 0
    endloop
  endfacet
  facet normal 1 0 0
    outer loop
      vertex 32 24.5 4
      vertex 32 9.5 4
      vertex 32 24.5 0
    endloop
  endfacet
  facet normal 1 0 0
    outer loop
      vertex 8 19 0
      vertex 8 19 4
      vertex 8 15 4
    endloop
  endfacet
  facet normal 1 0 0
    outer loop
      vertex 8 15 0
      vertex 8 19 0
      vertex 8 15 4
    endloop
  endfacet
  facet normal 0 -1 0
    outer loop
      vertex 28 19 0
      vertex 28 19 4
      vertex 8 19 4
    endloop
  endfacet
  facet normal 0 -1 0
    outer loop
      vertex 8 19 0
      vertex 28 19 0
      vertex 8 19 4
    endloop
  endfacet
  facet normal -1 0 0
    outer loop
      vertex 28 19 4
      vertex 28 19 0
      vertex 28 15 4
    endloop
  endfacet
  facet normal -1 0 0
    outer loop
      vertex 28 15 4
      vertex 28 19 0
      vertex 28 15 0
    endloop
  endfacet
  facet normal 0 1 0
    outer loop
      vertex 28 15 4
      vertex 28 15 0
      vertex 8 15 4
    endloop
  endfacet
  facet normal 0 1 0
    outer loop
      vertex 8 15 4
      vertex 28 15 0
      vertex 8 15 0
    endloop
  endfacet
  facet normal -1 0 0
    outer loop
      vertex 0 -11 6
      vertex 0 -9.5 0
      vertex 0 -14.7 6
    endloop
  endfacet
  facet normal -1 0 0
    outer loop
      vertex 0 -14.7 15
      vertex 0 -24.5 18
      vertex 0 -9.5 18
    endloop
  endfacet
  facet normal -1 0 0
    outer loop
      vertex 0 -11 15
      vertex 0 -14.7 15
      vertex 0 -9.5 18
    endloop
  endfacet
  facet normal -1 0 0
    outer loop
      vertex 0 -24.5 0
      vertex 0 -24.5 18
      vertex 0 -14.7 6
    endloop
  endfacet
  facet normal -1 0 0
    outer loop
      vertex 0 -24.5 0
      vertex 0 -14.7 6
      vertex 0 -9.5 0
    endloop
  endfacet
  facet normal -1 0 0
    outer loop
      vertex 0 -9.5 0
      vertex 0 -11 6
      vertex 0 -9.5 18
    endloop
  endfacet
  facet normal -1 0 0
    outer loop
      vertex 0 -11 6
      vertex 0 -11 15
      vertex 0 -9.5 18
    endloop
  endfacet
  facet normal -1 0 0
    outer loop
      vertex 0 -14.7 6
      vertex 0 -24.5 18
      vertex 0 -14.7 15
    endloop
  endfacet
  facet normal 0 -1 0
    outer loop
      vertex 5 -24.5 4
      vertex 0 -24.5 0
      vertex 32 -24.5 0
    endloop
  endfacet
  facet normal 0 -1 0
    outer loop
      vertex 5 -24.5 4
      vertex 5 -24.5 18
      vertex 0 -24.5 18
    endloop
  endfacet
  facet normal 0 -1 0
    outer loop
      vertex 0 -24.5 18
      vertex 0 -24.5 0
      vertex 5 -24.5 4
    endloop
  endfacet
  facet normal 0 -1 0
    outer loop
      vertex 32 -24.5 4
      vertex 5 -24.5 4
      vertex 32 -24.5 0
    endloop
  endfacet
  facet normal 0 0 -1
    outer loop
      vertex 28 -19 0
      vertex 32 -24.5 0
      vertex 8 -19 0
    endloop
  endfacet
  facet normal 0 0 -1
    outer loop
      vertex 28 -15 0
      vertex 0 -9.5 0
      vertex 32 -9.5 0
    endloop
  endfacet
  facet normal 0 0 -1
    outer loop
      vertex 0 -24.5 0
      vertex 0 -9.5 0
      vertex 8 -15 0
    endloop
  endfacet
  facet normal 0 0 -1
    outer loop
      vertex 0 -24.5 0
      vertex 8 -15 0
      vertex 8 -19 0
    endloop
  endfacet
  facet normal 0 0 -1
    outer loop
      vertex 0 -24.5 0
      vertex 8 -19 0
      vertex 32 -24.5 0
    endloop
  endfacet
  facet normal 0 0 -1
    outer loop
      vertex 32 -24.5 0
      vertex 28 -19 0
      vertex 32 -9.5 0
    endloop
  endfacet
  facet normal 0 0 -1
    outer loop
      vertex 28 -19 0
      vertex 28 -15 0
      vertex 32 -9.5 0
    endloop
  endfacet
  facet normal 0 0 -1
    outer loop
      vertex 8 -15 0
      vertex 0 -9.5 0
      vertex 28 -15 0
    endloop
  endfacet
  facet normal 0 1 0
    outer loop
      vertex 32 -9.5 4
      vertex 32 -9.5 0
      vertex 5 -9.5 4
    endloop
  endfacet
  facet normal 0 1 0
    outer loop
      vertex 0 -9.5 0
      vertex 0 -9.5 18
      vertex 5 -9.5 4
    endloop
  endfacet
  facet normal 0 1 0
    outer loop
      vertex 0 -9.5 0
      vertex 5 -9.5 4
      vertex 32 -9.5 0
    endloop
  endfacet
  facet normal 0 1 0
    outer loop
      vertex 5 -9.5 4
      vertex 0 -9.5 18
      vertex 5 -9.5 18
    endloop
  endfacet
  facet normal 0 0 1
    outer loop
      vertex 0 -9.5 18
      vertex 0 -24.5 18
      vertex 5 -24.5 18
    endloop
  endfacet
  facet normal 0 0 1
    outer loop
      vertex 5 -9.5 18
      vertex 0 -9.5 18
      vertex 5 -24.5 18
    endloop
  endfacet
  facet normal 0 0 -1
    outer loop
      vertex 5 -11 15
      vertex 5 -14.7 15
      vertex 0 -11 15
    endloop
  endfacet
  facet normal 0 0 -1
    outer loop
      vertex 0 -11 15
      vertex 5 -14.7 15
      vertex 0 -14.7 15
    endloop
  endfacet
  facet normal 0 1 0
    outer loop
      vertex 5 -14.7 15
      vertex 5 -14.7 6
      vertex 0 -14.7 15
    endloop
  endfacet
  facet normal 0 1 0
    outer loop
      vertex 0 -14.7 15
      vertex 5 -14.7 6
      vertex 0 -14.7 6
    endloop
  endfacet
  facet normal 0 -1 0
    outer loop
      vertex 5 -11 6
      vertex 5 -11 15
      vertex 0 -11 15
    endloop
  endfacet
  facet normal 0 -1 0
    outer loop
      vertex 0 -11 6
      vertex 5 -11 6
      vertex 0 -11 15
    endloop
  endfacet
  facet normal 0 0 1
    outer loop
      vertex 5 -14.7 6
      vertex 5 -11 6
      vertex 0 -11 6
    endloop
  endfacet
  facet normal 0 0 1
    outer loop
      vertex 0 -14.7 6
      vertex 5 -14.7 6
      vertex 0 -11 6
    endloop
  endfacet
  facet normal 1 0 0
    outer loop
      vertex 5 -14.7 6
      vertex 5 -24.5 4
      vertex 5 -9.5 4
    endloop
  endfacet
  facet normal 1 0 0
    outer loop
      vertex 5 -14.7 6
      vertex 5 -14.7 15
      vertex 5 -24.5 18
    endloop
  endfacet
  facet normal 1 0 0
    outer loop
      vertex 5 -24.5 18
      vertex 5 -24.5 4
      vertex 5 -14.7 6
    endloop
  endfacet
  facet normal 1 0 0
    outer loop
      vertex 5 -9.5 18
      vertex 5 -24.5 18
      vertex 5 -14.7 15
    endloop
  endfacet
  facet normal 1 0 0
    outer loop
      vertex 5 -9.5 18
      vertex 5 -11 15
      vertex 5 -9.5 4
    endloop
  endfacet
  facet normal 1 0 0
    outer loop
      vertex 5 -9.5 18
      vertex 5 -14.7 15
      vertex 5 -11 15
    endloop
  endfacet
  facet normal 1 0 0
    outer loop
      vertex 5 -11 15
      vertex 5 -11 6
      vertex 5 -9.5 4
    endloop
  endfacet
  facet normal 1 0 0
    outer loop
      vertex 5 -11 6
      vertex 5 -14.7 6
      vertex 5 -9.5 4
    endloop
  endfacet
  facet normal 0 0 1
    outer loop
      vertex 8 -19 4
      vertex 5 -24.5 4
      vertex 32 -24.5 4
    endloop
  endfacet
  facet normal 0 0 1
    outer loop
      vertex 5 -9.5 4
      vertex 5 -24.5 4
      vertex 8 -19 4
    endloop
  endfacet
  facet normal 0 0 1
    outer loop
      vertex 8 -15 4
      vertex 28 -15 4
      vertex 5 -9.5 4
    endloop
  endfacet
  facet normal 0 0 1
    outer loop
      vertex 5 -9.5 4
      vertex 8 -19 4
      vertex 8 -15 4
    endloop
  endfacet
  facet normal 0 0 1
    outer loop
      vertex 32 -9.5 4
      vertex 28 -15 4
      vertex 32 -24.5 4
    endloop
  endfacet
  facet normal 0 0 1
    outer loop
      vertex 32 -9.5 4
      vertex 5 -9.5 4
      vertex 28 -15 4
    endloop
  endfacet
  facet normal 0 0 1
    outer loop
      vertex 28 -15 4
      vertex 28 -19 4
      vertex 32 -24.5 4
    endloop
  endfacet
  facet normal 0 0 1
    outer loop
      vertex 28 -19 4
      vertex 8 -19 4
      vertex 32 -24.5 4
    endloop
  endfacet
  facet normal 1 0 0
    outer loop
      vertex 32 -24.5 4
      vertex 32 -24.5 0
      vertex 32 -9.5 0
    endloop
  endfacet
  facet normal 1 0 0
    outer loop
      vertex 32 -9.5 4
      vertex 32 -24.5 4
      vertex 32 -9.5 0
    endloop
  endfacet
  facet normal 1 0 0
    outer loop
      vertex 8 -15 0
      vertex 8 -15 4
      vertex 8 -19 4
    endloop
  endfacet
  facet normal 1 0 0
    outer loop
      vertex 8 -19 0
      vertex 8 -15 0
      vertex 8 -19 4
    endloop
  endfacet
  facet normal 0 -1 0
    outer loop
      vertex 28 -15 0
      vertex 28 -15 4
      vertex 8 -15 4
    endloop
  endfacet
  facet normal 0 -1 0
    outer loop
      vertex 8 -15 0
      vertex 28 -15 0
      vertex 8 -15 4
    endloop
  endfacet
  facet normal -1 0 0
    outer loop
      vertex 28 -15 4
      vertex 28 -15 0
      vertex 28 -19 4
    endloop
  endfacet
  facet normal -1 0 0
    outer loop
      vertex 28 -19 4
      vertex 28 -15 0
      vertex 28 -19 0
    endloop
  endfacet
  facet normal 0 1 0
    outer loop
      vertex 28 -19 4
      vertex 28 -19 0
      vertex 8 -19 4
    endloop
  endfacet
  facet normal 0 1 0
    outer loop
      vertex 8 -19 4
      vertex 28 -19 0
      vertex 8 -19 0
    endloop
  endfacet
endsolid OpenSCAD_Model
