solid OpenSCAD_Model
  facet normal 0 0 -1
    outer loop
      vertex -15 0 0
      vertex -14.8817 1.88 0
      vertex -14.8817 -1.88 0
    endloop
  endfacet
  facet normal 0 0 -1
    outer loop
      vertex -14.8817 -1.88 0
      vertex -14.8817 1.88 0
      vertex -14.5287 3.73035 0
    endloop
  endfacet
  facet normal 0 0 -1
    outer loop
      vertex -14.8817 -1.88 0
      vertex -14.5287 3.73035 0
      vertex -13.9466 5.52187 0
    endloop
  endfacet
  facet normal 0 0 -1
    outer loop
      vertex -14.8817 -1.88 0
      vertex -13.9466 5.52187 0
      vertex -13.1446 7.2263 0
    endloop
  endfacet
  facet normal 0 0 -1
    outer loop
      vertex -14.8817 -1.88 0
      vertex -13.1446 7.2263 0
      vertex -12.1353 8.81678 0
    endloop
  endfacet
  facet normal 0 0 -1
    outer loop
      vertex -14.8817 -1.88 0
      vertex -12.1353 8.81678 0
      vertex -10.9345 10.2682 0
    endloop
  endfacet
  facet normal 0 0 -1
    outer loop
      vertex -14.8817 -1.88 0
      vertex -10.9345 10.2682 0
      vertex -9.56136 11.5577 0
    endloop
  endfacet
  facet normal 0 0 -1
    outer loop
      vertex -14.8817 -1.88 0
      vertex -9.56136 11.5577 0
      vertex -8.0374 12.6649 0
    endloop
  endfacet
  facet normal 0 0 -1
    outer loop
      vertex -14.8817 -1.88 0
      vertex -8.0374 12.6649 0
      vertex -6.38669 13.5724 0
    endloop
  endfacet
  facet normal 0 0 -1
    outer loop
      vertex -14.8817 -1.88 0
      vertex -6.38669 13.5724 0
      vertex -4.63525 14.2658 0
    endloop
  endfacet
  facet normal 0 0 -1
    outer loop
      vertex -14.8817 -1.88 0
      vertex -4.63525 14.2658 0
      vertex -2.81072 14.7343 0
    endloop
  endfacet
  facet normal 0 0 -1
    outer loop
      vertex -14.8817 -1.88 0
      vertex -2.81072 14.7343 0
      vertex -0.941858 14.9704 0
    endloop
  endfacet
  facet normal 0 0 -1
    outer loop
      vertex -14.8817 -1.88 0
      vertex -0.941858 14.9704 0
      vertex 0.941858 14.9704 0
    endloop
  endfacet
  facet normal 0 0 -1
    outer loop
      vertex -14.8817 -1.88 0
      vertex 0.941858 14.9704 0
      vertex 2.81072 14.7343 0
    endloop
  endfacet
  facet normal 0 0 -1
    outer loop
      vertex -14.8817 -1.88 0
      vertex 2.81072 14.7343 0
      vertex 4.63525 14.2658 0
    endloop
  endfacet
  facet normal 0 0 -1
    outer loop
      vertex -14.8817 -1.88 0
      vertex 4.63525 14.2658 0
      vertex 6.38669 13.5724 0
    endloop
  endfacet
  facet normal 0 0 -1
    outer loop
      vertex -14.8817 -1.88 0
      vertex 6.38669 13.5724 0
      vertex 8.0374 12.6649 0
    endloop
  endfacet
  facet normal 0 0 -1
    outer loop
      vertex -14.8817 -1.88 0
      vertex 8.0374 12.6649 0
      vertex 9.56136 11.5577 0
    endloop
  endfacet
  facet normal 0 0 -1
    outer loop
      vertex -14.8817 -1.88 0
      vertex 9.56136 11.5577 0
      vertex 10.9345 10.2682 0
    endloop
  endfacet
  facet normal 0 0 -1
    outer loop
      vertex -14.8817 -1.88 0
      vertex 10.9345 10.2682 0
      vertex 12.1353 8.81678 0
    endloop
  endfacet
  facet normal 0 0 -1
    outer loop
      vertex 0.608989 3.19243 0
      vertex 12.1353 8.81678 0
      vertex 13.1446 7.2263 0
    endloop
  endfacet
  facet normal 0 0 -1
    outer loop
      vertex 2.07163 2.50417 0
      vertex 13.1446 7.2263 0
      vertex 13.9466 5.52187 0
    endloop
  endfacet
  facet normal 0 0 -1
    outer loop
      vertex 2.848 1.5657 0
      vertex 13.9466 5.52187 0
      vertex 14.5287 3.73035 0
    endloop
  endfacet
  facet normal 0 0 -1
    outer loop
      vertex 3.14789 0.808242 0
      vertex 14.5287 3.73035 0
      vertex 14.8817 1.88 0
    endloop
  endfacet
  facet normal 0 0 -1
    outer loop
      vertex 3.22437 -0.407333 0
      vertex 14.8817 1.88 0
      vertex 15 0 0
    endloop
  endfacet
  facet normal 0 0 -1
    outer loop
      vertex 3.02177 -1.1964 0
      vertex 15 0 0
      vertex 14.8817 -1.88 0
    endloop
  endfacet
  facet normal 0 0 -1
    outer loop
      vertex 2.5551 -2 0
      vertex 14.8817 -1.88 0
      vertex 14.5287 -3.73035 0
    endloop
  endfacet
  facet normal 0 0 -1
    outer loop
      vertex -14.8817 -1.88 0
      vertex 14.5287 -3.73035 0
      vertex 13.9466 -5.52187 0
    endloop
  endfacet
  facet normal 0 0 -1
    outer loop
      vertex -14.8817 -1.88 0
      vertex 13.9466 -5.52187 0
      vertex 13.1446 -7.2263 0
    endloop
  endfacet
  facet normal 0 0 -1
    outer loop
      vertex -14.8817 -1.88 0
      vertex 13.1446 -7.2263 0
      vertex 12.1353 -8.81678 0
    endloop
  endfacet
  facet normal 0 0 -1
    outer loop
      vertex -14.8817 -1.88 0
      vertex 12.1353 -8.81678 0
      vertex 10.9345 -10.2682 0
    endloop
  endfacet
  facet normal 0 0 -1
    outer loop
      vertex -14.8817 -1.88 0
      vertex 10.9345 -10.2682 0
      vertex 9.56136 -11.5577 0
    endloop
  endfacet
  facet normal 0 0 -1
    outer loop
      vertex -14.8817 -1.88 0
      vertex 9.56136 -11.5577 0
      vertex 8.0374 -12.6649 0
    endloop
  endfacet
  facet normal 0 0 -1
    outer loop
      vertex -14.8817 -1.88 0
      vertex 8.0374 -12.6649 0
      vertex 6.38669 -13.5724 0
    endloop
  endfacet
  facet normal 0 0 -1
    outer loop
      vertex -14.8817 -1.88 0
      vertex 6.38669 -13.5724 0
      vertex 4.63525 -14.2658 0
    endloop
  endfacet
  facet normal 0 0 -1
    outer loop
      vertex -14.8817 -1.88 0
      vertex 4.63525 -14.2658 0
      vertex 2.81072 -14.7343 0
    endloop
  endfacet
  facet normal 0 0 -1
    outer loop
      vertex -14.8817 -1.88 0
      vertex 2.81072 -14.7343 0
      vertex 0.941858 -14.9704 0
    endloop
  endfacet
  facet normal 0 0 -1
    outer loop
      vertex -14.8817 -1.88 0
      vertex 0.941858 -14.9704 0
      vertex -0.941858 -14.9704 0
    endloop
  endfacet
  facet normal 0 0 -1
    outer loop
      vertex -14.8817 -1.88 0
      vertex -0.941858 -14.9704 0
      vertex -2.81072 -14.7343 0
    endloop
  endfacet
  facet normal 0 0 -1
    outer loop
      vertex -14.8817 -1.88 0
      vertex -2.81072 -14.7343 0
      vertex -4.63525 -14.2658 0
    endloop
  endfacet
  facet normal 0 0 -1
    outer loop
      vertex -14.8817 -1.88 0
      vertex -4.63525 -14.2658 0
      vertex -6.38669 -13.5724 0
    endloop
  endfacet
  facet normal 0 0 -1
    outer loop
      vertex -14.8817 -1.88 0
      vertex -6.38669 -13.5724 0
      vertex -8.0374 -12.6649 0
    endloop
  endfacet
  facet normal 0 0 -1
    outer loop
      vertex -14.8817 -1.88 0
      vertex -8.0374 -12.6649 0
      vertex -9.56136 -11.5577 0
    endloop
  endfacet
  facet normal 0 0 -1
    outer loop
      vertex -14.8817 -1.88 0
      vertex -9.56136 -11.5577 0
      vertex -10.9345 -10.2682 0
    endloop
  endfacet
  facet normal 0 0 -1
    outer loop
      vertex -14.8817 -1.88 0
      vertex -10.9345 -10.2682 0
      vertex -12.1353 -8.81678 0
    endloop
  endfacet
  facet normal 0 0 -1
    outer loop
      vertex -14.8817 -1.88 0
      vertex -12.1353 -8.81678 0
      vertex -13.1446 -7.2263 0
    endloop
  endfacet
  facet normal 0 0 -1
    outer loop
      vertex -14.8817 -1.88 0
      vertex -13.1446 -7.2263 0
      vertex -13.9466 -5.52187 0
    endloop
  endfacet
  facet normal 0 0 -1
    outer loop
      vertex -14.8817 -1.88 0
      vertex -13.9466 -5.52187 0
      vertex -14.5287 -3.73035 0
    endloop
  endfacet
  facet normal 0 0 -1
    outer loop
      vertex -3.14789 -0.808242 0
      vertex -14.8817 -1.88 0
      vertex -3.22437 -0.407333 0
    endloop
  endfacet
  facet normal 0 0 -1
    outer loop
      vertex -14.8817 -1.88 0
      vertex -3.25 0 0
      vertex -3.22437 -0.407333 0
    endloop
  endfacet
  facet normal 0 0 -1
    outer loop
      vertex 3.14789 0.808242 0
      vertex 14.8817 1.88 0
      vertex 3.22437 0.407333 0
    endloop
  endfacet
  facet normal 0 0 -1
    outer loop
      vertex -2.62931 -1.9103 0
      vertex -14.8817 -1.88 0
      vertex -2.848 -1.5657 0
    endloop
  endfacet
  facet normal 0 0 -1
    outer loop
      vertex -14.8817 -1.88 0
      vertex -3.02177 -1.1964 0
      vertex -2.848 -1.5657 0
    endloop
  endfacet
  facet normal 0 0 -1
    outer loop
      vertex 2.5551 -2 0
      vertex 14.5287 -3.73035 0
      vertex -2.5551 -2 0
    endloop
  endfacet
  facet normal 0 0 -1
    outer loop
      vertex -14.8817 -1.88 0
      vertex -2.62931 -1.9103 0
      vertex -2.5551 -2 0
    endloop
  endfacet
  facet normal 0 0 -1
    outer loop
      vertex -14.8817 -1.88 0
      vertex -2.5551 -2 0
      vertex 14.5287 -3.73035 0
    endloop
  endfacet
  facet normal 0 0 -1
    outer loop
      vertex 2.62931 -1.9103 0
      vertex 14.8817 -1.88 0
      vertex 2.5551 -2 0
    endloop
  endfacet
  facet normal 0 0 -1
    outer loop
      vertex 2.848 -1.5657 0
      vertex 14.8817 -1.88 0
      vertex 2.62931 -1.9103 0
    endloop
  endfacet
  facet normal 0 0 -1
    outer loop
      vertex 3.02177 -1.1964 0
      vertex 14.8817 -1.88 0
      vertex 2.848 -1.5657 0
    endloop
  endfacet
  facet normal 0 0 -1
    outer loop
      vertex 3.14789 -0.808242 0
      vertex 15 0 0
      vertex 3.02177 -1.1964 0
    endloop
  endfacet
  facet normal 0 0 -1
    outer loop
      vertex 3.22437 -0.407333 0
      vertex 15 0 0
      vertex 3.14789 -0.808242 0
    endloop
  endfacet
  facet normal 0 0 -1
    outer loop
      vertex 3.25 0 0
      vertex 14.8817 1.88 0
      vertex 3.22437 -0.407333 0
    endloop
  endfacet
  facet normal 0 0 -1
    outer loop
      vertex 3.22437 0.407333 0
      vertex 14.8817 1.88 0
      vertex 3.25 0 0
    endloop
  endfacet
  facet normal 0 0 -1
    outer loop
      vertex -3.02177 -1.1964 0
      vertex -14.8817 -1.88 0
      vertex -3.14789 -0.808242 0
    endloop
  endfacet
  facet normal 0 0 -1
    outer loop
      vertex 3.02177 1.1964 0
      vertex 14.5287 3.73035 0
      vertex 3.14789 0.808242 0
    endloop
  endfacet
  facet normal 0 0 -1
    outer loop
      vertex 2.848 1.5657 0
      vertex 14.5287 3.73035 0
      vertex 3.02177 1.1964 0
    endloop
  endfacet
  facet normal 0 0 -1
    outer loop
      vertex 2.62931 1.9103 0
      vertex 13.9466 5.52187 0
      vertex 2.848 1.5657 0
    endloop
  endfacet
  facet normal 0 0 -1
    outer loop
      vertex 2.36915 2.22478 0
      vertex 13.9466 5.52187 0
      vertex 2.62931 1.9103 0
    endloop
  endfacet
  facet normal 0 0 -1
    outer loop
      vertex 1.74144 2.74407 0
      vertex 13.1446 7.2263 0
      vertex 2.07163 2.50417 0
    endloop
  endfacet
  facet normal 0 0 -1
    outer loop
      vertex 0.608989 3.19243 0
      vertex 13.1446 7.2263 0
      vertex 1.00431 3.09093 0
    endloop
  endfacet
  facet normal 0 0 -1
    outer loop
      vertex 1.38378 2.94069 0
      vertex 13.1446 7.2263 0
      vertex 1.74144 2.74407 0
    endloop
  endfacet
  facet normal 0 0 -1
    outer loop
      vertex 1.00431 3.09093 0
      vertex 13.1446 7.2263 0
      vertex 1.38378 2.94069 0
    endloop
  endfacet
  facet normal 0 0 -1
    outer loop
      vertex 0.204069 3.24359 0
      vertex 12.1353 8.81678 0
      vertex 0.608989 3.19243 0
    endloop
  endfacet
  facet normal 0 0 -1
    outer loop
      vertex -1.74144 2.74407 0
      vertex -14.8817 -1.88 0
      vertex -1.38378 2.94069 0
    endloop
  endfacet
  facet normal 0 0 -1
    outer loop
      vertex -0.204069 3.24359 0
      vertex 12.1353 8.81678 0
      vertex 0.204069 3.24359 0
    endloop
  endfacet
  facet normal 0 0 -1
    outer loop
      vertex -0.608989 3.19243 0
      vertex 12.1353 8.81678 0
      vertex -0.204069 3.24359 0
    endloop
  endfacet
  facet normal 0 0 -1
    outer loop
      vertex -1.00431 3.09093 0
      vertex 12.1353 8.81678 0
      vertex -0.608989 3.19243 0
    endloop
  endfacet
  facet normal 0 0 -1
    outer loop
      vertex -14.8817 -1.88 0
      vertex 12.1353 8.81678 0
      vertex -1.00431 3.09093 0
    endloop
  endfacet
  facet normal 0 0 -1
    outer loop
      vertex -14.8817 -1.88 0
      vertex -1.00431 3.09093 0
      vertex -1.38378 2.94069 0
    endloop
  endfacet
  facet normal 0 0 -1
    outer loop
      vertex -2.07163 2.50417 0
      vertex -14.8817 -1.88 0
      vertex -1.74144 2.74407 0
    endloop
  endfacet
  facet normal 0 0 -1
    outer loop
      vertex -2.36915 2.22478 0
      vertex -14.8817 -1.88 0
      vertex -2.07163 2.50417 0
    endloop
  endfacet
  facet normal 0 0 -1
    outer loop
      vertex -2.62931 1.9103 0
      vertex -14.8817 -1.88 0
      vertex -2.36915 2.22478 0
    endloop
  endfacet
  facet normal 0 0 -1
    outer loop
      vertex -2.848 1.5657 0
      vertex -14.8817 -1.88 0
      vertex -2.62931 1.9103 0
    endloop
  endfacet
  facet normal 0 0 -1
    outer loop
      vertex -3.02177 1.1964 0
      vertex -14.8817 -1.88 0
      vertex -2.848 1.5657 0
    endloop
  endfacet
  facet normal 0 0 -1
    outer loop
      vertex -3.14789 0.808242 0
      vertex -14.8817 -1.88 0
      vertex -3.02177 1.1964 0
    endloop
  endfacet
  facet normal 0 0 -1
    outer loop
      vertex -3.22437 0.407333 0
      vertex -14.8817 -1.88 0
      vertex -3.14789 0.808242 0
    endloop
  endfacet
  facet normal 0 0 -1
    outer loop
      vertex -3.25 0 0
      vertex -14.8817 -1.88 0
      vertex -3.22437 0.407333 0
    endloop
  endfacet
  facet normal 0 0 -1
    outer loop
      vertex 2.07163 2.50417 0
      vertex 13.9466 5.52187 0
      vertex 2.36915 2.22478 0
    endloop
  endfacet
  facet normal -0.998027 0.0627902 0
    outer loop
      vertex -15 0 0
      vertex -15 0 12
      vertex -14.8817 1.88 0
    endloop
  endfacet
  facet normal -0.998027 0.0627902 0
    outer loop
      vertex -14.8817 1.88 0
      vertex -15 0 12
      vertex -14.8817 1.88 12
    endloop
  endfacet
  facet normal -0.998027 -0.0627902 0
    outer loop
      vertex -15 0 0
      vertex -14.8817 -1.88 0
      vertex -15 0 12
    endloop
  endfacet
  facet normal -0.998027 -0.0627902 0
    outer loop
      vertex -15 0 12
      vertex -14.8817 -1.88 0
      vertex -14.8817 -1.88 12
    endloop
  endfacet
  facet normal -0.982287 -0.187382 0
    outer loop
      vertex -14.8817 -1.88 0
      vertex -14.5287 -3.73035 0
      vertex -14.8817 -1.88 12
    endloop
  endfacet
  facet normal -0.982287 -0.187382 0
    outer loop
      vertex -14.8817 -1.88 12
      vertex -14.5287 -3.73035 0
      vertex -14.5287 -3.73035 12
    endloop
  endfacet
  facet normal -0.951057 -0.309017 0
    outer loop
      vertex -14.5287 -3.73035 0
      vertex -13.9466 -5.52187 0
      vertex -14.5287 -3.73035 12
    endloop
  endfacet
  facet normal -0.951057 -0.309017 0
    outer loop
      vertex -14.5287 -3.73035 12
      vertex -13.9466 -5.52187 0
      vertex -13.9466 -5.52187 12
    endloop
  endfacet
  facet normal -0.904827 -0.425779 0
    outer loop
      vertex -13.9466 -5.52187 0
      vertex -13.1446 -7.2263 0
      vertex -13.9466 -5.52187 12
    endloop
  endfacet
  facet normal -0.904827 -0.425779 0
    outer loop
      vertex -13.9466 -5.52187 12
      vertex -13.1446 -7.2263 0
      vertex -13.1446 -7.2263 12
    endloop
  endfacet
  facet normal -0.844328 -0.535827 0
    outer loop
      vertex -13.1446 -7.2263 0
      vertex -12.1353 -8.81678 0
      vertex -13.1446 -7.2263 12
    endloop
  endfacet
  facet normal -0.844328 -0.535827 0
    outer loop
      vertex -13.1446 -7.2263 12
      vertex -12.1353 -8.81678 0
      vertex -12.1353 -8.81678 12
    endloop
  endfacet
  facet normal -0.770513 -0.637424 0
    outer loop
      vertex -12.1353 -8.81678 0
      vertex -10.9345 -10.2682 0
      vertex -12.1353 -8.81678 12
    endloop
  endfacet
  facet normal -0.770513 -0.637424 0
    outer loop
      vertex -12.1353 -8.81678 12
      vertex -10.9345 -10.2682 0
      vertex -10.9345 -10.2682 12
    endloop
  endfacet
  facet normal -0.684547 -0.728969 0
    outer loop
      vertex -10.9345 -10.2682 12
      vertex -10.9345 -10.2682 0
      vertex -9.56136 -11.5577 0
    endloop
  endfacet
  facet normal -0.684547 -0.728969 0
    outer loop
      vertex -9.56136 -11.5577 12
      vertex -10.9345 -10.2682 12
      vertex -9.56136 -11.5577 0
    endloop
  endfacet
  facet normal -0.587785 -0.809017 0
    outer loop
      vertex -9.56136 -11.5577 12
      vertex -9.56136 -11.5577 0
      vertex -8.0374 -12.6649 0
    endloop
  endfacet
  facet normal -0.587785 -0.809017 0
    outer loop
      vertex -8.0374 -12.6649 12
      vertex -9.56136 -11.5577 12
      vertex -8.0374 -12.6649 0
    endloop
  endfacet
  facet normal -0.481754 -0.876307 0
    outer loop
      vertex -8.0374 -12.6649 12
      vertex -8.0374 -12.6649 0
      vertex -6.38669 -13.5724 0
    endloop
  endfacet
  facet normal -0.481754 -0.876307 0
    outer loop
      vertex -6.38669 -13.5724 12
      vertex -8.0374 -12.6649 12
      vertex -6.38669 -13.5724 0
    endloop
  endfacet
  facet normal -0.368125 -0.929776 0
    outer loop
      vertex -6.38669 -13.5724 12
      vertex -6.38669 -13.5724 0
      vertex -4.63525 -14.2658 0
    endloop
  endfacet
  facet normal -0.368125 -0.929776 0
    outer loop
      vertex -4.63525 -14.2658 12
      vertex -6.38669 -13.5724 12
      vertex -4.63525 -14.2658 0
    endloop
  endfacet
  facet normal -0.24869 -0.968583 0
    outer loop
      vertex -4.63525 -14.2658 12
      vertex -4.63525 -14.2658 0
      vertex -2.81072 -14.7343 0
    endloop
  endfacet
  facet normal -0.24869 -0.968583 0
    outer loop
      vertex -2.81072 -14.7343 12
      vertex -4.63525 -14.2658 12
      vertex -2.81072 -14.7343 0
    endloop
  endfacet
  facet normal -0.125333 -0.992115 0
    outer loop
      vertex -2.81072 -14.7343 12
      vertex -2.81072 -14.7343 0
      vertex -0.941858 -14.9704 0
    endloop
  endfacet
  facet normal -0.125333 -0.992115 0
    outer loop
      vertex -0.941858 -14.9704 12
      vertex -2.81072 -14.7343 12
      vertex -0.941858 -14.9704 0
    endloop
  endfacet
  facet normal 0 -1 0
    outer loop
      vertex -0.941858 -14.9704 12
      vertex -0.941858 -14.9704 0
      vertex 0.941858 -14.9704 0
    endloop
  endfacet
  facet normal 0 -1 0
    outer loop
      vertex 0.941858 -14.9704 12
      vertex -0.941858 -14.9704 12
      vertex 0.941858 -14.9704 0
    endloop
  endfacet
  facet normal 0.125333 -0.992115 0
    outer loop
      vertex 0.941858 -14.9704 12
      vertex 0.941858 -14.9704 0
      vertex 2.81072 -14.7343 0
    endloop
  endfacet
  facet normal 0.125333 -0.992115 0
    outer loop
      vertex 2.81072 -14.7343 12
      vertex 0.941858 -14.9704 12
      vertex 2.81072 -14.7343 0
    endloop
  endfacet
  facet normal 0.24869 -0.968583 0
    outer loop
      vertex 2.81072 -14.7343 12
      vertex 2.81072 -14.7343 0
      vertex 4.63525 -14.2658 0
    endloop
  endfacet
  facet normal 0.24869 -0.968583 0
    outer loop
      vertex 4.63525 -14.2658 12
      vertex 2.81072 -14.7343 12
      vertex 4.63525 -14.2658 0
    endloop
  endfacet
  facet normal 0.368125 -0.929776 0
    outer loop
      vertex 4.63525 -14.2658 12
      vertex 4.63525 -14.2658 0
      vertex 6.38669 -13.5724 0
    endloop
  endfacet
  facet normal 0.368125 -0.929776 0
    outer loop
      vertex 6.38669 -13.5724 12
      vertex 4.63525 -14.2658 12
      vertex 6.38669 -13.5724 0
    endloop
  endfacet
  facet normal 0.481754 -0.876307 0
    outer loop
      vertex 6.38669 -13.5724 12
      vertex 6.38669 -13.5724 0
      vertex 8.0374 -12.6649 0
    endloop
  endfacet
  facet normal 0.481754 -0.876307 0
    outer loop
      vertex 8.0374 -12.6649 12
      vertex 6.38669 -13.5724 12
      vertex 8.0374 -12.6649 0
    endloop
  endfacet
  facet normal 0.587785 -0.809017 0
    outer loop
      vertex 8.0374 -12.6649 12
      vertex 8.0374 -12.6649 0
      vertex 9.56136 -11.5577 0
    endloop
  endfacet
  facet normal 0.587785 -0.809017 0
    outer loop
      vertex 9.56136 -11.5577 12
      vertex 8.0374 -12.6649 12
      vertex 9.56136 -11.5577 0
    endloop
  endfacet
  facet normal 0.684547 -0.728969 0
    outer loop
      vertex 9.56136 -11.5577 12
      vertex 9.56136 -11.5577 0
      vertex 10.9345 -10.2682 0
    endloop
  endfacet
  facet normal 0.684547 -0.728969 0
    outer loop
      vertex 10.9345 -10.2682 12
      vertex 9.56136 -11.5577 12
      vertex 10.9345 -10.2682 0
    endloop
  endfacet
  facet normal 0.770513 -0.637424 0
    outer loop
      vertex 10.9345 -10.2682 12
      vertex 10.9345 -10.2682 0
      vertex 12.1353 -8.81678 0
    endloop
  endfacet
  facet normal 0.770513 -0.637424 0
    outer loop
      vertex 12.1353 -8.81678 12
      vertex 10.9345 -10.2682 12
      vertex 12.1353 -8.81678 0
    endloop
  endfacet
  facet normal 0.844328 -0.535827 0
    outer loop
      vertex 12.1353 -8.81678 12
      vertex 12.1353 -8.81678 0
      vertex 13.1446 -7.2263 0
    endloop
  endfacet
  facet normal 0.844328 -0.535827 0
    outer loop
      vertex 13.1446 -7.2263 12
      vertex 12.1353 -8.81678 12
      vertex 13.1446 -7.2263 0
    endloop
  endfacet
  facet normal 0.904827 -0.425779 0
    outer loop
      vertex 13.1446 -7.2263 12
      vertex 13.1446 -7.2263 0
      vertex 13.9466 -5.52187 0
    endloop
  endfacet
  facet normal 0.904827 -0.425779 0
    outer loop
      vertex 13.9466 -5.52187 12
      vertex 13.1446 -7.2263 12
      vertex 13.9466 -5.52187 0
    endloop
  endfacet
  facet normal 0.951057 -0.309017 0
    outer loop
      vertex 13.9466 -5.52187 12
      vertex 13.9466 -5.52187 0
      vertex 14.5287 -3.73035 0
    endloop
  endfacet
  facet normal 0.951057 -0.309017 0
    outer loop
      vertex 14.5287 -3.73035 12
      vertex 13.9466 -5.52187 12
      vertex 14.5287 -3.73035 0
    endloop
  endfacet
  facet normal 0.982287 -0.187382 0
    outer loop
      vertex 14.5287 -3.73035 12
      vertex 14.5287 -3.73035 0
      vertex 14.8817 -1.88 0
    endloop
  endfacet
  facet normal 0.982287 -0.187382 0
    outer loop
      vertex 14.8817 -1.88 12
      vertex 14.5287 -3.73035 12
      vertex 14.8817 -1.88 0
    endloop
  endfacet
  facet normal 0.998027 -0.0627902 0
    outer loop
      vertex 14.8817 -1.88 12
      vertex 14.8817 -1.88 0
      vertex 15 0 0
    endloop
  endfacet
  facet normal 0.998027 -0.0627902 0
    outer loop
      vertex 15 0 12
      vertex 14.8817 -1.88 12
      vertex 15 0 0
    endloop
  endfacet
  facet normal 0.998027 0.0627902 0
    outer loop
      vertex 15 0 0
      vertex 14.8817 1.88 0
      vertex 14.8817 1.88 12
    endloop
  endfacet
  facet normal 0.998027 0.0627902 0
    outer loop
      vertex 15 0 12
      vertex 15 0 0
      vertex 14.8817 1.88 12
    endloop
  endfacet
  facet normal 0.982287 0.187382 0
    outer loop
      vertex 14.8817 1.88 0
      vertex 14.5287 3.73035 0
      vertex 14.5287 3.73035 12
    endloop
  endfacet
  facet normal 0.982287 0.187382 0
    outer loop
      vertex 14.8817 1.88 12
      vertex 14.8817 1.88 0
      vertex 14.5287 3.73035 12
    endloop
  endfacet
  facet normal 0.951057 0.309017 0
    outer loop
      vertex 14.5287 3.73035 0
      vertex 13.9466 5.52187 0
      vertex 13.9466 5.52187 12
    endloop
  endfacet
  facet normal 0.951057 0.309017 0
    outer loop
      vertex 14.5287 3.73035 12
      vertex 14.5287 3.73035 0
      vertex 13.9466 5.52187 12
    endloop
  endfacet
  facet normal 0.904827 0.425779 0
    outer loop
      vertex 13.9466 5.52187 0
      vertex 13.1446 7.2263 0
      vertex 13.1446 7.2263 12
    endloop
  endfacet
  facet normal 0.904827 0.425779 0
    outer loop
      vertex 13.9466 5.52187 12
      vertex 13.9466 5.52187 0
      vertex 13.1446 7.2263 12
    endloop
  endfacet
  facet normal 0.844328 0.535827 0
    outer loop
      vertex 13.1446 7.2263 0
      vertex 12.1353 8.81678 0
      vertex 12.1353 8.81678 12
    endloop
  endfacet
  facet normal 0.844328 0.535827 0
    outer loop
      vertex 13.1446 7.2263 12
      vertex 13.1446 7.2263 0
      vertex 12.1353 8.81678 12
    endloop
  endfacet
  facet normal 0.770513 0.637424 0
    outer loop
      vertex 12.1353 8.81678 0
      vertex 10.9345 10.2682 0
      vertex 10.9345 10.2682 12
    endloop
  endfacet
  facet normal 0.770513 0.637424 0
    outer loop
      vertex 12.1353 8.81678 12
      vertex 12.1353 8.81678 0
      vertex 10.9345 10.2682 12
    endloop
  endfacet
  facet normal 0.684547 0.728969 0
    outer loop
      vertex 9.56136 11.5577 0
      vertex 9.56136 11.5577 12
      vertex 10.9345 10.2682 0
    endloop
  endfacet
  facet normal 0.684547 0.728969 0
    outer loop
      vertex 10.9345 10.2682 0
      vertex 9.56136 11.5577 12
      vertex 10.9345 10.2682 12
    endloop
  endfacet
  facet normal 0.587785 0.809017 0
    outer loop
      vertex 8.0374 12.6649 0
      vertex 8.0374 12.6649 12
      vertex 9.56136 11.5577 0
    endloop
  endfacet
  facet normal 0.587785 0.809017 0
    outer loop
      vertex 9.56136 11.5577 0
      vertex 8.0374 12.6649 12
      vertex 9.56136 11.5577 12
    endloop
  endfacet
  facet normal 0.481754 0.876307 0
    outer loop
      vertex 6.38669 13.5724 0
      vertex 6.38669 13.5724 12
      vertex 8.0374 12.6649 0
    endloop
  endfacet
  facet normal 0.481754 0.876307 0
    outer loop
      vertex 8.0374 12.6649 0
      vertex 6.38669 13.5724 12
      vertex 8.0374 12.6649 12
    endloop
  endfacet
  facet normal 0.368125 0.929776 0
    outer loop
      vertex 4.63525 14.2658 0
      vertex 4.63525 14.2658 12
      vertex 6.38669 13.5724 0
    endloop
  endfacet
  facet normal 0.368125 0.929776 0
    outer loop
      vertex 6.38669 13.5724 0
      vertex 4.63525 14.2658 12
      vertex 6.38669 13.5724 12
    endloop
  endfacet
  facet normal 0.24869 0.968583 0
    outer loop
      vertex 2.81072 14.7343 0
      vertex 2.81072 14.7343 12
      vertex 4.63525 14.2658 0
    endloop
  endfacet
  facet normal 0.24869 0.968583 0
    outer loop
      vertex 4.63525 14.2658 0
      vertex 2.81072 14.7343 12
      vertex 4.63525 14.2658 12
    endloop
  endfacet
  facet normal 0.125333 0.992115 0
    outer loop
      vertex 0.941858 14.9704 0
      vertex 0.941858 14.9704 12
      vertex 2.81072 14.7343 0
    endloop
  endfacet
  facet normal 0.125333 0.992115 0
    outer loop
      vertex 2.81072 14.7343 0
      vertex 0.941858 14.9704 12
      vertex 2.81072 14.7343 12
    endloop
  endfacet
  facet normal 0 1 0
    outer loop
      vertex -0.941858 14.9704 0
      vertex -0.941858 14.9704 12
      vertex 0.941858 14.9704 0
    endloop
  endfacet
  facet normal 0 1 0
    outer loop
      vertex 0.941858 14.9704 0
      vertex -0.941858 14.9704 12
      vertex 0.941858 14.9704 12
    endloop
  endfacet
  facet normal -0.125333 0.992115 0
    outer loop
      vertex -2.81072 14.7343 0
      vertex -2.81072 14.7343 12
      vertex -0.941858 14.9704 0
    endloop
  endfacet
  facet normal -0.125333 0.992115 0
    outer loop
      vertex -0.941858 14.9704 0
      vertex -2.81072 14.7343 12
      vertex -0.941858 14.9704 12
    endloop
  endfacet
  facet normal -0.24869 0.968583 0
    outer loop
      vertex -4.63525 14.2658 0
      vertex -4.63525 14.2658 12
      vertex -2.81072 14.7343 0
    endloop
  endfacet
  facet normal -0.24869 0.968583 0
    outer loop
      vertex -2.81072 14.7343 0
      vertex -4.63525 14.2658 12
      vertex -2.81072 14.7343 12
    endloop
  endfacet
  facet normal -0.368125 0.929776 0
    outer loop
      vertex -6.38669 13.5724 0
      vertex -6.38669 13.5724 12
      vertex -4.63525 14.2658 0
    endloop
  endfacet
  facet normal -0.368125 0.929776 0
    outer loop
      vertex -4.63525 14.2658 0
      vertex -6.38669 13.5724 12
      vertex -4.63525 14.2658 12
    endloop
  endfacet
  facet normal -0.481754 0.876307 0
    outer loop
      vertex -8.0374 12.6649 0
      vertex -8.0374 12.6649 12
      vertex -6.38669 13.5724 0
    endloop
  endfacet
  facet normal -0.481754 0.876307 0
    outer loop
      vertex -6.38669 13.5724 0
      vertex -8.0374 12.6649 12
      vertex -6.38669 13.5724 12
    endloop
  endfacet
  facet normal -0.587785 0.809017 0
    outer loop
      vertex -9.56136 11.5577 0
      vertex -9.56136 11.5577 12
      vertex -8.0374 12.6649 0
    endloop
  endfacet
  facet normal -0.587785 0.809017 0
    outer loop
      vertex -8.0374 12.6649 0
      vertex -9.56136 11.5577 12
      vertex -8.0374 12.6649 12
    endloop
  endfacet
  facet normal -0.684547 0.728969 0
    outer loop
      vertex -10.9345 10.2682 0
      vertex -10.9345 10.2682 12
      vertex -9.56136 11.5577 0
    endloop
  endfacet
  facet normal -0.684547 0.728969 0
    outer loop
      vertex -9.56136 11.5577 0
      vertex -10.9345 10.2682 12
      vertex -9.56136 11.5577 12
    endloop
  endfacet
  facet normal -0.770513 0.637424 0
    outer loop
      vertex -12.1353 8.81678 0
      vertex -12.1353 8.81678 12
      vertex -10.9345 10.2682 0
    endloop
  endfacet
  facet normal -0.770513 0.637424 0
    outer loop
      vertex -10.9345 10.2682 0
      vertex -12.1353 8.81678 12
      vertex -10.9345 10.2682 12
    endloop
  endfacet
  facet normal -0.844328 0.535827 0
    outer loop
      vertex -13.1446 7.2263 0
      vertex -13.1446 7.2263 12
      vertex -12.1353 8.81678 0
    endloop
  endfacet
  facet normal -0.844328 0.535827 0
    outer loop
      vertex -12.1353 8.81678 0
      vertex -13.1446 7.2263 12
      vertex -12.1353 8.81678 12
    endloop
  endfacet
  facet normal -0.904827 0.425779 0
    outer loop
      vertex -13.9466 5.52187 0
      vertex -13.9466 5.52187 12
      vertex -13.1446 7.2263 0
    endloop
  endfacet
  facet normal -0.904827 0.425779 0
    outer loop
      vertex -13.1446 7.2263 0
      vertex -13.9466 5.52187 12
      vertex -13.1446 7.2263 12
    endloop
  endfacet
  facet normal -0.951057 0.309017 0
    outer loop
      vertex -14.5287 3.73035 0
      vertex -14.5287 3.73035 12
      vertex -13.9466 5.52187 0
    endloop
  endfacet
  facet normal -0.951057 0.309017 0
    outer loop
      vertex -13.9466 5.52187 0
      vertex -14.5287 3.73035 12
      vertex -13.9466 5.52187 12
    endloop
  endfacet
  facet normal -0.982287 0.187382 0
    outer loop
      vertex -14.8817 1.88 0
      vertex -14.8817 1.88 12
      vertex -14.5287 3.73035 0
    endloop
  endfacet
  facet normal -0.982287 0.187382 0
    outer loop
      vertex -14.5287 3.73035 0
      vertex -14.8817 1.88 12
      vertex -14.5287 3.73035 12
    endloop
  endfacet
  facet normal 0.998027 -0.06279 0
    outer loop
      vertex -3.22437 0.407333 0
      vertex -3.22437 0.407333 9
      vertex -3.25 0 9
    endloop
  endfacet
  facet normal 0.998027 -0.06279 0
    outer loop
      vertex -3.25 0 0
      vertex -3.22437 0.407333 0
      vertex -3.25 0 9
    endloop
  endfacet
  facet normal 0.998027 0.06279 0
    outer loop
      vertex -3.25 0 9
      vertex -3.22437 -0.407333 9
      vertex -3.22437 -0.407333 0
    endloop
  endfacet
  facet normal 0.998027 0.06279 0
    outer loop
      vertex -3.25 0 0
      vertex -3.25 0 9
      vertex -3.22437 -0.407333 0
    endloop
  endfacet
  facet normal 0.982287 -0.187383 0
    outer loop
      vertex -3.14789 0.808242 0
      vertex -3.14789 0.808242 9
      vertex -3.22437 0.407333 9
    endloop
  endfacet
  facet normal 0.982287 -0.187383 0
    outer loop
      vertex -3.22437 0.407333 0
      vertex -3.14789 0.808242 0
      vertex -3.22437 0.407333 9
    endloop
  endfacet
  facet normal 0.951057 -0.309015 0
    outer loop
      vertex -3.02177 1.1964 0
      vertex -3.02177 1.1964 9
      vertex -3.14789 0.808242 9
    endloop
  endfacet
  facet normal 0.951057 -0.309015 0
    outer loop
      vertex -3.14789 0.808242 0
      vertex -3.02177 1.1964 0
      vertex -3.14789 0.808242 9
    endloop
  endfacet
  facet normal 0.904827 -0.42578 0
    outer loop
      vertex -2.848 1.5657 0
      vertex -2.848 1.5657 9
      vertex -3.02177 1.1964 9
    endloop
  endfacet
  facet normal 0.904827 -0.42578 0
    outer loop
      vertex -3.02177 1.1964 0
      vertex -2.848 1.5657 0
      vertex -3.02177 1.1964 9
    endloop
  endfacet
  facet normal 0.844328 -0.535827 0
    outer loop
      vertex -2.62931 1.9103 0
      vertex -2.62931 1.9103 9
      vertex -2.848 1.5657 9
    endloop
  endfacet
  facet normal 0.844328 -0.535827 0
    outer loop
      vertex -2.848 1.5657 0
      vertex -2.62931 1.9103 0
      vertex -2.848 1.5657 9
    endloop
  endfacet
  facet normal 0.770513 -0.637424 0
    outer loop
      vertex -2.36915 2.22478 0
      vertex -2.36915 2.22478 9
      vertex -2.62931 1.9103 9
    endloop
  endfacet
  facet normal 0.770513 -0.637424 0
    outer loop
      vertex -2.62931 1.9103 0
      vertex -2.36915 2.22478 0
      vertex -2.62931 1.9103 9
    endloop
  endfacet
  facet normal 0.684547 -0.728968 0
    outer loop
      vertex -2.07163 2.50417 0
      vertex -2.07163 2.50417 9
      vertex -2.36915 2.22478 9
    endloop
  endfacet
  facet normal 0.684547 -0.728968 0
    outer loop
      vertex -2.36915 2.22478 0
      vertex -2.07163 2.50417 0
      vertex -2.36915 2.22478 9
    endloop
  endfacet
  facet normal 0.587786 -0.809017 0
    outer loop
      vertex -1.74144 2.74407 0
      vertex -1.74144 2.74407 9
      vertex -2.07163 2.50417 9
    endloop
  endfacet
  facet normal 0.587786 -0.809017 0
    outer loop
      vertex -2.07163 2.50417 0
      vertex -1.74144 2.74407 0
      vertex -2.07163 2.50417 9
    endloop
  endfacet
  facet normal 0.481754 -0.876307 0
    outer loop
      vertex -1.38378 2.94069 0
      vertex -1.38378 2.94069 9
      vertex -1.74144 2.74407 9
    endloop
  endfacet
  facet normal 0.481754 -0.876307 0
    outer loop
      vertex -1.74144 2.74407 0
      vertex -1.38378 2.94069 0
      vertex -1.74144 2.74407 9
    endloop
  endfacet
  facet normal 0.368125 -0.929776 0
    outer loop
      vertex -1.00431 3.09093 0
      vertex -1.00431 3.09093 9
      vertex -1.38378 2.94069 9
    endloop
  endfacet
  facet normal 0.368125 -0.929776 0
    outer loop
      vertex -1.38378 2.94069 0
      vertex -1.00431 3.09093 0
      vertex -1.38378 2.94069 9
    endloop
  endfacet
  facet normal 0.24869 -0.968583 0
    outer loop
      vertex -0.608989 3.19243 0
      vertex -0.608989 3.19243 9
      vertex -1.00431 3.09093 9
    endloop
  endfacet
  facet normal 0.24869 -0.968583 0
    outer loop
      vertex -1.00431 3.09093 0
      vertex -0.608989 3.19243 0
      vertex -1.00431 3.09093 9
    endloop
  endfacet
  facet normal 0.125333 -0.992115 0
    outer loop
      vertex -0.204069 3.24359 0
      vertex -0.204069 3.24359 9
      vertex -0.608989 3.19243 9
    endloop
  endfacet
  facet normal 0.125333 -0.992115 0
    outer loop
      vertex -0.608989 3.19243 0
      vertex -0.204069 3.24359 0
      vertex -0.608989 3.19243 9
    endloop
  endfacet
  facet normal 0 -1 0
    outer loop
      vertex 0.204069 3.24359 0
      vertex 0.204069 3.24359 9
      vertex -0.204069 3.24359 9
    endloop
  endfacet
  facet normal 0 -1 0
    outer loop
      vertex -0.204069 3.24359 0
      vertex 0.204069 3.24359 0
      vertex -0.204069 3.24359 9
    endloop
  endfacet
  facet normal -0.125333 -0.992115 0
    outer loop
      vertex 0.608989 3.19243 0
      vertex 0.608989 3.19243 9
      vertex 0.204069 3.24359 9
    endloop
  endfacet
  facet normal -0.125333 -0.992115 0
    outer loop
      vertex 0.204069 3.24359 0
      vertex 0.608989 3.19243 0
      vertex 0.204069 3.24359 9
    endloop
  endfacet
  facet normal -0.24869 -0.968583 0
    outer loop
      vertex 1.00431 3.09093 0
      vertex 1.00431 3.09093 9
      vertex 0.608989 3.19243 9
    endloop
  endfacet
  facet normal -0.24869 -0.968583 0
    outer loop
      vertex 0.608989 3.19243 0
      vertex 1.00431 3.09093 0
      vertex 0.608989 3.19243 9
    endloop
  endfacet
  facet normal -0.368125 -0.929776 0
    outer loop
      vertex 1.38378 2.94069 0
      vertex 1.38378 2.94069 9
      vertex 1.00431 3.09093 9
    endloop
  endfacet
  facet normal -0.368125 -0.929776 0
    outer loop
      vertex 1.00431 3.09093 0
      vertex 1.38378 2.94069 0
      vertex 1.00431 3.09093 9
    endloop
  endfacet
  facet normal -0.481754 -0.876307 0
    outer loop
      vertex 1.74144 2.74407 0
      vertex 1.74144 2.74407 9
      vertex 1.38378 2.94069 9
    endloop
  endfacet
  facet normal -0.481754 -0.876307 0
    outer loop
      vertex 1.38378 2.94069 0
      vertex 1.74144 2.74407 0
      vertex 1.38378 2.94069 9
    endloop
  endfacet
  facet normal -0.587786 -0.809017 0
    outer loop
      vertex 2.07163 2.50417 0
      vertex 2.07163 2.50417 9
      vertex 1.74144 2.74407 9
    endloop
  endfacet
  facet normal -0.587786 -0.809017 0
    outer loop
      vertex 1.74144 2.74407 0
      vertex 2.07163 2.50417 0
      vertex 1.74144 2.74407 9
    endloop
  endfacet
  facet normal -0.684547 -0.728968 0
    outer loop
      vertex 2.36915 2.22478 0
      vertex 2.36915 2.22478 9
      vertex 2.07163 2.50417 9
    endloop
  endfacet
  facet normal -0.684547 -0.728968 0
    outer loop
      vertex 2.07163 2.50417 0
      vertex 2.36915 2.22478 0
      vertex 2.07163 2.50417 9
    endloop
  endfacet
  facet normal -0.770513 -0.637424 0
    outer loop
      vertex 2.62931 1.9103 9
      vertex 2.36915 2.22478 9
      vertex 2.62931 1.9103 0
    endloop
  endfacet
  facet normal -0.770513 -0.637424 0
    outer loop
      vertex 2.62931 1.9103 0
      vertex 2.36915 2.22478 9
      vertex 2.36915 2.22478 0
    endloop
  endfacet
  facet normal -0.844328 -0.535827 0
    outer loop
      vertex 2.848 1.5657 9
      vertex 2.62931 1.9103 9
      vertex 2.848 1.5657 0
    endloop
  endfacet
  facet normal -0.844328 -0.535827 0
    outer loop
      vertex 2.848 1.5657 0
      vertex 2.62931 1.9103 9
      vertex 2.62931 1.9103 0
    endloop
  endfacet
  facet normal -0.904827 -0.42578 0
    outer loop
      vertex 3.02177 1.1964 9
      vertex 2.848 1.5657 9
      vertex 3.02177 1.1964 0
    endloop
  endfacet
  facet normal -0.904827 -0.42578 0
    outer loop
      vertex 3.02177 1.1964 0
      vertex 2.848 1.5657 9
      vertex 2.848 1.5657 0
    endloop
  endfacet
  facet normal -0.951057 -0.309015 0
    outer loop
      vertex 3.14789 0.808242 9
      vertex 3.02177 1.1964 9
      vertex 3.14789 0.808242 0
    endloop
  endfacet
  facet normal -0.951057 -0.309015 0
    outer loop
      vertex 3.14789 0.808242 0
      vertex 3.02177 1.1964 9
      vertex 3.02177 1.1964 0
    endloop
  endfacet
  facet normal -0.982287 -0.187383 0
    outer loop
      vertex 3.22437 0.407333 9
      vertex 3.14789 0.808242 9
      vertex 3.22437 0.407333 0
    endloop
  endfacet
  facet normal -0.982287 -0.187383 0
    outer loop
      vertex 3.22437 0.407333 0
      vertex 3.14789 0.808242 9
      vertex 3.14789 0.808242 0
    endloop
  endfacet
  facet normal -0.998027 -0.06279 0
    outer loop
      vertex 3.25 0 9
      vertex 3.22437 0.407333 9
      vertex 3.25 0 0
    endloop
  endfacet
  facet normal -0.998027 -0.06279 0
    outer loop
      vertex 3.25 0 0
      vertex 3.22437 0.407333 9
      vertex 3.22437 0.407333 0
    endloop
  endfacet
  facet normal -0.998027 0.06279 0
    outer loop
      vertex 3.25 0 9
      vertex 3.25 0 0
      vertex 3.22437 -0.407333 9
    endloop
  endfacet
  facet normal -0.998027 0.06279 0
    outer loop
      vertex 3.22437 -0.407333 9
      vertex 3.25 0 0
      vertex 3.22437 -0.407333 0
    endloop
  endfacet
  facet normal -0.982287 0.187383 0
    outer loop
      vertex 3.22437 -0.407333 9
      vertex 3.22437 -0.407333 0
      vertex 3.14789 -0.808242 9
    endloop
  endfacet
  facet normal -0.982287 0.187383 0
    outer loop
      vertex 3.14789 -0.808242 9
      vertex 3.22437 -0.407333 0
      vertex 3.14789 -0.808242 0
    endloop
  endfacet
  facet normal -0.951057 0.309015 0
    outer loop
      vertex 3.14789 -0.808242 9
      vertex 3.14789 -0.808242 0
      vertex 3.02177 -1.1964 9
    endloop
  endfacet
  facet normal -0.951057 0.309015 0
    outer loop
      vertex 3.02177 -1.1964 9
      vertex 3.14789 -0.808242 0
      vertex 3.02177 -1.1964 0
    endloop
  endfacet
  facet normal -0.904827 0.42578 0
    outer loop
      vertex 3.02177 -1.1964 9
      vertex 3.02177 -1.1964 0
      vertex 2.848 -1.5657 9
    endloop
  endfacet
  facet normal -0.904827 0.42578 0
    outer loop
      vertex 2.848 -1.5657 9
      vertex 3.02177 -1.1964 0
      vertex 2.848 -1.5657 0
    endloop
  endfacet
  facet normal -0.844328 0.535827 0
    outer loop
      vertex 2.848 -1.5657 9
      vertex 2.848 -1.5657 0
      vertex 2.62931 -1.9103 9
    endloop
  endfacet
  facet normal -0.844328 0.535827 0
    outer loop
      vertex 2.62931 -1.9103 9
      vertex 2.848 -1.5657 0
      vertex 2.62931 -1.9103 0
    endloop
  endfacet
  facet normal -0.770513 0.637424 0
    outer loop
      vertex 2.62931 -1.9103 9
      vertex 2.62931 -1.9103 0
      vertex 2.5551 -2 9
    endloop
  endfacet
  facet normal -0.770513 0.637424 0
    outer loop
      vertex 2.5551 -2 9
      vertex 2.62931 -1.9103 0
      vertex 2.5551 -2 0
    endloop
  endfacet
  facet normal 0 1 0
    outer loop
      vertex -2.5551 -2 0
      vertex -2.5551 -2 9
      vertex 2.5551 -2 0
    endloop
  endfacet
  facet normal 0 1 0
    outer loop
      vertex 2.5551 -2 0
      vertex -2.5551 -2 9
      vertex 2.5551 -2 9
    endloop
  endfacet
  facet normal 0.770513 0.637424 0
    outer loop
      vertex -2.62931 -1.9103 9
      vertex -2.5551 -2 9
      vertex -2.5551 -2 0
    endloop
  endfacet
  facet normal 0.770513 0.637424 0
    outer loop
      vertex -2.62931 -1.9103 0
      vertex -2.62931 -1.9103 9
      vertex -2.5551 -2 0
    endloop
  endfacet
  facet normal 0.844328 0.535827 0
    outer loop
      vertex -2.848 -1.5657 9
      vertex -2.62931 -1.9103 9
      vertex -2.62931 -1.9103 0
    endloop
  endfacet
  facet normal 0.844328 0.535827 0
    outer loop
      vertex -2.848 -1.5657 0
      vertex -2.848 -1.5657 9
      vertex -2.62931 -1.9103 0
    endloop
  endfacet
  facet normal 0.904827 0.42578 0
    outer loop
      vertex -3.02177 -1.1964 9
      vertex -2.848 -1.5657 9
      vertex -2.848 -1.5657 0
    endloop
  endfacet
  facet normal 0.904827 0.42578 0
    outer loop
      vertex -3.02177 -1.1964 0
      vertex -3.02177 -1.1964 9
      vertex -2.848 -1.5657 0
    endloop
  endfacet
  facet normal 0.951057 0.309015 0
    outer loop
      vertex -3.14789 -0.808242 9
      vertex -3.02177 -1.1964 9
      vertex -3.02177 -1.1964 0
    endloop
  endfacet
  facet normal 0.951057 0.309015 0
    outer loop
      vertex -3.14789 -0.808242 0
      vertex -3.14789 -0.808242 9
      vertex -3.02177 -1.1964 0
    endloop
  endfacet
  facet normal 0.982287 0.187383 0
    outer loop
      vertex -3.22437 -0.407333 9
      vertex -3.14789 -0.808242 9
      vertex -3.14789 -0.808242 0
    endloop
  endfacet
  facet normal 0.982287 0.187383 0
    outer loop
      vertex -3.22437 -0.407333 0
      vertex -3.22437 -0.407333 9
      vertex -3.14789 -0.808242 0
    endloop
  endfacet
  facet normal 0 0 1
    outer loop
      vertex -14.8817 1.88 12
      vertex -15 0 12
      vertex -14.8817 -1.88 12
    endloop
  endfacet
  facet normal 0 0 1
    outer loop
      vertex -13.9466 -5.52187 12
      vertex -14.8817 1.88 12
      vertex -14.5287 -3.73035 12
    endloop
  endfacet
  facet normal 0 0 1
    outer loop
      vertex -14.5287 -3.73035 12
      vertex -14.8817 1.88 12
      vertex -14.8817 -1.88 12
    endloop
  endfacet
  facet normal 0 0 1
    outer loop
      vertex -13.1446 -7.2263 12
      vertex -14.8817 1.88 12
      vertex -13.9466 -5.52187 12
    endloop
  endfacet
  facet normal 0 0 1
    outer loop
      vertex -12.1353 -8.81678 12
      vertex -14.8817 1.88 12
      vertex -13.1446 -7.2263 12
    endloop
  endfacet
  facet normal 0 0 1
    outer loop
      vertex -10.9345 -10.2682 12
      vertex -14.8817 1.88 12
      vertex -12.1353 -8.81678 12
    endloop
  endfacet
  facet normal 0 0 1
    outer loop
      vertex -9.56136 -11.5577 12
      vertex -14.8817 1.88 12
      vertex -10.9345 -10.2682 12
    endloop
  endfacet
  facet normal 0 0 1
    outer loop
      vertex -8.0374 -12.6649 12
      vertex -14.8817 1.88 12
      vertex -9.56136 -11.5577 12
    endloop
  endfacet
  facet normal 0 0 1
    outer loop
      vertex -6.38669 -13.5724 12
      vertex -14.8817 1.88 12
      vertex -8.0374 -12.6649 12
    endloop
  endfacet
  facet normal 0 0 1
    outer loop
      vertex -4.63525 -14.2658 12
      vertex -14.8817 1.88 12
      vertex -6.38669 -13.5724 12
    endloop
  endfacet
  facet normal 0 0 1
    outer loop
      vertex -2.81072 -14.7343 12
      vertex -14.8817 1.88 12
      vertex -4.63525 -14.2658 12
    endloop
  endfacet
  facet normal 0 0 1
    outer loop
      vertex -0.941858 -14.9704 12
      vertex -14.8817 1.88 12
      vertex -2.81072 -14.7343 12
    endloop
  endfacet
  facet normal 0 0 1
    outer loop
      vertex 0.941858 -14.9704 12
      vertex -14.8817 1.88 12
      vertex -0.941858 -14.9704 12
    endloop
  endfacet
  facet normal 0 0 1
    outer loop
      vertex 2.81072 -14.7343 12
      vertex -14.8817 1.88 12
      vertex 0.941858 -14.9704 12
    endloop
  endfacet
  facet normal 0 0 1
    outer loop
      vertex 4.63525 -14.2658 12
      vertex -14.8817 1.88 12
      vertex 2.81072 -14.7343 12
    endloop
  endfacet
  facet normal 0 0 1
    outer loop
      vertex 6.38669 -13.5724 12
      vertex -14.8817 1.88 12
      vertex 4.63525 -14.2658 12
    endloop
  endfacet
  facet normal 0 0 1
    outer loop
      vertex 8.0374 -12.6649 12
      vertex -14.8817 1.88 12
      vertex 6.38669 -13.5724 12
    endloop
  endfacet
  facet normal 0 0 1
    outer loop
      vertex 9.56136 -11.5577 12
      vertex -14.8817 1.88 12
      vertex 8.0374 -12.6649 12
    endloop
  endfacet
  facet normal 0 0 1
    outer loop
      vertex 10.9345 -10.2682 12
      vertex -14.8817 1.88 12
      vertex 9.56136 -11.5577 12
    endloop
  endfacet
  facet normal 0 0 1
    outer loop
      vertex 12.1353 -8.81678 12
      vertex -14.8817 1.88 12
      vertex 10.9345 -10.2682 12
    endloop
  endfacet
  facet normal 0 0 1
    outer loop
      vertex 13.1446 -7.2263 12
      vertex -14.8817 1.88 12
      vertex 12.1353 -8.81678 12
    endloop
  endfacet
  facet normal 0 0 1
    outer loop
      vertex 13.9466 -5.52187 12
      vertex -14.8817 1.88 12
      vertex 13.1446 -7.2263 12
    endloop
  endfacet
  facet normal 0 0 1
    outer loop
      vertex 14.5287 -3.73035 12
      vertex -14.8817 1.88 12
      vertex 13.9466 -5.52187 12
    endloop
  endfacet
  facet normal 0 0 1
    outer loop
      vertex 14.8817 -1.88 12
      vertex -14.8817 1.88 12
      vertex 14.5287 -3.73035 12
    endloop
  endfacet
  facet normal 0 0 1
    outer loop
      vertex 15 0 12
      vertex -14.8817 1.88 12
      vertex 14.8817 -1.88 12
    endloop
  endfacet
  facet normal 0 0 1
    outer loop
      vertex 14.8817 1.88 12
      vertex -14.8817 1.88 12
      vertex 15 0 12
    endloop
  endfacet
  facet normal 0 0 1
    outer loop
      vertex 14.5287 3.73035 12
      vertex -14.8817 1.88 12
      vertex 14.8817 1.88 12
    endloop
  endfacet
  facet normal 0 0 1
    outer loop
      vertex 13.9466 5.52187 12
      vertex -14.8817 1.88 12
      vertex 14.5287 3.73035 12
    endloop
  endfacet
  facet normal 0 0 1
    outer loop
      vertex 13.1446 7.2263 12
      vertex -14.8817 1.88 12
      vertex 13.9466 5.52187 12
    endloop
  endfacet
  facet normal 0 0 1
    outer loop
      vertex 12.1353 8.81678 12
      vertex -14.8817 1.88 12
      vertex 13.1446 7.2263 12
    endloop
  endfacet
  facet normal 0 0 1
    outer loop
      vertex 10.9345 10.2682 12
      vertex -14.8817 1.88 12
      vertex 12.1353 8.81678 12
    endloop
  endfacet
  facet normal 0 0 1
    outer loop
      vertex 9.56136 11.5577 12
      vertex -14.8817 1.88 12
      vertex 10.9345 10.2682 12
    endloop
  endfacet
  facet normal 0 0 1
    outer loop
      vertex 8.0374 12.6649 12
      vertex -14.8817 1.88 12
      vertex 9.56136 11.5577 12
    endloop
  endfacet
  facet normal 0 0 1
    outer loop
      vertex 6.38669 13.5724 12
      vertex -14.8817 1.88 12
      vertex 8.0374 12.6649 12
    endloop
  endfacet
  facet normal 0 0 1
    outer loop
      vertex 4.63525 14.2658 12
      vertex -14.8817 1.88 12
      vertex 6.38669 13.5724 12
    endloop
  endfacet
  facet normal 0 0 1
    outer loop
      vertex 2.81072 14.7343 12
      vertex -14.8817 1.88 12
      vertex 4.63525 14.2658 12
    endloop
  endfacet
  facet normal 0 0 1
    outer loop
      vertex 0.941858 14.9704 12
      vertex -14.8817 1.88 12
      vertex 2.81072 14.7343 12
    endloop
  endfacet
  facet normal 0 0 1
    outer loop
      vertex -0.941858 14.9704 12
      vertex -14.8817 1.88 12
      vertex 0.941858 14.9704 12
    endloop
  endfacet
  facet normal 0 0 1
    outer loop
      vertex -2.81072 14.7343 12
      vertex -14.8817 1.88 12
      vertex -0.941858 14.9704 12
    endloop
  endfacet
  facet normal 0 0 1
    outer loop
      vertex -4.63525 14.2658 12
      vertex -14.8817 1.88 12
      vertex -2.81072 14.7343 12
    endloop
  endfacet
  facet normal 0 0 1
    outer loop
      vertex -6.38669 13.5724 12
      vertex -14.8817 1.88 12
      vertex -4.63525 14.2658 12
    endloop
  endfacet
  facet normal 0 0 1
    outer loop
      vertex -8.0374 12.6649 12
      vertex -14.8817 1.88 12
      vertex -6.38669 13.5724 12
    endloop
  endfacet
  facet normal 0 0 1
    outer loop
      vertex -9.56136 11.5577 12
      vertex -14.8817 1.88 12
      vertex -8.0374 12.6649 12
    endloop
  endfacet
  facet normal 0 0 1
    outer loop
      vertex -10.9345 10.2682 12
      vertex -14.8817 1.88 12
      vertex -9.56136 11.5577 12
    endloop
  endfacet
  facet normal 0 0 1
    outer loop
      vertex -12.1353 8.81678 12
      vertex -14.8817 1.88 12
      vertex -10.9345 10.2682 12
    endloop
  endfacet
  facet normal 0 0 1
    outer loop
      vertex -13.1446 7.2263 12
      vertex -14.8817 1.88 12
      vertex -12.1353 8.81678 12
    endloop
  endfacet
  facet normal 0 0 1
    outer loop
      vertex -13.9466 5.52187 12
      vertex -14.8817 1.88 12
      vertex -13.1446 7.2263 12
    endloop
  endfacet
  facet normal 0 0 1
    outer loop
      vertex -14.5287 3.73035 12
      vertex -14.8817 1.88 12
      vertex -13.9466 5.52187 12
    endloop
  endfacet
  facet normal 0 0 -1
    outer loop
      vertex -3.14789 0.808242 9
      vertex -3.02177 1.1964 9
      vertex -3.22437 0.407333 9
    endloop
  endfacet
  facet normal 0 0 -1
    outer loop
      vertex -3.22437 0.407333 9
      vertex -3.02177 1.1964 9
      vertex -2.848 1.5657 9
    endloop
  endfacet
  facet normal 0 0 -1
    outer loop
      vertex -3.22437 0.407333 9
      vertex -2.848 1.5657 9
      vertex -2.62931 1.9103 9
    endloop
  endfacet
  facet normal 0 0 -1
    outer loop
      vertex -3.22437 0.407333 9
      vertex -2.62931 1.9103 9
      vertex -2.36915 2.22478 9
    endloop
  endfacet
  facet normal 0 0 -1
    outer loop
      vertex -3.22437 0.407333 9
      vertex -2.36915 2.22478 9
      vertex -2.07163 2.50417 9
    endloop
  endfacet
  facet normal 0 0 -1
    outer loop
      vertex -3.22437 0.407333 9
      vertex -2.07163 2.50417 9
      vertex -1.74144 2.74407 9
    endloop
  endfacet
  facet normal 0 0 -1
    outer loop
      vertex -3.22437 0.407333 9
      vertex -1.74144 2.74407 9
      vertex -1.38378 2.94069 9
    endloop
  endfacet
  facet normal 0 0 -1
    outer loop
      vertex -3.22437 0.407333 9
      vertex -1.38378 2.94069 9
      vertex -1.00431 3.09093 9
    endloop
  endfacet
  facet normal 0 0 -1
    outer loop
      vertex -3.22437 0.407333 9
      vertex -1.00431 3.09093 9
      vertex -0.608989 3.19243 9
    endloop
  endfacet
  facet normal 0 0 -1
    outer loop
      vertex -3.22437 0.407333 9
      vertex -0.608989 3.19243 9
      vertex -0.204069 3.24359 9
    endloop
  endfacet
  facet normal 0 0 -1
    outer loop
      vertex -3.22437 0.407333 9
      vertex -0.204069 3.24359 9
      vertex 0.204069 3.24359 9
    endloop
  endfacet
  facet normal 0 0 -1
    outer loop
      vertex -3.22437 0.407333 9
      vertex 0.204069 3.24359 9
      vertex 0.608989 3.19243 9
    endloop
  endfacet
  facet normal 0 0 -1
    outer loop
      vertex -3.22437 0.407333 9
      vertex 0.608989 3.19243 9
      vertex 1.00431 3.09093 9
    endloop
  endfacet
  facet normal 0 0 -1
    outer loop
      vertex -3.22437 0.407333 9
      vertex 1.00431 3.09093 9
      vertex 1.38378 2.94069 9
    endloop
  endfacet
  facet normal 0 0 -1
    outer loop
      vertex -3.22437 0.407333 9
      vertex 1.38378 2.94069 9
      vertex 1.74144 2.74407 9
    endloop
  endfacet
  facet normal 0 0 -1
    outer loop
      vertex -3.22437 0.407333 9
      vertex 1.74144 2.74407 9
      vertex 2.07163 2.50417 9
    endloop
  endfacet
  facet normal 0 0 -1
    outer loop
      vertex -3.22437 0.407333 9
      vertex 2.07163 2.50417 9
      vertex 2.36915 2.22478 9
    endloop
  endfacet
  facet normal 0 0 -1
    outer loop
      vertex -3.22437 0.407333 9
      vertex 2.36915 2.22478 9
      vertex 2.62931 1.9103 9
    endloop
  endfacet
  facet normal 0 0 -1
    outer loop
      vertex -3.22437 0.407333 9
      vertex 2.62931 1.9103 9
      vertex 2.848 1.5657 9
    endloop
  endfacet
  facet normal 0 0 -1
    outer loop
      vertex -3.22437 0.407333 9
      vertex 2.848 1.5657 9
      vertex 3.02177 1.1964 9
    endloop
  endfacet
  facet normal 0 0 -1
    outer loop
      vertex -3.22437 0.407333 9
      vertex 3.02177 1.1964 9
      vertex 3.14789 0.808242 9
    endloop
  endfacet
  facet normal 0 0 -1
    outer loop
      vertex -3.22437 0.407333 9
      vertex 3.14789 0.808242 9
      vertex 3.22437 0.407333 9
    endloop
  endfacet
  facet normal 0 0 -1
    outer loop
      vertex -3.22437 0.407333 9
      vertex 3.22437 0.407333 9
      vertex 3.25 0 9
    endloop
  endfacet
  facet normal 0 0 -1
    outer loop
      vertex -3.22437 0.407333 9
      vertex 3.25 0 9
      vertex 3.22437 -0.407333 9
    endloop
  endfacet
  facet normal 0 0 -1
    outer loop
      vertex -3.22437 0.407333 9
      vertex 3.22437 -0.407333 9
      vertex 3.14789 -0.808242 9
    endloop
  endfacet
  facet normal 0 0 -1
    outer loop
      vertex -3.22437 0.407333 9
      vertex 3.14789 -0.808242 9
      vertex 3.02177 -1.1964 9
    endloop
  endfacet
  facet normal 0 0 -1
    outer loop
      vertex -3.22437 0.407333 9
      vertex 3.02177 -1.1964 9
      vertex 2.848 -1.5657 9
    endloop
  endfacet
  facet normal 0 0 -1
    outer loop
      vertex -3.22437 0.407333 9
      vertex 2.848 -1.5657 9
      vertex 2.62931 -1.9103 9
    endloop
  endfacet
  facet normal 0 0 -1
    outer loop
      vertex -3.22437 0.407333 9
      vertex 2.62931 -1.9103 9
      vertex 2.5551 -2 9
    endloop
  endfacet
  facet normal 0 0 -1
    outer loop
      vertex -3.22437 0.407333 9
      vertex 2.5551 -2 9
      vertex -2.5551 -2 9
    endloop
  endfacet
  facet normal 0 0 -1
    outer loop
      vertex -3.22437 0.407333 9
      vertex -2.5551 -2 9
      vertex -2.62931 -1.9103 9
    endloop
  endfacet
  facet normal 0 0 -1
    outer loop
      vertex -3.22437 0.407333 9
      vertex -2.62931 -1.9103 9
      vertex -2.848 -1.5657 9
    endloop
  endfacet
  facet normal 0 0 -1
    outer loop
      vertex -3.22437 0.407333 9
      vertex -2.848 -1.5657 9
      vertex -3.02177 -1.1964 9
    endloop
  endfacet
  facet normal 0 0 -1
    outer loop
      vertex -3.22437 0.407333 9
      vertex -3.02177 -1.1964 9
      vertex -3.14789 -0.808242 9
    endloop
  endfacet
  facet normal 0 0 -1
    outer loop
      vertex -3.22437 0.407333 9
      vertex -3.14789 -0.808242 9
      vertex -3.22437 -0.407333 9
    endloop
  endfacet
  facet normal 0 0 -1
    outer loop
      vertex -3.22437 0.407333 9
      vertex -3.22437 -0.407333 9
      vertex -3.25 0 9
    endloop
  endfacet
endsolid OpenSCAD_Model
