<?xml version="1.0" encoding="UTF-8" standalone="no"?>
<svg
   xmlns:dc="http://purl.org/dc/elements/1.1/"
   xmlns:cc="http://creativecommons.org/ns#"
   xmlns:rdf="http://www.w3.org/1999/02/22-rdf-syntax-ns#"
   xmlns:svg="http://www.w3.org/2000/svg"
   xmlns="http://www.w3.org/2000/svg"
   xmlns:sodipodi="http://sodipodi.sourceforge.net/DTD/sodipodi-0.dtd"
   xmlns:inkscape="http://www.inkscape.org/namespaces/inkscape"
   width="4322.8345"
   height="2161.4172"
   id="svg2"
   version="1.1"
   inkscape:version="0.48.4 r9939"
   sodipodi:docname="Tubebot_v0p6_20140428.svg">
  <metadata
     id="metadata3960">
    <rdf:RDF>
      <cc:Work
         rdf:about="">
        <dc:format>image/svg+xml</dc:format>
        <dc:type
           rdf:resource="http://purl.org/dc/dcmitype/StillImage" />
        <dc:title></dc:title>
      </cc:Work>
    </rdf:RDF>
  </metadata>
  <sodipodi:namedview
     pagecolor="#ffffff"
     bordercolor="#666666"
     borderopacity="1"
     objecttolerance="10"
     gridtolerance="10"
     guidetolerance="10"
     inkscape:pageopacity="0"
     inkscape:pageshadow="2"
     inkscape:window-width="1920"
     inkscape:window-height="1018"
     id="namedview3958"
     showgrid="true"
     inkscape:zoom="0.15857392"
     inkscape:cx="573.57203"
     inkscape:cy="-90.897571"
     inkscape:window-x="-8"
     inkscape:window-y="-8"
     inkscape:window-maximized="1"
     inkscape:current-layer="g18"
     units="mm"
     inkscape:document-units="mm">
    <inkscape:grid
       type="xygrid"
       id="grid6949"
       units="mm"
       empspacing="5"
       visible="true"
       enabled="false"
       snapvisiblegridlinesonly="true"
       spacingx="10mm"
       spacingy="10mm" />
  </sodipodi:namedview>
  <desc
     id="desc4">C:\Users\Frank\Desktop\2014_TUBEBOT\2014_tubebot_CAD\SCAD\Tubebot_v0p6_20140428.dxf - scale = 1.000000</desc>
  <defs
     id="defs6">
    <marker
       refY="0"
       refX="0"
       style="overflow:visible"
       id="DistanceX"
       orient="auto">
      <path
         style="stroke:#000000;stroke-width:0.5"
         d="M 3,-3 -3,3 M 0,-5 0,5"
         id="path9"
         inkscape:connector-curvature="0" />
    </marker>
    <pattern
       height="8"
       width="8"
       patternUnits="userSpaceOnUse"
       y="0"
       x="0"
       id="Hatch">
      <path
         linecap="square"
         stroke="#000000"
         stroke-width="0.25"
         d="M8 4 l-4,4"
         id="path12" />
      <path
         linecap="square"
         stroke="#000000"
         stroke-width="0.25"
         d="M6 2 l-4,4"
         id="path14" />
      <path
         linecap="square"
         stroke="#000000"
         stroke-width="0.25"
         d="M4 0 l-4,4"
         id="path16" />
    </pattern>
  </defs>
  <g
     inkscape:label="0"
     inkscape:groupmode="layer"
     id="g18"
     transform="translate(0,1109.055)">
    <path
       id="path658"
       style="fill:none;stroke:#000000;stroke-width:3.54330707;stroke-miterlimit:4;stroke-dasharray:none"
       d="m 1761.454,-639.64316 3.9969,-0.2516 m -7.9299,1.0028 3.933,-0.7512 m -7.7421,1.9878 3.8091,-1.2366 m -7.4339,2.9409 3.6248,-1.7043 m -7.0051,3.8516 3.3803,-2.1473 m -6.4665,4.6984 3.0862,-2.5511 m -5.8287,5.4708 2.7425,-2.9197 m -5.0953,6.1619 2.3528,-3.2422 m -4.2804,6.75 1.9276,-3.5078 m -3.4051,7.2318 1.4775,-3.724 m -2.4732,7.604 0.9957,-3.88 m -1.4953,7.852 0.4996,-3.972 m -0.4996,7.976 0,-4.004 m 0.4996,7.976 -0.4996,-3.972 m 1.4953,7.8519 -0.9957,-3.8799 m 2.4732,7.6039 -1.4775,-3.724 m 3.4051,7.2319 -1.9276,-3.5079 m 4.2804,6.75 -2.3528,-3.2421 m 5.0953,6.1618 -2.7425,-2.9197 m 5.8287,5.4709 -3.0862,-2.5512 m 6.4665,4.6984 -3.3803,-2.1472 m 7.0051,3.8516 -3.6248,-1.7044 m 7.4339,2.941 -3.8091,-1.2366 m 7.7421,1.9878 -3.933,-0.7512 m 7.9299,1.0027 -3.9969,-0.2515 m 7.9937,0 -3.9968,0.2515 m 7.9299,-1.0027 -3.9331,0.7512 m 7.7422,-1.9878 -3.8091,1.2366 m 7.4339,-2.941 -3.6248,1.7044 m 7.0051,-3.8516 -3.3803,2.1472 m 6.4665,-4.6984 -3.0862,2.5512 m 5.8287,-5.4709 -2.7425,2.9197 m 5.0953,-6.1618 -2.3528,3.2421 m 4.2803,-6.75 -1.9275,3.5079 m 3.4051,-7.2319 -1.4776,3.724 m 2.4733,-7.6039 -0.9957,3.8799 m 1.4953,-7.8519 -0.4996,3.972 m 0.4996,-7.976 0,4.004 m -0.4996,-7.976 0.4996,3.972 m -1.4953,-7.852 0.9957,3.88 m -2.4733,-7.604 1.4776,3.724 m -3.4051,-7.2318 1.9275,3.5078 m -4.2803,-6.75 2.3528,3.2422 m -5.0953,-6.1619 2.7425,2.9197 m -5.8287,-5.4708 3.0862,2.5511 m -6.4665,-4.6984 3.3803,2.1473 m -7.0051,-3.8516 3.6248,1.7043 m -7.4339,-2.9409 3.8091,1.2366 m -7.7422,-1.9878 3.9331,0.7512 m -7.9299,-1.0028 3.9968,0.2516 m -140.8677,0 3.9969,-0.2516 m -7.9299,1.0028 3.933,-0.7512 m -7.7421,1.9878 3.8091,-1.2366 m -7.4339,2.9409 3.6248,-1.7043 m -7.0051,3.8516 3.3803,-2.1473 m -6.4665,4.6984 3.0862,-2.5511 m -5.8288,5.4708 2.7426,-2.9197 m -5.0953,6.1619 2.3527,-3.2422 m -4.2803,6.75 1.9276,-3.5078 m -3.4051,7.2318 1.4775,-3.724 m -2.4732,7.604 0.9957,-3.88 m -1.4953,7.852 0.4996,-3.972 m -0.4996,7.976 0,-4.004 m 0.4996,7.976 -0.4996,-3.972 m 1.4953,7.8519 -0.9957,-3.8799 m 2.4732,7.6039 -1.4775,-3.724 m 3.4051,7.2319 -1.9276,-3.5079 m 4.2803,6.75 -2.3527,-3.2421 m 5.0953,6.1618 -2.7426,-2.9197 m 5.8288,5.4709 -3.0862,-2.5512 m 6.4665,4.6984 -3.3803,-2.1472 m 7.0051,3.8516 -3.6248,-1.7044 m 7.4339,2.941 -3.8091,-1.2366 m 7.7421,1.9878 -3.933,-0.7512 m 7.9299,1.0027 -3.9969,-0.2515 m 7.9937,0 -3.9968,0.2515 m 7.9299,-1.0027 -3.9331,0.7512 m 7.7422,-1.9878 -3.8091,1.2366 m 7.4339,-2.941 -3.6248,1.7044 m 7.0051,-3.8516 -3.3803,2.1472 m 6.4665,-4.6984 -3.0862,2.5512 m 5.8287,-5.4709 -2.7425,2.9197 m 5.0953,-6.1618 -2.3528,3.2421 m 4.2803,-6.75 -1.9275,3.5079 m 3.4051,-7.2319 -1.4776,3.724 m 2.4733,-7.6039 -0.9957,3.8799 m 1.4953,-7.8519 -0.4996,3.972 m 0.4996,-7.976 0,4.004 m -0.4996,-7.976 0.4996,3.972 m -1.4953,-7.852 0.9957,3.88 m -2.4733,-7.604 1.4776,3.724 m -3.4051,-7.2318 1.9275,3.5078 m -4.2803,-6.75 2.3528,3.2422 m -5.0953,-6.1619 2.7425,2.9197 m -5.8287,-5.4708 3.0862,2.5511 m -6.4665,-4.6984 3.3803,2.1473 m -7.0051,-3.8516 3.6248,1.7043 m -7.4339,-2.9409 3.8091,1.2366 m -7.7422,-1.9878 3.9331,0.7512 m -7.9299,-1.0028 3.9968,0.2516 m -140.8677,0 3.9969,-0.2516 m -7.93,1.0028 3.9331,-0.7512 m -7.7421,1.9878 3.809,-1.2366 m -7.4338,2.9409 3.6248,-1.7043 m -7.0051,3.8516 3.3803,-2.1473 m -6.4666,4.6984 3.0863,-2.5511 m -5.8288,5.4708 2.7425,-2.9197 m -5.0952,6.1619 2.3527,-3.2422 m -4.2803,6.75 1.9276,-3.5078 m -3.4051,7.2318 1.4775,-3.724 m -2.4732,7.604 0.9957,-3.88 m -1.4953,7.852 0.4996,-3.972 m -0.4996,7.976 0,-4.004 m 0.4996,7.976 -0.4996,-3.972 m 1.4953,7.8519 -0.9957,-3.8799 m 2.4732,7.6039 -1.4775,-3.724 m 3.4051,7.2319 -1.9276,-3.5079 m 4.2803,6.75 -2.3527,-3.2421 m 5.0952,6.1618 -2.7425,-2.9197 m 5.8288,5.4709 -3.0863,-2.5512 m 6.4666,4.6984 -3.3803,-2.1472 m 7.0051,3.8516 -3.6248,-1.7044 m 7.4338,2.941 -3.809,-1.2366 m 7.7421,1.9878 -3.9331,-0.7512 m 7.93,1.0027 -3.9969,-0.2515 m 7.9937,0 -3.9968,0.2515 m 7.9299,-1.0027 -3.9331,0.7512 m 7.7421,-1.9878 -3.809,1.2366 m 7.4338,-2.941 -3.6248,1.7044 m 7.0052,-3.8516 -3.3804,2.1472 m 6.4666,-4.6984 -3.0862,2.5512 m 5.8287,-5.4709 -2.7425,2.9197 m 5.0953,-6.1618 -2.3528,3.2421 m 4.2803,-6.75 -1.9275,3.5079 m 3.4051,-7.2319 -1.4776,3.724 m 2.4732,-7.6039 -0.9956,3.8799 m 1.4952,-7.8519 -0.4996,3.972 m 0.4996,-7.976 0,4.004 m -0.4996,-7.976 0.4996,3.972 m -1.4952,-7.852 0.9956,3.88 m -2.4732,-7.604 1.4776,3.724 m -3.4051,-7.2318 1.9275,3.5078 m -4.2803,-6.75 2.3528,3.2422 m -5.0953,-6.1619 2.7425,2.9197 m -5.8287,-5.4708 3.0862,2.5511 m -6.4666,-4.6984 3.3804,2.1473 m -7.0052,-3.8516 3.6248,1.7043 m -7.4338,-2.9409 3.809,1.2366 m -7.7421,-1.9878 3.9331,0.7512 m -7.9299,-1.0028 3.9968,0.2516 m 254.6646,-201.3343 0,-38.9763 m 46.063,38.9763 -46.063,0 m 46.063,-38.9763 0,38.9763 m -46.063,-38.9763 46.063,0 m -42.5197,-63.7796 0,-49.6063 m 42.5197,49.6063 -42.5197,0 m 42.5197,-49.6063 0,49.6063 m -42.5197,-49.6063 42.5197,0 m -357.874,442.0276 0,-558.07084 m 372.0473,558.07084 -372.0473,0 m 372.0473,-558.07084 0,558.07084 m -372.0473,-558.07084 372.0473,0"
       inkscape:connector-curvature="0" />
    <path
       id="path668"
       style="fill:none;stroke:#000000;stroke-width:3.54330707;stroke-miterlimit:4;stroke-dasharray:none"
       d="m 2495.098,-904.46357 -438.4842,0 m 792.8149,354.3307 -354.3307,-354.3307 m 354.3307,-177.16543 0,531.49613 m -792.8149,-531.49613 792.8149,0 m -792.8149,177.16543 0,-177.16543"
       inkscape:connector-curvature="0" />
    <path
       id="path768"
       style="fill:none;stroke:#000000;stroke-width:3.54330707;stroke-miterlimit:4;stroke-dasharray:none"
       d="m 2039.5761,149.99551 0.7547,-0.0461 m -1.4988,0.1878 0.7441,-0.14174 m -1.4634,0.3756 0.7193,-0.23386 m -1.4032,0.5563 0.6839,-0.32244 m -1.3217,0.72992 0.6378,-0.40748 m -1.2224,0.88937 0.5846,-0.48189 m -1.1019,1.0311 0.5173,-0.54921 m -0.9603,1.1622 0.443,-0.61299 m -0.8079,1.27559 0.3649,-0.6626 m -0.6448,1.36772 0.2799,-0.70512 m -0.4677,1.43504 0.1878,-0.72992 m -0.2835,1.4811 0.096,-0.75118 m -0.096,1.50945 0,-0.75827 m 0.096,1.50945 -0.096,-0.75118 m 0.2835,1.4811 -0.1878,-0.72992 m 0.4677,1.43504 -0.2799,-0.70512 m 0.6448,1.36772 -0.3649,-0.6626 m 0.8079,1.27559 -0.443,-0.61299 m 0.9603,1.1622 -0.5173,-0.54921 m 1.1019,1.0311 -0.5846,-0.48189 m 1.2224,0.88937 -0.6378,-0.40748 m 1.3217,0.72992 -0.6839,-0.32244 m 1.4032,0.5563 -0.7193,-0.23386 m 1.4634,0.37559 -0.7441,-0.14173 m 1.4988,0.1878 -0.7547,-0.0461 m 1.5094,0 -0.7547,0.0461 m 1.4988,-0.1878 -0.7441,0.14173 m 1.4634,-0.37559 -0.7193,0.23386 m 1.4032,-0.5563 -0.6839,0.32244 m 1.3217,-0.72992 -0.6378,0.40748 m 1.2224,-0.88937 -0.5846,0.48189 m 1.1019,-1.0311 -0.5173,0.54921 m 0.9602,-1.1622 -0.4429,0.61299 m 0.8079,-1.27559 -0.365,0.6626 m 0.6449,-1.36772 -0.2799,0.70512 m 0.4677,-1.43504 -0.1878,0.72992 m 0.2835,-1.4811 -0.096,0.75118 m 0.096,-1.50945 0,0.75827 m -0.096,-1.50945 0.096,0.75118 m -0.2835,-1.4811 0.1878,0.72992 m -0.4677,-1.43504 0.2799,0.70512 m -0.6449,-1.36772 0.365,0.6626 m -0.8079,-1.27559 0.4429,0.61299 m -0.9602,-1.1622 0.5173,0.54921 m -1.1019,-1.0311 0.5846,0.48189 m -1.2224,-0.88937 0.6378,0.40748 m -1.3217,-0.72992 0.6839,0.32244 m -1.4032,-0.5563 0.7193,0.23386 m -1.4634,-0.3756 0.7441,0.14174 m -1.4988,-0.1878 0.7547,0.0461 m 104.7898,-690.94486 0.7547,-0.046 m -1.4988,0.1878 0.7441,-0.1418 m -1.4634,0.3756 0.7193,-0.2338 m -1.4032,0.5563 0.6839,-0.3225 m -1.3217,0.73 0.6378,-0.4075 m -1.2224,0.8893 0.5846,-0.4818 m -1.1019,1.0311 0.5173,-0.5493 m -0.9602,1.1623 0.4429,-0.613 m -0.8079,1.2756 0.365,-0.6626 m -0.6449,1.3677 0.2799,-0.7051 m -0.4677,1.435 0.1878,-0.7299 m -0.2835,1.4811 0.096,-0.7512 m -0.096,1.5094 0,-0.7582 m 0.096,1.5094 -0.096,-0.7512 m 0.2835,1.4811 -0.1878,-0.7299 m 0.4677,1.4351 -0.2799,-0.7052 m 0.6449,1.3678 -0.365,-0.6626 m 0.8079,1.2756 -0.4429,-0.613 m 0.9602,1.1622 -0.5173,-0.5492 m 1.1019,1.0311 -0.5846,-0.4819 m 1.2224,0.8893 -0.6378,-0.4074 m 1.3217,0.7299 -0.6839,-0.3225 m 1.4032,0.5563 -0.7193,-0.2338 m 1.4634,0.3756 -0.7441,-0.1418 m 1.4988,0.1878 -0.7547,-0.046 m 1.5094,0 -0.7547,0.046 m 1.4988,-0.1878 -0.7441,0.1418 m 1.4634,-0.3756 -0.7193,0.2338 m 1.4032,-0.5563 -0.6839,0.3225 m 1.3217,-0.7299 -0.6378,0.4074 m 1.2224,-0.8893 -0.5846,0.4819 m 1.1019,-1.0311 -0.5173,0.5492 m 0.9602,-1.1622 -0.4429,0.613 m 0.8079,-1.2756 -0.365,0.6626 m 0.6449,-1.3678 -0.2799,0.7052 m 0.4677,-1.4351 -0.1878,0.7299 m 0.2835,-1.4811 -0.096,0.7512 m 0.096,-1.5094 0,0.7582 m -0.096,-1.5094 0.096,0.7512 m -0.2835,-1.4811 0.1878,0.7299 m -0.4677,-1.435 0.2799,0.7051 m -0.6449,-1.3677 0.365,0.6626 m -0.8079,-1.2756 0.4429,0.613 m -0.9602,-1.1623 0.5173,0.5493 m -1.1019,-1.0311 0.5846,0.4818 m -1.2224,-0.8893 0.6378,0.4075 m -1.3217,-0.73 0.6839,0.3225 m -1.4032,-0.5563 0.7193,0.2338 m -1.4634,-0.3756 0.7441,0.1418 m -1.4988,-0.1878 0.7547,0.046 m -214.1078,0 0.7547,-0.046 m -1.4988,0.1878 0.7441,-0.1418 m -1.4634,0.3756 0.7193,-0.2338 m -1.4032,0.5563 0.6839,-0.3225 m -1.3217,0.73 0.6378,-0.4075 m -1.2224,0.8893 0.5846,-0.4818 m -1.102,1.0311 0.5174,-0.5493 m -0.9603,1.1623 0.4429,-0.613 m -0.8078,1.2756 0.3649,-0.6626 m -0.6449,1.3677 0.28,-0.7051 m -0.4677,1.435 0.1877,-0.7299 m -0.2834,1.4811 0.096,-0.7512 m -0.096,1.5094 0,-0.7582 m 0.096,1.5094 -0.096,-0.7512 m 0.2834,1.4811 -0.1877,-0.7299 m 0.4677,1.4351 -0.28,-0.7052 m 0.6449,1.3678 -0.3649,-0.6626 m 0.8078,1.2756 -0.4429,-0.613 m 0.9603,1.1622 -0.5174,-0.5492 m 1.102,1.0311 -0.5846,-0.4819 m 1.2224,0.8893 -0.6378,-0.4074 m 1.3217,0.7299 -0.6839,-0.3225 m 1.4032,0.5563 -0.7193,-0.2338 m 1.4634,0.3756 -0.7441,-0.1418 m 1.4988,0.1878 -0.7547,-0.046 m 1.5094,0 -0.7547,0.046 m 1.4988,-0.1878 -0.7441,0.1418 m 1.4634,-0.3756 -0.7193,0.2338 m 1.4031,-0.5563 -0.6838,0.3225 m 1.3216,-0.7299 -0.6378,0.4074 m 1.2225,-0.8893 -0.5847,0.4819 m 1.102,-1.0311 -0.5173,0.5492 m 0.9602,-1.1622 -0.4429,0.613 m 0.8079,-1.2756 -0.365,0.6626 m 0.6449,-1.3678 -0.2799,0.7052 m 0.4677,-1.4351 -0.1878,0.7299 m 0.2835,-1.4811 -0.096,0.7512 m 0.096,-1.5094 0,0.7582 m -0.096,-1.5094 0.096,0.7512 m -0.2835,-1.4811 0.1878,0.7299 m -0.4677,-1.435 0.2799,0.7051 m -0.6449,-1.3677 0.365,0.6626 m -0.8079,-1.2756 0.4429,0.613 m -0.9602,-1.1623 0.5173,0.5493 m -1.102,-1.0311 0.5847,0.4818 m -1.2225,-0.8893 0.6378,0.4075 m -1.3216,-0.73 0.6838,0.3225 m -1.4031,-0.5563 0.7193,0.2338 m -1.4634,-0.3756 0.7441,0.1418 m -1.4988,-0.1878 0.7547,0.046 m 83.3386,-81.2091 22.2059,-1.396 m -44.0575,5.5665 21.8516,-4.1705 m -43.0122,11.0445 21.1606,-6.874 m -41.2937,16.3488 20.1331,-9.4748 m -38.9162,21.3945 18.7831,-11.9197 m -35.9256,26.1036 17.1425,-14.1839 m -32.3752,30.4016 15.2327,-16.2177 m -28.3075,34.2177 13.0748,-18 m -23.7933,37.4953 10.7185,-19.4953 m -18.9106,40.1811 8.1921,-20.6858 m -13.7232,42.2362 5.5311,-21.5504 m -8.3197,43.6216 2.7886,-22.0712 m -2.7886,33.1972 0,-11.126 m -0.3508,11.126 0.3508,0 m -0.3508,460.629944 0,-460.629944 m 0.3508,460.629944 -0.3508,0 m 0.3508,11.12598 0,-11.12598 m 2.7886,33.19724 -2.7886,-22.07126 m 8.3197,43.62166 -5.5311,-21.5504 m 13.7232,42.23622 -8.1921,-20.68582 m 18.9106,40.181096 -10.7185,-19.495276 m 23.7933,37.495276 -13.0748,-18 m 28.3075,34.21772 -15.2327,-16.21772 m 32.3752,30.40158 -17.1425,-14.18386 m 35.9256,26.10354 -18.7831,-11.91968 m 38.9162,21.39448 -20.1331,-9.4748 m 41.2937,16.34882 -21.1606,-6.87402 m 43.0122,11.04449 -21.8516,-4.17047 m 44.0575,5.56653 -22.2059,-1.39606 m 44.4118,0 -22.2059,1.39606 m 44.0575,-5.56653 -21.8516,4.17047 m 43.0122,-11.04449 -21.1606,6.87402 m 41.2937,-16.34882 -20.1331,9.4748 m 38.9161,-21.39448 -18.783,11.91968 m 35.9256,-26.10354 -17.1426,14.18386 m 32.3752,-30.40158 -15.2326,16.21772 m 28.3074,-34.21772 -13.0748,18 m 23.7933,-37.495276 -10.7185,19.495276 m 18.9107,-40.181096 -8.1922,20.68582 m 13.7233,-42.23622 -5.5311,21.5504 m 8.3197,-43.62166 -2.7886,22.07126 m 2.7886,-33.19724 0,11.12598 m 0.3507,-11.12598 -0.3507,0 m 0.3507,-460.629944 0,460.629944 m -0.3507,-460.629944 0.3507,0 m -0.3507,-11.126 0,11.126 m -2.7886,-33.1972 2.7886,22.0712 m -8.3197,-43.6216 5.5311,21.5504 m -13.7233,-42.2362 8.1922,20.6858 m -18.9107,-40.1811 10.7185,19.4953 m -23.7933,-37.4953 13.0748,18 m -28.3074,-34.2177 15.2326,16.2177 m -32.3752,-30.4016 17.1426,14.1839 m -35.9256,-26.1036 18.783,11.9197 m -38.9161,-21.3945 20.1331,9.4748 m -41.2937,-16.3488 21.1606,6.874 m -43.0122,-11.0445 21.8516,4.1705 m -44.0575,-5.5665 22.2059,1.396"
       inkscape:connector-curvature="0" />
    <path
       id="path784"
       style="fill:none;stroke:#000000;stroke-width:3.54330709;stroke-miterlimit:4;stroke-dasharray:none"
       d="m 1420.4759,-402.00547 -1417.3227965,0 M 1420.4759,-1110.6669 l 0,708.66143 M 3.1531035,-1110.6669 l 1417.3227965,0 M 3.1531035,-402.00547 l 0,-708.66143"
       inkscape:connector-curvature="0" />
    <path
       id="path800"
       style="fill:none;stroke:#000000;stroke-width:3.54330707;stroke-miterlimit:4;stroke-dasharray:none"
       d="m 1836.3761,-695.66142 0,-170.07873 m 372.0473,170.07873 -372.0473,0 m 372.0473,-170.07873 0,170.07873 m -372.0473,-170.07873 372.0473,0"
       inkscape:connector-curvature="0" />
    <path
       id="path2356"
       style="fill:none;stroke:#000000;stroke-width:3.54330707;stroke-miterlimit:4;stroke-dasharray:none"
       d="m 2057.2696,354.08344 -2.5193,0.4004 m 4.7906,-1.5555 -2.2713,1.1551 m 4.0748,-2.9586 -1.8035,1.8035 m 2.9586,-4.0748 -1.1551,2.2713 m 1.5555,-4.7906 -0.4004,2.5193 m 0,-5.0386 0.4004,2.5193 m -1.5555,-4.7905 1.1551,2.2712 m -2.9586,-4.0748 1.8035,1.8036 m -4.0748,-2.9587 2.2713,1.1551 m -4.7906,-1.5555 2.5193,0.4004 m -5.0386,0 2.5193,-0.4004 m -4.7905,1.5555 2.2712,-1.1551 m -4.0748,2.9587 1.8036,-1.8036 m -2.9587,4.0748 1.1551,-2.2712 m -1.5555,4.7905 0.4004,-2.5193 m 0,5.0386 -0.4004,-2.5193 m 1.5555,4.7906 -1.1551,-2.2713 m 2.9587,4.0748 -1.8036,-1.8035 m 4.0748,2.9586 -2.2712,-1.1551 m 4.7905,1.5555 -2.5193,-0.4004 m -89.7378,618.3071 -0.7547,0.046 m 1.4988,-0.1878 -0.7441,0.1418 m 1.4634,-0.3756 -0.7193,0.2338 m 1.4032,-0.5563 -0.6839,0.3225 m 1.3217,-0.7299 -0.6378,0.4074 m 1.2224,-0.8893 -0.5846,0.4819 m 1.1019,-1.0311 -0.5173,0.5492 m 0.9603,-1.1622 -0.443,0.613 m 0.8079,-1.2756 -0.3649,0.6626 m 0.6448,-1.3678 -0.2799,0.7052 m 0.4677,-1.4351 -0.1878,0.7299 m 0.2835,-1.4811 -0.096,0.7512 m 0.096,-1.5094 0,0.7582 m -0.096,-1.5094 0.096,0.7512 m -0.2835,-1.4811 0.1878,0.7299 m -0.4677,-1.435 0.2799,0.7051 m -0.6448,-1.3677 0.3649,0.6626 m -0.8079,-1.2756 0.443,0.613 m -0.9603,-1.1622 0.5173,0.5492 m -1.1019,-1.0311 0.5846,0.4819 m -1.2224,-0.8894 0.6378,0.4075 m -1.3217,-0.73 0.6839,0.3225 m -1.4032,-0.5563 0.7193,0.2338 m -1.4634,-0.3755 0.7441,0.1417 m -1.4988,-0.1878 0.7547,0.046 m -1.5094,0 0.7547,-0.046 m -1.4988,0.1878 0.7441,-0.1417 m -1.4634,0.3755 0.7193,-0.2338 m -1.4032,0.5563 0.6839,-0.3225 m -1.3217,0.73 0.6378,-0.4075 m -1.2224,0.8894 0.5846,-0.4819 m -1.1019,1.0311 0.5173,-0.5492 m -0.9602,1.1622 0.4429,-0.613 m -0.8079,1.2756 0.365,-0.6626 m -0.6449,1.3677 0.2799,-0.7051 m -0.4677,1.435 0.1878,-0.7299 m -0.2835,1.4811 0.096,-0.7512 m -0.096,1.5094 0,-0.7582 m 0.096,1.5094 -0.096,-0.7512 m 0.2835,1.4811 -0.1878,-0.7299 m 0.4677,1.4351 -0.2799,-0.7052 m 0.6449,1.3678 -0.365,-0.6626 m 0.8079,1.2756 -0.4429,-0.613 m 0.9602,1.1622 -0.5173,-0.5492 m 1.1019,1.0311 -0.5846,-0.4819 m 1.2224,0.8893 -0.6378,-0.4074 m 1.3217,0.7299 -0.6839,-0.3225 m 1.4032,0.5563 -0.7193,-0.2338 m 1.4634,0.3756 -0.7441,-0.1418 m 1.4988,0.1878 -0.7547,-0.046 m 134.3834,0 -0.7547,0.046 m 1.4988,-0.1878 -0.7441,0.1418 m 1.4634,-0.3756 -0.7193,0.2338 m 1.4032,-0.5563 -0.6839,0.3225 m 1.3217,-0.7299 -0.6378,0.4074 m 1.2224,-0.8893 -0.5846,0.4819 m 1.102,-1.0311 -0.5174,0.5492 m 0.9603,-1.1622 -0.4429,0.613 m 0.8078,-1.2756 -0.3649,0.6626 m 0.6449,-1.3678 -0.28,0.7052 m 0.4677,-1.4351 -0.1877,0.7299 m 0.2834,-1.4811 -0.096,0.7512 m 0.096,-1.5094 0,0.7582 m -0.096,-1.5094 0.096,0.7512 m -0.2834,-1.4811 0.1877,0.7299 m -0.4677,-1.435 0.28,0.7051 m -0.6449,-1.3677 0.3649,0.6626 m -0.8078,-1.2756 0.4429,0.613 m -0.9603,-1.1622 0.5174,0.5492 m -1.102,-1.0311 0.5846,0.4819 m -1.2224,-0.8894 0.6378,0.4075 m -1.3217,-0.73 0.6839,0.3225 m -1.4032,-0.5563 0.7193,0.2338 m -1.4634,-0.3755 0.7441,0.1417 m -1.4988,-0.1878 0.7547,0.046 m -1.5094,0 0.7547,-0.046 m -1.4988,0.1878 0.7441,-0.1417 m -1.4634,0.3755 0.7193,-0.2338 m -1.4031,0.5563 0.6838,-0.3225 m -1.3216,0.73 0.6378,-0.4075 m -1.2225,0.8894 0.5847,-0.4819 m -1.102,1.0311 0.5173,-0.5492 m -0.9602,1.1622 0.4429,-0.613 m -0.8079,1.2756 0.365,-0.6626 m -0.6449,1.3677 0.2799,-0.7051 m -0.4677,1.435 0.1878,-0.7299 m -0.2835,1.4811 0.096,-0.7512 m -0.096,1.5094 0,-0.7582 m 0.096,1.5094 -0.096,-0.7512 m 0.2835,1.4812 -0.1878,-0.73 m 0.4677,1.4351 -0.2799,-0.7051 m 0.6449,1.3677 -0.365,-0.6626 m 0.8079,1.2756 -0.4429,-0.613 m 0.9602,1.1622 -0.5173,-0.5492 m 1.102,1.0311 -0.5847,-0.4819 m 1.2225,0.8893 -0.6378,-0.4074 m 1.3216,0.7299 -0.6838,-0.3225 m 1.4031,0.5563 -0.7193,-0.2338 m 1.4634,0.3756 -0.7441,-0.1418 m 1.4988,0.1878 -0.7547,-0.046 m 120.3413,-750.072 0,814.96056 m -372.0472,-814.96056 372.0472,0 m -372.0472,814.96056 0,-814.96056 m 372.0472,814.96056 -372.0472,0"
       inkscape:connector-curvature="0" />
    <path
       id="path2756"
       style="fill:none;stroke:#000000;stroke-width:3.54330709;stroke-miterlimit:4;stroke-dasharray:none"
       d="m 1113.8129,332.97033 -0.096,-0.75118 m 0.2835,1.48465 -0.1878,-0.73347 m 0.4642,1.43859 -0.2764,-0.70512 m 0.6413,1.36772 -0.3649,-0.6626 m 0.8114,1.27204 -0.4465,-0.60944 m 0.9638,1.1622 -0.5173,-0.55276 m 1.0984,1.03465 -0.5811,-0.48189 m 1.2189,0.88583 -0.6378,-0.40394 m 1.3252,0.72638 -0.6874,-0.32244 m 1.4067,0.5563 -0.7193,-0.23386 m 1.4598,0.37559 -0.7405,-0.14173 m 1.4953,0.19133 -0.7548,-0.0496 m 1.513,0 -0.7582,0.0496 m 1.4988,-0.19133 -0.7406,0.14173 m 1.4599,-0.37559 -0.7193,0.23386 m 1.4031,-0.5563 -0.6838,0.32244 m 1.3252,-0.72638 -0.6414,0.40394 m 1.2225,-0.88583 -0.5811,0.48189 m 1.0984,-1.03465 -0.5173,0.55276 m 0.9638,-1.1622 -0.4465,0.60944 m 0.8114,-1.27204 -0.3649,0.6626 m 0.6413,-1.36772 -0.2764,0.70512 m 0.4642,-1.43859 -0.1878,0.73347 m 0.2835,-1.48465 -0.096,0.75118 m 0.096,-1.5059 0,0.75472 m -0.096,-1.5059 0.096,0.75118 m -0.2835,-1.48465 0.1878,0.73347 m -0.4642,-1.43504 0.2764,0.70157 m -0.6413,-1.36417 0.3649,0.6626 m -0.8114,-1.27559 0.4465,0.61299 m -0.9638,-1.16575 0.5173,0.55276 m -1.0984,-1.03465 0.5811,0.48189 m -1.2225,-0.88583 0.6414,0.40394 m -1.3252,-0.72638 0.6838,0.32244 m -1.4031,-0.5563 0.7193,0.23386 m -1.4599,-0.37559 0.7406,0.14173 m -1.4988,-0.18779 0.7582,0.0461 m -1.513,0 0.7548,-0.0461 m -1.4953,0.18779 0.7405,-0.14173 m -1.4598,0.37559 0.7193,-0.23386 m -1.4067,0.5563 0.6874,-0.32244 m -1.3252,0.72638 0.6378,-0.40394 m -1.2189,0.88583 0.5811,-0.48189 m -1.0984,1.03465 0.5173,-0.55276 m -0.9638,1.16575 0.4465,-0.61299 m -0.8114,1.27559 0.3649,-0.6626 m -0.6413,1.36417 0.2764,-0.70157 m -0.4642,1.43504 0.1878,-0.73347 m -0.2835,1.48465 0.096,-0.75118 m -0.096,1.5059 0,-0.75472 m -147.06138,-50.93859 -0.11339,-1.77519 m 0.44646,3.52559 -0.33307,-1.7504 m 0.88228,3.44056 -0.54921,-1.69016 m 1.30748,3.30236 -0.75827,-1.6122 m 1.71142,3.11456 -0.95315,-1.50236 m 2.08701,2.87362 -1.13386,-1.37126 m 2.43071,2.59016 -1.29685,-1.2189 m 2.73897,2.26418 -1.44212,-1.04528 m 3.00118,1.90276 -1.55906,-0.85748 m 3.21378,1.51299 -1.65472,-0.65551 m 3.37677,1.09842 -1.72205,-0.44291 m 3.49016,0.66614 -1.76811,-0.22323 m 3.54685,0.22323 -1.77874,0 m 3.54685,-0.22323 -1.76811,0.22323 m 3.49016,-0.66614 -1.72205,0.44291 m 3.37677,-1.09842 -1.65472,0.65551 m 3.21378,-1.51299 -1.55906,0.85748 m 3.00118,-1.90276 -1.44212,1.04528 m 2.73897,-2.26418 -1.29685,1.2189 m 2.43071,-2.59016 -1.13386,1.37126 m 2.08701,-2.87362 -0.95315,1.50236 m 1.71142,-3.11456 -0.75827,1.6122 m 1.30748,-3.30236 -0.54921,1.69016 m 0.88228,-3.44056 -0.33307,1.7504 m 0.44646,-3.52559 -0.11339,1.77519 m 0,-3.55039 0.11339,1.7752 m -0.44646,-3.52559 0.33307,1.75039 m -0.88228,-3.44055 0.54921,1.69016 m -1.30748,-3.30236 0.75827,1.6122 m -1.71142,-3.11457 0.95315,1.50237 m -2.08701,-2.87363 1.13386,1.37126 m -2.43071,-2.59015 1.29685,1.21889 m -2.73897,-2.26417 1.44212,1.04528 m -3.00118,-1.90276 1.55906,0.85748 m -3.21378,-1.51299 1.65472,0.65551 m -3.37677,-1.09843 1.72205,0.44292 m -3.49016,-0.66614 1.76811,0.22322 m -3.54685,-0.22322 1.77874,0 m -3.54685,0.22322 1.76811,-0.22322 m -3.49016,0.66614 1.72205,-0.44292 m -3.37677,1.09843 1.65472,-0.65551 m -3.21378,1.51299 1.55906,-0.85748 m -3.00118,1.90276 1.44212,-1.04528 m -2.73897,2.26417 1.29685,-1.21889 m -2.43071,2.59015 1.13386,-1.37126 m -2.08701,2.87363 0.95315,-1.50237 m -1.71142,3.11457 0.75827,-1.6122 m -1.30748,3.30236 0.54921,-1.69016 m -0.88228,3.44055 0.33307,-1.75039 m -0.44646,3.52559 0.11339,-1.7752 m -183.2563,-63.02126 -0.0461,-0.75472 m 0.1878,1.49882 -0.14173,-0.7441 m 0.37559,1.46339 -0.23386,-0.71929 m 0.5563,1.40315 -0.32244,-0.68386 m 0.72992,1.32165 -0.40748,-0.63779 m 0.88937,1.22244 -0.48189,-0.58465 m 1.0311,1.10197 -0.54921,-0.51732 m 1.1622,0.96023 -0.61299,-0.44291 m 1.27559,0.80787 -0.6626,-0.36496 m 1.36772,0.64488 -0.70512,-0.27992 m 1.43504,0.46772 -0.72992,-0.1878 m 1.4811,0.28347 -0.75118,-0.0957 m 1.50945,0.0957 -0.75827,0 m 1.50945,-0.0957 -0.75118,0.0957 m 1.4811,-0.28347 -0.72992,0.1878 m 1.43504,-0.46772 -0.70512,0.27992 m 1.36772,-0.64488 -0.6626,0.36496 m 1.27559,-0.80787 -0.61299,0.44291 m 1.1622,-0.96023 -0.54921,0.51732 m 1.0311,-1.10197 -0.48189,0.58465 m 0.88937,-1.22244 -0.40748,0.63779 m 0.72992,-1.32165 -0.32244,0.68386 m 0.5563,-1.40315 -0.23386,0.71929 m 0.37559,-1.46339 -0.14173,0.7441 m 0.1878,-1.49882 -0.0461,0.75472 m 0,-1.50945 0.0461,0.75473 m -0.1878,-1.49882 0.14173,0.74409 m -0.37559,-1.46338 0.23386,0.71929 m -0.5563,-1.40315 0.32244,0.68386 m -0.72992,-1.32166 0.40748,0.6378 m -0.88937,-1.22244 0.48189,0.58464 m -1.0311,-1.10197 0.54921,0.51733 m -1.1622,-0.96024 0.61299,0.44291 m -1.27559,-0.80787 0.6626,0.36496 m -1.36772,-0.64488 0.70512,0.27992 m -1.43504,-0.46772 0.72992,0.1878 m -1.4811,-0.28346 0.75118,0.0957 m -1.50945,-0.0957 0.75827,0 m -1.50945,0.0957 0.75118,-0.0957 m -1.4811,0.28346 0.72992,-0.1878 m -1.43504,0.46772 0.70512,-0.27992 m -1.36772,0.64488 0.6626,-0.36496 m -1.27559,0.80787 0.61299,-0.44291 m -1.1622,0.96024 0.54921,-0.51733 m -1.0311,1.10197 0.48189,-0.58464 m -0.88937,1.22244 0.40748,-0.6378 m -0.72992,1.32166 0.32244,-0.68386 m -0.5563,1.40315 0.23386,-0.71929 m -0.37559,1.46338 0.14173,-0.74409 m -0.1878,1.49882 0.0461,-0.75473 m -68.2937,-20.05512 -0.13819,-2.22165 m 0.5563,4.40433 -0.41811,-2.18268 m 1.10551,4.30158 -0.6874,-2.1189 m 1.63346,4.1315 -0.94606,-2.0126 m 2.14016,3.89055 -1.1941,-1.87795 m 2.61142,3.59291 -1.41732,-1.71496 m 3.04015,3.23858 -1.62283,-1.52362 m 3.42283,2.8311 -1.8,-1.30748 m 3.74882,2.37756 -1.94882,-1.07008 m 4.01811,1.88859 -2.06929,-0.81851 m 4.22362,1.37126 -2.15433,-0.55275 m 4.36181,0.83267 -2.20748,-0.27992 m 4.43268,0.27992 -2.2252,0 m 4.43268,-0.27992 -2.20748,0.27992 m 4.36181,-0.83267 -2.15433,0.55275 m 4.22362,-1.37126 -2.06929,0.81851 m 4.01811,-1.88859 -1.94882,1.07008 m 3.74882,-2.37756 -1.8,1.30748 m 3.42284,-2.8311 -1.62284,1.52362 m 3.04016,-3.23858 -1.41732,1.71496 m 2.61141,-3.59291 -1.19409,1.87795 m 2.14016,-3.89055 -0.94607,2.0126 m 1.63347,-4.1315 -0.6874,2.1189 m 1.10551,-4.30158 -0.41811,2.18268 m 0.5563,-4.40433 -0.13819,2.22165 m 0,-4.4433 0.13819,2.22165 m -0.5563,-4.40433 0.41811,2.18268 m -1.10551,-4.30158 0.6874,2.1189 m -1.63347,-4.1315 0.94607,2.0126 m -2.14016,-3.89055 1.19409,1.87795 m -2.61141,-3.59291 1.41732,1.71496 m -3.04016,-3.23858 1.62284,1.52362 m -3.42284,-2.8311 1.8,1.30748 m -3.74882,-2.37756 1.94882,1.07008 m -4.01811,-1.88858 2.06929,0.8185 m -4.22362,-1.37126 2.15433,0.55276 m -4.36181,-0.83268 2.20748,0.27992 m -4.43268,-0.27992 2.2252,0 m -4.43268,0.27992 2.20748,-0.27992 m -4.36181,0.83268 2.15433,-0.55276 m -4.22362,1.37126 2.06929,-0.8185 m -4.01811,1.88858 1.94882,-1.07008 m -3.74882,2.37756 1.8,-1.30748 m -3.42283,2.8311 1.62283,-1.52362 m -3.04015,3.23858 1.41732,-1.71496 m -2.61142,3.59291 1.1941,-1.87795 m -2.14016,3.89055 0.94606,-2.0126 m -1.63346,4.1315 0.6874,-2.1189 m -1.10551,4.30158 0.41811,-2.18268 m -0.5563,4.40433 0.13819,-2.22165 m -122.04537,-98.408271 -1.04528,-3.89764 m 3.89764,6.75 -2.85236,-2.85236 m 6.75,3.89764 -3.89764,-1.04528 m 4.78346,0.80788 -0.88582,0.2374 m 1.77165,0 -0.88583,-0.2374 m 1.77166,0 -0.88583,0.2374 m 1.77165,0 -0.88582,-0.2374 m 1.77165,0 -0.88583,0.2374 m 1.77166,0 -0.88583,-0.2374 m 1.77165,0 -0.88582,0.2374 m 1.77165,0 -0.88583,-0.2374 m 1.77166,0 -0.88583,0.2374 m 1.77166,0 -0.88583,-0.2374 m 1.77165,0 -0.88582,0.2374 m 1.77165,0 -0.88583,-0.2374 m 1.77165,0 -0.88582,0.2374 m 1.77165,0 -0.88583,-0.2374 m 1.77166,0 -0.88583,0.2374 m 1.77165,0 -0.88582,-0.2374 m 1.77165,0 -0.88583,0.2374 m 1.77166,0 -0.88583,-0.2374 m 1.77166,0 -0.88583,0.2374 m 1.77165,0 -0.88582,-0.2374 m 4.78346,-0.80788 -3.89764,1.04528 m 6.75,-3.89764 -2.85236,2.85236 m 3.89764,-6.75 -1.04528,3.89764 m 0,-7.79527 1.04528,3.89763 m -3.89764,-6.75 2.85236,2.85237 m -6.75,-3.89764 3.89764,1.04527 m -4.78346,-0.80787 0.88582,-0.2374 m -1.77165,0 0.88583,0.2374 m -1.77166,0 0.88583,-0.2374 m -1.77166,0 0.88583,0.2374 m -1.77165,0 0.88582,-0.2374 m -1.77165,0 0.88583,0.2374 m -1.77166,0 0.88583,-0.2374 m -1.77165,0 0.88582,0.2374 m -1.77165,0 0.88583,-0.2374 m -1.77165,0 0.88582,0.2374 m -1.77165,0 0.88583,-0.2374 m -1.77166,0 0.88583,0.2374 m -1.77166,0 0.88583,-0.2374 m -1.77165,0 0.88582,0.2374 m -1.77165,0 0.88583,-0.2374 m -1.77166,0 0.88583,0.2374 m -1.77165,0 0.88582,-0.2374 m -1.77165,0 0.88583,0.2374 m -1.77166,0 0.88583,-0.2374 m -1.77165,0 0.88582,0.2374 m -4.78346,0.80787 3.89764,-1.04527 m -6.75,3.89764 2.85236,-2.85237 m -3.89764,6.75 1.04528,-3.89763 m 0,117.637791 -1.04528,-3.89764 m 3.89764,6.75 -2.85236,-2.85236 m 6.75,3.89764 -3.89764,-1.04528 m 4.78346,0.80788 -0.88582,0.2374 m 1.77165,0 -0.88583,-0.2374 m 1.77166,0 -0.88583,0.2374 m 1.77165,0 -0.88582,-0.2374 m 1.77165,0 -0.88583,0.2374 m 1.77166,0 -0.88583,-0.2374 m 1.77165,0 -0.88582,0.2374 m 1.77165,0 -0.88583,-0.2374 m 1.77166,0 -0.88583,0.2374 m 1.77166,0 -0.88583,-0.2374 m 1.77165,0 -0.88582,0.2374 m 1.77165,0 -0.88583,-0.2374 m 1.77165,0 -0.88582,0.2374 m 1.77165,0 -0.88583,-0.2374 m 1.77166,0 -0.88583,0.2374 m 1.77165,0 -0.88582,-0.2374 m 1.77165,0 -0.88583,0.2374 m 1.77166,0 -0.88583,-0.2374 m 1.77166,0 -0.88583,0.2374 m 1.77165,0 -0.88582,-0.2374 m 4.78346,-0.80788 -3.89764,1.04528 m 6.75,-3.89764 -2.85236,2.85236 m 3.89764,-6.75 -1.04528,3.89764 m 0,-7.79528 1.04528,3.89764 m -3.89764,-6.75 2.85236,2.85236 m -6.75,-3.89763 3.89764,1.04527 m -4.78346,-0.80787 0.88582,-0.2374 m -1.77165,0 0.88583,0.2374 m -1.77166,0 0.88583,-0.2374 m -1.77166,0 0.88583,0.2374 m -1.77165,0 0.88582,-0.2374 m -1.77165,0 0.88583,0.2374 m -1.77166,0 0.88583,-0.2374 m -1.77165,0 0.88582,0.2374 m -1.77165,0 0.88583,-0.2374 m -1.77165,0 0.88582,0.2374 m -1.77165,0 0.88583,-0.2374 m -1.77166,0 0.88583,0.2374 m -1.77166,0 0.88583,-0.2374 m -1.77165,0 0.88582,0.2374 m -1.77165,0 0.88583,-0.2374 m -1.77166,0 0.88583,0.2374 m -1.77165,0 0.88582,-0.2374 m -1.77165,0 0.88583,0.2374 m -1.77166,0 0.88583,-0.2374 m -1.77165,0 0.88582,0.2374 m -4.78346,0.80787 3.89764,-1.04527 m -6.75,3.89763 2.85236,-2.85236 m -3.89764,6.75 1.04528,-3.89764 m -97.3878,-44.80511 -0.38976,-6.21851 m 1.55905,12.3378 -1.16929,-6.11929 m 3.09331,12.0437 -1.92402,-5.92441 m 4.57796,11.56181 -2.65394,-5.6374 m 5.99173,10.89567 -3.33779,-5.25827 m 7.3063,10.05945 -3.96851,-4.80118 m 8.51102,9.06378 -4.54251,-4.2626 m 9.5811,7.92637 -5.03859,-3.66377 m 10.49882,6.66496 -5.46023,-3.00119 m 11.25354,5.29371 -5.79331,-2.29252 m 11.82756,3.84094 -6.03425,-1.54842 m 12.21378,2.32795 -6.17953,-0.77953 m 30.1252,0.77953 -23.94567,0 m 30.1252,-0.77953 -6.17953,0.77953 m 12.21378,-2.32795 -6.03425,1.54842 m 11.82756,-3.84094 -5.79331,2.29252 m 11.25354,-5.29371 -5.46023,3.00119 m 10.49881,-6.66496 -5.03858,3.66377 m 9.58111,-7.92637 -4.54253,4.2626 m 8.51103,-9.06378 -3.9685,4.80118 m 7.30629,-10.05945 -3.33779,5.25827 m 5.99173,-10.89567 -2.65394,5.6374 m 4.57796,-11.56181 -1.92402,5.92441 m 3.09331,-12.0437 -1.16929,6.11929 m 1.55905,-12.3378 -0.38976,6.21851 m 0,-12.43701 0.38976,6.2185 m -1.55905,-12.33779 1.16929,6.11929 m -3.09331,-12.0437 1.92402,5.92441 m -4.57796,-11.56181 2.65394,5.6374 m -5.99173,-10.89567 3.33779,5.25827 m -7.30629,-10.05945 3.9685,4.80118 m -8.51103,-9.06378 4.54253,4.2626 m -9.58111,-7.926381 5.03858,3.663781 m -10.49881,-6.664961 5.46023,3.00118 m -11.25354,-5.2937 5.79331,2.29252 m -11.82756,-3.84095 6.03425,1.54843 m -12.21378,-2.32795 6.17953,0.77952 m -30.1252,-0.77952 23.94567,0 m -30.1252,0.77952 6.17953,-0.77952 m -12.21378,2.32795 6.03425,-1.54843 m -11.82756,3.84095 5.79331,-2.29252 m -11.25354,5.2937 5.46023,-3.00118 m -10.49882,6.664961 5.03859,-3.663781 m -9.5811,7.926381 4.54251,-4.2626 m -8.51102,9.06378 3.96851,-4.80118 m -7.3063,10.05945 3.33779,-5.25827 m -5.99173,10.89567 2.65394,-5.6374 m -4.57796,11.56181 1.92402,-5.92441 m -3.09331,12.0437 1.16929,-6.11929 m -1.55905,12.33779 0.38976,-6.2185 m -6.14055,-115.983071 -0.0957,-0.75118 m 0.28347,1.48464 -0.1878,-0.73346 m 0.46772,1.43858 -0.27992,-0.70512 m 0.64488,1.36772 -0.36496,-0.6626 m 0.80787,1.27205 -0.44291,-0.60945 m 0.96023,1.1622 -0.51732,-0.55275 m 1.10197,1.03464 -0.58465,-0.48189 m 1.22244,0.88583 -0.63779,-0.40394 m 1.32165,0.72638 -0.68386,-0.32244 m 1.40315,0.5563 -0.71929,-0.23386 m 1.46339,0.37559 -0.7441,-0.14173 m 1.49882,0.19134 -0.75472,-0.0496 m 1.50945,0 -0.75473,0.0496 m 1.49882,-0.19134 -0.74409,0.14173 m 1.46338,-0.37559 -0.71929,0.23386 m 1.40315,-0.5563 -0.68386,0.32244 m 1.32166,-0.72638 -0.6378,0.40394 m 1.22244,-0.88583 -0.58464,0.48189 m 1.10197,-1.03464 -0.51733,0.55275 m 0.96024,-1.1622 -0.44291,0.60945 m 0.80787,-1.27205 -0.36496,0.6626 m 0.64488,-1.36772 -0.27992,0.70512 m 0.46772,-1.43858 -0.1878,0.73346 m 0.28347,-1.48464 -0.0957,0.75118 m 0.0957,-1.50591 0,0.75473 m -0.0957,-1.50591 0.0957,0.75118 m -0.28347,-1.48464 0.1878,0.73346 m -0.46772,-1.43504 0.27992,0.70158 m -0.64488,-1.36418 0.36496,0.6626 m -0.80787,-1.27559 0.44291,0.61299 m -0.96024,-1.16574 0.51733,0.55275 m -1.10197,-1.03464 0.58464,0.48189 m -1.22244,-0.88583 0.6378,0.40394 m -1.32166,-0.72638 0.68386,0.32244 m -1.40315,-0.5563 0.71929,0.23386 m -1.46338,-0.37559 0.74409,0.14173 m -1.49882,-0.18779 0.75473,0.0461 m -1.50945,0 0.75472,-0.0461 m -1.49882,0.18779 0.7441,-0.14173 m -1.46339,0.37559 0.71929,-0.23386 m -1.40315,0.5563 0.68386,-0.32244 m -1.32165,0.72638 0.63779,-0.40394 m -1.22244,0.88583 0.58465,-0.48189 m -1.10197,1.03464 0.51732,-0.55275 m -0.96023,1.16574 0.44291,-0.61299 m -0.80787,1.27559 0.36496,-0.6626 m -0.64488,1.36418 0.27992,-0.70158 m -0.46772,1.43504 0.1878,-0.73346 m -0.28347,1.48464 0.0957,-0.75118 m -0.0957,1.50591 0,-0.75473 m -6.2185,72.68386 -1.04528,-3.89764 m 3.89764,6.75 -2.85236,-2.85236 m 6.75,3.89764 -3.89764,-1.04528 m 4.78346,0.80788 -0.88582,0.2374 m 1.77165,0 -0.88583,-0.2374 m 1.77166,0 -0.88583,0.2374 m 1.77165,0 -0.88582,-0.2374 m 1.77165,0 -0.88583,0.2374 m 1.77166,0 -0.88583,-0.2374 m 1.77166,0 -0.88583,0.2374 m 1.77165,0 -0.88582,-0.2374 m 1.77165,0 -0.88583,0.2374 m 1.77165,0 -0.88582,-0.2374 m 1.77165,0 -0.88583,0.2374 m 1.77166,0 -0.88583,-0.2374 m 1.77165,0 -0.88582,0.2374 m 1.77165,0 -0.88583,-0.2374 m 1.77166,0 -0.88583,0.2374 m 1.77166,0 -0.88583,-0.2374 m 1.77165,0 -0.88582,0.2374 m 1.77165,0 -0.88583,-0.2374 m 1.77166,0 -0.88583,0.2374 m 1.77165,0 -0.88582,-0.2374 m 4.78346,-0.80788 -3.89764,1.04528 m 6.75,-3.89764 -2.85236,2.85236 m 3.89764,-6.75 -1.04528,3.89764 m 0,-7.79527 1.04528,3.89763 m -3.89764,-6.75 2.85236,2.85237 m -6.75,-3.89764 3.89764,1.04527 m -4.78346,-0.80787 0.88582,-0.2374 m -1.77165,0 0.88583,0.2374 m -1.77166,0 0.88583,-0.2374 m -1.77165,0 0.88582,0.2374 m -1.77165,0 0.88583,-0.2374 m -1.77166,0 0.88583,0.2374 m -1.77166,0 0.88583,-0.2374 m -1.77165,0 0.88582,0.2374 m -1.77165,0 0.88583,-0.2374 m -1.77166,0 0.88583,0.2374 m -1.77165,0 0.88582,-0.2374 m -1.77165,0 0.88583,0.2374 m -1.77165,0 0.88582,-0.2374 m -1.77165,0 0.88583,0.2374 m -1.77166,0 0.88583,-0.2374 m -1.77166,0 0.88583,0.2374 m -1.77165,0 0.88582,-0.2374 m -1.77165,0 0.88583,0.2374 m -1.77166,0 0.88583,-0.2374 m -1.77165,0 0.88582,0.2374 m -4.78346,0.80787 3.89764,-1.04527 m -6.75,3.89764 2.85236,-2.85237 m -3.89764,6.75 1.04528,-3.89763 m 0,117.637791 -1.04528,-3.89764 m 3.89764,6.75 -2.85236,-2.85236 m 6.75,3.89764 -3.89764,-1.04528 m 4.78346,0.80788 -0.88582,0.2374 m 1.77165,0 -0.88583,-0.2374 m 1.77166,0 -0.88583,0.2374 m 1.77165,0 -0.88582,-0.2374 m 1.77165,0 -0.88583,0.2374 m 1.77166,0 -0.88583,-0.2374 m 1.77166,0 -0.88583,0.2374 m 1.77165,0 -0.88582,-0.2374 m 1.77165,0 -0.88583,0.2374 m 1.77165,0 -0.88582,-0.2374 m 1.77165,0 -0.88583,0.2374 m 1.77166,0 -0.88583,-0.2374 m 1.77165,0 -0.88582,0.2374 m 1.77165,0 -0.88583,-0.2374 m 1.77166,0 -0.88583,0.2374 m 1.77166,0 -0.88583,-0.2374 m 1.77165,0 -0.88582,0.2374 m 1.77165,0 -0.88583,-0.2374 m 1.77166,0 -0.88583,0.2374 m 1.77165,0 -0.88582,-0.2374 m 4.78346,-0.80788 -3.89764,1.04528 m 6.75,-3.89764 -2.85236,2.85236 m 3.89764,-6.75 -1.04528,3.89764 m 0,-7.79528 1.04528,3.89764 m -3.89764,-6.75 2.85236,2.85236 m -6.75,-3.89763 3.89764,1.04527 m -4.78346,-0.80787 0.88582,-0.2374 m -1.77165,0 0.88583,0.2374 m -1.77166,0 0.88583,-0.2374 m -1.77165,0 0.88582,0.2374 m -1.77165,0 0.88583,-0.2374 m -1.77166,0 0.88583,0.2374 m -1.77166,0 0.88583,-0.2374 m -1.77165,0 0.88582,0.2374 m -1.77165,0 0.88583,-0.2374 m -1.77166,0 0.88583,0.2374 m -1.77165,0 0.88582,-0.2374 m -1.77165,0 0.88583,0.2374 m -1.77165,0 0.88582,-0.2374 m -1.77165,0 0.88583,0.2374 m -1.77166,0 0.88583,-0.2374 m -1.77166,0 0.88583,0.2374 m -1.77165,0 0.88582,-0.2374 m -1.77165,0 0.88583,0.2374 m -1.77166,0 0.88583,-0.2374 m -1.77165,0 0.88582,0.2374 m -4.78346,0.80787 3.89764,-1.04527 m -6.75,3.89763 2.85236,-2.85236 m -3.89764,6.75 1.04528,-3.89764 m -59.38229,28.97008 -0.0957,-0.75118 m 0.28347,1.4811 -0.1878,-0.72992 m 0.46772,1.43504 -0.27992,-0.70512 m 0.64488,1.36772 -0.36496,-0.6626 m 0.80787,1.27559 -0.44291,-0.61299 m 0.96024,1.16221 -0.51733,-0.54922 m 1.10197,1.0311 -0.58464,-0.48188 m 1.22244,0.88937 -0.6378,-0.40749 m 1.32166,0.72993 -0.68386,-0.32244 m 1.40315,0.5563 -0.71929,-0.23386 m 1.46338,0.37559 -0.74409,-0.14173 m 1.49882,0.18779 -0.75473,-0.0461 m 1.50945,0 -0.75472,0.0461 m 1.49882,-0.18779 -0.7441,0.14173 m 1.46339,-0.37559 -0.71929,0.23386 m 1.40315,-0.5563 -0.68386,0.32244 m 1.32165,-0.72993 -0.63779,0.40749 m 1.22244,-0.88937 -0.58465,0.48188 m 1.10197,-1.0311 -0.51732,0.54922 m 0.96023,-1.16221 -0.44291,0.61299 m 0.80787,-1.27559 -0.36496,0.6626 m 0.64488,-1.36772 -0.27992,0.70512 m 0.46772,-1.43504 -0.1878,0.72992 m 0.28347,-1.4811 -0.0957,0.75118 m 0.0957,-1.50945 0,0.75827 m -0.0957,-1.5059 0.0957,0.74763 m -0.28347,-1.4811 0.1878,0.73347 m -0.46772,-1.43859 0.27992,0.70512 m -0.64488,-1.36772 0.36496,0.6626 m -0.80787,-1.27204 0.44291,0.60944 m -0.96023,-1.1622 0.51732,0.55276 m -1.10197,-1.03465 0.58465,0.48189 m -1.22244,-0.88937 0.63779,0.40748 m -1.32165,-0.72638 0.68386,0.3189 m -1.40315,-0.55276 0.71929,0.23386 m -1.46339,-0.37559 0.7441,0.14173 m -1.49882,-0.19133 0.75472,0.0496 m -1.50945,0 0.75473,-0.0496 m -1.49882,0.19133 0.74409,-0.14173 m -1.46338,0.37205 0.71929,-0.23032 m -1.40315,0.55276 0.68386,-0.32244 m -1.32166,0.72992 0.6378,-0.40748 m -1.22244,0.88937 0.58464,-0.48189 m -1.10197,1.0311 0.51733,-0.54921 m -0.96024,1.1622 0.44291,-0.61299 m -0.80787,1.27559 0.36496,-0.6626 m -0.64488,1.36772 0.27992,-0.70512 m -0.46772,1.43859 0.1878,-0.73347 m -0.28347,1.4811 0.0957,-0.74763 m -0.0957,1.5059 0,-0.75827 m -37.19055,-308.044481 -0.0461,-0.75473 m 0.1878,1.49882 -0.14174,-0.74409 m 0.37559,1.46338 -0.23385,-0.71929 m 0.55629,1.40315 -0.32244,-0.68386 m 0.72993,1.32166 -0.40749,-0.6378 m 0.88937,1.22244 -0.48188,-0.58464 m 1.0311,1.10197 -0.54922,-0.51733 m 1.16221,0.96024 -0.61299,-0.44291 m 1.27559,0.80787 -0.6626,-0.36496 m 1.36772,0.64488 -0.70512,-0.27992 m 1.43504,0.46772 -0.72992,-0.1878 m 1.4811,0.28347 -0.75118,-0.0957 m 1.50945,0.0957 -0.75827,0 m 1.50945,-0.0957 -0.75118,0.0957 m 1.4811,-0.28347 -0.72992,0.1878 m 1.43504,-0.46772 -0.70512,0.27992 m 1.36771,-0.64488 -0.66259,0.36496 m 1.27559,-0.80787 -0.613,0.44291 m 1.16221,-0.96024 -0.54921,0.51733 m 1.0311,-1.10197 -0.48189,0.58464 m 0.88937,-1.22244 -0.40748,0.6378 m 0.72992,-1.32166 -0.32244,0.68386 m 0.5563,-1.40315 -0.23386,0.71929 m 0.37559,-1.46338 -0.14173,0.74409 m 0.18779,-1.49882 -0.0461,0.75473 m 0,-1.50945 0.0461,0.75472 m -0.18779,-1.49882 0.14173,0.7441 m -0.37559,-1.46339 0.23386,0.71929 m -0.5563,-1.40315 0.32244,0.68386 m -0.72992,-1.32165 0.40748,0.63779 m -0.88937,-1.22244 0.48189,0.58465 m -1.0311,-1.10197 0.54921,0.51732 m -1.16221,-0.96023 0.613,0.44291 m -1.27559,-0.80788 0.66259,0.36497 m -1.36771,-0.64489 0.70512,0.27992 m -1.43504,-0.46771 0.72992,0.18779 m -1.4811,-0.28346 0.75118,0.0957 m -1.50945,-0.0957 0.75827,0 m -1.50945,0.0957 0.75118,-0.0957 m -1.4811,0.28346 0.72992,-0.18779 m -1.43504,0.46771 0.70512,-0.27992 m -1.36772,0.64489 0.6626,-0.36497 m -1.27559,0.80788 0.61299,-0.44291 m -1.16221,0.96023 0.54922,-0.51732 m -1.0311,1.10197 0.48188,-0.58465 m -0.88937,1.22244 0.40749,-0.63779 m -0.72993,1.32165 0.32244,-0.68386 m -0.55629,1.40315 0.23385,-0.71929 m -0.37559,1.46339 0.14174,-0.7441 m -0.1878,1.49882 0.0461,-0.75472 m -70.86614,1.50945 -0.0461,-0.75473 m 0.18779,1.49882 -0.14173,-0.74409 m 0.37559,1.46338 -0.23386,-0.71929 m 0.5563,1.40315 -0.32244,-0.68386 m 0.72992,1.32166 -0.40748,-0.6378 m 0.88937,1.22244 -0.48189,-0.58464 m 1.03111,1.10197 -0.54922,-0.51733 m 1.16221,0.96024 -0.61299,-0.44291 m 1.27559,0.80787 -0.6626,-0.36496 m 1.36771,0.64488 -0.70511,-0.27992 m 1.43504,0.46772 -0.72993,-0.1878 m 1.48111,0.28347 -0.75118,-0.0957 m 1.50945,0.0957 -0.75827,0 m 1.50945,-0.0957 -0.75118,0.0957 m 1.4811,-0.28347 -0.72992,0.1878 m 1.43504,-0.46772 -0.70512,0.27992 m 1.36771,-0.64488 -0.66259,0.36496 m 1.27559,-0.80787 -0.613,0.44291 m 1.16221,-0.96024 -0.54921,0.51733 m 1.0311,-1.10197 -0.48189,0.58464 m 0.88937,-1.22244 -0.40748,0.6378 m 0.72992,-1.32166 -0.32244,0.68386 m 0.5563,-1.40315 -0.23386,0.71929 m 0.37559,-1.46338 -0.14173,0.74409 m 0.18779,-1.49882 -0.0461,0.75473 m 0,-1.50945 0.0461,0.75472 m -0.18779,-1.49882 0.14173,0.7441 m -0.37559,-1.46339 0.23386,0.71929 m -0.5563,-1.40315 0.32244,0.68386 m -0.72992,-1.32165 0.40748,0.63779 m -0.88937,-1.22244 0.48189,0.58465 m -1.0311,-1.10197 0.54921,0.51732 m -1.16221,-0.96023 0.613,0.44291 m -1.27559,-0.80788 0.66259,0.36497 m -1.36771,-0.64489 0.70512,0.27992 m -1.43504,-0.46771 0.72992,0.18779 m -1.4811,-0.28346 0.75118,0.0957 m -1.50945,-0.0957 0.75827,0 m -1.50945,0.0957 0.75118,-0.0957 m -1.48111,0.28346 0.72993,-0.18779 m -1.43504,0.46771 0.70511,-0.27992 m -1.36771,0.64489 0.6626,-0.36497 m -1.27559,0.80788 0.61299,-0.44291 m -1.16221,0.96023 0.54922,-0.51732 m -1.03111,1.10197 0.48189,-0.58465 m -0.88937,1.22244 0.40748,-0.63779 m -0.72992,1.32165 0.32244,-0.68386 m -0.5563,1.40315 0.23386,-0.71929 m -0.37559,1.46339 0.14173,-0.7441 m -0.18779,1.49882 0.0461,-0.75472 m -58.99606,-92.388189 -0.0461,-0.75473 m 0.18779,1.49882 -0.14173,-0.74409 m 0.37559,1.46338 -0.23386,-0.71929 m 0.5563,1.40315 -0.32244,-0.68386 m 0.72992,1.32166 -0.40748,-0.6378 m 0.88937,1.22244 -0.48189,-0.58464 m 1.0311,1.10197 -0.54921,-0.51733 m 1.1622,0.96024 -0.61299,-0.44291 m 1.27559,0.80787 -0.6626,-0.36496 m 1.36772,0.64488 -0.70512,-0.27992 m 1.43504,0.46772 -0.72992,-0.1878 m 1.4811,0.28347 -0.75118,-0.0957 m 1.50945,0.0957 -0.75827,0 m 1.50945,-0.0957 -0.75118,0.0957 m 1.4811,-0.28347 -0.72992,0.1878 m 1.43504,-0.46772 -0.70512,0.27992 m 1.36772,-0.64488 -0.6626,0.36496 m 1.27559,-0.80787 -0.61299,0.44291 m 1.1622,-0.96024 -0.54921,0.51733 m 1.03111,-1.10197 -0.4819,0.58464 m 0.88937,-1.22244 -0.40747,0.6378 m 0.72992,-1.32166 -0.32245,0.68386 m 0.5563,-1.40315 -0.23385,0.71929 m 0.37559,-1.46338 -0.14174,0.74409 m 0.1878,-1.49882 -0.0461,0.75473 m 0,-1.50945 0.0461,0.75472 m -0.1878,-1.49881 0.14174,0.74409 m -0.37559,-1.46339 0.23385,0.7193 m -0.5563,-1.40315 0.32245,0.68385 m -0.72992,-1.32165 0.40747,0.6378 m -0.88937,-1.22245 0.4819,0.58465 m -1.03111,-1.10197 0.54921,0.51732 m -1.1622,-0.96023 0.61299,0.44291 m -1.27559,-0.80787 0.6626,0.36496 m -1.36772,-0.64488 0.70512,0.27992 m -1.43504,-0.46772 0.72992,0.1878 m -1.4811,-0.28347 0.75118,0.0957 m -1.50945,-0.0957 0.75827,0 m -1.50945,0.0957 0.75118,-0.0957 m -1.4811,0.28347 0.72992,-0.1878 m -1.43504,0.46772 0.70512,-0.27992 m -1.36772,0.64488 0.6626,-0.36496 m -1.27559,0.80787 0.61299,-0.44291 m -1.1622,0.96023 0.54921,-0.51732 m -1.0311,1.10197 0.48189,-0.58465 m -0.88937,1.22245 0.40748,-0.6378 m -0.72992,1.32165 0.32244,-0.68385 m -0.5563,1.40315 0.23386,-0.7193 m -0.37559,1.46339 0.14173,-0.74409 m -0.18779,1.49881 0.0461,-0.75472 m 0,100.367719 -0.0461,-0.75473 m 0.18779,1.49882 -0.14173,-0.74409 m 0.37559,1.46338 -0.23386,-0.71929 m 0.5563,1.40315 -0.32244,-0.68386 m 0.72992,1.32166 -0.40748,-0.6378 m 0.88937,1.22244 -0.48189,-0.58464 m 1.0311,1.10197 -0.54921,-0.51733 m 1.1622,0.96024 -0.61299,-0.44291 m 1.27559,0.80787 -0.6626,-0.36496 m 1.36772,0.64488 -0.70512,-0.27992 m 1.43504,0.46772 -0.72992,-0.1878 m 1.4811,0.28347 -0.75118,-0.0957 m 1.50945,0.0957 -0.75827,0 m 1.50945,-0.0957 -0.75118,0.0957 m 1.4811,-0.28347 -0.72992,0.1878 m 1.43504,-0.46772 -0.70512,0.27992 m 1.36772,-0.64488 -0.6626,0.36496 m 1.27559,-0.80787 -0.61299,0.44291 m 1.1622,-0.96024 -0.54921,0.51733 m 1.03111,-1.10197 -0.4819,0.58464 m 0.88937,-1.22244 -0.40747,0.6378 m 0.72992,-1.32166 -0.32245,0.68386 m 0.5563,-1.40315 -0.23385,0.71929 m 0.37559,-1.46338 -0.14174,0.74409 m 0.1878,-1.49882 -0.0461,0.75473 m 0,-1.50945 0.0461,0.75472 m -0.1878,-1.49882 0.14174,0.7441 m -0.37559,-1.46339 0.23385,0.71929 m -0.5563,-1.40315 0.32245,0.68386 m -0.72992,-1.32165 0.40747,0.63779 m -0.88937,-1.22244 0.4819,0.58465 m -1.03111,-1.10197 0.54921,0.51732 m -1.1622,-0.96023 0.61299,0.44291 m -1.27559,-0.80787 0.6626,0.36496 m -1.36772,-0.64488 0.70512,0.27992 m -1.43504,-0.46772 0.72992,0.1878 m -1.4811,-0.28347 0.75118,0.0957 m -1.50945,-0.0957 0.75827,0 m -1.50945,0.0957 0.75118,-0.0957 m -1.4811,0.28347 0.72992,-0.1878 m -1.43504,0.46772 0.70512,-0.27992 m -1.36772,0.64488 0.6626,-0.36496 m -1.27559,0.80787 0.61299,-0.44291 m -1.1622,0.96023 0.54921,-0.51732 m -1.0311,1.10197 0.48189,-0.58465 m -0.88937,1.22244 0.40748,-0.63779 m -0.72992,1.32165 0.32244,-0.68386 m -0.5563,1.40315 0.23386,-0.71929 m -0.37559,1.46339 0.14173,-0.7441 m -0.18779,1.49882 0.0461,-0.75472 M 76.686916,-236.75447 l -0.04606,-0.75472 m 0.187795,1.49882 -0.141732,-0.7441 m 0.37559,1.46339 -0.233858,-0.71929 m 0.556299,1.40315 -0.322441,-0.68386 m 0.729921,1.32165 -0.40748,-0.63779 m 0.88937,1.22244 -0.48189,-0.58465 m 1.031103,1.10197 -0.549213,-0.51732 m 1.162205,0.96023 -0.612992,-0.44291 m 1.27559,0.80787 -0.662598,-0.36496 m 1.367716,0.64488 -0.705118,-0.27992 m 1.43504,0.46772 -0.729922,-0.1878 m 1.481103,0.28347 -0.751181,-0.0957 m 1.509449,0.0957 -0.758268,0 m 1.509449,-0.0957 -0.751181,0.0957 m 1.481102,-0.28347 -0.729921,0.1878 m 1.435039,-0.46772 -0.705118,0.27992 m 1.367716,-0.64488 -0.662598,0.36496 m 1.275591,-0.80787 -0.612993,0.44291 m 1.162205,-0.96023 -0.549212,0.51732 m 1.031102,-1.10197 -0.48189,0.58465 m 0.88937,-1.22244 -0.40748,0.63779 m 0.729921,-1.32165 -0.322441,0.68386 m 0.556299,-1.40315 -0.233858,0.71929 m 0.375591,-1.46339 -0.141733,0.7441 m 0.187796,-1.49882 -0.04606,0.75472 m 0,-1.50945 0.04606,0.75473 m -0.187796,-1.49882 0.141733,0.74409 m -0.375591,-1.46338 0.233858,0.71929 m -0.556299,-1.40315 0.322441,0.68386 m -0.729921,-1.32166 0.40748,0.6378 m -0.88937,-1.22244 0.48189,0.58464 m -1.031102,-1.10197 0.549212,0.51733 m -1.162205,-0.96024 0.612993,0.44291 m -1.275591,-0.80787 0.662598,0.36496 m -1.367716,-0.64488 0.705118,0.27992 m -1.435039,-0.46772 0.729921,0.1878 m -1.481102,-0.28347 0.751181,0.0957 m -1.509449,-0.0957 0.758268,0 m -1.509449,0.0957 0.751181,-0.0957 m -1.481103,0.28347 0.729922,-0.1878 m -1.43504,0.46772 0.705118,-0.27992 m -1.367716,0.64488 0.662598,-0.36496 m -1.27559,0.80787 0.612992,-0.44291 m -1.162205,0.96024 0.549213,-0.51733 m -1.031103,1.10197 0.48189,-0.58464 m -0.88937,1.22244 0.40748,-0.6378 m -0.729921,1.32166 0.322441,-0.68386 m -0.556299,1.40315 0.233858,-0.71929 m -0.37559,1.46338 0.141732,-0.74409 m -0.187795,1.49882 0.04606,-0.75473 m -4.6063,172.296849 -0.04606,-0.75472 m 0.187796,1.49882 -0.141733,-0.7441 m 0.375591,1.46339 -0.233858,-0.71929 m 0.556299,1.40315 -0.322444,-0.68386 m 0.729921,1.32165 -0.40748,-0.63779 m 0.88937,1.22244 -0.48189,-0.58465 m 1.031103,1.10197 -0.549213,-0.51732 m 1.162205,0.96023 -0.612992,-0.44291 m 1.27559,0.80788 -0.662598,-0.36497 m 1.367716,0.64489 -0.705118,-0.27992 m 1.43504,0.46771 -0.729922,-0.18779 m 1.481103,0.28346 -0.751181,-0.0957 m 1.509448,0.0957 -0.758267,0 m 1.509448,-0.0957 -0.751181,0.0957 m 1.481103,-0.28346 -0.729922,0.18779 m 1.43504,-0.46771 -0.705118,0.27992 m 1.367716,-0.64489 -0.662598,0.36497 m 1.27559,-0.80788 -0.612992,0.44291 m 1.162205,-0.96023 -0.549213,0.51732 m 1.031103,-1.10197 -0.48189,0.58465 m 0.88937,-1.22244 -0.40748,0.63779 m 0.729921,-1.32165 -0.322441,0.68386 m 0.556299,-1.40315 -0.233858,0.71929 m 0.375591,-1.46339 -0.141733,0.7441 m 0.187796,-1.49882 -0.04606,0.75472 m 0,-1.50945 0.04606,0.75473 m -0.187796,-1.49882 0.141733,0.74409 m -0.375591,-1.46338 0.233858,0.71929 m -0.556299,-1.40315 0.322441,0.68386 m -0.729921,-1.32165 0.40748,0.63779 m -0.88937,-1.22244 0.48189,0.58465 m -1.031103,-1.10197 0.549213,0.51732 m -1.162205,-0.96024 0.612992,0.44292 m -1.27559,-0.80788 0.662598,0.36496 m -1.367716,-0.64488 0.705118,0.27992 m -1.43504,-0.46771 0.729922,0.18779 m -1.481103,-0.28346 0.751181,0.0957 m -1.509448,-0.0957 0.758267,0 m -1.509448,0.0957 0.751181,-0.0957 m -1.481103,0.28346 0.729922,-0.18779 m -1.43504,0.46771 0.705118,-0.27992 m -1.367716,0.64488 0.662598,-0.36496 m -1.27559,0.80788 0.612992,-0.44292 m -1.162205,0.96024 0.549213,-0.51732 m -1.031103,1.10197 0.48189,-0.58465 m -0.88937,1.22244 0.40748,-0.63779 m -0.729921,1.32165 0.322441,-0.68386 m -0.556299,1.40315 0.233858,-0.71929 m -0.375591,1.46338 0.141733,-0.74409 m -0.187796,1.49882 0.04606,-0.75473 M 1423.629,1058.2782 l -1417.3227927,0 M 1423.629,-359.04467 l 0,1417.32287 M 6.3062073,-359.04467 l 1417.3227927,0 M 6.3062073,1058.2782 l 0,-1417.32287"
       inkscape:connector-curvature="0" />
    <path
       id="path2762"
       style="fill:none;stroke:#000000;stroke-width:3.54330707;stroke-miterlimit:4;stroke-dasharray:none"
       d="M 2728.3332,-234.5157 2106.18,-656.2995 m 521.9685,-100.18471 100.1847,521.96851 M 2106.18,-656.2995 2628.1485,-756.48421"
       inkscape:connector-curvature="0" />
    <path
       id="path3488"
       style="fill:none;stroke:#000000;stroke-width:3.54330707;stroke-miterlimit:4;stroke-dasharray:none"
       d="m 1818.5755,-523.85284 0,659.05513 m -372.0473,-659.05513 372.0473,0 m -372.0473,659.05513 0,-659.05513 m 372.0473,659.05513 -372.0473,0"
       inkscape:connector-curvature="0" />
    <path
       id="path3496"
       style="fill:none;stroke:#000000;stroke-width:3.54330707;stroke-miterlimit:4;stroke-dasharray:none"
       d="m 1821.2124,155.80162 0,878.74008 m -372.0473,-878.74008 372.0473,0 m -372.0473,878.74008 0,-878.74008 m 372.0473,878.74008 -372.0473,0"
       inkscape:connector-curvature="0" />
    <path
       id="path3816"
       style="fill:none;stroke:#000000;stroke-width:3.54330707;stroke-miterlimit:4;stroke-dasharray:none"
       d="m 2810.431,319.78195 0,46.063 m -46.0629,-46.063 46.0629,0 m -46.0629,46.063 0,-46.063 m 46.0629,46.063 -46.0629,0 m -98.4579,284.1271 -0.7547,0.046 m 1.4988,-0.1878 -0.7441,0.1417 m 1.4634,-0.3756 -0.7193,0.2339 m 1.4031,-0.5563 -0.6838,0.3224 m 1.3216,-0.7299 -0.6378,0.4075 m 1.2225,-0.8894 -0.5847,0.4819 m 1.102,-1.0311 -0.5173,0.5492 m 0.9602,-1.1622 -0.4429,0.613 m 0.8079,-1.2756 -0.365,0.6626 m 0.6449,-1.3677 -0.2799,0.7051 m 0.4677,-1.435 -0.1878,0.7299 m 0.2834,-1.4811 -0.096,0.7512 m 0.096,-1.5095 0,0.7583 m -0.096,-1.5094 0.096,0.7511 m -0.2834,-1.4811 0.1878,0.73 m -0.4677,-1.4351 0.2799,0.7051 m -0.6449,-1.3677 0.365,0.6626 m -0.8079,-1.2756 0.4429,0.613 m -0.9602,-1.1622 0.5173,0.5492 m -1.102,-1.0311 0.5847,0.4819 m -1.2225,-0.8893 0.6378,0.4074 m -1.3216,-0.7299 0.6838,0.3225 m -1.4031,-0.5564 0.7193,0.2339 m -1.4634,-0.3756 0.7441,0.1417 m -1.4988,-0.1877 0.7547,0.046 m -1.5095,0 0.7548,-0.046 m -1.4989,0.1877 0.7441,-0.1417 m -1.4634,0.3756 0.7193,-0.2339 m -1.4031,0.5564 0.6838,-0.3225 m -1.3216,0.7299 0.6378,-0.4074 m -1.2225,0.8893 0.5847,-0.4819 m -1.102,1.0311 0.5173,-0.5492 m -0.9602,1.1622 0.4429,-0.613 m -0.8079,1.2756 0.365,-0.6626 m -0.6449,1.3677 0.2799,-0.7051 m -0.4677,1.4351 0.1878,-0.73 m -0.2834,1.4811 0.096,-0.7511 m -0.096,1.5094 0,-0.7583 m 0.096,1.5095 -0.096,-0.7512 m 0.2834,1.4811 -0.1878,-0.7299 m 0.4677,1.435 -0.2799,-0.7051 m 0.6449,1.3677 -0.365,-0.6626 m 0.8079,1.2756 -0.4429,-0.613 m 0.9602,1.1622 -0.5173,-0.5492 m 1.102,1.0311 -0.5847,-0.4819 m 1.2225,0.8894 -0.6378,-0.4075 m 1.3216,0.7299 -0.6838,-0.3224 m 1.4031,0.5563 -0.7193,-0.2339 m 1.4634,0.3756 -0.7441,-0.1417 m 1.4989,0.1878 -0.7548,-0.046 m 95.4071,0 -0.7547,0.046 m 1.4988,-0.1878 -0.7441,0.1417 m 1.4634,-0.3756 -0.7193,0.2339 m 1.4032,-0.5563 -0.6839,0.3224 m 1.3217,-0.7299 -0.6378,0.4075 m 1.2224,-0.8894 -0.5846,0.4819 m 1.1019,-1.0311 -0.5173,0.5492 m 0.9602,-1.1622 -0.4429,0.613 m 0.8079,-1.2756 -0.365,0.6626 m 0.6449,-1.3677 -0.2799,0.7051 m 0.4677,-1.435 -0.1878,0.7299 m 0.2835,-1.4811 -0.096,0.7512 m 0.096,-1.5095 0,0.7583 m -0.096,-1.5094 0.096,0.7511 m -0.2835,-1.4811 0.1878,0.73 m -0.4677,-1.4351 0.2799,0.7051 m -0.6449,-1.3677 0.365,0.6626 m -0.8079,-1.2756 0.4429,0.613 m -0.9602,-1.1622 0.5173,0.5492 m -1.1019,-1.0311 0.5846,0.4819 m -1.2224,-0.8893 0.6378,0.4074 m -1.3217,-0.7299 0.6839,0.3225 m -1.4032,-0.5564 0.7193,0.2339 m -1.4634,-0.3756 0.7441,0.1417 m -1.4988,-0.1877 0.7547,0.046 m -1.5094,0 0.7547,-0.046 m -1.4988,0.1877 0.7441,-0.1417 m -1.4634,0.3756 0.7193,-0.2339 m -1.4032,0.5564 0.6839,-0.3225 m -1.3217,0.7299 0.6378,-0.4074 m -1.2224,0.8893 0.5846,-0.4819 m -1.1019,1.0311 0.5173,-0.5492 m -0.9603,1.1622 0.443,-0.613 m -0.8079,1.2756 0.3649,-0.6626 m -0.6448,1.3677 0.2799,-0.7051 m -0.4677,1.4351 0.1878,-0.73 m -0.2835,1.4811 0.096,-0.7511 m -0.096,1.5094 0,-0.7583 m 0.096,1.5095 -0.096,-0.7512 m 0.2835,1.4811 -0.1878,-0.7299 m 0.4677,1.435 -0.2799,-0.7051 m 0.6448,1.3677 -0.3649,-0.6626 m 0.8079,1.2756 -0.443,-0.613 m 0.9603,1.1622 -0.5173,-0.5492 m 1.1019,1.0311 -0.5846,-0.4819 m 1.2224,0.8894 -0.6378,-0.4075 m 1.3217,0.7299 -0.6839,-0.3224 m 1.4032,0.5563 -0.7193,-0.2339 m 1.4634,0.3756 -0.7441,-0.1417 m 1.4988,0.1878 -0.7547,-0.046 m -36.4465,8.0823 -1.7752,0.1134 m 3.5256,-0.4465 -1.7504,0.3331 m 3.4406,-0.8823 -1.6902,0.5492 m 3.3024,-1.3074 -1.6122,0.7582 m 3.1145,-1.7114 -1.5023,0.9532 m 2.8736,-2.087 -1.3713,1.1338 m 2.5902,-2.4307 -1.2189,1.2969 m 2.2642,-2.739 -1.0453,1.4421 m 1.9027,-3.0012 -0.8574,1.5591 m 1.513,-3.2138 -0.6556,1.6547 m 1.0985,-3.3767 -0.4429,1.722 m 0.6661,-3.4902 -0.2232,1.7682 m 0.2232,-3.5469 0,1.7787 m -0.2232,-3.5468 0.2232,1.7681 m -0.6661,-3.4902 0.4429,1.7221 m -1.0985,-3.3768 0.6556,1.6547 m -1.513,-3.2137 0.8574,1.559 m -1.9027,-3.0012 1.0453,1.4422 m -2.2642,-2.739 1.2189,1.2968 m -2.5902,-2.4307 1.3713,1.1339 m -2.8736,-2.087 1.5023,0.9531 m -3.1145,-1.7114 1.6122,0.7583 m -3.3024,-1.3075 1.6902,0.5492 m -3.4406,-0.8823 1.7504,0.3331 m -3.5256,-0.4465 1.7752,0.1134 m -3.5504,0 1.7752,-0.1134 m -3.5256,0.4465 1.7504,-0.3331 m -3.4405,0.8823 1.6901,-0.5492 m -3.3023,1.3075 1.6122,-0.7583 m -3.1146,1.7114 1.5024,-0.9531 m -2.8737,2.087 1.3713,-1.1339 m -2.5902,2.4307 1.2189,-1.2968 m -2.2641,2.739 1.0452,-1.4422 m -1.9027,3.0012 0.8575,-1.559 m -1.513,3.2137 0.6555,-1.6547 m -1.0984,3.3768 0.4429,-1.7221 m -0.6662,3.4902 0.2233,-1.7681 m -0.2233,3.5468 0,-1.7787 m 0.2233,3.5469 -0.2233,-1.7682 m 0.6662,3.4902 -0.4429,-1.722 m 1.0984,3.3767 -0.6555,-1.6547 m 1.513,3.2138 -0.8575,-1.5591 m 1.9027,3.0012 -1.0452,-1.4421 m 2.2641,2.739 -1.2189,-1.2969 m 2.5902,2.4307 -1.3713,-1.1338 m 2.8737,2.087 -1.5024,-0.9532 m 3.1146,1.7114 -1.6122,-0.7582 m 3.3023,1.3074 -1.6901,-0.5492 m 3.4405,0.8823 -1.7504,-0.3331 m 3.5256,0.4465 -1.7752,-0.1134 m 79.7315,28.4032 -0.8894,0.057 m 1.7611,-0.2233 -0.8717,0.1666 m 1.7185,-0.4394 -0.8468,0.2728 m 1.6547,-0.6519 -0.8079,0.3791 m 1.5591,-0.8575 -0.7512,0.4784 m 1.435,-1.0453 -0.6838,0.5669 m 1.2933,-1.2153 -0.6095,0.6484 m 1.1339,-1.3677 -0.5244,0.7193 m 0.9531,-1.4989 -0.4287,0.7796 m 0.7547,-1.6087 -0.326,0.8291 m 0.5492,-1.6901 -0.2232,0.861 m 0.3331,-1.7433 -0.1099,0.8823 m 0.1099,-1.7752 0,0.8929 m -0.1099,-1.7752 0.1099,0.8823 m -0.3331,-1.7433 0.2232,0.861 m -0.5492,-1.6902 0.326,0.8292 m -0.7547,-1.6087 0.4287,0.7795 m -0.9531,-1.4988 0.5244,0.7193 m -1.1339,-1.3677 0.6095,0.6484 m -1.2933,-1.2153 0.6838,0.5669 m -1.435,-1.0453 0.7512,0.4784 m -1.5591,-0.8575 0.8079,0.3791 m -1.6547,-0.6519 0.8468,0.2728 m -1.7185,-0.4394 0.8717,0.1666 m -1.7611,-0.2233 0.8894,0.057 m -1.7787,0 0.8893,-0.057 m -1.761,0.2233 0.8717,-0.1666 m -1.7185,0.4394 0.8468,-0.2728 m -1.6547,0.6519 0.8079,-0.3791 m -1.5591,0.8575 0.7512,-0.4784 m -1.435,1.0453 0.6838,-0.5669 m -1.2933,1.2153 0.6095,-0.6484 m -1.1339,1.3677 0.5244,-0.7193 m -0.9531,1.4988 0.4287,-0.7795 m -0.7547,1.6087 0.326,-0.8292 m -0.5493,1.6902 0.2233,-0.861 m -0.3331,1.7433 0.1098,-0.8823 m -0.1098,1.7752 0,-0.8929 m 0.1098,1.7752 -0.1098,-0.8823 m 0.3331,1.7433 -0.2233,-0.861 m 0.5493,1.6901 -0.326,-0.8291 m 0.7547,1.6087 -0.4287,-0.7796 m 0.9531,1.4989 -0.5244,-0.7193 m 1.1339,1.3677 -0.6095,-0.6484 m 1.2933,1.2153 -0.6838,-0.5669 m 1.435,1.0453 -0.7512,-0.4784 m 1.5591,0.8575 -0.8079,-0.3791 m 1.6547,0.6519 -0.8468,-0.2728 m 1.7185,0.4394 -0.8717,-0.1666 m 1.761,0.2233 -0.8893,-0.057 m -373.0607,56.5263 -0.7547,0.046 m 1.4988,-0.1878 -0.7441,0.1417 m 1.4634,-0.3755 -0.7193,0.2338 m 1.4032,-0.5563 -0.6839,0.3225 m 1.3217,-0.73 -0.6378,0.4075 m 1.2224,-0.8894 -0.5846,0.4819 m 1.102,-1.0311 -0.5174,0.5492 m 0.9603,-1.1622 -0.4429,0.613 m 0.8078,-1.2756 -0.3649,0.6626 m 0.6448,-1.3677 -0.2799,0.7051 m 0.4677,-1.435 -0.1878,0.7299 m 0.2835,-1.4811 -0.096,0.7512 m 0.096,-1.5094 0,0.7582 m -0.096,-1.5094 0.096,0.7512 m -0.2835,-1.4811 0.1878,0.7299 m -0.4677,-1.4351 0.2799,0.7052 m -0.6448,-1.3678 0.3649,0.6626 m -0.8078,-1.2756 0.4429,0.613 m -0.9603,-1.1622 0.5174,0.5492 m -1.102,-1.0311 0.5846,0.4819 m -1.2224,-0.8893 0.6378,0.4074 m -1.3217,-0.7299 0.6839,0.3225 m -1.4032,-0.5563 0.7193,0.2338 m -1.4634,-0.3756 0.7441,0.1418 m -1.4988,-0.1878 0.7547,0.046 m -1.5094,0 0.7547,-0.046 m -1.4988,0.1878 0.7441,-0.1418 m -1.4634,0.3756 0.7193,-0.2338 m -1.4031,0.5563 0.6838,-0.3225 m -1.3216,0.7299 0.6378,-0.4074 m -1.2225,0.8893 0.5847,-0.4819 m -1.102,1.0311 0.5173,-0.5492 m -0.9602,1.1622 0.4429,-0.613 m -0.8079,1.2756 0.365,-0.6626 m -0.6449,1.3678 0.2799,-0.7052 m -0.4677,1.4351 0.1878,-0.7299 m -0.2835,1.4811 0.096,-0.7512 m -0.096,1.5094 0,-0.7582 m 0.096,1.5094 -0.096,-0.7512 m 0.2835,1.4811 -0.1878,-0.7299 m 0.4677,1.435 -0.2799,-0.7051 m 0.6449,1.3677 -0.365,-0.6626 m 0.8079,1.2756 -0.4429,-0.613 m 0.9602,1.1622 -0.5173,-0.5492 m 1.102,1.0311 -0.5847,-0.4819 m 1.2225,0.8894 -0.6378,-0.4075 m 1.3216,0.73 -0.6838,-0.3225 m 1.4031,0.5563 -0.7193,-0.2338 m 1.4634,0.3755 -0.7441,-0.1417 m 1.4988,0.1878 -0.7547,-0.046 m 107.8087,0 -0.7548,0.046 m 1.4989,-0.1878 -0.7441,0.1417 m 1.4633,-0.3755 -0.7192,0.2338 m 1.4031,-0.5563 -0.6839,0.3225 m 1.3217,-0.73 -0.6378,0.4075 m 1.2224,-0.8894 -0.5846,0.4819 m 1.102,-1.0311 -0.5174,0.5492 m 0.9603,-1.1622 -0.4429,0.613 m 0.8078,-1.2756 -0.3649,0.6626 m 0.6449,-1.3677 -0.28,0.7051 m 0.4678,-1.435 -0.1878,0.7299 m 0.2834,-1.4811 -0.096,0.7512 m 0.096,-1.5094 0,0.7582 m -0.096,-1.5094 0.096,0.7512 m -0.2834,-1.4811 0.1878,0.7299 m -0.4678,-1.4351 0.28,0.7052 m -0.6449,-1.3678 0.3649,0.6626 m -0.8078,-1.2756 0.4429,0.613 m -0.9603,-1.1622 0.5174,0.5492 m -1.102,-1.0311 0.5846,0.4819 m -1.2224,-0.8893 0.6378,0.4074 m -1.3217,-0.7299 0.6839,0.3225 m -1.4031,-0.5563 0.7192,0.2338 m -1.4633,-0.3756 0.7441,0.1418 m -1.4989,-0.1878 0.7548,0.046 m -1.5095,0 0.7547,-0.046 m -1.4988,0.1878 0.7441,-0.1418 m -1.4634,0.3756 0.7193,-0.2338 m -1.4031,0.5563 0.6838,-0.3225 m -1.3216,0.7299 0.6378,-0.4074 m -1.2225,0.8893 0.5847,-0.4819 m -1.102,1.0311 0.5173,-0.5492 m -0.9602,1.1622 0.4429,-0.613 m -0.8079,1.2756 0.365,-0.6626 m -0.6449,1.3678 0.2799,-0.7052 m -0.4677,1.4351 0.1878,-0.7299 m -0.2835,1.4811 0.096,-0.7512 m -0.096,1.5094 0,-0.7582 m 0.096,1.5094 -0.096,-0.7512 m 0.2835,1.4811 -0.1878,-0.7299 m 0.4677,1.435 -0.2799,-0.7051 m 0.6449,1.3677 -0.365,-0.6626 m 0.8079,1.2756 -0.4429,-0.613 m 0.9602,1.1622 -0.5173,-0.5492 m 1.102,1.0311 -0.5847,-0.4819 m 1.2225,0.8894 -0.6378,-0.4075 m 1.3216,0.73 -0.6838,-0.3225 m 1.4031,0.5563 -0.7193,-0.2338 m 1.4634,0.3755 -0.7441,-0.1417 m 1.4988,0.1878 -0.7547,-0.046 m 237.724,120.4441 -3.9968,0.2516 m 7.9299,-1.0027 -3.9331,0.7511 m 7.7421,-1.9878 -3.809,1.2367 m 7.4339,-2.941 -3.6249,1.7043 m 7.0052,-3.8515 -3.3803,2.1472 m 6.4665,-4.6984 -3.0862,2.5512 m 5.8287,-5.4709 -2.7425,2.9197 m 5.0953,-6.1618 -2.3528,3.2421 m 4.2803,-6.75 -1.9275,3.5079 m 3.4051,-7.2319 -1.4776,3.724 m 2.4733,-7.6039 -0.9957,3.8799 m 1.4953,-7.852 -0.4996,3.9721 m 0.4996,-7.976 0,4.0039 m -0.4996,-7.976 0.4996,3.9721 m -1.4953,-7.852 0.9957,3.8799 m -2.4733,-7.6039 1.4776,3.724 m -3.4051,-7.2319 1.9275,3.5079 m -4.2803,-6.75 2.3528,3.2421 m -5.0953,-6.1618 2.7425,2.9197 m -5.8287,-5.4709 3.0862,2.5512 m -6.4665,-4.6984 3.3803,2.1472 m -7.0052,-3.8515 3.6249,1.7043 m -7.4339,-2.941 3.809,1.2367 m -7.7421,-1.9878 3.9331,0.7511 m -7.9299,-1.0027 3.9968,0.2516 m -7.9937,0 3.9969,-0.2516 m -7.9299,1.0027 3.933,-0.7511 m -7.7421,1.9878 3.8091,-1.2367 m -7.4339,2.941 3.6248,-1.7043 m -7.0051,3.8515 3.3803,-2.1472 m -6.4665,4.6984 3.0862,-2.5512 m -5.8288,5.4709 2.7426,-2.9197 m -5.0953,6.1618 2.3527,-3.2421 m -4.2803,6.75 1.9276,-3.5079 m -3.4051,7.2319 1.4775,-3.724 m -2.4732,7.6039 0.9957,-3.8799 m -1.4953,7.852 0.4996,-3.9721 m -0.4996,7.976 0,-4.0039 m 0.4996,7.976 -0.4996,-3.9721 m 1.4953,7.852 -0.9957,-3.8799 m 2.4732,7.6039 -1.4775,-3.724 m 3.4051,7.2319 -1.9276,-3.5079 m 4.2803,6.75 -2.3527,-3.2421 m 5.0953,6.1618 -2.7426,-2.9197 m 5.8288,5.4709 -3.0862,-2.5512 m 6.4665,4.6984 -3.3803,-2.1472 m 7.0051,3.8515 -3.6248,-1.7043 m 7.4339,2.941 -3.8091,-1.2367 m 7.7421,1.9878 -3.933,-0.7511 m 7.9299,1.0027 -3.9969,-0.2516 m -475.2319,112.6949 -0.8893,0.057 m 1.761,-0.2232 -0.8717,0.1665 m 1.7185,-0.4393 -0.8468,0.2728 m 1.6547,-0.652 -0.8079,0.3792 m 1.5591,-0.8575 -0.7512,0.4783 m 1.4351,-1.0453 -0.6839,0.567 m 1.2933,-1.2154 -0.6094,0.6484 m 1.1338,-1.3677 -0.5244,0.7193 m 0.9531,-1.4988 -0.4287,0.7795 m 0.7547,-1.6086 -0.326,0.8291 m 0.5493,-1.6902 -0.2233,0.8611 m 0.3331,-1.7433 -0.1098,0.8822 m 0.1098,-1.7752 0,0.893 m -0.1098,-1.7752 0.1098,0.8822 m -0.3331,-1.7433 0.2233,0.8611 m -0.5493,-1.6902 0.326,0.8291 m -0.7547,-1.6086 0.4287,0.7795 m -0.9531,-1.4988 0.5244,0.7193 m -1.1338,-1.3677 0.6094,0.6484 m -1.2933,-1.2154 0.6839,0.567 m -1.4351,-1.0453 0.7512,0.4783 m -1.5591,-0.8574 0.8079,0.3791 m -1.6547,-0.652 0.8468,0.2729 m -1.7185,-0.4394 0.8717,0.1665 m -1.761,-0.2232 0.8893,0.057 m -1.7787,0 0.8894,-0.057 m -1.7611,0.2232 0.8717,-0.1665 m -1.7185,0.4394 0.8468,-0.2729 m -1.6547,0.652 0.8079,-0.3791 m -1.5591,0.8574 0.7512,-0.4783 m -1.435,1.0453 0.6838,-0.567 m -1.2933,1.2154 0.6095,-0.6484 m -1.1339,1.3677 0.5244,-0.7193 m -0.9531,1.4988 0.4287,-0.7795 m -0.7547,1.6086 0.326,-0.8291 m -0.5492,1.6902 0.2232,-0.8611 m -0.3331,1.7433 0.1099,-0.8822 m -0.1099,1.7752 0,-0.893 m 0.1099,1.7752 -0.1099,-0.8822 m 0.3331,1.7433 -0.2232,-0.8611 m 0.5492,1.6902 -0.326,-0.8291 m 0.7547,1.6086 -0.4287,-0.7795 m 0.9531,1.4988 -0.5244,-0.7193 m 1.1339,1.3677 -0.6095,-0.6484 m 1.2933,1.2154 -0.6838,-0.567 m 1.435,1.0453 -0.7512,-0.4783 m 1.5591,0.8575 -0.8079,-0.3792 m 1.6547,0.652 -0.8468,-0.2728 m 1.7185,0.4393 -0.8717,-0.1665 m 1.7611,0.2232 -0.8894,-0.057 m 242.7201,-235.5732 0,255.1181 m -95.6693,-255.1181 95.6693,0 m -95.6693,255.1181 0,-255.1181 m 95.6693,255.1181 -95.6693,0 m -4.5603,13.06425 -0.7547,0.046 m 1.4988,-0.1878 -0.7441,0.1418 m 1.4634,-0.3756 -0.7193,0.2338 m 1.4032,-0.5563 -0.6839,0.3225 m 1.3217,-0.7299 -0.6378,0.4074 m 1.2224,-0.8893 -0.5846,0.4819 m 1.102,-1.0311 -0.5174,0.5492 m 0.9603,-1.1622 -0.4429,0.613 m 0.8078,-1.2756 -0.3649,0.6626 m 0.6448,-1.3677 -0.2799,0.7051 m 0.4677,-1.4351 -0.1878,0.73 m 0.2835,-1.4811 -0.096,0.7511 m 0.096,-1.5094 0,0.7583 m -0.096,-1.5095 0.096,0.7512 m -0.2835,-1.4811 0.1878,0.7299 m -0.4677,-1.435 0.2799,0.7051 m -0.6448,-1.36775 0.3649,0.66265 m -0.8078,-1.27565 0.4429,0.613 m -0.9603,-1.1622 0.5174,0.5492 m -1.102,-1.0311 0.5846,0.4819 m -1.2224,-0.8894 0.6378,0.4075 m -1.3217,-0.7299 0.6839,0.3224 m -1.4032,-0.5563 0.7193,0.2339 m -1.4634,-0.3756 0.7441,0.1417 m -1.4988,-0.1878 0.7547,0.046 m -1.5094,0 0.7547,-0.046 m -1.4988,0.1878 0.7441,-0.1417 m -1.4634,0.3756 0.7193,-0.2339 m -1.4031,0.5563 0.6838,-0.3224 m -1.3216,0.7299 0.6378,-0.4075 m -1.2225,0.8894 0.5847,-0.4819 m -1.102,1.0311 0.5173,-0.5492 m -0.9602,1.1622 0.4429,-0.613 m -0.8079,1.27565 0.365,-0.66265 m -0.6449,1.36775 0.2799,-0.7051 m -0.4677,1.435 0.1878,-0.7299 m -0.2835,1.4811 0.096,-0.7512 m -0.096,1.5095 0,-0.7583 m 0.096,1.5094 -0.096,-0.7511 m 0.2835,1.4811 -0.1878,-0.73 m 0.4677,1.4351 -0.2799,-0.7051 m 0.6449,1.3677 -0.365,-0.6626 m 0.8079,1.2756 -0.4429,-0.613 m 0.9602,1.1622 -0.5173,-0.5492 m 1.102,1.0311 -0.5847,-0.4819 m 1.2225,0.8893 -0.6378,-0.4074 m 1.3216,0.7299 -0.6838,-0.3225 m 1.4031,0.5563 -0.7193,-0.2338 m 1.4634,0.3756 -0.7441,-0.1418 m 1.4988,0.1878 -0.7547,-0.046 m 107.8087,0 -0.7548,0.046 m 1.4989,-0.1878 -0.7441,0.1418 m 1.4633,-0.3756 -0.7192,0.2338 m 1.4031,-0.5563 -0.6839,0.3225 m 1.3217,-0.7299 -0.6378,0.4074 m 1.2224,-0.8893 -0.5846,0.4819 m 1.102,-1.0311 -0.5174,0.5492 m 0.9603,-1.1622 -0.4429,0.613 m 0.8078,-1.2756 -0.3649,0.6626 m 0.6449,-1.3677 -0.28,0.7051 m 0.4678,-1.4351 -0.1878,0.73 m 0.2834,-1.4811 -0.096,0.7511 m 0.096,-1.5094 0,0.7583 m -0.096,-1.5095 0.096,0.7512 m -0.2834,-1.4811 0.1878,0.7299 m -0.4678,-1.435 0.28,0.7051 m -0.6449,-1.36775 0.3649,0.66265 m -0.8078,-1.27565 0.4429,0.613 m -0.9603,-1.1622 0.5174,0.5492 m -1.102,-1.0311 0.5846,0.4819 m -1.2224,-0.8894 0.6378,0.4075 m -1.3217,-0.7299 0.6839,0.3224 m -1.4031,-0.5563 0.7192,0.2339 m -1.4633,-0.3756 0.7441,0.1417 m -1.4989,-0.1878 0.7548,0.046 m -1.5095,0 0.7547,-0.046 m -1.4988,0.1878 0.7441,-0.1417 m -1.4634,0.3756 0.7193,-0.2339 m -1.4031,0.5563 0.6838,-0.3224 m -1.3216,0.7299 0.6378,-0.4075 m -1.2225,0.8894 0.5847,-0.4819 m -1.102,1.0311 0.5173,-0.5492 m -0.9602,1.1622 0.4429,-0.613 m -0.8079,1.27565 0.365,-0.66265 m -0.6449,1.36775 0.2799,-0.7051 m -0.4677,1.435 0.1878,-0.7299 m -0.2835,1.4811 0.096,-0.7512 m -0.096,1.5095 0,-0.7583 m 0.096,1.5094 -0.096,-0.7511 m 0.2835,1.4811 -0.1878,-0.73 m 0.4677,1.4351 -0.2799,-0.7051 m 0.6449,1.3677 -0.365,-0.6626 m 0.8079,1.2756 -0.4429,-0.613 m 0.9602,1.1622 -0.5173,-0.5492 m 1.102,1.0311 -0.5847,-0.4819 m 1.2225,0.8893 -0.6378,-0.4074 m 1.3216,0.7299 -0.6838,-0.3225 m 1.4031,0.5563 -0.7193,-0.2338 m 1.4634,0.3756 -0.7441,-0.1418 m 1.4988,0.1878 -0.7547,-0.046 m 312.5658,-804.10755 0,829.13395 m -584.6457,-177.16545 584.6457,-651.9685 m -602.3623,651.9685 17.7166,0 m -17.7166,177.16545 0,-177.16545 m 602.3623,177.16545 -602.3623,0"
       inkscape:connector-curvature="0" />
    <path
       id="path3956"
       style="fill:none;stroke:#000000;stroke-width:3.54330707;stroke-miterlimit:4;stroke-dasharray:none"
       d="m 2824.7737,-86.240709 -3.5398,1.1516 m 5.7295,-4.1634 -2.1897,3.0118 m 2.1897,-6.7323 0,3.7205 m -2.1897,-6.7323 2.1897,3.0118 m -5.7295,-4.1634 3.5398,1.1516 m -7.0796,0 3.5398,-1.1516 m -5.7295,4.1634 2.1897,-3.0118 m -2.1897,6.7323 0,-3.7205 m 2.1897,6.7323 -2.1897,-3.0118 m 5.7295,4.1634 -3.5398,-1.1516 m -29.4519,131.3929 -2.4414,0.1524 m 4.8473,-0.613 -2.4059,0.4606 m 4.7338,-1.2153 -2.3279,0.7547 m 4.5425,-1.7965 -2.2146,1.0418 m 4.2803,-2.3528 -2.0657,1.311 m 3.9508,-2.8736 -1.8851,1.5626 m 3.5611,-3.3449 -1.676,1.7823 m 3.1146,-3.763 -1.4386,1.9807 m 2.6185,-4.1244 -1.1799,2.1437 m 2.0799,-4.4185 -0.9,2.2748 m 1.5094,-4.6453 -0.6094,2.3705 m 0.9141,-4.8012 -0.3047,2.4307 m 0.3047,-4.8755 0,2.4448 m -0.3047,-4.8756 0.3047,2.4308 m -0.9141,-4.8012 0.6094,2.3704 m -1.5094,-4.6452 0.9,2.2748 m -2.0799,-4.4185 1.1799,2.1437 m -2.6185,-4.1244 1.4386,1.9807 m -3.1146,-3.763 1.676,1.7823 m -3.5611,-3.3449 1.8851,1.5626 m -3.9508,-2.8736003 2.0657,1.3110003 m -4.2803,-2.3528003 2.2146,1.0418 m -4.5425,-1.7965 2.3279,0.7547 m -4.7338,-1.2153 2.4059,0.4606 m -4.8473,-0.613 2.4414,0.1524 m -4.8827,0 2.4413,-0.1524 m -4.8472,0.613 2.4059,-0.4606 m -4.7339,1.2153 2.328,-0.7547 m -4.5425,1.7965 2.2145,-1.0418 m -4.2803,2.3528003 2.0658,-1.3110003 m -3.9508,2.8736003 1.885,-1.5626 m -3.561,3.3449 1.676,-1.7823 m -3.1146,3.763 1.4386,-1.9807 m -2.6185,4.1244 1.1799,-2.1437 m -2.0799,4.4185 0.9,-2.2748 m -1.5095,4.6452 0.6095,-2.3704 m -0.9142,4.8012 0.3047,-2.4308 m -0.3047,4.8756 0,-2.4448 m 0.3047,4.8755 -0.3047,-2.4307 m 0.9142,4.8012 -0.6095,-2.3705 m 1.5095,4.6453 -0.9,-2.2748 m 2.0799,4.4185 -1.1799,-2.1437 m 2.6185,4.1244 -1.4386,-1.9807 m 3.1146,3.763 -1.676,-1.7823 m 3.561,3.3449 -1.885,-1.5626 m 3.9508,2.8736 -2.0658,-1.311 m 4.2803,2.3528 -2.2145,-1.0418 m 4.5425,1.7965 -2.328,-0.7547 m 4.7339,1.2153 -2.4059,-0.4606 m 4.8472,0.613 -2.4413,-0.1524 m 41.4142,102.465399 -3.5398,1.1516 m 5.7295,-4.1634 -2.1897,3.0118 m 2.1897,-6.7323 0,3.7205 m -2.1897,-6.7323 2.1897,3.0118 m -5.7295,-4.1634 3.5398,1.1516 m -7.0796,0 3.5398,-1.1516 m -5.7295,4.1634 2.1897,-3.0118 m -2.1897,6.7323 0,-3.7205 m 2.1897,6.7323 -2.1897,-3.0118 m 5.7295,4.1634 -3.5398,-1.1516 m 28.343,23.4744 -584.6457,651.9685 m 584.6457,-949.6063 0,297.6378 m -584.6457,-588.189 584.6457,290.5512 m -602.3622,-290.5512 17.7165,0 m -17.7165,1240.1575 0,-1240.1575 m 17.7165,1240.1575 -17.7165,0"
       inkscape:connector-curvature="0" />
  </g>
</svg>
