  0
SECTION
  2
BLOCKS
  0
ENDSEC
  0
SECTION
  2
ENTITIES
  0
LINE
  8
0
 10
-393.75
 11
-393.75
 20
-104
 21
1
  0
LINE
  8
0
 10
-393.75
 11
-236.25
 20
1
 21
1
  0
LINE
  8
0
 10
-236.25
 11
-236.25
 20
1
 21
-104
  0
LINE
  8
0
 10
-236.25
 11
-393.75
 20
-104
 21
-104
  0
LINE
  8
0
 10
-361
 11
-361
 20
-15
 21
-3
  0
LINE
  8
0
 10
-361
 11
-347
 20
-3
 21
-3
  0
LINE
  8
0
 10
-347
 11
-347
 20
-3
 21
-15
  0
LINE
  8
0
 10
-347
 11
-361
 20
-15
 21
-15
  0
LINE
  8
0
 10
-329
 11
-329
 20
-16
 21
-3
  0
LINE
  8
0
 10
-329
 11
-318
 20
-3
 21
-3
  0
LINE
  8
0
 10
-318
 11
-318
 20
-3
 21
-16
  0
LINE
  8
0
 10
-318
 11
-329
 20
-16
 21
-16
  0
LINE
  8
0
 10
-300
 11
-299.606
 20
100
 21
106.267
  0
LINE
  8
0
 10
-299.606
 11
-298.429
 20
106.267
 21
112.434
  0
LINE
  8
0
 10
-298.429
 11
-296.489
 20
112.434
 21
118.406
  0
LINE
  8
0
 10
-296.489
 11
-293.815
 20
118.406
 21
124.088
  0
LINE
  8
0
 10
-293.815
 11
-290.451
 20
124.088
 21
129.389
  0
LINE
  8
0
 10
-290.451
 11
-286.448
 20
129.389
 21
134.227
  0
LINE
  8
0
 10
-286.448
 11
-281.871
 20
134.227
 21
138.526
  0
LINE
  8
0
 10
-281.871
 11
-276.791
 20
138.526
 21
142.216
  0
LINE
  8
0
 10
-276.791
 11
-271.289
 20
142.216
 21
145.241
  0
LINE
  8
0
 10
-271.289
 11
-265.451
 20
145.241
 21
147.553
  0
LINE
  8
0
 10
-265.451
 11
-259.369
 20
147.553
 21
149.114
  0
LINE
  8
0
 10
-259.369
 11
-253.14
 20
149.114
 21
149.901
  0
LINE
  8
0
 10
-253.14
 11
-250
 20
149.901
 21
149.901
  0
LINE
  8
0
 10
-250
 11
-250
 20
149.901
 21
150
  0
LINE
  8
0
 10
-250
 11
-120
 20
150
 21
150
  0
LINE
  8
0
 10
-120
 11
-120
 20
150
 21
149.901
  0
LINE
  8
0
 10
-120
 11
-116.86
 20
149.901
 21
149.901
  0
LINE
  8
0
 10
-116.86
 11
-110.631
 20
149.901
 21
149.114
  0
LINE
  8
0
 10
-110.631
 11
-104.549
 20
149.114
 21
147.553
  0
LINE
  8
0
 10
-104.549
 11
-98.711
 20
147.553
 21
145.241
  0
LINE
  8
0
 10
-98.711
 11
-93.209
 20
145.241
 21
142.216
  0
LINE
  8
0
 10
-93.209
 11
-88.129
 20
142.216
 21
138.526
  0
LINE
  8
0
 10
-88.129
 11
-83.552
 20
138.526
 21
134.227
  0
LINE
  8
0
 10
-83.552
 11
-79.549
 20
134.227
 21
129.389
  0
LINE
  8
0
 10
-79.549
 11
-76.185
 20
129.389
 21
124.088
  0
LINE
  8
0
 10
-76.185
 11
-73.511
 20
124.088
 21
118.406
  0
LINE
  8
0
 10
-73.511
 11
-71.571
 20
118.406
 21
112.434
  0
LINE
  8
0
 10
-71.571
 11
-70.394
 20
112.434
 21
106.267
  0
LINE
  8
0
 10
-70.394
 11
-70
 20
106.267
 21
100
  0
LINE
  8
0
 10
-70
 11
-70.394
 20
100
 21
93.733
  0
LINE
  8
0
 10
-70.394
 11
-71.571
 20
93.733
 21
87.566
  0
LINE
  8
0
 10
-71.571
 11
-73.511
 20
87.566
 21
81.594
  0
LINE
  8
0
 10
-73.511
 11
-76.185
 20
81.594
 21
75.912
  0
LINE
  8
0
 10
-76.185
 11
-79.549
 20
75.912
 21
70.611
  0
LINE
  8
0
 10
-79.549
 11
-83.552
 20
70.611
 21
65.773
  0
LINE
  8
0
 10
-83.552
 11
-88.129
 20
65.773
 21
61.474
  0
LINE
  8
0
 10
-88.129
 11
-93.209
 20
61.474
 21
57.784
  0
LINE
  8
0
 10
-93.209
 11
-98.711
 20
57.784
 21
54.759
  0
LINE
  8
0
 10
-98.711
 11
-104.549
 20
54.759
 21
52.447
  0
LINE
  8
0
 10
-104.549
 11
-110.631
 20
52.447
 21
50.886
  0
LINE
  8
0
 10
-110.631
 11
-116.86
 20
50.886
 21
50.099
  0
LINE
  8
0
 10
-116.86
 11
-120
 20
50.099
 21
50.099
  0
LINE
  8
0
 10
-120
 11
-120
 20
50.099
 21
50
  0
LINE
  8
0
 10
-120
 11
-250
 20
50
 21
50
  0
LINE
  8
0
 10
-250
 11
-250
 20
50
 21
50.099
  0
LINE
  8
0
 10
-250
 11
-253.14
 20
50.099
 21
50.099
  0
LINE
  8
0
 10
-253.14
 11
-259.369
 20
50.099
 21
50.886
  0
LINE
  8
0
 10
-259.369
 11
-265.451
 20
50.886
 21
52.447
  0
LINE
  8
0
 10
-265.451
 11
-271.289
 20
52.447
 21
54.759
  0
LINE
  8
0
 10
-271.289
 11
-276.791
 20
54.759
 21
57.784
  0
LINE
  8
0
 10
-276.791
 11
-281.871
 20
57.784
 21
61.474
  0
LINE
  8
0
 10
-281.871
 11
-286.448
 20
61.474
 21
65.773
  0
LINE
  8
0
 10
-286.448
 11
-290.451
 20
65.773
 21
70.611
  0
LINE
  8
0
 10
-290.451
 11
-293.815
 20
70.611
 21
75.912
  0
LINE
  8
0
 10
-293.815
 11
-296.489
 20
75.912
 21
81.594
  0
LINE
  8
0
 10
-296.489
 11
-298.429
 20
81.594
 21
87.566
  0
LINE
  8
0
 10
-298.429
 11
-299.606
 20
87.566
 21
93.733
  0
LINE
  8
0
 10
-299.606
 11
-300
 20
93.733
 21
100
  0
LINE
  8
0
 10
-276.7
 11
-276.687
 20
70
 21
70.213
  0
LINE
  8
0
 10
-276.687
 11
-276.647
 20
70.213
 21
70.423
  0
LINE
  8
0
 10
-276.647
 11
-276.581
 20
70.423
 21
70.626
  0
LINE
  8
0
 10
-276.581
 11
-276.49
 20
70.626
 21
70.819
  0
LINE
  8
0
 10
-276.49
 11
-276.375
 20
70.819
 21
70.999
  0
LINE
  8
0
 10
-276.375
 11
-276.239
 20
70.999
 21
71.164
  0
LINE
  8
0
 10
-276.239
 11
-276.084
 20
71.164
 21
71.31
  0
LINE
  8
0
 10
-276.084
 11
-275.911
 20
71.31
 21
71.435
  0
LINE
  8
0
 10
-275.911
 11
-275.724
 20
71.435
 21
71.538
  0
LINE
  8
0
 10
-275.724
 11
-275.525
 20
71.538
 21
71.617
  0
LINE
  8
0
 10
-275.525
 11
-275.319
 20
71.617
 21
71.67
  0
LINE
  8
0
 10
-275.319
 11
-275.107
 20
71.67
 21
71.697
  0
LINE
  8
0
 10
-275.107
 11
-274.893
 20
71.697
 21
71.697
  0
LINE
  8
0
 10
-274.893
 11
-274.681
 20
71.697
 21
71.67
  0
LINE
  8
0
 10
-274.681
 11
-274.475
 20
71.67
 21
71.617
  0
LINE
  8
0
 10
-274.475
 11
-274.276
 20
71.617
 21
71.538
  0
LINE
  8
0
 10
-274.276
 11
-274.089
 20
71.538
 21
71.435
  0
LINE
  8
0
 10
-274.089
 11
-273.916
 20
71.435
 21
71.31
  0
LINE
  8
0
 10
-273.916
 11
-273.761
 20
71.31
 21
71.164
  0
LINE
  8
0
 10
-273.761
 11
-273.625
 20
71.164
 21
70.999
  0
LINE
  8
0
 10
-273.625
 11
-273.51
 20
70.999
 21
70.819
  0
LINE
  8
0
 10
-273.51
 11
-273.419
 20
70.819
 21
70.626
  0
LINE
  8
0
 10
-273.419
 11
-273.353
 20
70.626
 21
70.423
  0
LINE
  8
0
 10
-273.353
 11
-273.313
 20
70.423
 21
70.213
  0
LINE
  8
0
 10
-273.313
 11
-273.3
 20
70.213
 21
70
  0
LINE
  8
0
 10
-273.3
 11
-273.313
 20
70
 21
69.787
  0
LINE
  8
0
 10
-273.313
 11
-273.353
 20
69.787
 21
69.577
  0
LINE
  8
0
 10
-273.353
 11
-273.419
 20
69.577
 21
69.374
  0
LINE
  8
0
 10
-273.419
 11
-273.51
 20
69.374
 21
69.181
  0
LINE
  8
0
 10
-273.51
 11
-273.625
 20
69.181
 21
69.001
  0
LINE
  8
0
 10
-273.625
 11
-273.761
 20
69.001
 21
68.836
  0
LINE
  8
0
 10
-273.761
 11
-273.916
 20
68.836
 21
68.69
  0
LINE
  8
0
 10
-273.916
 11
-274.089
 20
68.69
 21
68.565
  0
LINE
  8
0
 10
-274.089
 11
-274.276
 20
68.565
 21
68.462
  0
LINE
  8
0
 10
-274.276
 11
-274.475
 20
68.462
 21
68.383
  0
LINE
  8
0
 10
-274.475
 11
-274.681
 20
68.383
 21
68.33
  0
LINE
  8
0
 10
-274.681
 11
-274.893
 20
68.33
 21
68.303
  0
LINE
  8
0
 10
-274.893
 11
-275.107
 20
68.303
 21
68.303
  0
LINE
  8
0
 10
-275.107
 11
-275.319
 20
68.303
 21
68.33
  0
LINE
  8
0
 10
-275.319
 11
-275.525
 20
68.33
 21
68.383
  0
LINE
  8
0
 10
-275.525
 11
-275.724
 20
68.383
 21
68.462
  0
LINE
  8
0
 10
-275.724
 11
-275.911
 20
68.462
 21
68.565
  0
LINE
  8
0
 10
-275.911
 11
-276.084
 20
68.565
 21
68.69
  0
LINE
  8
0
 10
-276.084
 11
-276.239
 20
68.69
 21
68.836
  0
LINE
  8
0
 10
-276.239
 11
-276.375
 20
68.836
 21
69.001
  0
LINE
  8
0
 10
-276.375
 11
-276.49
 20
69.001
 21
69.181
  0
LINE
  8
0
 10
-276.49
 11
-276.581
 20
69.181
 21
69.374
  0
LINE
  8
0
 10
-276.581
 11
-276.647
 20
69.374
 21
69.577
  0
LINE
  8
0
 10
-276.647
 11
-276.687
 20
69.577
 21
69.787
  0
LINE
  8
0
 10
-276.687
 11
-276.7
 20
69.787
 21
70
  0
LINE
  8
0
 10
-276.7
 11
-276.687
 20
130
 21
130.213
  0
LINE
  8
0
 10
-276.687
 11
-276.647
 20
130.213
 21
130.423
  0
LINE
  8
0
 10
-276.647
 11
-276.581
 20
130.423
 21
130.626
  0
LINE
  8
0
 10
-276.581
 11
-276.49
 20
130.626
 21
130.819
  0
LINE
  8
0
 10
-276.49
 11
-276.375
 20
130.819
 21
130.999
  0
LINE
  8
0
 10
-276.375
 11
-276.239
 20
130.999
 21
131.164
  0
LINE
  8
0
 10
-276.239
 11
-276.084
 20
131.164
 21
131.31
  0
LINE
  8
0
 10
-276.084
 11
-275.911
 20
131.31
 21
131.435
  0
LINE
  8
0
 10
-275.911
 11
-275.724
 20
131.435
 21
131.538
  0
LINE
  8
0
 10
-275.724
 11
-275.525
 20
131.538
 21
131.617
  0
LINE
  8
0
 10
-275.525
 11
-275.319
 20
131.617
 21
131.67
  0
LINE
  8
0
 10
-275.319
 11
-275.107
 20
131.67
 21
131.697
  0
LINE
  8
0
 10
-275.107
 11
-274.893
 20
131.697
 21
131.697
  0
LINE
  8
0
 10
-274.893
 11
-274.681
 20
131.697
 21
131.67
  0
LINE
  8
0
 10
-274.681
 11
-274.475
 20
131.67
 21
131.617
  0
LINE
  8
0
 10
-274.475
 11
-274.276
 20
131.617
 21
131.538
  0
LINE
  8
0
 10
-274.276
 11
-274.089
 20
131.538
 21
131.435
  0
LINE
  8
0
 10
-274.089
 11
-273.916
 20
131.435
 21
131.31
  0
LINE
  8
0
 10
-273.916
 11
-273.761
 20
131.31
 21
131.164
  0
LINE
  8
0
 10
-273.761
 11
-273.625
 20
131.164
 21
130.999
  0
LINE
  8
0
 10
-273.625
 11
-273.51
 20
130.999
 21
130.819
  0
LINE
  8
0
 10
-273.51
 11
-273.419
 20
130.819
 21
130.626
  0
LINE
  8
0
 10
-273.419
 11
-273.353
 20
130.626
 21
130.423
  0
LINE
  8
0
 10
-273.353
 11
-273.313
 20
130.423
 21
130.213
  0
LINE
  8
0
 10
-273.313
 11
-273.3
 20
130.213
 21
130
  0
LINE
  8
0
 10
-273.3
 11
-273.313
 20
130
 21
129.787
  0
LINE
  8
0
 10
-273.313
 11
-273.353
 20
129.787
 21
129.577
  0
LINE
  8
0
 10
-273.353
 11
-273.419
 20
129.577
 21
129.374
  0
LINE
  8
0
 10
-273.419
 11
-273.51
 20
129.374
 21
129.181
  0
LINE
  8
0
 10
-273.51
 11
-273.625
 20
129.181
 21
129.001
  0
LINE
  8
0
 10
-273.625
 11
-273.761
 20
129.001
 21
128.836
  0
LINE
  8
0
 10
-273.761
 11
-273.916
 20
128.836
 21
128.69
  0
LINE
  8
0
 10
-273.916
 11
-274.089
 20
128.69
 21
128.565
  0
LINE
  8
0
 10
-274.089
 11
-274.276
 20
128.565
 21
128.462
  0
LINE
  8
0
 10
-274.276
 11
-274.475
 20
128.462
 21
128.383
  0
LINE
  8
0
 10
-274.475
 11
-274.681
 20
128.383
 21
128.33
  0
LINE
  8
0
 10
-274.681
 11
-274.893
 20
128.33
 21
128.303
  0
LINE
  8
0
 10
-274.893
 11
-275.107
 20
128.303
 21
128.303
  0
LINE
  8
0
 10
-275.107
 11
-275.319
 20
128.303
 21
128.33
  0
LINE
  8
0
 10
-275.319
 11
-275.525
 20
128.33
 21
128.383
  0
LINE
  8
0
 10
-275.525
 11
-275.724
 20
128.383
 21
128.462
  0
LINE
  8
0
 10
-275.724
 11
-275.911
 20
128.462
 21
128.565
  0
LINE
  8
0
 10
-275.911
 11
-276.084
 20
128.565
 21
128.69
  0
LINE
  8
0
 10
-276.084
 11
-276.239
 20
128.69
 21
128.836
  0
LINE
  8
0
 10
-276.239
 11
-276.375
 20
128.836
 21
129.001
  0
LINE
  8
0
 10
-276.375
 11
-276.49
 20
129.001
 21
129.181
  0
LINE
  8
0
 10
-276.49
 11
-276.581
 20
129.181
 21
129.374
  0
LINE
  8
0
 10
-276.581
 11
-276.647
 20
129.374
 21
129.577
  0
LINE
  8
0
 10
-276.647
 11
-276.687
 20
129.577
 21
129.787
  0
LINE
  8
0
 10
-276.687
 11
-276.7
 20
129.787
 21
130
  0
LINE
  8
0
 10
-261.25
 11
-261.179
 20
-89
 21
-87.872
  0
LINE
  8
0
 10
-261.179
 11
-260.967
 20
-87.872
 21
-86.762
  0
LINE
  8
0
 10
-260.967
 11
-260.618
 20
-86.762
 21
-85.687
  0
LINE
  8
0
 10
-260.618
 11
-260.137
 20
-85.687
 21
-84.664
  0
LINE
  8
0
 10
-260.137
 11
-259.531
 20
-84.664
 21
-83.71
  0
LINE
  8
0
 10
-259.531
 11
-258.811
 20
-83.71
 21
-82.839
  0
LINE
  8
0
 10
-258.811
 11
-257.987
 20
-82.839
 21
-82.065
  0
LINE
  8
0
 10
-257.987
 11
-257.072
 20
-82.065
 21
-81.401
  0
LINE
  8
0
 10
-257.072
 11
-256.082
 20
-81.401
 21
-80.857
  0
LINE
  8
0
 10
-256.082
 11
-255.031
 20
-80.857
 21
-80.44
  0
LINE
  8
0
 10
-255.031
 11
-253.936
 20
-80.44
 21
-80.159
  0
LINE
  8
0
 10
-253.936
 11
-252.815
 20
-80.159
 21
-80.018
  0
LINE
  8
0
 10
-252.815
 11
-251.685
 20
-80.018
 21
-80.018
  0
LINE
  8
0
 10
-251.685
 11
-250.564
 20
-80.018
 21
-80.159
  0
LINE
  8
0
 10
-250.564
 11
-249.469
 20
-80.159
 21
-80.44
  0
LINE
  8
0
 10
-249.469
 11
-248.418
 20
-80.44
 21
-80.857
  0
LINE
  8
0
 10
-248.418
 11
-247.428
 20
-80.857
 21
-81.401
  0
LINE
  8
0
 10
-247.428
 11
-246.513
 20
-81.401
 21
-82.065
  0
LINE
  8
0
 10
-246.513
 11
-245.689
 20
-82.065
 21
-82.839
  0
LINE
  8
0
 10
-245.689
 11
-244.969
 20
-82.839
 21
-83.71
  0
LINE
  8
0
 10
-244.969
 11
-244.363
 20
-83.71
 21
-84.664
  0
LINE
  8
0
 10
-244.363
 11
-243.882
 20
-84.664
 21
-85.687
  0
LINE
  8
0
 10
-243.882
 11
-243.533
 20
-85.687
 21
-86.762
  0
LINE
  8
0
 10
-243.533
 11
-243.321
 20
-86.762
 21
-87.872
  0
LINE
  8
0
 10
-243.321
 11
-243.25
 20
-87.872
 21
-89
  0
LINE
  8
0
 10
-243.25
 11
-243.321
 20
-89
 21
-90.128
  0
LINE
  8
0
 10
-243.321
 11
-243.533
 20
-90.128
 21
-91.238
  0
LINE
  8
0
 10
-243.533
 11
-243.882
 20
-91.238
 21
-92.313
  0
LINE
  8
0
 10
-243.882
 11
-244.363
 20
-92.313
 21
-93.336
  0
LINE
  8
0
 10
-244.363
 11
-244.969
 20
-93.336
 21
-94.29
  0
LINE
  8
0
 10
-244.969
 11
-245.689
 20
-94.29
 21
-95.161
  0
LINE
  8
0
 10
-245.689
 11
-246.513
 20
-95.161
 21
-95.935
  0
LINE
  8
0
 10
-246.513
 11
-247.428
 20
-95.935
 21
-96.599
  0
LINE
  8
0
 10
-247.428
 11
-248.418
 20
-96.599
 21
-97.143
  0
LINE
  8
0
 10
-248.418
 11
-249.469
 20
-97.143
 21
-97.56
  0
LINE
  8
0
 10
-249.469
 11
-250.564
 20
-97.56
 21
-97.841
  0
LINE
  8
0
 10
-250.564
 11
-251.685
 20
-97.841
 21
-97.982
  0
LINE
  8
0
 10
-251.685
 11
-252.815
 20
-97.982
 21
-97.982
  0
LINE
  8
0
 10
-252.815
 11
-253.936
 20
-97.982
 21
-97.841
  0
LINE
  8
0
 10
-253.936
 11
-255.031
 20
-97.841
 21
-97.56
  0
LINE
  8
0
 10
-255.031
 11
-256.082
 20
-97.56
 21
-97.143
  0
LINE
  8
0
 10
-256.082
 11
-257.072
 20
-97.143
 21
-96.599
  0
LINE
  8
0
 10
-257.072
 11
-257.987
 20
-96.599
 21
-95.935
  0
LINE
  8
0
 10
-257.987
 11
-258.811
 20
-95.935
 21
-95.161
  0
LINE
  8
0
 10
-258.811
 11
-259.531
 20
-95.161
 21
-94.29
  0
LINE
  8
0
 10
-259.531
 11
-260.137
 20
-94.29
 21
-93.336
  0
LINE
  8
0
 10
-260.137
 11
-260.618
 20
-93.336
 21
-92.313
  0
LINE
  8
0
 10
-260.618
 11
-260.967
 20
-92.313
 21
-91.238
  0
LINE
  8
0
 10
-260.967
 11
-261.179
 20
-91.238
 21
-90.128
  0
LINE
  8
0
 10
-261.179
 11
-261.25
 20
-90.128
 21
-89
  0
LINE
  8
0
 10
-261.25
 11
-261.179
 20
-51.5
 21
-50.372
  0
LINE
  8
0
 10
-261.179
 11
-260.967
 20
-50.372
 21
-49.262
  0
LINE
  8
0
 10
-260.967
 11
-260.618
 20
-49.262
 21
-48.187
  0
LINE
  8
0
 10
-260.618
 11
-260.137
 20
-48.187
 21
-47.164
  0
LINE
  8
0
 10
-260.137
 11
-259.531
 20
-47.164
 21
-46.21
  0
LINE
  8
0
 10
-259.531
 11
-258.811
 20
-46.21
 21
-45.339
  0
LINE
  8
0
 10
-258.811
 11
-257.987
 20
-45.339
 21
-44.565
  0
LINE
  8
0
 10
-257.987
 11
-257.072
 20
-44.565
 21
-43.901
  0
LINE
  8
0
 10
-257.072
 11
-256.082
 20
-43.901
 21
-43.357
  0
LINE
  8
0
 10
-256.082
 11
-255.031
 20
-43.357
 21
-42.94
  0
LINE
  8
0
 10
-255.031
 11
-253.936
 20
-42.94
 21
-42.659
  0
LINE
  8
0
 10
-253.936
 11
-252.815
 20
-42.659
 21
-42.518
  0
LINE
  8
0
 10
-252.815
 11
-251.685
 20
-42.518
 21
-42.518
  0
LINE
  8
0
 10
-251.685
 11
-250.564
 20
-42.518
 21
-42.659
  0
LINE
  8
0
 10
-250.564
 11
-249.469
 20
-42.659
 21
-42.94
  0
LINE
  8
0
 10
-249.469
 11
-248.418
 20
-42.94
 21
-43.357
  0
LINE
  8
0
 10
-248.418
 11
-247.428
 20
-43.357
 21
-43.901
  0
LINE
  8
0
 10
-247.428
 11
-246.513
 20
-43.901
 21
-44.565
  0
LINE
  8
0
 10
-246.513
 11
-245.689
 20
-44.565
 21
-45.339
  0
LINE
  8
0
 10
-245.689
 11
-244.969
 20
-45.339
 21
-46.21
  0
LINE
  8
0
 10
-244.969
 11
-244.363
 20
-46.21
 21
-47.164
  0
LINE
  8
0
 10
-244.363
 11
-243.882
 20
-47.164
 21
-48.187
  0
LINE
  8
0
 10
-243.882
 11
-243.533
 20
-48.187
 21
-49.262
  0
LINE
  8
0
 10
-243.533
 11
-243.321
 20
-49.262
 21
-50.372
  0
LINE
  8
0
 10
-243.321
 11
-243.25
 20
-50.372
 21
-51.5
  0
LINE
  8
0
 10
-243.25
 11
-243.321
 20
-51.5
 21
-52.628
  0
LINE
  8
0
 10
-243.321
 11
-243.533
 20
-52.628
 21
-53.738
  0
LINE
  8
0
 10
-243.533
 11
-243.882
 20
-53.738
 21
-54.813
  0
LINE
  8
0
 10
-243.882
 11
-244.363
 20
-54.813
 21
-55.836
  0
LINE
  8
0
 10
-244.363
 11
-244.969
 20
-55.836
 21
-56.79
  0
LINE
  8
0
 10
-244.969
 11
-245.689
 20
-56.79
 21
-57.661
  0
LINE
  8
0
 10
-245.689
 11
-246.513
 20
-57.661
 21
-58.435
  0
LINE
  8
0
 10
-246.513
 11
-247.428
 20
-58.435
 21
-59.099
  0
LINE
  8
0
 10
-247.428
 11
-248.418
 20
-59.099
 21
-59.643
  0
LINE
  8
0
 10
-248.418
 11
-249.469
 20
-59.643
 21
-60.06
  0
LINE
  8
0
 10
-249.469
 11
-250.564
 20
-60.06
 21
-60.341
  0
LINE
  8
0
 10
-250.564
 11
-251.685
 20
-60.341
 21
-60.482
  0
LINE
  8
0
 10
-251.685
 11
-252.815
 20
-60.482
 21
-60.482
  0
LINE
  8
0
 10
-252.815
 11
-253.936
 20
-60.482
 21
-60.341
  0
LINE
  8
0
 10
-253.936
 11
-255.031
 20
-60.341
 21
-60.06
  0
LINE
  8
0
 10
-255.031
 11
-256.082
 20
-60.06
 21
-59.643
  0
LINE
  8
0
 10
-256.082
 11
-257.072
 20
-59.643
 21
-59.099
  0
LINE
  8
0
 10
-257.072
 11
-257.987
 20
-59.099
 21
-58.435
  0
LINE
  8
0
 10
-257.987
 11
-258.811
 20
-58.435
 21
-57.661
  0
LINE
  8
0
 10
-258.811
 11
-259.531
 20
-57.661
 21
-56.79
  0
LINE
  8
0
 10
-259.531
 11
-260.137
 20
-56.79
 21
-55.836
  0
LINE
  8
0
 10
-260.137
 11
-260.618
 20
-55.836
 21
-54.813
  0
LINE
  8
0
 10
-260.618
 11
-260.967
 20
-54.813
 21
-53.738
  0
LINE
  8
0
 10
-260.967
 11
-261.179
 20
-53.738
 21
-52.628
  0
LINE
  8
0
 10
-261.179
 11
-261.25
 20
-52.628
 21
-51.5
  0
LINE
  8
0
 10
-261.25
 11
-261.179
 20
-14
 21
-12.872
  0
LINE
  8
0
 10
-261.179
 11
-260.967
 20
-12.872
 21
-11.762
  0
LINE
  8
0
 10
-260.967
 11
-260.618
 20
-11.762
 21
-10.687
  0
LINE
  8
0
 10
-260.618
 11
-260.137
 20
-10.687
 21
-9.664
  0
LINE
  8
0
 10
-260.137
 11
-259.531
 20
-9.664
 21
-8.71
  0
LINE
  8
0
 10
-259.531
 11
-258.811
 20
-8.71
 21
-7.839
  0
LINE
  8
0
 10
-258.811
 11
-257.987
 20
-7.839
 21
-7.065
  0
LINE
  8
0
 10
-257.987
 11
-257.072
 20
-7.065
 21
-6.401
  0
LINE
  8
0
 10
-257.072
 11
-256.082
 20
-6.401
 21
-5.857
  0
LINE
  8
0
 10
-256.082
 11
-255.031
 20
-5.857
 21
-5.44
  0
LINE
  8
0
 10
-255.031
 11
-253.936
 20
-5.44
 21
-5.159
  0
LINE
  8
0
 10
-253.936
 11
-252.815
 20
-5.159
 21
-5.018
  0
LINE
  8
0
 10
-252.815
 11
-251.685
 20
-5.018
 21
-5.018
  0
LINE
  8
0
 10
-251.685
 11
-250.564
 20
-5.018
 21
-5.159
  0
LINE
  8
0
 10
-250.564
 11
-249.469
 20
-5.159
 21
-5.44
  0
LINE
  8
0
 10
-249.469
 11
-248.418
 20
-5.44
 21
-5.857
  0
LINE
  8
0
 10
-248.418
 11
-247.428
 20
-5.857
 21
-6.401
  0
LINE
  8
0
 10
-247.428
 11
-246.513
 20
-6.401
 21
-7.065
  0
LINE
  8
0
 10
-246.513
 11
-245.689
 20
-7.065
 21
-7.839
  0
LINE
  8
0
 10
-245.689
 11
-244.969
 20
-7.839
 21
-8.71
  0
LINE
  8
0
 10
-244.969
 11
-244.363
 20
-8.71
 21
-9.664
  0
LINE
  8
0
 10
-244.363
 11
-243.882
 20
-9.664
 21
-10.687
  0
LINE
  8
0
 10
-243.882
 11
-243.533
 20
-10.687
 21
-11.762
  0
LINE
  8
0
 10
-243.533
 11
-243.321
 20
-11.762
 21
-12.872
  0
LINE
  8
0
 10
-243.321
 11
-243.25
 20
-12.872
 21
-14
  0
LINE
  8
0
 10
-243.25
 11
-243.321
 20
-14
 21
-15.128
  0
LINE
  8
0
 10
-243.321
 11
-243.533
 20
-15.128
 21
-16.238
  0
LINE
  8
0
 10
-243.533
 11
-243.882
 20
-16.238
 21
-17.313
  0
LINE
  8
0
 10
-243.882
 11
-244.363
 20
-17.313
 21
-18.336
  0
LINE
  8
0
 10
-244.363
 11
-244.969
 20
-18.336
 21
-19.29
  0
LINE
  8
0
 10
-244.969
 11
-245.689
 20
-19.29
 21
-20.161
  0
LINE
  8
0
 10
-245.689
 11
-246.513
 20
-20.161
 21
-20.935
  0
LINE
  8
0
 10
-246.513
 11
-247.428
 20
-20.935
 21
-21.599
  0
LINE
  8
0
 10
-247.428
 11
-248.418
 20
-21.599
 21
-22.143
  0
LINE
  8
0
 10
-248.418
 11
-249.469
 20
-22.143
 21
-22.56
  0
LINE
  8
0
 10
-249.469
 11
-250.564
 20
-22.56
 21
-22.841
  0
LINE
  8
0
 10
-250.564
 11
-251.685
 20
-22.841
 21
-22.982
  0
LINE
  8
0
 10
-251.685
 11
-252.815
 20
-22.982
 21
-22.982
  0
LINE
  8
0
 10
-252.815
 11
-253.936
 20
-22.982
 21
-22.841
  0
LINE
  8
0
 10
-253.936
 11
-255.031
 20
-22.841
 21
-22.56
  0
LINE
  8
0
 10
-255.031
 11
-256.082
 20
-22.56
 21
-22.143
  0
LINE
  8
0
 10
-256.082
 11
-257.072
 20
-22.143
 21
-21.599
  0
LINE
  8
0
 10
-257.072
 11
-257.987
 20
-21.599
 21
-20.935
  0
LINE
  8
0
 10
-257.987
 11
-258.811
 20
-20.935
 21
-20.161
  0
LINE
  8
0
 10
-258.811
 11
-259.531
 20
-20.161
 21
-19.29
  0
LINE
  8
0
 10
-259.531
 11
-260.137
 20
-19.29
 21
-18.336
  0
LINE
  8
0
 10
-260.137
 11
-260.618
 20
-18.336
 21
-17.313
  0
LINE
  8
0
 10
-260.618
 11
-260.967
 20
-17.313
 21
-16.238
  0
LINE
  8
0
 10
-260.967
 11
-261.179
 20
-16.238
 21
-15.128
  0
LINE
  8
0
 10
-261.179
 11
-261.25
 20
-15.128
 21
-14
  0
LINE
  8
0
 10
-230
 11
-230
 20
-49
 21
1
  0
LINE
  8
0
 10
-230
 11
-6.25
 20
1
 21
1
  0
LINE
  8
0
 10
-6.25
 11
-6.25
 20
1
 21
-149
  0
LINE
  8
0
 10
-6.25
 11
-106.25
 20
-149
 21
-49
  0
LINE
  8
0
 10
-106.25
 11
-230
 20
-49
 21
-49
  0
LINE
  8
0
 10
-81.7
 11
-81.687
 20
100
 21
100.213
  0
LINE
  8
0
 10
-81.687
 11
-81.647
 20
100.213
 21
100.423
  0
LINE
  8
0
 10
-81.647
 11
-81.581
 20
100.423
 21
100.626
  0
LINE
  8
0
 10
-81.581
 11
-81.49
 20
100.626
 21
100.819
  0
LINE
  8
0
 10
-81.49
 11
-81.375
 20
100.819
 21
100.999
  0
LINE
  8
0
 10
-81.375
 11
-81.239
 20
100.999
 21
101.164
  0
LINE
  8
0
 10
-81.239
 11
-81.084
 20
101.164
 21
101.31
  0
LINE
  8
0
 10
-81.084
 11
-80.911
 20
101.31
 21
101.435
  0
LINE
  8
0
 10
-80.911
 11
-80.724
 20
101.435
 21
101.538
  0
LINE
  8
0
 10
-80.724
 11
-80.525
 20
101.538
 21
101.617
  0
LINE
  8
0
 10
-80.525
 11
-80.319
 20
101.617
 21
101.67
  0
LINE
  8
0
 10
-80.319
 11
-80.107
 20
101.67
 21
101.697
  0
LINE
  8
0
 10
-80.107
 11
-79.893
 20
101.697
 21
101.697
  0
LINE
  8
0
 10
-79.893
 11
-79.681
 20
101.697
 21
101.67
  0
LINE
  8
0
 10
-79.681
 11
-79.475
 20
101.67
 21
101.617
  0
LINE
  8
0
 10
-79.475
 11
-79.276
 20
101.617
 21
101.538
  0
LINE
  8
0
 10
-79.276
 11
-79.089
 20
101.538
 21
101.435
  0
LINE
  8
0
 10
-79.089
 11
-78.916
 20
101.435
 21
101.31
  0
LINE
  8
0
 10
-78.916
 11
-78.761
 20
101.31
 21
101.164
  0
LINE
  8
0
 10
-78.761
 11
-78.625
 20
101.164
 21
100.999
  0
LINE
  8
0
 10
-78.625
 11
-78.51
 20
100.999
 21
100.819
  0
LINE
  8
0
 10
-78.51
 11
-78.419
 20
100.819
 21
100.626
  0
LINE
  8
0
 10
-78.419
 11
-78.353
 20
100.626
 21
100.423
  0
LINE
  8
0
 10
-78.353
 11
-78.313
 20
100.423
 21
100.213
  0
LINE
  8
0
 10
-78.313
 11
-78.3
 20
100.213
 21
100
  0
LINE
  8
0
 10
-78.3
 11
-78.313
 20
100
 21
99.787
  0
LINE
  8
0
 10
-78.313
 11
-78.353
 20
99.787
 21
99.577
  0
LINE
  8
0
 10
-78.353
 11
-78.419
 20
99.577
 21
99.374
  0
LINE
  8
0
 10
-78.419
 11
-78.51
 20
99.374
 21
99.181
  0
LINE
  8
0
 10
-78.51
 11
-78.625
 20
99.181
 21
99.001
  0
LINE
  8
0
 10
-78.625
 11
-78.761
 20
99.001
 21
98.836
  0
LINE
  8
0
 10
-78.761
 11
-78.916
 20
98.836
 21
98.69
  0
LINE
  8
0
 10
-78.916
 11
-79.089
 20
98.69
 21
98.565
  0
LINE
  8
0
 10
-79.089
 11
-79.276
 20
98.565
 21
98.462
  0
LINE
  8
0
 10
-79.276
 11
-79.475
 20
98.462
 21
98.383
  0
LINE
  8
0
 10
-79.475
 11
-79.681
 20
98.383
 21
98.33
  0
LINE
  8
0
 10
-79.681
 11
-79.893
 20
98.33
 21
98.303
  0
LINE
  8
0
 10
-79.893
 11
-80.107
 20
98.303
 21
98.303
  0
LINE
  8
0
 10
-80.107
 11
-80.319
 20
98.303
 21
98.33
  0
LINE
  8
0
 10
-80.319
 11
-80.525
 20
98.33
 21
98.383
  0
LINE
  8
0
 10
-80.525
 11
-80.724
 20
98.383
 21
98.462
  0
LINE
  8
0
 10
-80.724
 11
-80.911
 20
98.462
 21
98.565
  0
LINE
  8
0
 10
-80.911
 11
-81.084
 20
98.565
 21
98.69
  0
LINE
  8
0
 10
-81.084
 11
-81.239
 20
98.69
 21
98.836
  0
LINE
  8
0
 10
-81.239
 11
-81.375
 20
98.836
 21
99.001
  0
LINE
  8
0
 10
-81.375
 11
-81.49
 20
99.001
 21
99.181
  0
LINE
  8
0
 10
-81.49
 11
-81.581
 20
99.181
 21
99.374
  0
LINE
  8
0
 10
-81.581
 11
-81.647
 20
99.374
 21
99.577
  0
LINE
  8
0
 10
-81.647
 11
-81.687
 20
99.577
 21
99.787
  0
LINE
  8
0
 10
-81.687
 11
-81.7
 20
99.787
 21
100
  0
LINE
  8
0
 10
0
 11
0
 20
-315
 21
-210
  0
LINE
  8
0
 10
0
 11
230
 20
-210
 21
-210
  0
LINE
  8
0
 10
230
 11
230
 20
-210
 21
-315
  0
LINE
  8
0
 10
230
 11
0
 20
-315
 21
-315
  0
LINE
  8
0
 10
0
 11
0
 20
-200
 21
0
  0
LINE
  8
0
 10
0
 11
400
 20
0
 21
0
  0
LINE
  8
0
 10
400
 11
400
 20
0
 21
-200
  0
LINE
  8
0
 10
400
 11
0
 20
-200
 21
-200
  0
LINE
  8
0
 10
0
 11
0
 20
1
 21
401
  0
LINE
  8
0
 10
0
 11
400
 20
401
 21
401
  0
LINE
  8
0
 10
400
 11
400
 20
401
 21
1
  0
LINE
  8
0
 10
400
 11
0
 20
1
 21
1
  0
LINE
  8
0
 10
0
 11
0
 20
402
 21
507
  0
LINE
  8
0
 10
0
 11
48
 20
507
 21
507
  0
LINE
  8
0
 10
48
 11
48
 20
507
 21
402
  0
LINE
  8
0
 10
48
 11
0
 20
402
 21
402
  0
LINE
  8
0
 10
18.3
 11
18.313
 20
-281.25
 21
-281.037
  0
LINE
  8
0
 10
18.313
 11
18.353
 20
-281.037
 21
-280.827
  0
LINE
  8
0
 10
18.353
 11
18.419
 20
-280.827
 21
-280.624
  0
LINE
  8
0
 10
18.419
 11
18.51
 20
-280.624
 21
-280.431
  0
LINE
  8
0
 10
18.51
 11
18.625
 20
-280.431
 21
-280.251
  0
LINE
  8
0
 10
18.625
 11
18.761
 20
-280.251
 21
-280.086
  0
LINE
  8
0
 10
18.761
 11
18.916
 20
-280.086
 21
-279.94
  0
LINE
  8
0
 10
18.916
 11
19.089
 20
-279.94
 21
-279.815
  0
LINE
  8
0
 10
19.089
 11
19.276
 20
-279.815
 21
-279.712
  0
LINE
  8
0
 10
19.276
 11
19.475
 20
-279.712
 21
-279.633
  0
LINE
  8
0
 10
19.475
 11
19.681
 20
-279.633
 21
-279.58
  0
LINE
  8
0
 10
19.681
 11
19.893
 20
-279.58
 21
-279.553
  0
LINE
  8
0
 10
19.893
 11
20.107
 20
-279.553
 21
-279.553
  0
LINE
  8
0
 10
20.107
 11
20.319
 20
-279.553
 21
-279.58
  0
LINE
  8
0
 10
20.319
 11
20.525
 20
-279.58
 21
-279.633
  0
LINE
  8
0
 10
20.525
 11
20.724
 20
-279.633
 21
-279.712
  0
LINE
  8
0
 10
20.724
 11
20.911
 20
-279.712
 21
-279.815
  0
LINE
  8
0
 10
20.911
 11
21.084
 20
-279.815
 21
-279.94
  0
LINE
  8
0
 10
21.084
 11
21.239
 20
-279.94
 21
-280.086
  0
LINE
  8
0
 10
21.239
 11
21.375
 20
-280.086
 21
-280.251
  0
LINE
  8
0
 10
21.375
 11
21.49
 20
-280.251
 21
-280.431
  0
LINE
  8
0
 10
21.49
 11
21.581
 20
-280.431
 21
-280.624
  0
LINE
  8
0
 10
21.581
 11
21.647
 20
-280.624
 21
-280.827
  0
LINE
  8
0
 10
21.647
 11
21.687
 20
-280.827
 21
-281.037
  0
LINE
  8
0
 10
21.687
 11
21.7
 20
-281.037
 21
-281.25
  0
LINE
  8
0
 10
21.7
 11
21.687
 20
-281.25
 21
-281.463
  0
LINE
  8
0
 10
21.687
 11
21.647
 20
-281.463
 21
-281.673
  0
LINE
  8
0
 10
21.647
 11
21.581
 20
-281.673
 21
-281.876
  0
LINE
  8
0
 10
21.581
 11
21.49
 20
-281.876
 21
-282.069
  0
LINE
  8
0
 10
21.49
 11
21.375
 20
-282.069
 21
-282.249
  0
LINE
  8
0
 10
21.375
 11
21.239
 20
-282.249
 21
-282.414
  0
LINE
  8
0
 10
21.239
 11
21.084
 20
-282.414
 21
-282.56
  0
LINE
  8
0
 10
21.084
 11
20.911
 20
-282.56
 21
-282.685
  0
LINE
  8
0
 10
20.911
 11
20.724
 20
-282.685
 21
-282.788
  0
LINE
  8
0
 10
20.724
 11
20.525
 20
-282.788
 21
-282.867
  0
LINE
  8
0
 10
20.525
 11
20.319
 20
-282.867
 21
-282.92
  0
LINE
  8
0
 10
20.319
 11
20.107
 20
-282.92
 21
-282.947
  0
LINE
  8
0
 10
20.107
 11
19.893
 20
-282.947
 21
-282.947
  0
LINE
  8
0
 10
19.893
 11
19.681
 20
-282.947
 21
-282.92
  0
LINE
  8
0
 10
19.681
 11
19.475
 20
-282.92
 21
-282.867
  0
LINE
  8
0
 10
19.475
 11
19.276
 20
-282.867
 21
-282.788
  0
LINE
  8
0
 10
19.276
 11
19.089
 20
-282.788
 21
-282.685
  0
LINE
  8
0
 10
19.089
 11
18.916
 20
-282.685
 21
-282.56
  0
LINE
  8
0
 10
18.916
 11
18.761
 20
-282.56
 21
-282.414
  0
LINE
  8
0
 10
18.761
 11
18.625
 20
-282.414
 21
-282.249
  0
LINE
  8
0
 10
18.625
 11
18.51
 20
-282.249
 21
-282.069
  0
LINE
  8
0
 10
18.51
 11
18.419
 20
-282.069
 21
-281.876
  0
LINE
  8
0
 10
18.419
 11
18.353
 20
-281.876
 21
-281.673
  0
LINE
  8
0
 10
18.353
 11
18.313
 20
-281.673
 21
-281.463
  0
LINE
  8
0
 10
18.313
 11
18.3
 20
-281.463
 21
-281.25
  0
LINE
  8
0
 10
18.3
 11
18.313
 20
-243.75
 21
-243.537
  0
LINE
  8
0
 10
18.313
 11
18.353
 20
-243.537
 21
-243.327
  0
LINE
  8
0
 10
18.353
 11
18.419
 20
-243.327
 21
-243.124
  0
LINE
  8
0
 10
18.419
 11
18.51
 20
-243.124
 21
-242.931
  0
LINE
  8
0
 10
18.51
 11
18.625
 20
-242.931
 21
-242.751
  0
LINE
  8
0
 10
18.625
 11
18.761
 20
-242.751
 21
-242.586
  0
LINE
  8
0
 10
18.761
 11
18.916
 20
-242.586
 21
-242.44
  0
LINE
  8
0
 10
18.916
 11
19.089
 20
-242.44
 21
-242.315
  0
LINE
  8
0
 10
19.089
 11
19.276
 20
-242.315
 21
-242.212
  0
LINE
  8
0
 10
19.276
 11
19.475
 20
-242.212
 21
-242.133
  0
LINE
  8
0
 10
19.475
 11
19.681
 20
-242.133
 21
-242.08
  0
LINE
  8
0
 10
19.681
 11
19.893
 20
-242.08
 21
-242.053
  0
LINE
  8
0
 10
19.893
 11
20.107
 20
-242.053
 21
-242.053
  0
LINE
  8
0
 10
20.107
 11
20.319
 20
-242.053
 21
-242.08
  0
LINE
  8
0
 10
20.319
 11
20.525
 20
-242.08
 21
-242.133
  0
LINE
  8
0
 10
20.525
 11
20.724
 20
-242.133
 21
-242.212
  0
LINE
  8
0
 10
20.724
 11
20.911
 20
-242.212
 21
-242.315
  0
LINE
  8
0
 10
20.911
 11
21.084
 20
-242.315
 21
-242.44
  0
LINE
  8
0
 10
21.084
 11
21.239
 20
-242.44
 21
-242.586
  0
LINE
  8
0
 10
21.239
 11
21.375
 20
-242.586
 21
-242.751
  0
LINE
  8
0
 10
21.375
 11
21.49
 20
-242.751
 21
-242.931
  0
LINE
  8
0
 10
21.49
 11
21.581
 20
-242.931
 21
-243.124
  0
LINE
  8
0
 10
21.581
 11
21.647
 20
-243.124
 21
-243.327
  0
LINE
  8
0
 10
21.647
 11
21.687
 20
-243.327
 21
-243.537
  0
LINE
  8
0
 10
21.687
 11
21.7
 20
-243.537
 21
-243.75
  0
LINE
  8
0
 10
21.7
 11
21.687
 20
-243.75
 21
-243.963
  0
LINE
  8
0
 10
21.687
 11
21.647
 20
-243.963
 21
-244.173
  0
LINE
  8
0
 10
21.647
 11
21.581
 20
-244.173
 21
-244.376
  0
LINE
  8
0
 10
21.581
 11
21.49
 20
-244.376
 21
-244.569
  0
LINE
  8
0
 10
21.49
 11
21.375
 20
-244.569
 21
-244.749
  0
LINE
  8
0
 10
21.375
 11
21.239
 20
-244.749
 21
-244.914
  0
LINE
  8
0
 10
21.239
 11
21.084
 20
-244.914
 21
-245.06
  0
LINE
  8
0
 10
21.084
 11
20.911
 20
-245.06
 21
-245.185
  0
LINE
  8
0
 10
20.911
 11
20.724
 20
-245.185
 21
-245.288
  0
LINE
  8
0
 10
20.724
 11
20.525
 20
-245.288
 21
-245.367
  0
LINE
  8
0
 10
20.525
 11
20.319
 20
-245.367
 21
-245.42
  0
LINE
  8
0
 10
20.319
 11
20.107
 20
-245.42
 21
-245.447
  0
LINE
  8
0
 10
20.107
 11
19.893
 20
-245.447
 21
-245.447
  0
LINE
  8
0
 10
19.893
 11
19.681
 20
-245.447
 21
-245.42
  0
LINE
  8
0
 10
19.681
 11
19.475
 20
-245.42
 21
-245.367
  0
LINE
  8
0
 10
19.475
 11
19.276
 20
-245.367
 21
-245.288
  0
LINE
  8
0
 10
19.276
 11
19.089
 20
-245.288
 21
-245.185
  0
LINE
  8
0
 10
19.089
 11
18.916
 20
-245.185
 21
-245.06
  0
LINE
  8
0
 10
18.916
 11
18.761
 20
-245.06
 21
-244.914
  0
LINE
  8
0
 10
18.761
 11
18.625
 20
-244.914
 21
-244.749
  0
LINE
  8
0
 10
18.625
 11
18.51
 20
-244.749
 21
-244.569
  0
LINE
  8
0
 10
18.51
 11
18.419
 20
-244.569
 21
-244.376
  0
LINE
  8
0
 10
18.419
 11
18.353
 20
-244.376
 21
-244.173
  0
LINE
  8
0
 10
18.353
 11
18.313
 20
-244.173
 21
-243.963
  0
LINE
  8
0
 10
18.313
 11
18.3
 20
-243.963
 21
-243.75
  0
LINE
  8
0
 10
18.55
 11
18.563
 20
318.5
 21
318.713
  0
LINE
  8
0
 10
18.563
 11
18.603
 20
318.713
 21
318.923
  0
LINE
  8
0
 10
18.603
 11
18.669
 20
318.923
 21
319.126
  0
LINE
  8
0
 10
18.669
 11
18.76
 20
319.126
 21
319.319
  0
LINE
  8
0
 10
18.76
 11
18.875
 20
319.319
 21
319.499
  0
LINE
  8
0
 10
18.875
 11
19.011
 20
319.499
 21
319.664
  0
LINE
  8
0
 10
19.011
 11
19.166
 20
319.664
 21
319.81
  0
LINE
  8
0
 10
19.166
 11
19.339
 20
319.81
 21
319.935
  0
LINE
  8
0
 10
19.339
 11
19.526
 20
319.935
 21
320.038
  0
LINE
  8
0
 10
19.526
 11
19.725
 20
320.038
 21
320.117
  0
LINE
  8
0
 10
19.725
 11
19.931
 20
320.117
 21
320.17
  0
LINE
  8
0
 10
19.931
 11
20.143
 20
320.17
 21
320.197
  0
LINE
  8
0
 10
20.143
 11
20.357
 20
320.197
 21
320.197
  0
LINE
  8
0
 10
20.357
 11
20.569
 20
320.197
 21
320.17
  0
LINE
  8
0
 10
20.569
 11
20.775
 20
320.17
 21
320.117
  0
LINE
  8
0
 10
20.775
 11
20.974
 20
320.117
 21
320.038
  0
LINE
  8
0
 10
20.974
 11
21.161
 20
320.038
 21
319.935
  0
LINE
  8
0
 10
21.161
 11
21.334
 20
319.935
 21
319.81
  0
LINE
  8
0
 10
21.334
 11
21.489
 20
319.81
 21
319.664
  0
LINE
  8
0
 10
21.489
 11
21.625
 20
319.664
 21
319.499
  0
LINE
  8
0
 10
21.625
 11
21.74
 20
319.499
 21
319.319
  0
LINE
  8
0
 10
21.74
 11
21.831
 20
319.319
 21
319.126
  0
LINE
  8
0
 10
21.831
 11
21.897
 20
319.126
 21
318.923
  0
LINE
  8
0
 10
21.897
 11
21.937
 20
318.923
 21
318.713
  0
LINE
  8
0
 10
21.937
 11
21.95
 20
318.713
 21
318.5
  0
LINE
  8
0
 10
21.95
 11
21.937
 20
318.5
 21
318.287
  0
LINE
  8
0
 10
21.937
 11
21.897
 20
318.287
 21
318.077
  0
LINE
  8
0
 10
21.897
 11
21.831
 20
318.077
 21
317.874
  0
LINE
  8
0
 10
21.831
 11
21.74
 20
317.874
 21
317.681
  0
LINE
  8
0
 10
21.74
 11
21.625
 20
317.681
 21
317.501
  0
LINE
  8
0
 10
21.625
 11
21.489
 20
317.501
 21
317.336
  0
LINE
  8
0
 10
21.489
 11
21.334
 20
317.336
 21
317.19
  0
LINE
  8
0
 10
21.334
 11
21.161
 20
317.19
 21
317.065
  0
LINE
  8
0
 10
21.161
 11
20.974
 20
317.065
 21
316.962
  0
LINE
  8
0
 10
20.974
 11
20.775
 20
316.962
 21
316.883
  0
LINE
  8
0
 10
20.775
 11
20.569
 20
316.883
 21
316.83
  0
LINE
  8
0
 10
20.569
 11
20.357
 20
316.83
 21
316.803
  0
LINE
  8
0
 10
20.357
 11
20.143
 20
316.803
 21
316.803
  0
LINE
  8
0
 10
20.143
 11
19.931
 20
316.803
 21
316.83
  0
LINE
  8
0
 10
19.931
 11
19.725
 20
316.83
 21
316.883
  0
LINE
  8
0
 10
19.725
 11
19.526
 20
316.883
 21
316.962
  0
LINE
  8
0
 10
19.526
 11
19.339
 20
316.962
 21
317.065
  0
LINE
  8
0
 10
19.339
 11
19.166
 20
317.065
 21
317.19
  0
LINE
  8
0
 10
19.166
 11
19.011
 20
317.19
 21
317.336
  0
LINE
  8
0
 10
19.011
 11
18.875
 20
317.336
 21
317.501
  0
LINE
  8
0
 10
18.875
 11
18.76
 20
317.501
 21
317.681
  0
LINE
  8
0
 10
18.76
 11
18.669
 20
317.681
 21
317.874
  0
LINE
  8
0
 10
18.669
 11
18.603
 20
317.874
 21
318.077
  0
LINE
  8
0
 10
18.603
 11
18.563
 20
318.077
 21
318.287
  0
LINE
  8
0
 10
18.563
 11
18.55
 20
318.287
 21
318.5
  0
LINE
  8
0
 10
19.85
 11
19.863
 20
366.7
 21
366.913
  0
LINE
  8
0
 10
19.863
 11
19.903
 20
366.913
 21
367.123
  0
LINE
  8
0
 10
19.903
 11
19.969
 20
367.123
 21
367.326
  0
LINE
  8
0
 10
19.969
 11
20.06
 20
367.326
 21
367.519
  0
LINE
  8
0
 10
20.06
 11
20.175
 20
367.519
 21
367.699
  0
LINE
  8
0
 10
20.175
 11
20.311
 20
367.699
 21
367.864
  0
LINE
  8
0
 10
20.311
 11
20.466
 20
367.864
 21
368.01
  0
LINE
  8
0
 10
20.466
 11
20.639
 20
368.01
 21
368.135
  0
LINE
  8
0
 10
20.639
 11
20.826
 20
368.135
 21
368.238
  0
LINE
  8
0
 10
20.826
 11
21.025
 20
368.238
 21
368.317
  0
LINE
  8
0
 10
21.025
 11
21.231
 20
368.317
 21
368.37
  0
LINE
  8
0
 10
21.231
 11
21.443
 20
368.37
 21
368.397
  0
LINE
  8
0
 10
21.443
 11
21.657
 20
368.397
 21
368.397
  0
LINE
  8
0
 10
21.657
 11
21.869
 20
368.397
 21
368.37
  0
LINE
  8
0
 10
21.869
 11
22.075
 20
368.37
 21
368.317
  0
LINE
  8
0
 10
22.075
 11
22.274
 20
368.317
 21
368.238
  0
LINE
  8
0
 10
22.274
 11
22.461
 20
368.238
 21
368.135
  0
LINE
  8
0
 10
22.461
 11
22.634
 20
368.135
 21
368.01
  0
LINE
  8
0
 10
22.634
 11
22.789
 20
368.01
 21
367.864
  0
LINE
  8
0
 10
22.789
 11
22.925
 20
367.864
 21
367.699
  0
LINE
  8
0
 10
22.925
 11
23.04
 20
367.699
 21
367.519
  0
LINE
  8
0
 10
23.04
 11
23.131
 20
367.519
 21
367.326
  0
LINE
  8
0
 10
23.131
 11
23.197
 20
367.326
 21
367.123
  0
LINE
  8
0
 10
23.197
 11
23.237
 20
367.123
 21
366.913
  0
LINE
  8
0
 10
23.237
 11
23.25
 20
366.913
 21
366.7
  0
LINE
  8
0
 10
23.25
 11
23.237
 20
366.7
 21
366.487
  0
LINE
  8
0
 10
23.237
 11
23.197
 20
366.487
 21
366.277
  0
LINE
  8
0
 10
23.197
 11
23.131
 20
366.277
 21
366.074
  0
LINE
  8
0
 10
23.131
 11
23.04
 20
366.074
 21
365.881
  0
LINE
  8
0
 10
23.04
 11
22.925
 20
365.881
 21
365.701
  0
LINE
  8
0
 10
22.925
 11
22.789
 20
365.701
 21
365.536
  0
LINE
  8
0
 10
22.789
 11
22.634
 20
365.536
 21
365.39
  0
LINE
  8
0
 10
22.634
 11
22.461
 20
365.39
 21
365.265
  0
LINE
  8
0
 10
22.461
 11
22.274
 20
365.265
 21
365.162
  0
LINE
  8
0
 10
22.274
 11
22.075
 20
365.162
 21
365.083
  0
LINE
  8
0
 10
22.075
 11
21.869
 20
365.083
 21
365.03
  0
LINE
  8
0
 10
21.869
 11
21.657
 20
365.03
 21
365.003
  0
LINE
  8
0
 10
21.657
 11
21.443
 20
365.003
 21
365.003
  0
LINE
  8
0
 10
21.443
 11
21.231
 20
365.003
 21
365.03
  0
LINE
  8
0
 10
21.231
 11
21.025
 20
365.03
 21
365.083
  0
LINE
  8
0
 10
21.025
 11
20.826
 20
365.083
 21
365.162
  0
LINE
  8
0
 10
20.826
 11
20.639
 20
365.162
 21
365.265
  0
LINE
  8
0
 10
20.639
 11
20.466
 20
365.265
 21
365.39
  0
LINE
  8
0
 10
20.466
 11
20.311
 20
365.39
 21
365.536
  0
LINE
  8
0
 10
20.311
 11
20.175
 20
365.536
 21
365.701
  0
LINE
  8
0
 10
20.175
 11
20.06
 20
365.701
 21
365.881
  0
LINE
  8
0
 10
20.06
 11
19.969
 20
365.881
 21
366.074
  0
LINE
  8
0
 10
19.969
 11
19.903
 20
366.074
 21
366.277
  0
LINE
  8
0
 10
19.903
 11
19.863
 20
366.277
 21
366.487
  0
LINE
  8
0
 10
19.863
 11
19.85
 20
366.487
 21
366.7
  0
LINE
  8
0
 10
70.65
 11
70.663
 20
323.6
 21
323.813
  0
LINE
  8
0
 10
70.663
 11
70.703
 20
323.813
 21
324.023
  0
LINE
  8
0
 10
70.703
 11
70.769
 20
324.023
 21
324.226
  0
LINE
  8
0
 10
70.769
 11
70.86
 20
324.226
 21
324.419
  0
LINE
  8
0
 10
70.86
 11
70.975
 20
324.419
 21
324.599
  0
LINE
  8
0
 10
70.975
 11
71.111
 20
324.599
 21
324.764
  0
LINE
  8
0
 10
71.111
 11
71.266
 20
324.764
 21
324.91
  0
LINE
  8
0
 10
71.266
 11
71.439
 20
324.91
 21
325.035
  0
LINE
  8
0
 10
71.439
 11
71.626
 20
325.035
 21
325.138
  0
LINE
  8
0
 10
71.626
 11
71.825
 20
325.138
 21
325.217
  0
LINE
  8
0
 10
71.825
 11
72.031
 20
325.217
 21
325.27
  0
LINE
  8
0
 10
72.031
 11
72.243
 20
325.27
 21
325.297
  0
LINE
  8
0
 10
72.243
 11
72.457
 20
325.297
 21
325.297
  0
LINE
  8
0
 10
72.457
 11
72.669
 20
325.297
 21
325.27
  0
LINE
  8
0
 10
72.669
 11
72.875
 20
325.27
 21
325.217
  0
LINE
  8
0
 10
72.875
 11
73.074
 20
325.217
 21
325.138
  0
LINE
  8
0
 10
73.074
 11
73.261
 20
325.138
 21
325.035
  0
LINE
  8
0
 10
73.261
 11
73.434
 20
325.035
 21
324.91
  0
LINE
  8
0
 10
73.434
 11
73.589
 20
324.91
 21
324.764
  0
LINE
  8
0
 10
73.589
 11
73.725
 20
324.764
 21
324.599
  0
LINE
  8
0
 10
73.725
 11
73.84
 20
324.599
 21
324.419
  0
LINE
  8
0
 10
73.84
 11
73.931
 20
324.419
 21
324.226
  0
LINE
  8
0
 10
73.931
 11
73.997
 20
324.226
 21
324.023
  0
LINE
  8
0
 10
73.997
 11
74.037
 20
324.023
 21
323.813
  0
LINE
  8
0
 10
74.037
 11
74.05
 20
323.813
 21
323.6
  0
LINE
  8
0
 10
74.05
 11
74.037
 20
323.6
 21
323.387
  0
LINE
  8
0
 10
74.037
 11
73.997
 20
323.387
 21
323.177
  0
LINE
  8
0
 10
73.997
 11
73.931
 20
323.177
 21
322.974
  0
LINE
  8
0
 10
73.931
 11
73.84
 20
322.974
 21
322.781
  0
LINE
  8
0
 10
73.84
 11
73.725
 20
322.781
 21
322.601
  0
LINE
  8
0
 10
73.725
 11
73.589
 20
322.601
 21
322.436
  0
LINE
  8
0
 10
73.589
 11
73.434
 20
322.436
 21
322.29
  0
LINE
  8
0
 10
73.434
 11
73.261
 20
322.29
 21
322.165
  0
LINE
  8
0
 10
73.261
 11
73.074
 20
322.165
 21
322.062
  0
LINE
  8
0
 10
73.074
 11
72.875
 20
322.062
 21
321.983
  0
LINE
  8
0
 10
72.875
 11
72.669
 20
321.983
 21
321.93
  0
LINE
  8
0
 10
72.669
 11
72.457
 20
321.93
 21
321.903
  0
LINE
  8
0
 10
72.457
 11
72.243
 20
321.903
 21
321.903
  0
LINE
  8
0
 10
72.243
 11
72.031
 20
321.903
 21
321.93
  0
LINE
  8
0
 10
72.031
 11
71.825
 20
321.93
 21
321.983
  0
LINE
  8
0
 10
71.825
 11
71.626
 20
321.983
 21
322.062
  0
LINE
  8
0
 10
71.626
 11
71.439
 20
322.062
 21
322.165
  0
LINE
  8
0
 10
71.439
 11
71.266
 20
322.165
 21
322.29
  0
LINE
  8
0
 10
71.266
 11
71.111
 20
322.29
 21
322.436
  0
LINE
  8
0
 10
71.111
 11
70.975
 20
322.436
 21
322.601
  0
LINE
  8
0
 10
70.975
 11
70.86
 20
322.601
 21
322.781
  0
LINE
  8
0
 10
70.86
 11
70.769
 20
322.781
 21
322.974
  0
LINE
  8
0
 10
70.769
 11
70.703
 20
322.974
 21
323.177
  0
LINE
  8
0
 10
70.703
 11
70.663
 20
323.177
 21
323.387
  0
LINE
  8
0
 10
70.663
 11
70.65
 20
323.387
 21
323.6
  0
LINE
  8
0
 10
70.65
 11
70.663
 20
351.5
 21
351.713
  0
LINE
  8
0
 10
70.663
 11
70.703
 20
351.713
 21
351.923
  0
LINE
  8
0
 10
70.703
 11
70.769
 20
351.923
 21
352.126
  0
LINE
  8
0
 10
70.769
 11
70.86
 20
352.126
 21
352.319
  0
LINE
  8
0
 10
70.86
 11
70.975
 20
352.319
 21
352.499
  0
LINE
  8
0
 10
70.975
 11
71.111
 20
352.499
 21
352.664
  0
LINE
  8
0
 10
71.111
 11
71.266
 20
352.664
 21
352.81
  0
LINE
  8
0
 10
71.266
 11
71.439
 20
352.81
 21
352.935
  0
LINE
  8
0
 10
71.439
 11
71.626
 20
352.935
 21
353.038
  0
LINE
  8
0
 10
71.626
 11
71.825
 20
353.038
 21
353.117
  0
LINE
  8
0
 10
71.825
 11
72.031
 20
353.117
 21
353.17
  0
LINE
  8
0
 10
72.031
 11
72.243
 20
353.17
 21
353.197
  0
LINE
  8
0
 10
72.243
 11
72.457
 20
353.197
 21
353.197
  0
LINE
  8
0
 10
72.457
 11
72.669
 20
353.197
 21
353.17
  0
LINE
  8
0
 10
72.669
 11
72.875
 20
353.17
 21
353.117
  0
LINE
  8
0
 10
72.875
 11
73.074
 20
353.117
 21
353.038
  0
LINE
  8
0
 10
73.074
 11
73.261
 20
353.038
 21
352.935
  0
LINE
  8
0
 10
73.261
 11
73.434
 20
352.935
 21
352.81
  0
LINE
  8
0
 10
73.434
 11
73.589
 20
352.81
 21
352.664
  0
LINE
  8
0
 10
73.589
 11
73.725
 20
352.664
 21
352.499
  0
LINE
  8
0
 10
73.725
 11
73.84
 20
352.499
 21
352.319
  0
LINE
  8
0
 10
73.84
 11
73.931
 20
352.319
 21
352.126
  0
LINE
  8
0
 10
73.931
 11
73.997
 20
352.126
 21
351.923
  0
LINE
  8
0
 10
73.997
 11
74.037
 20
351.923
 21
351.713
  0
LINE
  8
0
 10
74.037
 11
74.05
 20
351.713
 21
351.5
  0
LINE
  8
0
 10
74.05
 11
74.037
 20
351.5
 21
351.287
  0
LINE
  8
0
 10
74.037
 11
73.997
 20
351.287
 21
351.077
  0
LINE
  8
0
 10
73.997
 11
73.931
 20
351.077
 21
350.874
  0
LINE
  8
0
 10
73.931
 11
73.84
 20
350.874
 21
350.681
  0
LINE
  8
0
 10
73.84
 11
73.725
 20
350.681
 21
350.501
  0
LINE
  8
0
 10
73.725
 11
73.589
 20
350.501
 21
350.336
  0
LINE
  8
0
 10
73.589
 11
73.434
 20
350.336
 21
350.19
  0
LINE
  8
0
 10
73.434
 11
73.261
 20
350.19
 21
350.065
  0
LINE
  8
0
 10
73.261
 11
73.074
 20
350.065
 21
349.962
  0
LINE
  8
0
 10
73.074
 11
72.875
 20
349.962
 21
349.883
  0
LINE
  8
0
 10
72.875
 11
72.669
 20
349.883
 21
349.83
  0
LINE
  8
0
 10
72.669
 11
72.457
 20
349.83
 21
349.803
  0
LINE
  8
0
 10
72.457
 11
72.243
 20
349.803
 21
349.803
  0
LINE
  8
0
 10
72.243
 11
72.031
 20
349.803
 21
349.83
  0
LINE
  8
0
 10
72.031
 11
71.825
 20
349.83
 21
349.883
  0
LINE
  8
0
 10
71.825
 11
71.626
 20
349.883
 21
349.962
  0
LINE
  8
0
 10
71.626
 11
71.439
 20
349.962
 21
350.065
  0
LINE
  8
0
 10
71.439
 11
71.266
 20
350.065
 21
350.19
  0
LINE
  8
0
 10
71.266
 11
71.111
 20
350.19
 21
350.336
  0
LINE
  8
0
 10
71.111
 11
70.975
 20
350.336
 21
350.501
  0
LINE
  8
0
 10
70.975
 11
70.86
 20
350.501
 21
350.681
  0
LINE
  8
0
 10
70.86
 11
70.769
 20
350.681
 21
350.874
  0
LINE
  8
0
 10
70.769
 11
70.703
 20
350.874
 21
351.077
  0
LINE
  8
0
 10
70.703
 11
70.663
 20
351.077
 21
351.287
  0
LINE
  8
0
 10
70.663
 11
70.65
 20
351.287
 21
351.5
  0
LINE
  8
0
 10
87.3
 11
87.313
 20
325
 21
325.213
  0
LINE
  8
0
 10
87.313
 11
87.353
 20
325.213
 21
325.423
  0
LINE
  8
0
 10
87.353
 11
87.419
 20
325.423
 21
325.626
  0
LINE
  8
0
 10
87.419
 11
87.51
 20
325.626
 21
325.819
  0
LINE
  8
0
 10
87.51
 11
87.625
 20
325.819
 21
325.999
  0
LINE
  8
0
 10
87.625
 11
87.761
 20
325.999
 21
326.164
  0
LINE
  8
0
 10
87.761
 11
87.916
 20
326.164
 21
326.31
  0
LINE
  8
0
 10
87.916
 11
88.089
 20
326.31
 21
326.435
  0
LINE
  8
0
 10
88.089
 11
88.276
 20
326.435
 21
326.538
  0
LINE
  8
0
 10
88.276
 11
88.475
 20
326.538
 21
326.617
  0
LINE
  8
0
 10
88.475
 11
88.681
 20
326.617
 21
326.67
  0
LINE
  8
0
 10
88.681
 11
88.893
 20
326.67
 21
326.697
  0
LINE
  8
0
 10
88.893
 11
89.107
 20
326.697
 21
326.697
  0
LINE
  8
0
 10
89.107
 11
89.319
 20
326.697
 21
326.67
  0
LINE
  8
0
 10
89.319
 11
89.525
 20
326.67
 21
326.617
  0
LINE
  8
0
 10
89.525
 11
89.724
 20
326.617
 21
326.538
  0
LINE
  8
0
 10
89.724
 11
89.911
 20
326.538
 21
326.435
  0
LINE
  8
0
 10
89.911
 11
90.084
 20
326.435
 21
326.31
  0
LINE
  8
0
 10
90.084
 11
90.239
 20
326.31
 21
326.164
  0
LINE
  8
0
 10
90.239
 11
90.375
 20
326.164
 21
325.999
  0
LINE
  8
0
 10
90.375
 11
90.49
 20
325.999
 21
325.819
  0
LINE
  8
0
 10
90.49
 11
90.581
 20
325.819
 21
325.626
  0
LINE
  8
0
 10
90.581
 11
90.647
 20
325.626
 21
325.423
  0
LINE
  8
0
 10
90.647
 11
90.687
 20
325.423
 21
325.213
  0
LINE
  8
0
 10
90.687
 11
90.7
 20
325.213
 21
325
  0
LINE
  8
0
 10
90.7
 11
90.687
 20
325
 21
324.787
  0
LINE
  8
0
 10
90.687
 11
90.647
 20
324.787
 21
324.577
  0
LINE
  8
0
 10
90.647
 11
90.581
 20
324.577
 21
324.374
  0
LINE
  8
0
 10
90.581
 11
90.49
 20
324.374
 21
324.181
  0
LINE
  8
0
 10
90.49
 11
90.375
 20
324.181
 21
324.001
  0
LINE
  8
0
 10
90.375
 11
90.239
 20
324.001
 21
323.836
  0
LINE
  8
0
 10
90.239
 11
90.084
 20
323.836
 21
323.69
  0
LINE
  8
0
 10
90.084
 11
89.911
 20
323.69
 21
323.565
  0
LINE
  8
0
 10
89.911
 11
89.724
 20
323.565
 21
323.462
  0
LINE
  8
0
 10
89.724
 11
89.525
 20
323.462
 21
323.383
  0
LINE
  8
0
 10
89.525
 11
89.319
 20
323.383
 21
323.33
  0
LINE
  8
0
 10
89.319
 11
89.107
 20
323.33
 21
323.303
  0
LINE
  8
0
 10
89.107
 11
88.893
 20
323.303
 21
323.303
  0
LINE
  8
0
 10
88.893
 11
88.681
 20
323.303
 21
323.33
  0
LINE
  8
0
 10
88.681
 11
88.475
 20
323.33
 21
323.383
  0
LINE
  8
0
 10
88.475
 11
88.276
 20
323.383
 21
323.462
  0
LINE
  8
0
 10
88.276
 11
88.089
 20
323.462
 21
323.565
  0
LINE
  8
0
 10
88.089
 11
87.916
 20
323.565
 21
323.69
  0
LINE
  8
0
 10
87.916
 11
87.761
 20
323.69
 21
323.836
  0
LINE
  8
0
 10
87.761
 11
87.625
 20
323.836
 21
324.001
  0
LINE
  8
0
 10
87.625
 11
87.51
 20
324.001
 21
324.181
  0
LINE
  8
0
 10
87.51
 11
87.419
 20
324.181
 21
324.374
  0
LINE
  8
0
 10
87.419
 11
87.353
 20
324.374
 21
324.577
  0
LINE
  8
0
 10
87.353
 11
87.313
 20
324.577
 21
324.787
  0
LINE
  8
0
 10
87.313
 11
87.3
 20
324.787
 21
325
  0
LINE
  8
0
 10
107.3
 11
107.313
 20
325
 21
325.213
  0
LINE
  8
0
 10
107.313
 11
107.353
 20
325.213
 21
325.423
  0
LINE
  8
0
 10
107.353
 11
107.419
 20
325.423
 21
325.626
  0
LINE
  8
0
 10
107.419
 11
107.51
 20
325.626
 21
325.819
  0
LINE
  8
0
 10
107.51
 11
107.625
 20
325.819
 21
325.999
  0
LINE
  8
0
 10
107.625
 11
107.761
 20
325.999
 21
326.164
  0
LINE
  8
0
 10
107.761
 11
107.916
 20
326.164
 21
326.31
  0
LINE
  8
0
 10
107.916
 11
108.089
 20
326.31
 21
326.435
  0
LINE
  8
0
 10
108.089
 11
108.276
 20
326.435
 21
326.538
  0
LINE
  8
0
 10
108.276
 11
108.475
 20
326.538
 21
326.617
  0
LINE
  8
0
 10
108.475
 11
108.681
 20
326.617
 21
326.67
  0
LINE
  8
0
 10
108.681
 11
108.893
 20
326.67
 21
326.697
  0
LINE
  8
0
 10
108.893
 11
109.107
 20
326.697
 21
326.697
  0
LINE
  8
0
 10
109.107
 11
109.319
 20
326.697
 21
326.67
  0
LINE
  8
0
 10
109.319
 11
109.525
 20
326.67
 21
326.617
  0
LINE
  8
0
 10
109.525
 11
109.724
 20
326.617
 21
326.538
  0
LINE
  8
0
 10
109.724
 11
109.911
 20
326.538
 21
326.435
  0
LINE
  8
0
 10
109.911
 11
110.084
 20
326.435
 21
326.31
  0
LINE
  8
0
 10
110.084
 11
110.239
 20
326.31
 21
326.164
  0
LINE
  8
0
 10
110.239
 11
110.375
 20
326.164
 21
325.999
  0
LINE
  8
0
 10
110.375
 11
110.49
 20
325.999
 21
325.819
  0
LINE
  8
0
 10
110.49
 11
110.581
 20
325.819
 21
325.626
  0
LINE
  8
0
 10
110.581
 11
110.647
 20
325.626
 21
325.423
  0
LINE
  8
0
 10
110.647
 11
110.687
 20
325.423
 21
325.213
  0
LINE
  8
0
 10
110.687
 11
110.7
 20
325.213
 21
325
  0
LINE
  8
0
 10
110.7
 11
110.687
 20
325
 21
324.787
  0
LINE
  8
0
 10
110.687
 11
110.647
 20
324.787
 21
324.577
  0
LINE
  8
0
 10
110.647
 11
110.581
 20
324.577
 21
324.374
  0
LINE
  8
0
 10
110.581
 11
110.49
 20
324.374
 21
324.181
  0
LINE
  8
0
 10
110.49
 11
110.375
 20
324.181
 21
324.001
  0
LINE
  8
0
 10
110.375
 11
110.239
 20
324.001
 21
323.836
  0
LINE
  8
0
 10
110.239
 11
110.084
 20
323.836
 21
323.69
  0
LINE
  8
0
 10
110.084
 11
109.911
 20
323.69
 21
323.565
  0
LINE
  8
0
 10
109.911
 11
109.724
 20
323.565
 21
323.462
  0
LINE
  8
0
 10
109.724
 11
109.525
 20
323.462
 21
323.383
  0
LINE
  8
0
 10
109.525
 11
109.319
 20
323.383
 21
323.33
  0
LINE
  8
0
 10
109.319
 11
109.107
 20
323.33
 21
323.303
  0
LINE
  8
0
 10
109.107
 11
108.893
 20
323.303
 21
323.303
  0
LINE
  8
0
 10
108.893
 11
108.681
 20
323.303
 21
323.33
  0
LINE
  8
0
 10
108.681
 11
108.475
 20
323.33
 21
323.383
  0
LINE
  8
0
 10
108.475
 11
108.276
 20
323.383
 21
323.462
  0
LINE
  8
0
 10
108.276
 11
108.089
 20
323.462
 21
323.565
  0
LINE
  8
0
 10
108.089
 11
107.916
 20
323.565
 21
323.69
  0
LINE
  8
0
 10
107.916
 11
107.761
 20
323.69
 21
323.836
  0
LINE
  8
0
 10
107.761
 11
107.625
 20
323.836
 21
324.001
  0
LINE
  8
0
 10
107.625
 11
107.51
 20
324.001
 21
324.181
  0
LINE
  8
0
 10
107.51
 11
107.419
 20
324.181
 21
324.374
  0
LINE
  8
0
 10
107.419
 11
107.353
 20
324.374
 21
324.577
  0
LINE
  8
0
 10
107.353
 11
107.313
 20
324.577
 21
324.787
  0
LINE
  8
0
 10
107.313
 11
107.3
 20
324.787
 21
325
  0
LINE
  8
0
 10
117.809
 11
117.809
 20
237.636
 21
237.85
  0
LINE
  8
0
 10
117.809
 11
117.836
 20
237.85
 21
238.061
  0
LINE
  8
0
 10
117.836
 11
117.889
 20
238.061
 21
238.268
  0
LINE
  8
0
 10
117.889
 11
117.968
 20
238.268
 21
238.467
  0
LINE
  8
0
 10
117.968
 11
118.071
 20
238.467
 21
238.654
  0
LINE
  8
0
 10
118.071
 11
118.196
 20
238.654
 21
238.827
  0
LINE
  8
0
 10
118.196
 11
118.342
 20
238.827
 21
238.982
  0
LINE
  8
0
 10
118.342
 11
118.507
 20
238.982
 21
239.118
  0
LINE
  8
0
 10
118.507
 11
118.687
 20
239.118
 21
239.233
  0
LINE
  8
0
 10
118.687
 11
118.88
 20
239.233
 21
239.324
  0
LINE
  8
0
 10
118.88
 11
119.083
 20
239.324
 21
239.389
  0
LINE
  8
0
 10
119.083
 11
119.293
 20
239.389
 21
239.429
  0
LINE
  8
0
 10
119.293
 11
119.506
 20
239.429
 21
239.443
  0
LINE
  8
0
 10
119.506
 11
119.719
 20
239.443
 21
239.429
  0
LINE
  8
0
 10
119.719
 11
119.929
 20
239.429
 21
239.389
  0
LINE
  8
0
 10
119.929
 11
120.132
 20
239.389
 21
239.323
  0
LINE
  8
0
 10
120.132
 11
120.325
 20
239.323
 21
239.233
  0
LINE
  8
0
 10
120.325
 11
120.505
 20
239.233
 21
239.118
  0
LINE
  8
0
 10
120.505
 11
120.67
 20
239.118
 21
238.982
  0
LINE
  8
0
 10
120.67
 11
120.816
 20
238.982
 21
238.826
  0
LINE
  8
0
 10
120.816
 11
120.941
 20
238.826
 21
238.654
  0
LINE
  8
0
 10
120.941
 11
121.044
 20
238.654
 21
238.467
  0
LINE
  8
0
 10
121.044
 11
121.123
 20
238.467
 21
238.268
  0
LINE
  8
0
 10
121.123
 11
121.176
 20
238.268
 21
238.061
  0
LINE
  8
0
 10
121.176
 11
121.203
 20
238.061
 21
237.85
  0
LINE
  8
0
 10
121.203
 11
121.203
 20
237.85
 21
237.636
  0
LINE
  8
0
 10
121.203
 11
121.176
 20
237.636
 21
237.424
  0
LINE
  8
0
 10
121.176
 11
121.123
 20
237.424
 21
237.218
  0
LINE
  8
0
 10
121.123
 11
121.044
 20
237.218
 21
237.019
  0
LINE
  8
0
 10
121.044
 11
120.941
 20
237.019
 21
236.832
  0
LINE
  8
0
 10
120.941
 11
120.816
 20
236.832
 21
236.659
  0
LINE
  8
0
 10
120.816
 11
120.67
 20
236.659
 21
236.504
  0
LINE
  8
0
 10
120.67
 11
120.505
 20
236.504
 21
236.368
  0
LINE
  8
0
 10
120.505
 11
120.325
 20
236.368
 21
236.253
  0
LINE
  8
0
 10
120.325
 11
120.132
 20
236.253
 21
236.162
  0
LINE
  8
0
 10
120.132
 11
119.929
 20
236.162
 21
236.096
  0
LINE
  8
0
 10
119.929
 11
119.719
 20
236.096
 21
236.056
  0
LINE
  8
0
 10
119.719
 11
119.506
 20
236.056
 21
236.043
  0
LINE
  8
0
 10
119.506
 11
119.293
 20
236.043
 21
236.056
  0
LINE
  8
0
 10
119.293
 11
119.083
 20
236.056
 21
236.096
  0
LINE
  8
0
 10
119.083
 11
118.88
 20
236.096
 21
236.162
  0
LINE
  8
0
 10
118.88
 11
118.687
 20
236.162
 21
236.253
  0
LINE
  8
0
 10
118.687
 11
118.507
 20
236.253
 21
236.368
  0
LINE
  8
0
 10
118.507
 11
118.342
 20
236.368
 21
236.504
  0
LINE
  8
0
 10
118.342
 11
118.196
 20
236.504
 21
236.659
  0
LINE
  8
0
 10
118.196
 11
118.071
 20
236.659
 21
236.832
  0
LINE
  8
0
 10
118.071
 11
117.968
 20
236.832
 21
237.019
  0
LINE
  8
0
 10
117.968
 11
117.889
 20
237.019
 21
237.218
  0
LINE
  8
0
 10
117.889
 11
117.836
 20
237.218
 21
237.424
  0
LINE
  8
0
 10
117.836
 11
117.809
 20
237.424
 21
237.636
  0
LINE
  8
0
 10
134.3
 11
134.595
 20
244.5
 21
245.6
  0
LINE
  8
0
 10
134.595
 11
135.4
 20
245.6
 21
246.405
  0
LINE
  8
0
 10
135.4
 11
136.5
 20
246.405
 21
246.7
  0
LINE
  8
0
 10
136.5
 11
136.75
 20
246.7
 21
246.633
  0
LINE
  8
0
 10
136.75
 11
137
 20
246.633
 21
246.7
  0
LINE
  8
0
 10
137
 11
137.25
 20
246.7
 21
246.633
  0
LINE
  8
0
 10
137.25
 11
137.5
 20
246.633
 21
246.7
  0
LINE
  8
0
 10
137.5
 11
137.75
 20
246.7
 21
246.633
  0
LINE
  8
0
 10
137.75
 11
138
 20
246.633
 21
246.7
  0
LINE
  8
0
 10
138
 11
138.25
 20
246.7
 21
246.633
  0
LINE
  8
0
 10
138.25
 11
138.5
 20
246.633
 21
246.7
  0
LINE
  8
0
 10
138.5
 11
138.75
 20
246.7
 21
246.633
  0
LINE
  8
0
 10
138.75
 11
139
 20
246.633
 21
246.7
  0
LINE
  8
0
 10
139
 11
139.25
 20
246.7
 21
246.633
  0
LINE
  8
0
 10
139.25
 11
139.5
 20
246.633
 21
246.7
  0
LINE
  8
0
 10
139.5
 11
139.75
 20
246.7
 21
246.633
  0
LINE
  8
0
 10
139.75
 11
140
 20
246.633
 21
246.7
  0
LINE
  8
0
 10
140
 11
140.25
 20
246.7
 21
246.633
  0
LINE
  8
0
 10
140.25
 11
140.5
 20
246.633
 21
246.7
  0
LINE
  8
0
 10
140.5
 11
140.75
 20
246.7
 21
246.633
  0
LINE
  8
0
 10
140.75
 11
141
 20
246.633
 21
246.7
  0
LINE
  8
0
 10
141
 11
141.25
 20
246.7
 21
246.633
  0
LINE
  8
0
 10
141.25
 11
141.5
 20
246.633
 21
246.7
  0
LINE
  8
0
 10
141.5
 11
142.6
 20
246.7
 21
246.405
  0
LINE
  8
0
 10
142.6
 11
143.405
 20
246.405
 21
245.6
  0
LINE
  8
0
 10
143.405
 11
143.7
 20
245.6
 21
244.5
  0
LINE
  8
0
 10
143.7
 11
143.405
 20
244.5
 21
243.4
  0
LINE
  8
0
 10
143.405
 11
142.6
 20
243.4
 21
242.595
  0
LINE
  8
0
 10
142.6
 11
141.5
 20
242.595
 21
242.3
  0
LINE
  8
0
 10
141.5
 11
141.25
 20
242.3
 21
242.367
  0
LINE
  8
0
 10
141.25
 11
141
 20
242.367
 21
242.3
  0
LINE
  8
0
 10
141
 11
140.75
 20
242.3
 21
242.367
  0
LINE
  8
0
 10
140.75
 11
140.5
 20
242.367
 21
242.3
  0
LINE
  8
0
 10
140.5
 11
140.25
 20
242.3
 21
242.367
  0
LINE
  8
0
 10
140.25
 11
140
 20
242.367
 21
242.3
  0
LINE
  8
0
 10
140
 11
139.75
 20
242.3
 21
242.367
  0
LINE
  8
0
 10
139.75
 11
139.5
 20
242.367
 21
242.3
  0
LINE
  8
0
 10
139.5
 11
139.25
 20
242.3
 21
242.367
  0
LINE
  8
0
 10
139.25
 11
139
 20
242.367
 21
242.3
  0
LINE
  8
0
 10
139
 11
138.75
 20
242.3
 21
242.367
  0
LINE
  8
0
 10
138.75
 11
138.5
 20
242.367
 21
242.3
  0
LINE
  8
0
 10
138.5
 11
138.25
 20
242.3
 21
242.367
  0
LINE
  8
0
 10
138.25
 11
138
 20
242.367
 21
242.3
  0
LINE
  8
0
 10
138
 11
137.75
 20
242.3
 21
242.367
  0
LINE
  8
0
 10
137.75
 11
137.5
 20
242.367
 21
242.3
  0
LINE
  8
0
 10
137.5
 11
137.25
 20
242.3
 21
242.367
  0
LINE
  8
0
 10
137.25
 11
137
 20
242.367
 21
242.3
  0
LINE
  8
0
 10
137
 11
136.75
 20
242.3
 21
242.367
  0
LINE
  8
0
 10
136.75
 11
136.5
 20
242.367
 21
242.3
  0
LINE
  8
0
 10
136.5
 11
135.4
 20
242.3
 21
242.595
  0
LINE
  8
0
 10
135.4
 11
134.595
 20
242.595
 21
243.4
  0
LINE
  8
0
 10
134.595
 11
134.3
 20
243.4
 21
244.5
  0
LINE
  8
0
 10
134.3
 11
134.595
 20
275.5
 21
276.6
  0
LINE
  8
0
 10
134.595
 11
135.4
 20
276.6
 21
277.405
  0
LINE
  8
0
 10
135.4
 11
136.5
 20
277.405
 21
277.7
  0
LINE
  8
0
 10
136.5
 11
136.75
 20
277.7
 21
277.633
  0
LINE
  8
0
 10
136.75
 11
137
 20
277.633
 21
277.7
  0
LINE
  8
0
 10
137
 11
137.25
 20
277.7
 21
277.633
  0
LINE
  8
0
 10
137.25
 11
137.5
 20
277.633
 21
277.7
  0
LINE
  8
0
 10
137.5
 11
137.75
 20
277.7
 21
277.633
  0
LINE
  8
0
 10
137.75
 11
138
 20
277.633
 21
277.7
  0
LINE
  8
0
 10
138
 11
138.25
 20
277.7
 21
277.633
  0
LINE
  8
0
 10
138.25
 11
138.5
 20
277.633
 21
277.7
  0
LINE
  8
0
 10
138.5
 11
138.75
 20
277.7
 21
277.633
  0
LINE
  8
0
 10
138.75
 11
139
 20
277.633
 21
277.7
  0
LINE
  8
0
 10
139
 11
139.25
 20
277.7
 21
277.633
  0
LINE
  8
0
 10
139.25
 11
139.5
 20
277.633
 21
277.7
  0
LINE
  8
0
 10
139.5
 11
139.75
 20
277.7
 21
277.633
  0
LINE
  8
0
 10
139.75
 11
140
 20
277.633
 21
277.7
  0
LINE
  8
0
 10
140
 11
140.25
 20
277.7
 21
277.633
  0
LINE
  8
0
 10
140.25
 11
140.5
 20
277.633
 21
277.7
  0
LINE
  8
0
 10
140.5
 11
140.75
 20
277.7
 21
277.633
  0
LINE
  8
0
 10
140.75
 11
141
 20
277.633
 21
277.7
  0
LINE
  8
0
 10
141
 11
141.25
 20
277.7
 21
277.633
  0
LINE
  8
0
 10
141.25
 11
141.5
 20
277.633
 21
277.7
  0
LINE
  8
0
 10
141.5
 11
142.6
 20
277.7
 21
277.405
  0
LINE
  8
0
 10
142.6
 11
143.405
 20
277.405
 21
276.6
  0
LINE
  8
0
 10
143.405
 11
143.7
 20
276.6
 21
275.5
  0
LINE
  8
0
 10
143.7
 11
143.405
 20
275.5
 21
274.4
  0
LINE
  8
0
 10
143.405
 11
142.6
 20
274.4
 21
273.595
  0
LINE
  8
0
 10
142.6
 11
141.5
 20
273.595
 21
273.3
  0
LINE
  8
0
 10
141.5
 11
141.25
 20
273.3
 21
273.367
  0
LINE
  8
0
 10
141.25
 11
141
 20
273.367
 21
273.3
  0
LINE
  8
0
 10
141
 11
140.75
 20
273.3
 21
273.367
  0
LINE
  8
0
 10
140.75
 11
140.5
 20
273.367
 21
273.3
  0
LINE
  8
0
 10
140.5
 11
140.25
 20
273.3
 21
273.367
  0
LINE
  8
0
 10
140.25
 11
140
 20
273.367
 21
273.3
  0
LINE
  8
0
 10
140
 11
139.75
 20
273.3
 21
273.367
  0
LINE
  8
0
 10
139.75
 11
139.5
 20
273.367
 21
273.3
  0
LINE
  8
0
 10
139.5
 11
139.25
 20
273.3
 21
273.367
  0
LINE
  8
0
 10
139.25
 11
139
 20
273.367
 21
273.3
  0
LINE
  8
0
 10
139
 11
138.75
 20
273.3
 21
273.367
  0
LINE
  8
0
 10
138.75
 11
138.5
 20
273.367
 21
273.3
  0
LINE
  8
0
 10
138.5
 11
138.25
 20
273.3
 21
273.367
  0
LINE
  8
0
 10
138.25
 11
138
 20
273.367
 21
273.3
  0
LINE
  8
0
 10
138
 11
137.75
 20
273.3
 21
273.367
  0
LINE
  8
0
 10
137.75
 11
137.5
 20
273.367
 21
273.3
  0
LINE
  8
0
 10
137.5
 11
137.25
 20
273.3
 21
273.367
  0
LINE
  8
0
 10
137.25
 11
137
 20
273.367
 21
273.3
  0
LINE
  8
0
 10
137
 11
136.75
 20
273.3
 21
273.367
  0
LINE
  8
0
 10
136.75
 11
136.5
 20
273.367
 21
273.3
  0
LINE
  8
0
 10
136.5
 11
135.4
 20
273.3
 21
273.595
  0
LINE
  8
0
 10
135.4
 11
134.595
 20
273.595
 21
274.4
  0
LINE
  8
0
 10
134.595
 11
134.3
 20
274.4
 21
275.5
  0
LINE
  8
0
 10
136.35
 11
136.35
 20
294.7
 21
294.913
  0
LINE
  8
0
 10
136.35
 11
136.377
 20
294.913
 21
295.125
  0
LINE
  8
0
 10
136.377
 11
136.43
 20
295.125
 21
295.332
  0
LINE
  8
0
 10
136.43
 11
136.509
 20
295.332
 21
295.53
  0
LINE
  8
0
 10
136.509
 11
136.612
 20
295.53
 21
295.717
  0
LINE
  8
0
 10
136.612
 11
136.737
 20
295.717
 21
295.89
  0
LINE
  8
0
 10
136.737
 11
136.883
 20
295.89
 21
296.046
  0
LINE
  8
0
 10
136.883
 11
137.048
 20
296.046
 21
296.182
  0
LINE
  8
0
 10
137.048
 11
137.228
 20
296.182
 21
296.296
  0
LINE
  8
0
 10
137.228
 11
137.421
 20
296.296
 21
296.387
  0
LINE
  8
0
 10
137.421
 11
137.624
 20
296.387
 21
296.453
  0
LINE
  8
0
 10
137.624
 11
137.834
 20
296.453
 21
296.493
  0
LINE
  8
0
 10
137.834
 11
138.047
 20
296.493
 21
296.506
  0
LINE
  8
0
 10
138.047
 11
138.26
 20
296.506
 21
296.493
  0
LINE
  8
0
 10
138.26
 11
138.47
 20
296.493
 21
296.453
  0
LINE
  8
0
 10
138.47
 11
138.673
 20
296.453
 21
296.387
  0
LINE
  8
0
 10
138.673
 11
138.866
 20
296.387
 21
296.296
  0
LINE
  8
0
 10
138.866
 11
139.046
 20
296.296
 21
296.182
  0
LINE
  8
0
 10
139.046
 11
139.211
 20
296.182
 21
296.046
  0
LINE
  8
0
 10
139.211
 11
139.357
 20
296.046
 21
295.89
  0
LINE
  8
0
 10
139.357
 11
139.482
 20
295.89
 21
295.717
  0
LINE
  8
0
 10
139.482
 11
139.585
 20
295.717
 21
295.53
  0
LINE
  8
0
 10
139.585
 11
139.664
 20
295.53
 21
295.332
  0
LINE
  8
0
 10
139.664
 11
139.717
 20
295.332
 21
295.125
  0
LINE
  8
0
 10
139.717
 11
139.744
 20
295.125
 21
294.913
  0
LINE
  8
0
 10
139.744
 11
139.744
 20
294.913
 21
294.7
  0
LINE
  8
0
 10
139.744
 11
139.717
 20
294.7
 21
294.488
  0
LINE
  8
0
 10
139.717
 11
139.664
 20
294.488
 21
294.281
  0
LINE
  8
0
 10
139.664
 11
139.585
 20
294.281
 21
294.082
  0
LINE
  8
0
 10
139.585
 11
139.482
 20
294.082
 21
293.895
  0
LINE
  8
0
 10
139.482
 11
139.357
 20
293.895
 21
293.723
  0
LINE
  8
0
 10
139.357
 11
139.211
 20
293.723
 21
293.567
  0
LINE
  8
0
 10
139.211
 11
139.046
 20
293.567
 21
293.431
  0
LINE
  8
0
 10
139.046
 11
138.866
 20
293.431
 21
293.317
  0
LINE
  8
0
 10
138.866
 11
138.673
 20
293.317
 21
293.226
  0
LINE
  8
0
 10
138.673
 11
138.47
 20
293.226
 21
293.16
  0
LINE
  8
0
 10
138.47
 11
138.26
 20
293.16
 21
293.12
  0
LINE
  8
0
 10
138.26
 11
138.047
 20
293.12
 21
293.106
  0
LINE
  8
0
 10
138.047
 11
137.834
 20
293.106
 21
293.12
  0
LINE
  8
0
 10
137.834
 11
137.624
 20
293.12
 21
293.16
  0
LINE
  8
0
 10
137.624
 11
137.421
 20
293.16
 21
293.226
  0
LINE
  8
0
 10
137.421
 11
137.228
 20
293.226
 21
293.317
  0
LINE
  8
0
 10
137.228
 11
137.048
 20
293.317
 21
293.431
  0
LINE
  8
0
 10
137.048
 11
136.883
 20
293.431
 21
293.567
  0
LINE
  8
0
 10
136.883
 11
136.737
 20
293.567
 21
293.723
  0
LINE
  8
0
 10
136.737
 11
136.612
 20
293.723
 21
293.895
  0
LINE
  8
0
 10
136.612
 11
136.509
 20
293.895
 21
294.082
  0
LINE
  8
0
 10
136.509
 11
136.43
 20
294.082
 21
294.281
  0
LINE
  8
0
 10
136.43
 11
136.377
 20
294.281
 21
294.488
  0
LINE
  8
0
 10
136.377
 11
136.35
 20
294.488
 21
294.7
  0
LINE
  8
0
 10
138
 11
138.11
 20
260
 21
261.755
  0
LINE
  8
0
 10
138.11
 11
138.44
 20
261.755
 21
263.482
  0
LINE
  8
0
 10
138.44
 11
138.983
 20
263.482
 21
265.154
  0
LINE
  8
0
 10
138.983
 11
139.732
 20
265.154
 21
266.745
  0
LINE
  8
0
 10
139.732
 11
140.674
 20
266.745
 21
268.229
  0
LINE
  8
0
 10
140.674
 11
141.794
 20
268.229
 21
269.584
  0
LINE
  8
0
 10
141.794
 11
143.076
 20
269.584
 21
270.787
  0
LINE
  8
0
 10
143.076
 11
144.498
 20
270.787
 21
271.821
  0
LINE
  8
0
 10
144.498
 11
146.039
 20
271.821
 21
272.668
  0
LINE
  8
0
 10
146.039
 11
147.674
 20
272.668
 21
273.315
  0
LINE
  8
0
 10
147.674
 11
149.377
 20
273.315
 21
273.752
  0
LINE
  8
0
 10
149.377
 11
151.121
 20
273.752
 21
273.972
  0
LINE
  8
0
 10
151.121
 11
157.879
 20
273.972
 21
273.972
  0
LINE
  8
0
 10
157.879
 11
159.623
 20
273.972
 21
273.752
  0
LINE
  8
0
 10
159.623
 11
161.326
 20
273.752
 21
273.315
  0
LINE
  8
0
 10
161.326
 11
162.961
 20
273.315
 21
272.668
  0
LINE
  8
0
 10
162.961
 11
164.502
 20
272.668
 21
271.821
  0
LINE
  8
0
 10
164.502
 11
165.924
 20
271.821
 21
270.787
  0
LINE
  8
0
 10
165.924
 11
167.206
 20
270.787
 21
269.584
  0
LINE
  8
0
 10
167.206
 11
168.326
 20
269.584
 21
268.229
  0
LINE
  8
0
 10
168.326
 11
169.268
 20
268.229
 21
266.745
  0
LINE
  8
0
 10
169.268
 11
170.017
 20
266.745
 21
265.154
  0
LINE
  8
0
 10
170.017
 11
170.56
 20
265.154
 21
263.482
  0
LINE
  8
0
 10
170.56
 11
170.89
 20
263.482
 21
261.755
  0
LINE
  8
0
 10
170.89
 11
171
 20
261.755
 21
260
  0
LINE
  8
0
 10
171
 11
170.89
 20
260
 21
258.245
  0
LINE
  8
0
 10
170.89
 11
170.56
 20
258.245
 21
256.518
  0
LINE
  8
0
 10
170.56
 11
170.017
 20
256.518
 21
254.846
  0
LINE
  8
0
 10
170.017
 11
169.268
 20
254.846
 21
253.255
  0
LINE
  8
0
 10
169.268
 11
168.326
 20
253.255
 21
251.771
  0
LINE
  8
0
 10
168.326
 11
167.206
 20
251.771
 21
250.416
  0
LINE
  8
0
 10
167.206
 11
165.924
 20
250.416
 21
249.213
  0
LINE
  8
0
 10
165.924
 11
164.502
 20
249.213
 21
248.179
  0
LINE
  8
0
 10
164.502
 11
162.961
 20
248.179
 21
247.332
  0
LINE
  8
0
 10
162.961
 11
161.326
 20
247.332
 21
246.685
  0
LINE
  8
0
 10
161.326
 11
159.623
 20
246.685
 21
246.248
  0
LINE
  8
0
 10
159.623
 11
157.879
 20
246.248
 21
246.028
  0
LINE
  8
0
 10
157.879
 11
151.121
 20
246.028
 21
246.028
  0
LINE
  8
0
 10
151.121
 11
149.377
 20
246.028
 21
246.248
  0
LINE
  8
0
 10
149.377
 11
147.674
 20
246.248
 21
246.685
  0
LINE
  8
0
 10
147.674
 11
146.039
 20
246.685
 21
247.332
  0
LINE
  8
0
 10
146.039
 11
144.498
 20
247.332
 21
248.179
  0
LINE
  8
0
 10
144.498
 11
143.076
 20
248.179
 21
249.213
  0
LINE
  8
0
 10
143.076
 11
141.794
 20
249.213
 21
250.416
  0
LINE
  8
0
 10
141.794
 11
140.674
 20
250.416
 21
251.771
  0
LINE
  8
0
 10
140.674
 11
139.732
 20
251.771
 21
253.255
  0
LINE
  8
0
 10
139.732
 11
138.983
 20
253.255
 21
254.846
  0
LINE
  8
0
 10
138.983
 11
138.44
 20
254.846
 21
256.518
  0
LINE
  8
0
 10
138.44
 11
138.11
 20
256.518
 21
258.245
  0
LINE
  8
0
 10
138.11
 11
138
 20
258.245
 21
260
  0
LINE
  8
0
 10
165.3
 11
165.595
 20
244.5
 21
245.6
  0
LINE
  8
0
 10
165.595
 11
166.4
 20
245.6
 21
246.405
  0
LINE
  8
0
 10
166.4
 11
167.5
 20
246.405
 21
246.7
  0
LINE
  8
0
 10
167.5
 11
167.75
 20
246.7
 21
246.633
  0
LINE
  8
0
 10
167.75
 11
168
 20
246.633
 21
246.7
  0
LINE
  8
0
 10
168
 11
168.25
 20
246.7
 21
246.633
  0
LINE
  8
0
 10
168.25
 11
168.5
 20
246.633
 21
246.7
  0
LINE
  8
0
 10
168.5
 11
168.75
 20
246.7
 21
246.633
  0
LINE
  8
0
 10
168.75
 11
169
 20
246.633
 21
246.7
  0
LINE
  8
0
 10
169
 11
169.25
 20
246.7
 21
246.633
  0
LINE
  8
0
 10
169.25
 11
169.5
 20
246.633
 21
246.7
  0
LINE
  8
0
 10
169.5
 11
169.75
 20
246.7
 21
246.633
  0
LINE
  8
0
 10
169.75
 11
170
 20
246.633
 21
246.7
  0
LINE
  8
0
 10
170
 11
170.25
 20
246.7
 21
246.633
  0
LINE
  8
0
 10
170.25
 11
170.5
 20
246.633
 21
246.7
  0
LINE
  8
0
 10
170.5
 11
170.75
 20
246.7
 21
246.633
  0
LINE
  8
0
 10
170.75
 11
171
 20
246.633
 21
246.7
  0
LINE
  8
0
 10
171
 11
171.25
 20
246.7
 21
246.633
  0
LINE
  8
0
 10
171.25
 11
171.5
 20
246.633
 21
246.7
  0
LINE
  8
0
 10
171.5
 11
171.75
 20
246.7
 21
246.633
  0
LINE
  8
0
 10
171.75
 11
172
 20
246.633
 21
246.7
  0
LINE
  8
0
 10
172
 11
172.25
 20
246.7
 21
246.633
  0
LINE
  8
0
 10
172.25
 11
172.5
 20
246.633
 21
246.7
  0
LINE
  8
0
 10
172.5
 11
173.6
 20
246.7
 21
246.405
  0
LINE
  8
0
 10
173.6
 11
174.405
 20
246.405
 21
245.6
  0
LINE
  8
0
 10
174.405
 11
174.7
 20
245.6
 21
244.5
  0
LINE
  8
0
 10
174.7
 11
174.405
 20
244.5
 21
243.4
  0
LINE
  8
0
 10
174.405
 11
173.6
 20
243.4
 21
242.595
  0
LINE
  8
0
 10
173.6
 11
172.5
 20
242.595
 21
242.3
  0
LINE
  8
0
 10
172.5
 11
172.25
 20
242.3
 21
242.367
  0
LINE
  8
0
 10
172.25
 11
172
 20
242.367
 21
242.3
  0
LINE
  8
0
 10
172
 11
171.75
 20
242.3
 21
242.367
  0
LINE
  8
0
 10
171.75
 11
171.5
 20
242.367
 21
242.3
  0
LINE
  8
0
 10
171.5
 11
171.25
 20
242.3
 21
242.367
  0
LINE
  8
0
 10
171.25
 11
171
 20
242.367
 21
242.3
  0
LINE
  8
0
 10
171
 11
170.75
 20
242.3
 21
242.367
  0
LINE
  8
0
 10
170.75
 11
170.5
 20
242.367
 21
242.3
  0
LINE
  8
0
 10
170.5
 11
170.25
 20
242.3
 21
242.367
  0
LINE
  8
0
 10
170.25
 11
170
 20
242.367
 21
242.3
  0
LINE
  8
0
 10
170
 11
169.75
 20
242.3
 21
242.367
  0
LINE
  8
0
 10
169.75
 11
169.5
 20
242.367
 21
242.3
  0
LINE
  8
0
 10
169.5
 11
169.25
 20
242.3
 21
242.367
  0
LINE
  8
0
 10
169.25
 11
169
 20
242.367
 21
242.3
  0
LINE
  8
0
 10
169
 11
168.75
 20
242.3
 21
242.367
  0
LINE
  8
0
 10
168.75
 11
168.5
 20
242.367
 21
242.3
  0
LINE
  8
0
 10
168.5
 11
168.25
 20
242.3
 21
242.367
  0
LINE
  8
0
 10
168.25
 11
168
 20
242.367
 21
242.3
  0
LINE
  8
0
 10
168
 11
167.75
 20
242.3
 21
242.367
  0
LINE
  8
0
 10
167.75
 11
167.5
 20
242.367
 21
242.3
  0
LINE
  8
0
 10
167.5
 11
166.4
 20
242.3
 21
242.595
  0
LINE
  8
0
 10
166.4
 11
165.595
 20
242.595
 21
243.4
  0
LINE
  8
0
 10
165.595
 11
165.3
 20
243.4
 21
244.5
  0
LINE
  8
0
 10
165.3
 11
165.595
 20
275.5
 21
276.6
  0
LINE
  8
0
 10
165.595
 11
166.4
 20
276.6
 21
277.405
  0
LINE
  8
0
 10
166.4
 11
167.5
 20
277.405
 21
277.7
  0
LINE
  8
0
 10
167.5
 11
167.75
 20
277.7
 21
277.633
  0
LINE
  8
0
 10
167.75
 11
168
 20
277.633
 21
277.7
  0
LINE
  8
0
 10
168
 11
168.25
 20
277.7
 21
277.633
  0
LINE
  8
0
 10
168.25
 11
168.5
 20
277.633
 21
277.7
  0
LINE
  8
0
 10
168.5
 11
168.75
 20
277.7
 21
277.633
  0
LINE
  8
0
 10
168.75
 11
169
 20
277.633
 21
277.7
  0
LINE
  8
0
 10
169
 11
169.25
 20
277.7
 21
277.633
  0
LINE
  8
0
 10
169.25
 11
169.5
 20
277.633
 21
277.7
  0
LINE
  8
0
 10
169.5
 11
169.75
 20
277.7
 21
277.633
  0
LINE
  8
0
 10
169.75
 11
170
 20
277.633
 21
277.7
  0
LINE
  8
0
 10
170
 11
170.25
 20
277.7
 21
277.633
  0
LINE
  8
0
 10
170.25
 11
170.5
 20
277.633
 21
277.7
  0
LINE
  8
0
 10
170.5
 11
170.75
 20
277.7
 21
277.633
  0
LINE
  8
0
 10
170.75
 11
171
 20
277.633
 21
277.7
  0
LINE
  8
0
 10
171
 11
171.25
 20
277.7
 21
277.633
  0
LINE
  8
0
 10
171.25
 11
171.5
 20
277.633
 21
277.7
  0
LINE
  8
0
 10
171.5
 11
171.75
 20
277.7
 21
277.633
  0
LINE
  8
0
 10
171.75
 11
172
 20
277.633
 21
277.7
  0
LINE
  8
0
 10
172
 11
172.25
 20
277.7
 21
277.633
  0
LINE
  8
0
 10
172.25
 11
172.5
 20
277.633
 21
277.7
  0
LINE
  8
0
 10
172.5
 11
173.6
 20
277.7
 21
277.405
  0
LINE
  8
0
 10
173.6
 11
174.405
 20
277.405
 21
276.6
  0
LINE
  8
0
 10
174.405
 11
174.7
 20
276.6
 21
275.5
  0
LINE
  8
0
 10
174.7
 11
174.405
 20
275.5
 21
274.4
  0
LINE
  8
0
 10
174.405
 11
173.6
 20
274.4
 21
273.595
  0
LINE
  8
0
 10
173.6
 11
172.5
 20
273.595
 21
273.3
  0
LINE
  8
0
 10
172.5
 11
172.25
 20
273.3
 21
273.367
  0
LINE
  8
0
 10
172.25
 11
172
 20
273.367
 21
273.3
  0
LINE
  8
0
 10
172
 11
171.75
 20
273.3
 21
273.367
  0
LINE
  8
0
 10
171.75
 11
171.5
 20
273.367
 21
273.3
  0
LINE
  8
0
 10
171.5
 11
171.25
 20
273.3
 21
273.367
  0
LINE
  8
0
 10
171.25
 11
171
 20
273.367
 21
273.3
  0
LINE
  8
0
 10
171
 11
170.75
 20
273.3
 21
273.367
  0
LINE
  8
0
 10
170.75
 11
170.5
 20
273.367
 21
273.3
  0
LINE
  8
0
 10
170.5
 11
170.25
 20
273.3
 21
273.367
  0
LINE
  8
0
 10
170.25
 11
170
 20
273.367
 21
273.3
  0
LINE
  8
0
 10
170
 11
169.75
 20
273.3
 21
273.367
  0
LINE
  8
0
 10
169.75
 11
169.5
 20
273.367
 21
273.3
  0
LINE
  8
0
 10
169.5
 11
169.25
 20
273.3
 21
273.367
  0
LINE
  8
0
 10
169.25
 11
169
 20
273.367
 21
273.3
  0
LINE
  8
0
 10
169
 11
168.75
 20
273.3
 21
273.367
  0
LINE
  8
0
 10
168.75
 11
168.5
 20
273.367
 21
273.3
  0
LINE
  8
0
 10
168.5
 11
168.25
 20
273.3
 21
273.367
  0
LINE
  8
0
 10
168.25
 11
168
 20
273.367
 21
273.3
  0
LINE
  8
0
 10
168
 11
167.75
 20
273.3
 21
273.367
  0
LINE
  8
0
 10
167.75
 11
167.5
 20
273.367
 21
273.3
  0
LINE
  8
0
 10
167.5
 11
166.4
 20
273.3
 21
273.595
  0
LINE
  8
0
 10
166.4
 11
165.595
 20
273.595
 21
274.4
  0
LINE
  8
0
 10
165.595
 11
165.3
 20
274.4
 21
275.5
  0
LINE
  8
0
 10
192.7
 11
192.813
 20
-270
 21
-269.289
  0
LINE
  8
0
 10
192.813
 11
193.139
 20
-269.289
 21
-268.648
  0
LINE
  8
0
 10
193.139
 11
193.648
 20
-268.648
 21
-268.139
  0
LINE
  8
0
 10
193.648
 11
194.289
 20
-268.139
 21
-267.813
  0
LINE
  8
0
 10
194.289
 11
195
 20
-267.813
 21
-267.7
  0
LINE
  8
0
 10
195
 11
195.711
 20
-267.7
 21
-267.813
  0
LINE
  8
0
 10
195.711
 11
196.352
 20
-267.813
 21
-268.139
  0
LINE
  8
0
 10
196.352
 11
196.861
 20
-268.139
 21
-268.648
  0
LINE
  8
0
 10
196.861
 11
197.187
 20
-268.648
 21
-269.289
  0
LINE
  8
0
 10
197.187
 11
197.3
 20
-269.289
 21
-270
  0
LINE
  8
0
 10
197.3
 11
197.187
 20
-270
 21
-270.711
  0
LINE
  8
0
 10
197.187
 11
196.861
 20
-270.711
 21
-271.352
  0
LINE
  8
0
 10
196.861
 11
196.352
 20
-271.352
 21
-271.861
  0
LINE
  8
0
 10
196.352
 11
195.711
 20
-271.861
 21
-272.187
  0
LINE
  8
0
 10
195.711
 11
195
 20
-272.187
 21
-272.3
  0
LINE
  8
0
 10
195
 11
194.289
 20
-272.3
 21
-272.187
  0
LINE
  8
0
 10
194.289
 11
193.648
 20
-272.187
 21
-271.861
  0
LINE
  8
0
 10
193.648
 11
193.139
 20
-271.861
 21
-271.352
  0
LINE
  8
0
 10
193.139
 11
192.813
 20
-271.352
 21
-270.711
  0
LINE
  8
0
 10
192.813
 11
192.7
 20
-270.711
 21
-270
  0
LINE
  8
0
 10
200
 11
200.039
 20
246
 21
246.627
  0
LINE
  8
0
 10
200.039
 11
200.157
 20
246.627
 21
247.243
  0
LINE
  8
0
 10
200.157
 11
200.351
 20
247.243
 21
247.841
  0
LINE
  8
0
 10
200.351
 11
200.618
 20
247.841
 21
248.409
  0
LINE
  8
0
 10
200.618
 11
200.955
 20
248.409
 21
248.939
  0
LINE
  8
0
 10
200.955
 11
201.355
 20
248.939
 21
249.423
  0
LINE
  8
0
 10
201.355
 11
201.813
 20
249.423
 21
249.853
  0
LINE
  8
0
 10
201.813
 11
202.321
 20
249.853
 21
250.222
  0
LINE
  8
0
 10
202.321
 11
202.871
 20
250.222
 21
250.524
  0
LINE
  8
0
 10
202.871
 11
203.455
 20
250.524
 21
250.755
  0
LINE
  8
0
 10
203.455
 11
204.063
 20
250.755
 21
250.911
  0
LINE
  8
0
 10
204.063
 11
204.686
 20
250.911
 21
250.99
  0
LINE
  8
0
 10
204.686
 11
205.314
 20
250.99
 21
250.99
  0
LINE
  8
0
 10
205.314
 11
205.937
 20
250.99
 21
250.911
  0
LINE
  8
0
 10
205.937
 11
206.545
 20
250.911
 21
250.755
  0
LINE
  8
0
 10
206.545
 11
207.129
 20
250.755
 21
250.524
  0
LINE
  8
0
 10
207.129
 11
207.679
 20
250.524
 21
250.222
  0
LINE
  8
0
 10
207.679
 11
208.187
 20
250.222
 21
249.853
  0
LINE
  8
0
 10
208.187
 11
208.645
 20
249.853
 21
249.423
  0
LINE
  8
0
 10
208.645
 11
209.045
 20
249.423
 21
248.939
  0
LINE
  8
0
 10
209.045
 11
209.382
 20
248.939
 21
248.409
  0
LINE
  8
0
 10
209.382
 11
209.649
 20
248.409
 21
247.841
  0
LINE
  8
0
 10
209.649
 11
209.843
 20
247.841
 21
247.243
  0
LINE
  8
0
 10
209.843
 11
209.961
 20
247.243
 21
246.627
  0
LINE
  8
0
 10
209.961
 11
210
 20
246.627
 21
246
  0
LINE
  8
0
 10
210
 11
209.961
 20
246
 21
245.373
  0
LINE
  8
0
 10
209.961
 11
209.843
 20
245.373
 21
244.757
  0
LINE
  8
0
 10
209.843
 11
209.649
 20
244.757
 21
244.159
  0
LINE
  8
0
 10
209.649
 11
209.382
 20
244.159
 21
243.591
  0
LINE
  8
0
 10
209.382
 11
209.045
 20
243.591
 21
243.061
  0
LINE
  8
0
 10
209.045
 11
208.645
 20
243.061
 21
242.577
  0
LINE
  8
0
 10
208.645
 11
208.187
 20
242.577
 21
242.147
  0
LINE
  8
0
 10
208.187
 11
207.679
 20
242.147
 21
241.778
  0
LINE
  8
0
 10
207.679
 11
207.129
 20
241.778
 21
241.476
  0
LINE
  8
0
 10
207.129
 11
206.545
 20
241.476
 21
241.245
  0
LINE
  8
0
 10
206.545
 11
205.937
 20
241.245
 21
241.089
  0
LINE
  8
0
 10
205.937
 11
205.314
 20
241.089
 21
241.01
  0
LINE
  8
0
 10
205.314
 11
204.686
 20
241.01
 21
241.01
  0
LINE
  8
0
 10
204.686
 11
204.063
 20
241.01
 21
241.089
  0
LINE
  8
0
 10
204.063
 11
203.455
 20
241.089
 21
241.245
  0
LINE
  8
0
 10
203.455
 11
202.871
 20
241.245
 21
241.476
  0
LINE
  8
0
 10
202.871
 11
202.321
 20
241.476
 21
241.778
  0
LINE
  8
0
 10
202.321
 11
201.813
 20
241.778
 21
242.147
  0
LINE
  8
0
 10
201.813
 11
201.355
 20
242.147
 21
242.577
  0
LINE
  8
0
 10
201.355
 11
200.955
 20
242.577
 21
243.061
  0
LINE
  8
0
 10
200.955
 11
200.618
 20
243.061
 21
243.591
  0
LINE
  8
0
 10
200.618
 11
200.351
 20
243.591
 21
244.159
  0
LINE
  8
0
 10
200.351
 11
200.157
 20
244.159
 21
244.757
  0
LINE
  8
0
 10
200.157
 11
200.039
 20
244.757
 21
245.373
  0
LINE
  8
0
 10
200.039
 11
200
 20
245.373
 21
246
  0
LINE
  8
0
 10
219.3
 11
219.313
 20
239.5
 21
239.713
  0
LINE
  8
0
 10
219.313
 11
219.353
 20
239.713
 21
239.923
  0
LINE
  8
0
 10
219.353
 11
219.419
 20
239.923
 21
240.126
  0
LINE
  8
0
 10
219.419
 11
219.51
 20
240.126
 21
240.319
  0
LINE
  8
0
 10
219.51
 11
219.625
 20
240.319
 21
240.499
  0
LINE
  8
0
 10
219.625
 11
219.761
 20
240.499
 21
240.664
  0
LINE
  8
0
 10
219.761
 11
219.916
 20
240.664
 21
240.81
  0
LINE
  8
0
 10
219.916
 11
220.089
 20
240.81
 21
240.935
  0
LINE
  8
0
 10
220.089
 11
220.276
 20
240.935
 21
241.038
  0
LINE
  8
0
 10
220.276
 11
220.475
 20
241.038
 21
241.117
  0
LINE
  8
0
 10
220.475
 11
220.681
 20
241.117
 21
241.17
  0
LINE
  8
0
 10
220.681
 11
220.893
 20
241.17
 21
241.197
  0
LINE
  8
0
 10
220.893
 11
221.107
 20
241.197
 21
241.197
  0
LINE
  8
0
 10
221.107
 11
221.319
 20
241.197
 21
241.17
  0
LINE
  8
0
 10
221.319
 11
221.525
 20
241.17
 21
241.117
  0
LINE
  8
0
 10
221.525
 11
221.724
 20
241.117
 21
241.038
  0
LINE
  8
0
 10
221.724
 11
221.911
 20
241.038
 21
240.935
  0
LINE
  8
0
 10
221.911
 11
222.084
 20
240.935
 21
240.81
  0
LINE
  8
0
 10
222.084
 11
222.239
 20
240.81
 21
240.664
  0
LINE
  8
0
 10
222.239
 11
222.375
 20
240.664
 21
240.499
  0
LINE
  8
0
 10
222.375
 11
222.49
 20
240.499
 21
240.319
  0
LINE
  8
0
 10
222.49
 11
222.581
 20
240.319
 21
240.126
  0
LINE
  8
0
 10
222.581
 11
222.647
 20
240.126
 21
239.923
  0
LINE
  8
0
 10
222.647
 11
222.687
 20
239.923
 21
239.713
  0
LINE
  8
0
 10
222.687
 11
222.7
 20
239.713
 21
239.5
  0
LINE
  8
0
 10
222.7
 11
222.687
 20
239.5
 21
239.287
  0
LINE
  8
0
 10
222.687
 11
222.647
 20
239.287
 21
239.077
  0
LINE
  8
0
 10
222.647
 11
222.581
 20
239.077
 21
238.874
  0
LINE
  8
0
 10
222.581
 11
222.49
 20
238.874
 21
238.681
  0
LINE
  8
0
 10
222.49
 11
222.375
 20
238.681
 21
238.501
  0
LINE
  8
0
 10
222.375
 11
222.239
 20
238.501
 21
238.336
  0
LINE
  8
0
 10
222.239
 11
222.084
 20
238.336
 21
238.19
  0
LINE
  8
0
 10
222.084
 11
221.911
 20
238.19
 21
238.065
  0
LINE
  8
0
 10
221.911
 11
221.724
 20
238.065
 21
237.962
  0
LINE
  8
0
 10
221.724
 11
221.525
 20
237.962
 21
237.883
  0
LINE
  8
0
 10
221.525
 11
221.319
 20
237.883
 21
237.83
  0
LINE
  8
0
 10
221.319
 11
221.107
 20
237.83
 21
237.803
  0
LINE
  8
0
 10
221.107
 11
220.893
 20
237.803
 21
237.803
  0
LINE
  8
0
 10
220.893
 11
220.681
 20
237.803
 21
237.83
  0
LINE
  8
0
 10
220.681
 11
220.475
 20
237.83
 21
237.883
  0
LINE
  8
0
 10
220.475
 11
220.276
 20
237.883
 21
237.962
  0
LINE
  8
0
 10
220.276
 11
220.089
 20
237.962
 21
238.065
  0
LINE
  8
0
 10
220.089
 11
219.916
 20
238.065
 21
238.19
  0
LINE
  8
0
 10
219.916
 11
219.761
 20
238.19
 21
238.336
  0
LINE
  8
0
 10
219.761
 11
219.625
 20
238.336
 21
238.501
  0
LINE
  8
0
 10
219.625
 11
219.51
 20
238.501
 21
238.681
  0
LINE
  8
0
 10
219.51
 11
219.419
 20
238.681
 21
238.874
  0
LINE
  8
0
 10
219.419
 11
219.353
 20
238.874
 21
239.077
  0
LINE
  8
0
 10
219.353
 11
219.313
 20
239.077
 21
239.287
  0
LINE
  8
0
 10
219.313
 11
219.3
 20
239.287
 21
239.5
  0
LINE
  8
0
 10
271
 11
271.032
 20
221
 21
221.501
  0
LINE
  8
0
 10
271.032
 11
271.126
 20
221.501
 21
221.995
  0
LINE
  8
0
 10
271.126
 11
271.281
 20
221.995
 21
222.472
  0
LINE
  8
0
 10
271.281
 11
271.495
 20
222.472
 21
222.927
  0
LINE
  8
0
 10
271.495
 11
271.764
 20
222.927
 21
223.351
  0
LINE
  8
0
 10
271.764
 11
272.084
 20
223.351
 21
223.738
  0
LINE
  8
0
 10
272.084
 11
272.45
 20
223.738
 21
224.082
  0
LINE
  8
0
 10
272.45
 11
272.857
 20
224.082
 21
224.377
  0
LINE
  8
0
 10
272.857
 11
273.297
 20
224.377
 21
224.619
  0
LINE
  8
0
 10
273.297
 11
273.764
 20
224.619
 21
224.804
  0
LINE
  8
0
 10
273.764
 11
274.25
 20
224.804
 21
224.929
  0
LINE
  8
0
 10
274.25
 11
274.749
 20
224.929
 21
224.992
  0
LINE
  8
0
 10
274.749
 11
275.251
 20
224.992
 21
224.992
  0
LINE
  8
0
 10
275.251
 11
275.75
 20
224.992
 21
224.929
  0
LINE
  8
0
 10
275.75
 11
276.236
 20
224.929
 21
224.804
  0
LINE
  8
0
 10
276.236
 11
276.703
 20
224.804
 21
224.619
  0
LINE
  8
0
 10
276.703
 11
277.143
 20
224.619
 21
224.377
  0
LINE
  8
0
 10
277.143
 11
277.55
 20
224.377
 21
224.082
  0
LINE
  8
0
 10
277.55
 11
277.916
 20
224.082
 21
223.738
  0
LINE
  8
0
 10
277.916
 11
278.236
 20
223.738
 21
223.351
  0
LINE
  8
0
 10
278.236
 11
278.505
 20
223.351
 21
222.927
  0
LINE
  8
0
 10
278.505
 11
278.719
 20
222.927
 21
222.472
  0
LINE
  8
0
 10
278.719
 11
278.874
 20
222.472
 21
221.995
  0
LINE
  8
0
 10
278.874
 11
278.968
 20
221.995
 21
221.501
  0
LINE
  8
0
 10
278.968
 11
279
 20
221.501
 21
221
  0
LINE
  8
0
 10
279
 11
278.968
 20
221
 21
220.499
  0
LINE
  8
0
 10
278.968
 11
278.874
 20
220.499
 21
220.005
  0
LINE
  8
0
 10
278.874
 11
278.719
 20
220.005
 21
219.528
  0
LINE
  8
0
 10
278.719
 11
278.505
 20
219.528
 21
219.073
  0
LINE
  8
0
 10
278.505
 11
278.236
 20
219.073
 21
218.649
  0
LINE
  8
0
 10
278.236
 11
277.916
 20
218.649
 21
218.262
  0
LINE
  8
0
 10
277.916
 11
277.55
 20
218.262
 21
217.918
  0
LINE
  8
0
 10
277.55
 11
277.143
 20
217.918
 21
217.623
  0
LINE
  8
0
 10
277.143
 11
276.703
 20
217.623
 21
217.381
  0
LINE
  8
0
 10
276.703
 11
276.236
 20
217.381
 21
217.196
  0
LINE
  8
0
 10
276.236
 11
275.75
 20
217.196
 21
217.071
  0
LINE
  8
0
 10
275.75
 11
275.251
 20
217.071
 21
217.008
  0
LINE
  8
0
 10
275.251
 11
274.749
 20
217.008
 21
217.008
  0
LINE
  8
0
 10
274.749
 11
274.25
 20
217.008
 21
217.071
  0
LINE
  8
0
 10
274.25
 11
273.764
 20
217.071
 21
217.196
  0
LINE
  8
0
 10
273.764
 11
273.297
 20
217.196
 21
217.381
  0
LINE
  8
0
 10
273.297
 11
272.857
 20
217.381
 21
217.623
  0
LINE
  8
0
 10
272.857
 11
272.45
 20
217.623
 21
217.918
  0
LINE
  8
0
 10
272.45
 11
272.084
 20
217.918
 21
218.262
  0
LINE
  8
0
 10
272.084
 11
271.764
 20
218.262
 21
218.649
  0
LINE
  8
0
 10
271.764
 11
271.495
 20
218.649
 21
219.073
  0
LINE
  8
0
 10
271.495
 11
271.281
 20
219.073
 21
219.528
  0
LINE
  8
0
 10
271.281
 11
271.126
 20
219.528
 21
220.005
  0
LINE
  8
0
 10
271.126
 11
271.032
 20
220.005
 21
220.499
  0
LINE
  8
0
 10
271.032
 11
271
 20
220.499
 21
221
  0
LINE
  8
0
 10
312.536
 11
312.536
 20
205.91
 21
206.123
  0
LINE
  8
0
 10
312.536
 11
312.563
 20
206.123
 21
206.335
  0
LINE
  8
0
 10
312.563
 11
312.616
 20
206.335
 21
206.542
  0
LINE
  8
0
 10
312.616
 11
312.694
 20
206.542
 21
206.74
  0
LINE
  8
0
 10
312.694
 11
312.797
 20
206.74
 21
206.927
  0
LINE
  8
0
 10
312.797
 11
312.923
 20
206.927
 21
207.1
  0
LINE
  8
0
 10
312.923
 11
313.069
 20
207.1
 21
207.256
  0
LINE
  8
0
 10
313.069
 11
313.233
 20
207.256
 21
207.392
  0
LINE
  8
0
 10
313.233
 11
313.413
 20
207.392
 21
207.506
  0
LINE
  8
0
 10
313.413
 11
313.607
 20
207.506
 21
207.597
  0
LINE
  8
0
 10
313.607
 11
313.81
 20
207.597
 21
207.663
  0
LINE
  8
0
 10
313.81
 11
314.019
 20
207.663
 21
207.703
  0
LINE
  8
0
 10
314.019
 11
314.232
 20
207.703
 21
207.716
  0
LINE
  8
0
 10
314.232
 11
314.446
 20
207.716
 21
207.703
  0
LINE
  8
0
 10
314.446
 11
314.655
 20
207.703
 21
207.663
  0
LINE
  8
0
 10
314.655
 11
314.858
 20
207.663
 21
207.597
  0
LINE
  8
0
 10
314.858
 11
315.051
 20
207.597
 21
207.506
  0
LINE
  8
0
 10
315.051
 11
315.232
 20
207.506
 21
207.392
  0
LINE
  8
0
 10
315.232
 11
315.396
 20
207.392
 21
207.256
  0
LINE
  8
0
 10
315.396
 11
315.542
 20
207.256
 21
207.1
  0
LINE
  8
0
 10
315.542
 11
315.668
 20
207.1
 21
206.927
  0
LINE
  8
0
 10
315.668
 11
315.771
 20
206.927
 21
206.74
  0
LINE
  8
0
 10
315.771
 11
315.849
 20
206.74
 21
206.542
  0
LINE
  8
0
 10
315.849
 11
315.902
 20
206.542
 21
206.335
  0
LINE
  8
0
 10
315.902
 11
315.929
 20
206.335
 21
206.123
  0
LINE
  8
0
 10
315.929
 11
315.929
 20
206.123
 21
205.91
  0
LINE
  8
0
 10
315.929
 11
315.902
 20
205.91
 21
205.698
  0
LINE
  8
0
 10
315.902
 11
315.849
 20
205.698
 21
205.491
  0
LINE
  8
0
 10
315.849
 11
315.771
 20
205.491
 21
205.292
  0
LINE
  8
0
 10
315.771
 11
315.668
 20
205.292
 21
205.105
  0
LINE
  8
0
 10
315.668
 11
315.542
 20
205.105
 21
204.933
  0
LINE
  8
0
 10
315.542
 11
315.396
 20
204.933
 21
204.777
  0
LINE
  8
0
 10
315.396
 11
315.232
 20
204.777
 21
204.641
  0
LINE
  8
0
 10
315.232
 11
315.051
 20
204.641
 21
204.527
  0
LINE
  8
0
 10
315.051
 11
314.858
 20
204.527
 21
204.436
  0
LINE
  8
0
 10
314.858
 11
314.655
 20
204.436
 21
204.37
  0
LINE
  8
0
 10
314.655
 11
314.446
 20
204.37
 21
204.33
  0
LINE
  8
0
 10
314.446
 11
314.232
 20
204.33
 21
204.316
  0
LINE
  8
0
 10
314.232
 11
314.019
 20
204.316
 21
204.33
  0
LINE
  8
0
 10
314.019
 11
313.81
 20
204.33
 21
204.37
  0
LINE
  8
0
 10
313.81
 11
313.607
 20
204.37
 21
204.436
  0
LINE
  8
0
 10
313.607
 11
313.413
 20
204.436
 21
204.527
  0
LINE
  8
0
 10
313.413
 11
313.233
 20
204.527
 21
204.641
  0
LINE
  8
0
 10
313.233
 11
313.069
 20
204.641
 21
204.777
  0
LINE
  8
0
 10
313.069
 11
312.923
 20
204.777
 21
204.933
  0
LINE
  8
0
 10
312.923
 11
312.797
 20
204.933
 21
205.105
  0
LINE
  8
0
 10
312.797
 11
312.694
 20
205.105
 21
205.292
  0
LINE
  8
0
 10
312.694
 11
312.616
 20
205.292
 21
205.491
  0
LINE
  8
0
 10
312.616
 11
312.563
 20
205.491
 21
205.698
  0
LINE
  8
0
 10
312.563
 11
312.536
 20
205.698
 21
205.91
  0
LINE
  8
0
 10
407.25
 11
407.25
 20
-149
 21
1
  0
LINE
  8
0
 10
407.25
 11
557.25
 20
1
 21
1
  0
LINE
  8
0
 10
557.25
 11
407.25
 20
1
 21
-149
  0
LINE
  8
0
 10
500
 11
500
 20
112
 21
282
  0
LINE
  8
0
 10
500
 11
550
 20
282
 21
282
  0
LINE
  8
0
 10
550
 11
550
 20
282
 21
277
  0
LINE
  8
0
 10
550
 11
734
 20
277
 21
112
  0
LINE
  8
0
 10
734
 11
500
 20
112
 21
112
  0
LINE
  8
0
 10
507.05
 11
507.063
 20
200
 21
200.213
  0
LINE
  8
0
 10
507.063
 11
507.103
 20
200.213
 21
200.423
  0
LINE
  8
0
 10
507.103
 11
507.169
 20
200.423
 21
200.626
  0
LINE
  8
0
 10
507.169
 11
507.26
 20
200.626
 21
200.819
  0
LINE
  8
0
 10
507.26
 11
507.375
 20
200.819
 21
200.999
  0
LINE
  8
0
 10
507.375
 11
507.511
 20
200.999
 21
201.164
  0
LINE
  8
0
 10
507.511
 11
507.666
 20
201.164
 21
201.31
  0
LINE
  8
0
 10
507.666
 11
507.839
 20
201.31
 21
201.435
  0
LINE
  8
0
 10
507.839
 11
508.026
 20
201.435
 21
201.538
  0
LINE
  8
0
 10
508.026
 11
508.225
 20
201.538
 21
201.617
  0
LINE
  8
0
 10
508.225
 11
508.431
 20
201.617
 21
201.67
  0
LINE
  8
0
 10
508.431
 11
508.643
 20
201.67
 21
201.697
  0
LINE
  8
0
 10
508.643
 11
508.857
 20
201.697
 21
201.697
  0
LINE
  8
0
 10
508.857
 11
509.069
 20
201.697
 21
201.67
  0
LINE
  8
0
 10
509.069
 11
509.275
 20
201.67
 21
201.617
  0
LINE
  8
0
 10
509.275
 11
509.474
 20
201.617
 21
201.538
  0
LINE
  8
0
 10
509.474
 11
509.661
 20
201.538
 21
201.435
  0
LINE
  8
0
 10
509.661
 11
509.834
 20
201.435
 21
201.31
  0
LINE
  8
0
 10
509.834
 11
509.989
 20
201.31
 21
201.164
  0
LINE
  8
0
 10
509.989
 11
510.125
 20
201.164
 21
200.999
  0
LINE
  8
0
 10
510.125
 11
510.24
 20
200.999
 21
200.819
  0
LINE
  8
0
 10
510.24
 11
510.331
 20
200.819
 21
200.626
  0
LINE
  8
0
 10
510.331
 11
510.397
 20
200.626
 21
200.423
  0
LINE
  8
0
 10
510.397
 11
510.437
 20
200.423
 21
200.213
  0
LINE
  8
0
 10
510.437
 11
510.45
 20
200.213
 21
200
  0
LINE
  8
0
 10
510.45
 11
510.437
 20
200
 21
199.787
  0
LINE
  8
0
 10
510.437
 11
510.397
 20
199.787
 21
199.577
  0
LINE
  8
0
 10
510.397
 11
510.331
 20
199.577
 21
199.374
  0
LINE
  8
0
 10
510.331
 11
510.24
 20
199.374
 21
199.181
  0
LINE
  8
0
 10
510.24
 11
510.125
 20
199.181
 21
199.001
  0
LINE
  8
0
 10
510.125
 11
509.989
 20
199.001
 21
198.836
  0
LINE
  8
0
 10
509.989
 11
509.834
 20
198.836
 21
198.69
  0
LINE
  8
0
 10
509.834
 11
509.661
 20
198.69
 21
198.565
  0
LINE
  8
0
 10
509.661
 11
509.474
 20
198.565
 21
198.462
  0
LINE
  8
0
 10
509.474
 11
509.275
 20
198.462
 21
198.383
  0
LINE
  8
0
 10
509.275
 11
509.069
 20
198.383
 21
198.33
  0
LINE
  8
0
 10
509.069
 11
508.857
 20
198.33
 21
198.303
  0
LINE
  8
0
 10
508.857
 11
508.643
 20
198.303
 21
198.303
  0
LINE
  8
0
 10
508.643
 11
508.431
 20
198.303
 21
198.33
  0
LINE
  8
0
 10
508.431
 11
508.225
 20
198.33
 21
198.383
  0
LINE
  8
0
 10
508.225
 11
508.026
 20
198.383
 21
198.462
  0
LINE
  8
0
 10
508.026
 11
507.839
 20
198.462
 21
198.565
  0
LINE
  8
0
 10
507.839
 11
507.666
 20
198.565
 21
198.69
  0
LINE
  8
0
 10
507.666
 11
507.511
 20
198.69
 21
198.836
  0
LINE
  8
0
 10
507.511
 11
507.375
 20
198.836
 21
199.001
  0
LINE
  8
0
 10
507.375
 11
507.26
 20
199.001
 21
199.181
  0
LINE
  8
0
 10
507.26
 11
507.169
 20
199.181
 21
199.374
  0
LINE
  8
0
 10
507.169
 11
507.103
 20
199.374
 21
199.577
  0
LINE
  8
0
 10
507.103
 11
507.063
 20
199.577
 21
199.787
  0
LINE
  8
0
 10
507.063
 11
507.05
 20
199.787
 21
200
  0
LINE
  8
0
 10
507.05
 11
507.063
 20
230
 21
230.213
  0
LINE
  8
0
 10
507.063
 11
507.103
 20
230.213
 21
230.423
  0
LINE
  8
0
 10
507.103
 11
507.169
 20
230.423
 21
230.626
  0
LINE
  8
0
 10
507.169
 11
507.26
 20
230.626
 21
230.819
  0
LINE
  8
0
 10
507.26
 11
507.375
 20
230.819
 21
230.999
  0
LINE
  8
0
 10
507.375
 11
507.511
 20
230.999
 21
231.164
  0
LINE
  8
0
 10
507.511
 11
507.666
 20
231.164
 21
231.31
  0
LINE
  8
0
 10
507.666
 11
507.839
 20
231.31
 21
231.435
  0
LINE
  8
0
 10
507.839
 11
508.026
 20
231.435
 21
231.538
  0
LINE
  8
0
 10
508.026
 11
508.225
 20
231.538
 21
231.617
  0
LINE
  8
0
 10
508.225
 11
508.431
 20
231.617
 21
231.67
  0
LINE
  8
0
 10
508.431
 11
508.643
 20
231.67
 21
231.697
  0
LINE
  8
0
 10
508.643
 11
508.857
 20
231.697
 21
231.697
  0
LINE
  8
0
 10
508.857
 11
509.069
 20
231.697
 21
231.67
  0
LINE
  8
0
 10
509.069
 11
509.275
 20
231.67
 21
231.617
  0
LINE
  8
0
 10
509.275
 11
509.474
 20
231.617
 21
231.538
  0
LINE
  8
0
 10
509.474
 11
509.661
 20
231.538
 21
231.435
  0
LINE
  8
0
 10
509.661
 11
509.834
 20
231.435
 21
231.31
  0
LINE
  8
0
 10
509.834
 11
509.989
 20
231.31
 21
231.164
  0
LINE
  8
0
 10
509.989
 11
510.125
 20
231.164
 21
230.999
  0
LINE
  8
0
 10
510.125
 11
510.24
 20
230.999
 21
230.819
  0
LINE
  8
0
 10
510.24
 11
510.331
 20
230.819
 21
230.626
  0
LINE
  8
0
 10
510.331
 11
510.397
 20
230.626
 21
230.423
  0
LINE
  8
0
 10
510.397
 11
510.437
 20
230.423
 21
230.213
  0
LINE
  8
0
 10
510.437
 11
510.45
 20
230.213
 21
230
  0
LINE
  8
0
 10
510.45
 11
510.437
 20
230
 21
229.787
  0
LINE
  8
0
 10
510.437
 11
510.397
 20
229.787
 21
229.577
  0
LINE
  8
0
 10
510.397
 11
510.331
 20
229.577
 21
229.374
  0
LINE
  8
0
 10
510.331
 11
510.24
 20
229.374
 21
229.181
  0
LINE
  8
0
 10
510.24
 11
510.125
 20
229.181
 21
229.001
  0
LINE
  8
0
 10
510.125
 11
509.989
 20
229.001
 21
228.836
  0
LINE
  8
0
 10
509.989
 11
509.834
 20
228.836
 21
228.69
  0
LINE
  8
0
 10
509.834
 11
509.661
 20
228.69
 21
228.565
  0
LINE
  8
0
 10
509.661
 11
509.474
 20
228.565
 21
228.462
  0
LINE
  8
0
 10
509.474
 11
509.275
 20
228.462
 21
228.383
  0
LINE
  8
0
 10
509.275
 11
509.069
 20
228.383
 21
228.33
  0
LINE
  8
0
 10
509.069
 11
508.857
 20
228.33
 21
228.303
  0
LINE
  8
0
 10
508.857
 11
508.643
 20
228.303
 21
228.303
  0
LINE
  8
0
 10
508.643
 11
508.431
 20
228.303
 21
228.33
  0
LINE
  8
0
 10
508.431
 11
508.225
 20
228.33
 21
228.383
  0
LINE
  8
0
 10
508.225
 11
508.026
 20
228.383
 21
228.462
  0
LINE
  8
0
 10
508.026
 11
507.839
 20
228.462
 21
228.565
  0
LINE
  8
0
 10
507.839
 11
507.666
 20
228.565
 21
228.69
  0
LINE
  8
0
 10
507.666
 11
507.511
 20
228.69
 21
228.836
  0
LINE
  8
0
 10
507.511
 11
507.375
 20
228.836
 21
229.001
  0
LINE
  8
0
 10
507.375
 11
507.26
 20
229.001
 21
229.181
  0
LINE
  8
0
 10
507.26
 11
507.169
 20
229.181
 21
229.374
  0
LINE
  8
0
 10
507.169
 11
507.103
 20
229.374
 21
229.577
  0
LINE
  8
0
 10
507.103
 11
507.063
 20
229.577
 21
229.787
  0
LINE
  8
0
 10
507.063
 11
507.05
 20
229.787
 21
230
  0
LINE
  8
0
 10
510.75
 11
510.75
 20
201.5
 21
228.5
  0
LINE
  8
0
 10
510.75
 11
582.75
 20
228.5
 21
228.5
  0
LINE
  8
0
 10
582.75
 11
582.75
 20
228.5
 21
201.5
  0
LINE
  8
0
 10
582.75
 11
510.75
 20
201.5
 21
201.5
  0
LINE
  8
0
 10
516.25
 11
516.266
 20
269.75
 21
270.001
  0
LINE
  8
0
 10
516.266
 11
516.313
 20
270.001
 21
270.247
  0
LINE
  8
0
 10
516.313
 11
516.39
 20
270.247
 21
270.486
  0
LINE
  8
0
 10
516.39
 11
516.497
 20
270.486
 21
270.714
  0
LINE
  8
0
 10
516.497
 11
516.632
 20
270.714
 21
270.926
  0
LINE
  8
0
 10
516.632
 11
516.792
 20
270.926
 21
271.119
  0
LINE
  8
0
 10
516.792
 11
516.975
 20
271.119
 21
271.291
  0
LINE
  8
0
 10
516.975
 11
517.178
 20
271.291
 21
271.439
  0
LINE
  8
0
 10
517.178
 11
517.398
 20
271.439
 21
271.56
  0
LINE
  8
0
 10
517.398
 11
517.632
 20
271.56
 21
271.652
  0
LINE
  8
0
 10
517.632
 11
517.875
 20
271.652
 21
271.715
  0
LINE
  8
0
 10
517.875
 11
518.124
 20
271.715
 21
271.746
  0
LINE
  8
0
 10
518.124
 11
518.376
 20
271.746
 21
271.746
  0
LINE
  8
0
 10
518.376
 11
518.625
 20
271.746
 21
271.715
  0
LINE
  8
0
 10
518.625
 11
518.868
 20
271.715
 21
271.652
  0
LINE
  8
0
 10
518.868
 11
519.102
 20
271.652
 21
271.56
  0
LINE
  8
0
 10
519.102
 11
519.322
 20
271.56
 21
271.439
  0
LINE
  8
0
 10
519.322
 11
519.525
 20
271.439
 21
271.291
  0
LINE
  8
0
 10
519.525
 11
519.708
 20
271.291
 21
271.119
  0
LINE
  8
0
 10
519.708
 11
519.868
 20
271.119
 21
270.926
  0
LINE
  8
0
 10
519.868
 11
520.003
 20
270.926
 21
270.714
  0
LINE
  8
0
 10
520.003
 11
520.11
 20
270.714
 21
270.486
  0
LINE
  8
0
 10
520.11
 11
520.187
 20
270.486
 21
270.247
  0
LINE
  8
0
 10
520.187
 11
520.234
 20
270.247
 21
270.001
  0
LINE
  8
0
 10
520.234
 11
520.25
 20
270.001
 21
269.75
  0
LINE
  8
0
 10
520.25
 11
520.234
 20
269.75
 21
269.499
  0
LINE
  8
0
 10
520.234
 11
520.187
 20
269.499
 21
269.253
  0
LINE
  8
0
 10
520.187
 11
520.11
 20
269.253
 21
269.014
  0
LINE
  8
0
 10
520.11
 11
520.003
 20
269.014
 21
268.786
  0
LINE
  8
0
 10
520.003
 11
519.868
 20
268.786
 21
268.574
  0
LINE
  8
0
 10
519.868
 11
519.708
 20
268.574
 21
268.381
  0
LINE
  8
0
 10
519.708
 11
519.525
 20
268.381
 21
268.209
  0
LINE
  8
0
 10
519.525
 11
519.322
 20
268.209
 21
268.061
  0
LINE
  8
0
 10
519.322
 11
519.102
 20
268.061
 21
267.94
  0
LINE
  8
0
 10
519.102
 11
518.868
 20
267.94
 21
267.848
  0
LINE
  8
0
 10
518.868
 11
518.625
 20
267.848
 21
267.785
  0
LINE
  8
0
 10
518.625
 11
518.376
 20
267.785
 21
267.754
  0
LINE
  8
0
 10
518.376
 11
518.124
 20
267.754
 21
267.754
  0
LINE
  8
0
 10
518.124
 11
517.875
 20
267.754
 21
267.785
  0
LINE
  8
0
 10
517.875
 11
517.632
 20
267.785
 21
267.848
  0
LINE
  8
0
 10
517.632
 11
517.398
 20
267.848
 21
267.94
  0
LINE
  8
0
 10
517.398
 11
517.178
 20
267.94
 21
268.061
  0
LINE
  8
0
 10
517.178
 11
516.975
 20
268.061
 21
268.209
  0
LINE
  8
0
 10
516.975
 11
516.792
 20
268.209
 21
268.381
  0
LINE
  8
0
 10
516.792
 11
516.632
 20
268.381
 21
268.574
  0
LINE
  8
0
 10
516.632
 11
516.497
 20
268.574
 21
268.786
  0
LINE
  8
0
 10
516.497
 11
516.39
 20
268.786
 21
269.014
  0
LINE
  8
0
 10
516.39
 11
516.313
 20
269.014
 21
269.253
  0
LINE
  8
0
 10
516.313
 11
516.266
 20
269.253
 21
269.499
  0
LINE
  8
0
 10
516.266
 11
516.25
 20
269.499
 21
269.75
  0
LINE
  8
0
 10
548
 11
548.071
 20
134.25
 21
135.378
  0
LINE
  8
0
 10
548.071
 11
548.283
 20
135.378
 21
136.488
  0
LINE
  8
0
 10
548.283
 11
548.632
 20
136.488
 21
137.563
  0
LINE
  8
0
 10
548.632
 11
549.113
 20
137.563
 21
138.586
  0
LINE
  8
0
 10
549.113
 11
549.719
 20
138.586
 21
139.54
  0
LINE
  8
0
 10
549.719
 11
550.439
 20
139.54
 21
140.411
  0
LINE
  8
0
 10
550.439
 11
551.263
 20
140.411
 21
141.185
  0
LINE
  8
0
 10
551.263
 11
552.178
 20
141.185
 21
141.849
  0
LINE
  8
0
 10
552.178
 11
553.168
 20
141.849
 21
142.393
  0
LINE
  8
0
 10
553.168
 11
554.219
 20
142.393
 21
142.81
  0
LINE
  8
0
 10
554.219
 11
555.314
 20
142.81
 21
143.091
  0
LINE
  8
0
 10
555.314
 11
556.435
 20
143.091
 21
143.232
  0
LINE
  8
0
 10
556.435
 11
557.565
 20
143.232
 21
143.232
  0
LINE
  8
0
 10
557.565
 11
558.686
 20
143.232
 21
143.091
  0
LINE
  8
0
 10
558.686
 11
559.781
 20
143.091
 21
142.81
  0
LINE
  8
0
 10
559.781
 11
560.832
 20
142.81
 21
142.393
  0
LINE
  8
0
 10
560.832
 11
561.822
 20
142.393
 21
141.849
  0
LINE
  8
0
 10
561.822
 11
562.737
 20
141.849
 21
141.185
  0
LINE
  8
0
 10
562.737
 11
563.561
 20
141.185
 21
140.411
  0
LINE
  8
0
 10
563.561
 11
564.281
 20
140.411
 21
139.54
  0
LINE
  8
0
 10
564.281
 11
564.887
 20
139.54
 21
138.586
  0
LINE
  8
0
 10
564.887
 11
565.368
 20
138.586
 21
137.563
  0
LINE
  8
0
 10
565.368
 11
565.717
 20
137.563
 21
136.488
  0
LINE
  8
0
 10
565.717
 11
565.929
 20
136.488
 21
135.378
  0
LINE
  8
0
 10
565.929
 11
566
 20
135.378
 21
134.25
  0
LINE
  8
0
 10
566
 11
565.929
 20
134.25
 21
133.122
  0
LINE
  8
0
 10
565.929
 11
565.717
 20
133.122
 21
132.012
  0
LINE
  8
0
 10
565.717
 11
565.368
 20
132.012
 21
130.937
  0
LINE
  8
0
 10
565.368
 11
564.887
 20
130.937
 21
129.914
  0
LINE
  8
0
 10
564.887
 11
564.281
 20
129.914
 21
128.96
  0
LINE
  8
0
 10
564.281
 11
563.561
 20
128.96
 21
128.089
  0
LINE
  8
0
 10
563.561
 11
562.737
 20
128.089
 21
127.315
  0
LINE
  8
0
 10
562.737
 11
561.822
 20
127.315
 21
126.651
  0
LINE
  8
0
 10
561.822
 11
560.832
 20
126.651
 21
126.107
  0
LINE
  8
0
 10
560.832
 11
559.781
 20
126.107
 21
125.69
  0
LINE
  8
0
 10
559.781
 11
558.686
 20
125.69
 21
125.409
  0
LINE
  8
0
 10
558.686
 11
557.565
 20
125.409
 21
125.268
  0
LINE
  8
0
 10
557.565
 11
556.435
 20
125.268
 21
125.268
  0
LINE
  8
0
 10
556.435
 11
555.314
 20
125.268
 21
125.409
  0
LINE
  8
0
 10
555.314
 11
554.219
 20
125.409
 21
125.69
  0
LINE
  8
0
 10
554.219
 11
553.168
 20
125.69
 21
126.107
  0
LINE
  8
0
 10
553.168
 11
552.178
 20
126.107
 21
126.651
  0
LINE
  8
0
 10
552.178
 11
551.263
 20
126.651
 21
127.315
  0
LINE
  8
0
 10
551.263
 11
550.439
 20
127.315
 21
128.089
  0
LINE
  8
0
 10
550.439
 11
549.719
 20
128.089
 21
128.96
  0
LINE
  8
0
 10
549.719
 11
549.113
 20
128.96
 21
129.914
  0
LINE
  8
0
 10
549.113
 11
548.632
 20
129.914
 21
130.937
  0
LINE
  8
0
 10
548.632
 11
548.283
 20
130.937
 21
132.012
  0
LINE
  8
0
 10
548.283
 11
548.071
 20
132.012
 21
133.122
  0
LINE
  8
0
 10
548.071
 11
548
 20
133.122
 21
134.25
  0
LINE
  8
0
 10
582.05
 11
582.063
 20
200
 21
200.213
  0
LINE
  8
0
 10
582.063
 11
582.103
 20
200.213
 21
200.423
  0
LINE
  8
0
 10
582.103
 11
582.169
 20
200.423
 21
200.626
  0
LINE
  8
0
 10
582.169
 11
582.26
 20
200.626
 21
200.819
  0
LINE
  8
0
 10
582.26
 11
582.375
 20
200.819
 21
200.999
  0
LINE
  8
0
 10
582.375
 11
582.511
 20
200.999
 21
201.164
  0
LINE
  8
0
 10
582.511
 11
582.666
 20
201.164
 21
201.31
  0
LINE
  8
0
 10
582.666
 11
582.839
 20
201.31
 21
201.435
  0
LINE
  8
0
 10
582.839
 11
583.026
 20
201.435
 21
201.538
  0
LINE
  8
0
 10
583.026
 11
583.225
 20
201.538
 21
201.617
  0
LINE
  8
0
 10
583.225
 11
583.431
 20
201.617
 21
201.67
  0
LINE
  8
0
 10
583.431
 11
583.643
 20
201.67
 21
201.697
  0
LINE
  8
0
 10
583.643
 11
583.857
 20
201.697
 21
201.697
  0
LINE
  8
0
 10
583.857
 11
584.069
 20
201.697
 21
201.67
  0
LINE
  8
0
 10
584.069
 11
584.275
 20
201.67
 21
201.617
  0
LINE
  8
0
 10
584.275
 11
584.474
 20
201.617
 21
201.538
  0
LINE
  8
0
 10
584.474
 11
584.661
 20
201.538
 21
201.435
  0
LINE
  8
0
 10
584.661
 11
584.834
 20
201.435
 21
201.31
  0
LINE
  8
0
 10
584.834
 11
584.989
 20
201.31
 21
201.164
  0
LINE
  8
0
 10
584.989
 11
585.125
 20
201.164
 21
200.999
  0
LINE
  8
0
 10
585.125
 11
585.24
 20
200.999
 21
200.819
  0
LINE
  8
0
 10
585.24
 11
585.331
 20
200.819
 21
200.626
  0
LINE
  8
0
 10
585.331
 11
585.397
 20
200.626
 21
200.423
  0
LINE
  8
0
 10
585.397
 11
585.437
 20
200.423
 21
200.213
  0
LINE
  8
0
 10
585.437
 11
585.45
 20
200.213
 21
200
  0
LINE
  8
0
 10
585.45
 11
585.437
 20
200
 21
199.787
  0
LINE
  8
0
 10
585.437
 11
585.397
 20
199.787
 21
199.577
  0
LINE
  8
0
 10
585.397
 11
585.331
 20
199.577
 21
199.374
  0
LINE
  8
0
 10
585.331
 11
585.24
 20
199.374
 21
199.181
  0
LINE
  8
0
 10
585.24
 11
585.125
 20
199.181
 21
199.001
  0
LINE
  8
0
 10
585.125
 11
584.989
 20
199.001
 21
198.836
  0
LINE
  8
0
 10
584.989
 11
584.834
 20
198.836
 21
198.69
  0
LINE
  8
0
 10
584.834
 11
584.661
 20
198.69
 21
198.565
  0
LINE
  8
0
 10
584.661
 11
584.474
 20
198.565
 21
198.462
  0
LINE
  8
0
 10
584.474
 11
584.275
 20
198.462
 21
198.383
  0
LINE
  8
0
 10
584.275
 11
584.069
 20
198.383
 21
198.33
  0
LINE
  8
0
 10
584.069
 11
583.857
 20
198.33
 21
198.303
  0
LINE
  8
0
 10
583.857
 11
583.643
 20
198.303
 21
198.303
  0
LINE
  8
0
 10
583.643
 11
583.431
 20
198.303
 21
198.33
  0
LINE
  8
0
 10
583.431
 11
583.225
 20
198.33
 21
198.383
  0
LINE
  8
0
 10
583.225
 11
583.026
 20
198.383
 21
198.462
  0
LINE
  8
0
 10
583.026
 11
582.839
 20
198.462
 21
198.565
  0
LINE
  8
0
 10
582.839
 11
582.666
 20
198.565
 21
198.69
  0
LINE
  8
0
 10
582.666
 11
582.511
 20
198.69
 21
198.836
  0
LINE
  8
0
 10
582.511
 11
582.375
 20
198.836
 21
199.001
  0
LINE
  8
0
 10
582.375
 11
582.26
 20
199.001
 21
199.181
  0
LINE
  8
0
 10
582.26
 11
582.169
 20
199.181
 21
199.374
  0
LINE
  8
0
 10
582.169
 11
582.103
 20
199.374
 21
199.577
  0
LINE
  8
0
 10
582.103
 11
582.063
 20
199.577
 21
199.787
  0
LINE
  8
0
 10
582.063
 11
582.05
 20
199.787
 21
200
  0
LINE
  8
0
 10
582.05
 11
582.063
 20
230
 21
230.213
  0
LINE
  8
0
 10
582.063
 11
582.103
 20
230.213
 21
230.423
  0
LINE
  8
0
 10
582.103
 11
582.169
 20
230.423
 21
230.626
  0
LINE
  8
0
 10
582.169
 11
582.26
 20
230.626
 21
230.819
  0
LINE
  8
0
 10
582.26
 11
582.375
 20
230.819
 21
230.999
  0
LINE
  8
0
 10
582.375
 11
582.511
 20
230.999
 21
231.164
  0
LINE
  8
0
 10
582.511
 11
582.666
 20
231.164
 21
231.31
  0
LINE
  8
0
 10
582.666
 11
582.839
 20
231.31
 21
231.435
  0
LINE
  8
0
 10
582.839
 11
583.026
 20
231.435
 21
231.538
  0
LINE
  8
0
 10
583.026
 11
583.225
 20
231.538
 21
231.617
  0
LINE
  8
0
 10
583.225
 11
583.431
 20
231.617
 21
231.67
  0
LINE
  8
0
 10
583.431
 11
583.643
 20
231.67
 21
231.697
  0
LINE
  8
0
 10
583.643
 11
583.857
 20
231.697
 21
231.697
  0
LINE
  8
0
 10
583.857
 11
584.069
 20
231.697
 21
231.67
  0
LINE
  8
0
 10
584.069
 11
584.275
 20
231.67
 21
231.617
  0
LINE
  8
0
 10
584.275
 11
584.474
 20
231.617
 21
231.538
  0
LINE
  8
0
 10
584.474
 11
584.661
 20
231.538
 21
231.435
  0
LINE
  8
0
 10
584.661
 11
584.834
 20
231.435
 21
231.31
  0
LINE
  8
0
 10
584.834
 11
584.989
 20
231.31
 21
231.164
  0
LINE
  8
0
 10
584.989
 11
585.125
 20
231.164
 21
230.999
  0
LINE
  8
0
 10
585.125
 11
585.24
 20
230.999
 21
230.819
  0
LINE
  8
0
 10
585.24
 11
585.331
 20
230.819
 21
230.626
  0
LINE
  8
0
 10
585.331
 11
585.397
 20
230.626
 21
230.423
  0
LINE
  8
0
 10
585.397
 11
585.437
 20
230.423
 21
230.213
  0
LINE
  8
0
 10
585.437
 11
585.45
 20
230.213
 21
230
  0
LINE
  8
0
 10
585.45
 11
585.437
 20
230
 21
229.787
  0
LINE
  8
0
 10
585.437
 11
585.397
 20
229.787
 21
229.577
  0
LINE
  8
0
 10
585.397
 11
585.331
 20
229.577
 21
229.374
  0
LINE
  8
0
 10
585.331
 11
585.24
 20
229.374
 21
229.181
  0
LINE
  8
0
 10
585.24
 11
585.125
 20
229.181
 21
229.001
  0
LINE
  8
0
 10
585.125
 11
584.989
 20
229.001
 21
228.836
  0
LINE
  8
0
 10
584.989
 11
584.834
 20
228.836
 21
228.69
  0
LINE
  8
0
 10
584.834
 11
584.661
 20
228.69
 21
228.565
  0
LINE
  8
0
 10
584.661
 11
584.474
 20
228.565
 21
228.462
  0
LINE
  8
0
 10
584.474
 11
584.275
 20
228.462
 21
228.383
  0
LINE
  8
0
 10
584.275
 11
584.069
 20
228.383
 21
228.33
  0
LINE
  8
0
 10
584.069
 11
583.857
 20
228.33
 21
228.303
  0
LINE
  8
0
 10
583.857
 11
583.643
 20
228.303
 21
228.303
  0
LINE
  8
0
 10
583.643
 11
583.431
 20
228.303
 21
228.33
  0
LINE
  8
0
 10
583.431
 11
583.225
 20
228.33
 21
228.383
  0
LINE
  8
0
 10
583.225
 11
583.026
 20
228.383
 21
228.462
  0
LINE
  8
0
 10
583.026
 11
582.839
 20
228.462
 21
228.565
  0
LINE
  8
0
 10
582.839
 11
582.666
 20
228.565
 21
228.69
  0
LINE
  8
0
 10
582.666
 11
582.511
 20
228.69
 21
228.836
  0
LINE
  8
0
 10
582.511
 11
582.375
 20
228.836
 21
229.001
  0
LINE
  8
0
 10
582.375
 11
582.26
 20
229.001
 21
229.181
  0
LINE
  8
0
 10
582.26
 11
582.169
 20
229.181
 21
229.374
  0
LINE
  8
0
 10
582.169
 11
582.103
 20
229.374
 21
229.577
  0
LINE
  8
0
 10
582.103
 11
582.063
 20
229.577
 21
229.787
  0
LINE
  8
0
 10
582.063
 11
582.05
 20
229.787
 21
230
  0
LINE
  8
0
 10
598
 11
598.016
 20
124.25
 21
124.501
  0
LINE
  8
0
 10
598.016
 11
598.063
 20
124.501
 21
124.747
  0
LINE
  8
0
 10
598.063
 11
598.14
 20
124.747
 21
124.986
  0
LINE
  8
0
 10
598.14
 11
598.247
 20
124.986
 21
125.214
  0
LINE
  8
0
 10
598.247
 11
598.382
 20
125.214
 21
125.426
  0
LINE
  8
0
 10
598.382
 11
598.542
 20
125.426
 21
125.619
  0
LINE
  8
0
 10
598.542
 11
598.725
 20
125.619
 21
125.791
  0
LINE
  8
0
 10
598.725
 11
598.928
 20
125.791
 21
125.939
  0
LINE
  8
0
 10
598.928
 11
599.148
 20
125.939
 21
126.06
  0
LINE
  8
0
 10
599.148
 11
599.382
 20
126.06
 21
126.152
  0
LINE
  8
0
 10
599.382
 11
599.625
 20
126.152
 21
126.215
  0
LINE
  8
0
 10
599.625
 11
599.874
 20
126.215
 21
126.246
  0
LINE
  8
0
 10
599.874
 11
600.126
 20
126.246
 21
126.246
  0
LINE
  8
0
 10
600.126
 11
600.375
 20
126.246
 21
126.215
  0
LINE
  8
0
 10
600.375
 11
600.618
 20
126.215
 21
126.152
  0
LINE
  8
0
 10
600.618
 11
600.852
 20
126.152
 21
126.06
  0
LINE
  8
0
 10
600.852
 11
601.072
 20
126.06
 21
125.939
  0
LINE
  8
0
 10
601.072
 11
601.275
 20
125.939
 21
125.791
  0
LINE
  8
0
 10
601.275
 11
601.458
 20
125.791
 21
125.619
  0
LINE
  8
0
 10
601.458
 11
601.618
 20
125.619
 21
125.426
  0
LINE
  8
0
 10
601.618
 11
601.753
 20
125.426
 21
125.214
  0
LINE
  8
0
 10
601.753
 11
601.86
 20
125.214
 21
124.986
  0
LINE
  8
0
 10
601.86
 11
601.937
 20
124.986
 21
124.747
  0
LINE
  8
0
 10
601.937
 11
601.984
 20
124.747
 21
124.501
  0
LINE
  8
0
 10
601.984
 11
602
 20
124.501
 21
124.25
  0
LINE
  8
0
 10
602
 11
601.984
 20
124.25
 21
123.999
  0
LINE
  8
0
 10
601.984
 11
601.937
 20
123.999
 21
123.753
  0
LINE
  8
0
 10
601.937
 11
601.86
 20
123.753
 21
123.514
  0
LINE
  8
0
 10
601.86
 11
601.753
 20
123.514
 21
123.286
  0
LINE
  8
0
 10
601.753
 11
601.618
 20
123.286
 21
123.074
  0
LINE
  8
0
 10
601.618
 11
601.458
 20
123.074
 21
122.881
  0
LINE
  8
0
 10
601.458
 11
601.275
 20
122.881
 21
122.709
  0
LINE
  8
0
 10
601.275
 11
601.072
 20
122.709
 21
122.561
  0
LINE
  8
0
 10
601.072
 11
600.852
 20
122.561
 21
122.44
  0
LINE
  8
0
 10
600.852
 11
600.618
 20
122.44
 21
122.348
  0
LINE
  8
0
 10
600.618
 11
600.375
 20
122.348
 21
122.285
  0
LINE
  8
0
 10
600.375
 11
600.126
 20
122.285
 21
122.254
  0
LINE
  8
0
 10
600.126
 11
599.874
 20
122.254
 21
122.254
  0
LINE
  8
0
 10
599.874
 11
599.625
 20
122.254
 21
122.285
  0
LINE
  8
0
 10
599.625
 11
599.382
 20
122.285
 21
122.348
  0
LINE
  8
0
 10
599.382
 11
599.148
 20
122.348
 21
122.44
  0
LINE
  8
0
 10
599.148
 11
598.928
 20
122.44
 21
122.561
  0
LINE
  8
0
 10
598.928
 11
598.725
 20
122.561
 21
122.709
  0
LINE
  8
0
 10
598.725
 11
598.542
 20
122.709
 21
122.881
  0
LINE
  8
0
 10
598.542
 11
598.382
 20
122.881
 21
123.074
  0
LINE
  8
0
 10
598.382
 11
598.247
 20
123.074
 21
123.286
  0
LINE
  8
0
 10
598.247
 11
598.14
 20
123.286
 21
123.514
  0
LINE
  8
0
 10
598.14
 11
598.063
 20
123.514
 21
123.753
  0
LINE
  8
0
 10
598.063
 11
598.016
 20
123.753
 21
123.999
  0
LINE
  8
0
 10
598.016
 11
598
 20
123.999
 21
124.25
  0
LINE
  8
0
 10
600
 11
600
 20
-110
 21
-5
  0
LINE
  8
0
 10
600
 11
786
 20
-5
 21
-5
  0
LINE
  8
0
 10
786
 11
786
 20
-5
 21
-110
  0
LINE
  8
0
 10
786
 11
600
 20
-110
 21
-110
  0
LINE
  8
0
 10
600
 11
600
 20
0
 21
105
  0
LINE
  8
0
 10
600
 11
848
 20
105
 21
105
  0
LINE
  8
0
 10
848
 11
848
 20
105
 21
0
  0
LINE
  8
0
 10
848
 11
600
 20
0
 21
0
  0
LINE
  8
0
 10
606
 11
606.032
 20
146
 21
146.501
  0
LINE
  8
0
 10
606.032
 11
606.126
 20
146.501
 21
146.995
  0
LINE
  8
0
 10
606.126
 11
606.281
 20
146.995
 21
147.472
  0
LINE
  8
0
 10
606.281
 11
606.495
 20
147.472
 21
147.927
  0
LINE
  8
0
 10
606.495
 11
606.764
 20
147.927
 21
148.351
  0
LINE
  8
0
 10
606.764
 11
607.084
 20
148.351
 21
148.738
  0
LINE
  8
0
 10
607.084
 11
607.45
 20
148.738
 21
149.082
  0
LINE
  8
0
 10
607.45
 11
607.857
 20
149.082
 21
149.377
  0
LINE
  8
0
 10
607.857
 11
608.297
 20
149.377
 21
149.619
  0
LINE
  8
0
 10
608.297
 11
608.764
 20
149.619
 21
149.804
  0
LINE
  8
0
 10
608.764
 11
609.25
 20
149.804
 21
149.929
  0
LINE
  8
0
 10
609.25
 11
609.749
 20
149.929
 21
149.992
  0
LINE
  8
0
 10
609.749
 11
610.251
 20
149.992
 21
149.992
  0
LINE
  8
0
 10
610.251
 11
610.75
 20
149.992
 21
149.929
  0
LINE
  8
0
 10
610.75
 11
611.236
 20
149.929
 21
149.804
  0
LINE
  8
0
 10
611.236
 11
611.703
 20
149.804
 21
149.619
  0
LINE
  8
0
 10
611.703
 11
612.143
 20
149.619
 21
149.377
  0
LINE
  8
0
 10
612.143
 11
612.55
 20
149.377
 21
149.082
  0
LINE
  8
0
 10
612.55
 11
612.916
 20
149.082
 21
148.738
  0
LINE
  8
0
 10
612.916
 11
613.236
 20
148.738
 21
148.351
  0
LINE
  8
0
 10
613.236
 11
613.505
 20
148.351
 21
147.927
  0
LINE
  8
0
 10
613.505
 11
613.719
 20
147.927
 21
147.472
  0
LINE
  8
0
 10
613.719
 11
613.874
 20
147.472
 21
146.995
  0
LINE
  8
0
 10
613.874
 11
613.968
 20
146.995
 21
146.501
  0
LINE
  8
0
 10
613.968
 11
614
 20
146.501
 21
146
  0
LINE
  8
0
 10
614
 11
613.968
 20
146
 21
145.499
  0
LINE
  8
0
 10
613.968
 11
613.874
 20
145.499
 21
145.005
  0
LINE
  8
0
 10
613.874
 11
613.719
 20
145.005
 21
144.528
  0
LINE
  8
0
 10
613.719
 11
613.505
 20
144.528
 21
144.073
  0
LINE
  8
0
 10
613.505
 11
613.236
 20
144.073
 21
143.649
  0
LINE
  8
0
 10
613.236
 11
612.916
 20
143.649
 21
143.262
  0
LINE
  8
0
 10
612.916
 11
612.55
 20
143.262
 21
142.918
  0
LINE
  8
0
 10
612.55
 11
612.143
 20
142.918
 21
142.623
  0
LINE
  8
0
 10
612.143
 11
611.703
 20
142.623
 21
142.381
  0
LINE
  8
0
 10
611.703
 11
611.236
 20
142.381
 21
142.196
  0
LINE
  8
0
 10
611.236
 11
610.75
 20
142.196
 21
142.071
  0
LINE
  8
0
 10
610.75
 11
610.251
 20
142.071
 21
142.008
  0
LINE
  8
0
 10
610.251
 11
609.749
 20
142.008
 21
142.008
  0
LINE
  8
0
 10
609.749
 11
609.25
 20
142.008
 21
142.071
  0
LINE
  8
0
 10
609.25
 11
608.764
 20
142.071
 21
142.196
  0
LINE
  8
0
 10
608.764
 11
608.297
 20
142.196
 21
142.381
  0
LINE
  8
0
 10
608.297
 11
607.857
 20
142.381
 21
142.623
  0
LINE
  8
0
 10
607.857
 11
607.45
 20
142.623
 21
142.918
  0
LINE
  8
0
 10
607.45
 11
607.084
 20
142.918
 21
143.262
  0
LINE
  8
0
 10
607.084
 11
606.764
 20
143.262
 21
143.649
  0
LINE
  8
0
 10
606.764
 11
606.495
 20
143.649
 21
144.073
  0
LINE
  8
0
 10
606.495
 11
606.281
 20
144.073
 21
144.528
  0
LINE
  8
0
 10
606.281
 11
606.126
 20
144.528
 21
145.005
  0
LINE
  8
0
 10
606.126
 11
606.032
 20
145.005
 21
145.499
  0
LINE
  8
0
 10
606.032
 11
606
 20
145.499
 21
146
  0
LINE
  8
0
 10
608.3
 11
608.313
 20
135
 21
135.213
  0
LINE
  8
0
 10
608.313
 11
608.353
 20
135.213
 21
135.423
  0
LINE
  8
0
 10
608.353
 11
608.419
 20
135.423
 21
135.626
  0
LINE
  8
0
 10
608.419
 11
608.51
 20
135.626
 21
135.819
  0
LINE
  8
0
 10
608.51
 11
608.625
 20
135.819
 21
135.999
  0
LINE
  8
0
 10
608.625
 11
608.761
 20
135.999
 21
136.164
  0
LINE
  8
0
 10
608.761
 11
608.916
 20
136.164
 21
136.31
  0
LINE
  8
0
 10
608.916
 11
609.089
 20
136.31
 21
136.435
  0
LINE
  8
0
 10
609.089
 11
609.276
 20
136.435
 21
136.538
  0
LINE
  8
0
 10
609.276
 11
609.475
 20
136.538
 21
136.617
  0
LINE
  8
0
 10
609.475
 11
609.681
 20
136.617
 21
136.67
  0
LINE
  8
0
 10
609.681
 11
609.893
 20
136.67
 21
136.697
  0
LINE
  8
0
 10
609.893
 11
610.107
 20
136.697
 21
136.697
  0
LINE
  8
0
 10
610.107
 11
610.319
 20
136.697
 21
136.67
  0
LINE
  8
0
 10
610.319
 11
610.525
 20
136.67
 21
136.617
  0
LINE
  8
0
 10
610.525
 11
610.724
 20
136.617
 21
136.538
  0
LINE
  8
0
 10
610.724
 11
610.911
 20
136.538
 21
136.435
  0
LINE
  8
0
 10
610.911
 11
611.084
 20
136.435
 21
136.31
  0
LINE
  8
0
 10
611.084
 11
611.239
 20
136.31
 21
136.164
  0
LINE
  8
0
 10
611.239
 11
611.375
 20
136.164
 21
135.999
  0
LINE
  8
0
 10
611.375
 11
611.49
 20
135.999
 21
135.819
  0
LINE
  8
0
 10
611.49
 11
611.581
 20
135.819
 21
135.626
  0
LINE
  8
0
 10
611.581
 11
611.647
 20
135.626
 21
135.423
  0
LINE
  8
0
 10
611.647
 11
611.687
 20
135.423
 21
135.213
  0
LINE
  8
0
 10
611.687
 11
611.7
 20
135.213
 21
135
  0
LINE
  8
0
 10
611.7
 11
611.687
 20
135
 21
134.787
  0
LINE
  8
0
 10
611.687
 11
611.647
 20
134.787
 21
134.577
  0
LINE
  8
0
 10
611.647
 11
611.581
 20
134.577
 21
134.374
  0
LINE
  8
0
 10
611.581
 11
611.49
 20
134.374
 21
134.181
  0
LINE
  8
0
 10
611.49
 11
611.375
 20
134.181
 21
134.001
  0
LINE
  8
0
 10
611.375
 11
611.239
 20
134.001
 21
133.836
  0
LINE
  8
0
 10
611.239
 11
611.084
 20
133.836
 21
133.69
  0
LINE
  8
0
 10
611.084
 11
610.911
 20
133.69
 21
133.565
  0
LINE
  8
0
 10
610.911
 11
610.724
 20
133.565
 21
133.462
  0
LINE
  8
0
 10
610.724
 11
610.525
 20
133.462
 21
133.383
  0
LINE
  8
0
 10
610.525
 11
610.319
 20
133.383
 21
133.33
  0
LINE
  8
0
 10
610.319
 11
610.107
 20
133.33
 21
133.303
  0
LINE
  8
0
 10
610.107
 11
609.893
 20
133.303
 21
133.303
  0
LINE
  8
0
 10
609.893
 11
609.681
 20
133.303
 21
133.33
  0
LINE
  8
0
 10
609.681
 11
609.475
 20
133.33
 21
133.383
  0
LINE
  8
0
 10
609.475
 11
609.276
 20
133.383
 21
133.462
  0
LINE
  8
0
 10
609.276
 11
609.089
 20
133.462
 21
133.565
  0
LINE
  8
0
 10
609.089
 11
608.916
 20
133.565
 21
133.69
  0
LINE
  8
0
 10
608.916
 11
608.761
 20
133.69
 21
133.836
  0
LINE
  8
0
 10
608.761
 11
608.625
 20
133.836
 21
134.001
  0
LINE
  8
0
 10
608.625
 11
608.51
 20
134.001
 21
134.181
  0
LINE
  8
0
 10
608.51
 11
608.419
 20
134.181
 21
134.374
  0
LINE
  8
0
 10
608.419
 11
608.353
 20
134.374
 21
134.577
  0
LINE
  8
0
 10
608.353
 11
608.313
 20
134.577
 21
134.787
  0
LINE
  8
0
 10
608.313
 11
608.3
 20
134.787
 21
135
  0
LINE
  8
0
 10
608.3
 11
608.313
 20
161.5
 21
161.713
  0
LINE
  8
0
 10
608.313
 11
608.353
 20
161.713
 21
161.923
  0
LINE
  8
0
 10
608.353
 11
608.419
 20
161.923
 21
162.126
  0
LINE
  8
0
 10
608.419
 11
608.51
 20
162.126
 21
162.319
  0
LINE
  8
0
 10
608.51
 11
608.625
 20
162.319
 21
162.499
  0
LINE
  8
0
 10
608.625
 11
608.761
 20
162.499
 21
162.664
  0
LINE
  8
0
 10
608.761
 11
608.916
 20
162.664
 21
162.81
  0
LINE
  8
0
 10
608.916
 11
609.089
 20
162.81
 21
162.935
  0
LINE
  8
0
 10
609.089
 11
609.276
 20
162.935
 21
163.038
  0
LINE
  8
0
 10
609.276
 11
609.475
 20
163.038
 21
163.117
  0
LINE
  8
0
 10
609.475
 11
609.681
 20
163.117
 21
163.17
  0
LINE
  8
0
 10
609.681
 11
609.893
 20
163.17
 21
163.197
  0
LINE
  8
0
 10
609.893
 11
610.107
 20
163.197
 21
163.197
  0
LINE
  8
0
 10
610.107
 11
610.319
 20
163.197
 21
163.17
  0
LINE
  8
0
 10
610.319
 11
610.525
 20
163.17
 21
163.117
  0
LINE
  8
0
 10
610.525
 11
610.724
 20
163.117
 21
163.038
  0
LINE
  8
0
 10
610.724
 11
610.911
 20
163.038
 21
162.935
  0
LINE
  8
0
 10
610.911
 11
611.084
 20
162.935
 21
162.81
  0
LINE
  8
0
 10
611.084
 11
611.239
 20
162.81
 21
162.664
  0
LINE
  8
0
 10
611.239
 11
611.375
 20
162.664
 21
162.499
  0
LINE
  8
0
 10
611.375
 11
611.49
 20
162.499
 21
162.319
  0
LINE
  8
0
 10
611.49
 11
611.581
 20
162.319
 21
162.126
  0
LINE
  8
0
 10
611.581
 11
611.647
 20
162.126
 21
161.923
  0
LINE
  8
0
 10
611.647
 11
611.687
 20
161.923
 21
161.713
  0
LINE
  8
0
 10
611.687
 11
611.7
 20
161.713
 21
161.5
  0
LINE
  8
0
 10
611.7
 11
611.687
 20
161.5
 21
161.287
  0
LINE
  8
0
 10
611.687
 11
611.647
 20
161.287
 21
161.077
  0
LINE
  8
0
 10
611.647
 11
611.581
 20
161.077
 21
160.874
  0
LINE
  8
0
 10
611.581
 11
611.49
 20
160.874
 21
160.681
  0
LINE
  8
0
 10
611.49
 11
611.375
 20
160.681
 21
160.501
  0
LINE
  8
0
 10
611.375
 11
611.239
 20
160.501
 21
160.336
  0
LINE
  8
0
 10
611.239
 11
611.084
 20
160.336
 21
160.19
  0
LINE
  8
0
 10
611.084
 11
610.911
 20
160.19
 21
160.065
  0
LINE
  8
0
 10
610.911
 11
610.724
 20
160.065
 21
159.962
  0
LINE
  8
0
 10
610.724
 11
610.525
 20
159.962
 21
159.883
  0
LINE
  8
0
 10
610.525
 11
610.319
 20
159.883
 21
159.83
  0
LINE
  8
0
 10
610.319
 11
610.107
 20
159.83
 21
159.803
  0
LINE
  8
0
 10
610.107
 11
609.893
 20
159.803
 21
159.803
  0
LINE
  8
0
 10
609.893
 11
609.681
 20
159.803
 21
159.83
  0
LINE
  8
0
 10
609.681
 11
609.475
 20
159.83
 21
159.883
  0
LINE
  8
0
 10
609.475
 11
609.276
 20
159.883
 21
159.962
  0
LINE
  8
0
 10
609.276
 11
609.089
 20
159.962
 21
160.065
  0
LINE
  8
0
 10
609.089
 11
608.916
 20
160.065
 21
160.19
  0
LINE
  8
0
 10
608.916
 11
608.761
 20
160.19
 21
160.336
  0
LINE
  8
0
 10
608.761
 11
608.625
 20
160.336
 21
160.501
  0
LINE
  8
0
 10
608.625
 11
608.51
 20
160.501
 21
160.681
  0
LINE
  8
0
 10
608.51
 11
608.419
 20
160.681
 21
160.874
  0
LINE
  8
0
 10
608.419
 11
608.353
 20
160.874
 21
161.077
  0
LINE
  8
0
 10
608.353
 11
608.313
 20
161.077
 21
161.287
  0
LINE
  8
0
 10
608.313
 11
608.3
 20
161.287
 21
161.5
  0
LINE
  8
0
 10
650
 11
650
 20
277
 21
282
  0
LINE
  8
0
 10
650
 11
1000
 20
282
 21
282
  0
LINE
  8
0
 10
1000
 11
1000
 20
282
 21
277
  0
LINE
  8
0
 10
1000
 11
918
 20
277
 21
112
  0
LINE
  8
0
 10
918
 11
834
 20
112
 21
112
  0
LINE
  8
0
 10
834
 11
650
 20
112
 21
277
  0
LINE
  8
0
 10
688.5
 11
688.5
 20
120.5
 21
133.5
  0
LINE
  8
0
 10
688.5
 11
701.5
 20
133.5
 21
133.5
  0
LINE
  8
0
 10
701.5
 11
701.5
 20
133.5
 21
120.5
  0
LINE
  8
0
 10
701.5
 11
688.5
 20
120.5
 21
120.5
  0
LINE
  8
0
 10
840.3
 11
840.625
 20
119
 21
119.999
  0
LINE
  8
0
 10
840.625
 11
841.475
 20
119.999
 21
120.617
  0
LINE
  8
0
 10
841.475
 11
842.525
 20
120.617
 21
120.617
  0
LINE
  8
0
 10
842.525
 11
843.375
 20
120.617
 21
119.999
  0
LINE
  8
0
 10
843.375
 11
843.7
 20
119.999
 21
119
  0
LINE
  8
0
 10
843.7
 11
843.375
 20
119
 21
118.001
  0
LINE
  8
0
 10
843.375
 11
842.525
 20
118.001
 21
117.383
  0
LINE
  8
0
 10
842.525
 11
841.475
 20
117.383
 21
117.383
  0
LINE
  8
0
 10
841.475
 11
840.625
 20
117.383
 21
118.001
  0
LINE
  8
0
 10
840.625
 11
840.3
 20
118.001
 21
119
  0
LINE
  8
0
 10
869.5
 11
869.543
 20
129
 21
129.689
  0
LINE
  8
0
 10
869.543
 11
869.673
 20
129.689
 21
130.368
  0
LINE
  8
0
 10
869.673
 11
869.886
 20
130.368
 21
131.025
  0
LINE
  8
0
 10
869.886
 11
870.18
 20
131.025
 21
131.65
  0
LINE
  8
0
 10
870.18
 11
870.55
 20
131.65
 21
132.233
  0
LINE
  8
0
 10
870.55
 11
870.991
 20
132.233
 21
132.765
  0
LINE
  8
0
 10
870.991
 11
871.494
 20
132.765
 21
133.238
  0
LINE
  8
0
 10
871.494
 11
872.053
 20
133.238
 21
133.644
  0
LINE
  8
0
 10
872.053
 11
872.658
 20
133.644
 21
133.977
  0
LINE
  8
0
 10
872.658
 11
873.3
 20
133.977
 21
134.231
  0
LINE
  8
0
 10
873.3
 11
873.969
 20
134.231
 21
134.403
  0
LINE
  8
0
 10
873.969
 11
874.655
 20
134.403
 21
134.489
  0
LINE
  8
0
 10
874.655
 11
875.345
 20
134.489
 21
134.489
  0
LINE
  8
0
 10
875.345
 11
876.031
 20
134.489
 21
134.403
  0
LINE
  8
0
 10
876.031
 11
876.7
 20
134.403
 21
134.231
  0
LINE
  8
0
 10
876.7
 11
877.342
 20
134.231
 21
133.977
  0
LINE
  8
0
 10
877.342
 11
877.947
 20
133.977
 21
133.644
  0
LINE
  8
0
 10
877.947
 11
878.506
 20
133.644
 21
133.238
  0
LINE
  8
0
 10
878.506
 11
879.009
 20
133.238
 21
132.765
  0
LINE
  8
0
 10
879.009
 11
879.45
 20
132.765
 21
132.233
  0
LINE
  8
0
 10
879.45
 11
879.82
 20
132.233
 21
131.65
  0
LINE
  8
0
 10
879.82
 11
880.114
 20
131.65
 21
131.025
  0
LINE
  8
0
 10
880.114
 11
880.327
 20
131.025
 21
130.368
  0
LINE
  8
0
 10
880.327
 11
880.457
 20
130.368
 21
129.689
  0
LINE
  8
0
 10
880.457
 11
880.5
 20
129.689
 21
129
  0
LINE
  8
0
 10
880.5
 11
880.457
 20
129
 21
128.311
  0
LINE
  8
0
 10
880.457
 11
880.327
 20
128.311
 21
127.632
  0
LINE
  8
0
 10
880.327
 11
880.114
 20
127.632
 21
126.975
  0
LINE
  8
0
 10
880.114
 11
879.82
 20
126.975
 21
126.35
  0
LINE
  8
0
 10
879.82
 11
879.45
 20
126.35
 21
125.767
  0
LINE
  8
0
 10
879.45
 11
879.009
 20
125.767
 21
125.235
  0
LINE
  8
0
 10
879.009
 11
878.506
 20
125.235
 21
124.762
  0
LINE
  8
0
 10
878.506
 11
877.947
 20
124.762
 21
124.356
  0
LINE
  8
0
 10
877.947
 11
877.342
 20
124.356
 21
124.023
  0
LINE
  8
0
 10
877.342
 11
876.7
 20
124.023
 21
123.769
  0
LINE
  8
0
 10
876.7
 11
876.031
 20
123.769
 21
123.597
  0
LINE
  8
0
 10
876.031
 11
875.345
 20
123.597
 21
123.511
  0
LINE
  8
0
 10
875.345
 11
874.655
 20
123.511
 21
123.511
  0
LINE
  8
0
 10
874.655
 11
873.969
 20
123.511
 21
123.597
  0
LINE
  8
0
 10
873.969
 11
873.3
 20
123.597
 21
123.769
  0
LINE
  8
0
 10
873.3
 11
872.658
 20
123.769
 21
124.023
  0
LINE
  8
0
 10
872.658
 11
872.053
 20
124.023
 21
124.356
  0
LINE
  8
0
 10
872.053
 11
871.494
 20
124.356
 21
124.762
  0
LINE
  8
0
 10
871.494
 11
870.991
 20
124.762
 21
125.235
  0
LINE
  8
0
 10
870.991
 11
870.55
 20
125.235
 21
125.767
  0
LINE
  8
0
 10
870.55
 11
870.18
 20
125.767
 21
126.35
  0
LINE
  8
0
 10
870.18
 11
869.886
 20
126.35
 21
126.975
  0
LINE
  8
0
 10
869.886
 11
869.673
 20
126.975
 21
127.632
  0
LINE
  8
0
 10
869.673
 11
869.543
 20
127.632
 21
128.311
  0
LINE
  8
0
 10
869.543
 11
869.5
 20
128.311
 21
129
  0
LINE
  8
0
 10
906.3
 11
906.625
 20
119
 21
119.999
  0
LINE
  8
0
 10
906.625
 11
907.475
 20
119.999
 21
120.617
  0
LINE
  8
0
 10
907.475
 11
908.525
 20
120.617
 21
120.617
  0
LINE
  8
0
 10
908.525
 11
909.375
 20
120.617
 21
119.999
  0
LINE
  8
0
 10
909.375
 11
909.7
 20
119.999
 21
119
  0
LINE
  8
0
 10
909.7
 11
909.375
 20
119
 21
118.001
  0
LINE
  8
0
 10
909.375
 11
908.525
 20
118.001
 21
117.383
  0
LINE
  8
0
 10
908.525
 11
907.475
 20
117.383
 21
117.383
  0
LINE
  8
0
 10
907.475
 11
906.625
 20
117.383
 21
118.001
  0
LINE
  8
0
 10
906.625
 11
906.3
 20
118.001
 21
119
  0
ENDSEC
  0
SECTION
  2
OBJECTS
  0
DICTIONARY
  0
ENDSEC
  0
EOF
